M48
; DRILL file {KiCad 7.0.1} date Mon Jan 22 18:36:30 2024
; FORMAT={-:-/ absolute / metric / decimal}
; #@! TF.CreationDate,2024-01-22T18:36:30+01:00
; #@! TF.GenerationSoftware,Kicad,Pcbnew,7.0.1
; #@! TF.FileFunction,Plated,1,2,PTH
FMAT,2
METRIC
; #@! TA.AperFunction,Plated,PTH,ComponentDrill
T1C0.762
; #@! TA.AperFunction,Plated,PTH,ComponentDrill
T2C0.800
; #@! TA.AperFunction,Plated,PTH,ComponentDrill
T3C1.000
; #@! TA.AperFunction,Plated,PTH,ComponentDrill
T4C1.020
; #@! TA.AperFunction,Plated,PTH,ComponentDrill
T5C1.100
%
G90
G05
T1
X139.6Y-118.71
X142.14Y-118.71
X144.68Y-118.71
X147.22Y-118.71
X149.76Y-118.71
X152.3Y-118.71
T2
X118.25Y-113.02
X118.25Y-115.56
X118.25Y-118.1
X118.25Y-120.64
X118.25Y-123.18
X118.25Y-125.72
X118.25Y-128.26
X118.25Y-130.8
X118.36Y-62.77
X118.36Y-65.31
X118.36Y-67.85
X118.36Y-70.39
X118.36Y-72.93
X118.36Y-75.47
X118.36Y-78.01
X118.36Y-80.55
X118.36Y-87.77
X118.36Y-90.31
X118.36Y-92.85
X118.36Y-95.39
X118.36Y-97.93
X118.36Y-100.47
X118.36Y-103.01
X118.36Y-105.55
X130.95Y-113.02
X130.95Y-115.56
X130.95Y-118.1
X130.95Y-120.64
X130.95Y-123.18
X130.95Y-125.72
X130.95Y-128.26
X130.95Y-130.8
X131.06Y-62.77
X131.06Y-65.31
X131.06Y-67.85
X131.06Y-70.39
X131.06Y-72.93
X131.06Y-75.47
X131.06Y-78.01
X131.06Y-80.55
X131.06Y-87.77
X131.06Y-90.31
X131.06Y-92.85
X131.06Y-95.39
X131.06Y-97.93
X131.06Y-100.47
X131.06Y-103.01
X131.06Y-105.55
T3
X105.45Y-115.62
X105.45Y-118.16
X105.45Y-120.7
X105.45Y-123.24
X105.45Y-125.78
X110.45Y-65.33
X110.45Y-67.87
X110.45Y-70.41
X110.45Y-72.95
X110.45Y-75.49
X110.7Y-90.33
X110.7Y-92.87
X110.7Y-95.41
X110.7Y-97.95
X110.7Y-100.49
X112.2Y-115.62
X112.2Y-118.16
X112.2Y-120.7
X112.2Y-123.24
X112.2Y-125.78
X120.16Y-54.91
X122.7Y-54.91
X139.225Y-69.835
X139.225Y-72.375
X139.225Y-74.915
X139.225Y-77.455
X139.225Y-79.995
X139.225Y-82.535
X150.61Y-54.91
X153.15Y-54.91
X155.69Y-54.91
X175.45Y-82.66
X175.45Y-105.41
X175.45Y-107.95
X175.45Y-110.49
T4
X148.585Y-62.25
X148.585Y-64.79
X148.585Y-67.33
X148.585Y-69.87
X148.585Y-72.41
X148.585Y-74.95
X148.585Y-77.49
X148.585Y-80.03
X148.585Y-82.57
X148.585Y-85.11
X148.585Y-87.65
X148.585Y-90.19
X148.585Y-92.73
X148.585Y-95.27
X148.585Y-97.81
X148.585Y-100.35
X148.585Y-102.89
X148.585Y-105.43
X148.585Y-107.97
X148.585Y-110.51
X154.935Y-110.28
X157.475Y-110.28
X160.015Y-110.28
X166.365Y-62.25
X166.365Y-64.79
X166.365Y-67.33
X166.365Y-69.87
X166.365Y-72.41
X166.365Y-74.95
X166.365Y-77.49
X166.365Y-80.03
X166.365Y-82.57
X166.365Y-85.11
X166.365Y-87.65
X166.365Y-90.19
X166.365Y-92.73
X166.365Y-95.27
X166.365Y-97.81
X166.365Y-100.35
X166.365Y-102.89
X166.365Y-105.43
X166.365Y-107.97
X166.365Y-110.51
T5
X133.95Y-54.66
X136.49Y-54.66
X139.03Y-54.66
T0
M30
