%TF.GenerationSoftware,KiCad,Pcbnew,7.0.9*%
%TF.CreationDate,2023-12-03T20:45:46+01:00*%
%TF.ProjectId,Automatic_sampler_logic,4175746f-6d61-4746-9963-5f73616d706c,rev?*%
%TF.SameCoordinates,Original*%
%TF.FileFunction,Legend,Top*%
%TF.FilePolarity,Positive*%
%FSLAX46Y46*%
G04 Gerber Fmt 4.6, Leading zero omitted, Abs format (unit mm)*
G04 Created by KiCad (PCBNEW 7.0.9) date 2023-12-03 20:45:46*
%MOMM*%
%LPD*%
G01*
G04 APERTURE LIST*
%ADD10C,0.150000*%
%ADD11C,0.120000*%
G04 APERTURE END LIST*
D10*
X135728095Y-49844819D02*
X135728095Y-50654342D01*
X135728095Y-50654342D02*
X135775714Y-50749580D01*
X135775714Y-50749580D02*
X135823333Y-50797200D01*
X135823333Y-50797200D02*
X135918571Y-50844819D01*
X135918571Y-50844819D02*
X136109047Y-50844819D01*
X136109047Y-50844819D02*
X136204285Y-50797200D01*
X136204285Y-50797200D02*
X136251904Y-50749580D01*
X136251904Y-50749580D02*
X136299523Y-50654342D01*
X136299523Y-50654342D02*
X136299523Y-49844819D01*
X137251904Y-49844819D02*
X136775714Y-49844819D01*
X136775714Y-49844819D02*
X136728095Y-50321009D01*
X136728095Y-50321009D02*
X136775714Y-50273390D01*
X136775714Y-50273390D02*
X136870952Y-50225771D01*
X136870952Y-50225771D02*
X137109047Y-50225771D01*
X137109047Y-50225771D02*
X137204285Y-50273390D01*
X137204285Y-50273390D02*
X137251904Y-50321009D01*
X137251904Y-50321009D02*
X137299523Y-50416247D01*
X137299523Y-50416247D02*
X137299523Y-50654342D01*
X137299523Y-50654342D02*
X137251904Y-50749580D01*
X137251904Y-50749580D02*
X137204285Y-50797200D01*
X137204285Y-50797200D02*
X137109047Y-50844819D01*
X137109047Y-50844819D02*
X136870952Y-50844819D01*
X136870952Y-50844819D02*
X136775714Y-50797200D01*
X136775714Y-50797200D02*
X136728095Y-50749580D01*
X123885714Y-110649104D02*
X124361904Y-110649104D01*
X123790476Y-110934819D02*
X124123809Y-109934819D01*
X124123809Y-109934819D02*
X124457142Y-110934819D01*
X124742857Y-110030057D02*
X124790476Y-109982438D01*
X124790476Y-109982438D02*
X124885714Y-109934819D01*
X124885714Y-109934819D02*
X125123809Y-109934819D01*
X125123809Y-109934819D02*
X125219047Y-109982438D01*
X125219047Y-109982438D02*
X125266666Y-110030057D01*
X125266666Y-110030057D02*
X125314285Y-110125295D01*
X125314285Y-110125295D02*
X125314285Y-110220533D01*
X125314285Y-110220533D02*
X125266666Y-110363390D01*
X125266666Y-110363390D02*
X124695238Y-110934819D01*
X124695238Y-110934819D02*
X125314285Y-110934819D01*
X138891666Y-66519819D02*
X138891666Y-67234104D01*
X138891666Y-67234104D02*
X138844047Y-67376961D01*
X138844047Y-67376961D02*
X138748809Y-67472200D01*
X138748809Y-67472200D02*
X138605952Y-67519819D01*
X138605952Y-67519819D02*
X138510714Y-67519819D01*
X139796428Y-66519819D02*
X139605952Y-66519819D01*
X139605952Y-66519819D02*
X139510714Y-66567438D01*
X139510714Y-66567438D02*
X139463095Y-66615057D01*
X139463095Y-66615057D02*
X139367857Y-66757914D01*
X139367857Y-66757914D02*
X139320238Y-66948390D01*
X139320238Y-66948390D02*
X139320238Y-67329342D01*
X139320238Y-67329342D02*
X139367857Y-67424580D01*
X139367857Y-67424580D02*
X139415476Y-67472200D01*
X139415476Y-67472200D02*
X139510714Y-67519819D01*
X139510714Y-67519819D02*
X139701190Y-67519819D01*
X139701190Y-67519819D02*
X139796428Y-67472200D01*
X139796428Y-67472200D02*
X139844047Y-67424580D01*
X139844047Y-67424580D02*
X139891666Y-67329342D01*
X139891666Y-67329342D02*
X139891666Y-67091247D01*
X139891666Y-67091247D02*
X139844047Y-66996009D01*
X139844047Y-66996009D02*
X139796428Y-66948390D01*
X139796428Y-66948390D02*
X139701190Y-66900771D01*
X139701190Y-66900771D02*
X139510714Y-66900771D01*
X139510714Y-66900771D02*
X139415476Y-66948390D01*
X139415476Y-66948390D02*
X139367857Y-66996009D01*
X139367857Y-66996009D02*
X139320238Y-67091247D01*
X105116666Y-128004819D02*
X105116666Y-128719104D01*
X105116666Y-128719104D02*
X105069047Y-128861961D01*
X105069047Y-128861961D02*
X104973809Y-128957200D01*
X104973809Y-128957200D02*
X104830952Y-129004819D01*
X104830952Y-129004819D02*
X104735714Y-129004819D01*
X106116666Y-129004819D02*
X105545238Y-129004819D01*
X105830952Y-129004819D02*
X105830952Y-128004819D01*
X105830952Y-128004819D02*
X105735714Y-128147676D01*
X105735714Y-128147676D02*
X105640476Y-128242914D01*
X105640476Y-128242914D02*
X105545238Y-128290533D01*
X124924819Y-55243333D02*
X125639104Y-55243333D01*
X125639104Y-55243333D02*
X125781961Y-55290952D01*
X125781961Y-55290952D02*
X125877200Y-55386190D01*
X125877200Y-55386190D02*
X125924819Y-55529047D01*
X125924819Y-55529047D02*
X125924819Y-55624285D01*
X125258152Y-54338571D02*
X125924819Y-54338571D01*
X124877200Y-54576666D02*
X125591485Y-54814761D01*
X125591485Y-54814761D02*
X125591485Y-54195714D01*
X175116666Y-79344819D02*
X175116666Y-80059104D01*
X175116666Y-80059104D02*
X175069047Y-80201961D01*
X175069047Y-80201961D02*
X174973809Y-80297200D01*
X174973809Y-80297200D02*
X174830952Y-80344819D01*
X174830952Y-80344819D02*
X174735714Y-80344819D01*
X175735714Y-79773390D02*
X175640476Y-79725771D01*
X175640476Y-79725771D02*
X175592857Y-79678152D01*
X175592857Y-79678152D02*
X175545238Y-79582914D01*
X175545238Y-79582914D02*
X175545238Y-79535295D01*
X175545238Y-79535295D02*
X175592857Y-79440057D01*
X175592857Y-79440057D02*
X175640476Y-79392438D01*
X175640476Y-79392438D02*
X175735714Y-79344819D01*
X175735714Y-79344819D02*
X175926190Y-79344819D01*
X175926190Y-79344819D02*
X176021428Y-79392438D01*
X176021428Y-79392438D02*
X176069047Y-79440057D01*
X176069047Y-79440057D02*
X176116666Y-79535295D01*
X176116666Y-79535295D02*
X176116666Y-79582914D01*
X176116666Y-79582914D02*
X176069047Y-79678152D01*
X176069047Y-79678152D02*
X176021428Y-79725771D01*
X176021428Y-79725771D02*
X175926190Y-79773390D01*
X175926190Y-79773390D02*
X175735714Y-79773390D01*
X175735714Y-79773390D02*
X175640476Y-79821009D01*
X175640476Y-79821009D02*
X175592857Y-79868628D01*
X175592857Y-79868628D02*
X175545238Y-79963866D01*
X175545238Y-79963866D02*
X175545238Y-80154342D01*
X175545238Y-80154342D02*
X175592857Y-80249580D01*
X175592857Y-80249580D02*
X175640476Y-80297200D01*
X175640476Y-80297200D02*
X175735714Y-80344819D01*
X175735714Y-80344819D02*
X175926190Y-80344819D01*
X175926190Y-80344819D02*
X176021428Y-80297200D01*
X176021428Y-80297200D02*
X176069047Y-80249580D01*
X176069047Y-80249580D02*
X176116666Y-80154342D01*
X176116666Y-80154342D02*
X176116666Y-79963866D01*
X176116666Y-79963866D02*
X176069047Y-79868628D01*
X176069047Y-79868628D02*
X176021428Y-79821009D01*
X176021428Y-79821009D02*
X175926190Y-79773390D01*
X147294819Y-55243333D02*
X148009104Y-55243333D01*
X148009104Y-55243333D02*
X148151961Y-55290952D01*
X148151961Y-55290952D02*
X148247200Y-55386190D01*
X148247200Y-55386190D02*
X148294819Y-55529047D01*
X148294819Y-55529047D02*
X148294819Y-55624285D01*
X147294819Y-54862380D02*
X147294819Y-54195714D01*
X147294819Y-54195714D02*
X148294819Y-54624285D01*
X156279104Y-120694285D02*
X156279104Y-120218095D01*
X156564819Y-120789523D02*
X155564819Y-120456190D01*
X155564819Y-120456190D02*
X156564819Y-120122857D01*
X156564819Y-119265714D02*
X156564819Y-119837142D01*
X156564819Y-119551428D02*
X155564819Y-119551428D01*
X155564819Y-119551428D02*
X155707676Y-119646666D01*
X155707676Y-119646666D02*
X155802914Y-119741904D01*
X155802914Y-119741904D02*
X155850533Y-119837142D01*
X110366666Y-102714819D02*
X110366666Y-103429104D01*
X110366666Y-103429104D02*
X110319047Y-103571961D01*
X110319047Y-103571961D02*
X110223809Y-103667200D01*
X110223809Y-103667200D02*
X110080952Y-103714819D01*
X110080952Y-103714819D02*
X109985714Y-103714819D01*
X110795238Y-102810057D02*
X110842857Y-102762438D01*
X110842857Y-102762438D02*
X110938095Y-102714819D01*
X110938095Y-102714819D02*
X111176190Y-102714819D01*
X111176190Y-102714819D02*
X111271428Y-102762438D01*
X111271428Y-102762438D02*
X111319047Y-102810057D01*
X111319047Y-102810057D02*
X111366666Y-102905295D01*
X111366666Y-102905295D02*
X111366666Y-103000533D01*
X111366666Y-103000533D02*
X111319047Y-103143390D01*
X111319047Y-103143390D02*
X110747619Y-103714819D01*
X110747619Y-103714819D02*
X111366666Y-103714819D01*
X111866666Y-128004819D02*
X111866666Y-128719104D01*
X111866666Y-128719104D02*
X111819047Y-128861961D01*
X111819047Y-128861961D02*
X111723809Y-128957200D01*
X111723809Y-128957200D02*
X111580952Y-129004819D01*
X111580952Y-129004819D02*
X111485714Y-129004819D01*
X112390476Y-129004819D02*
X112580952Y-129004819D01*
X112580952Y-129004819D02*
X112676190Y-128957200D01*
X112676190Y-128957200D02*
X112723809Y-128909580D01*
X112723809Y-128909580D02*
X112819047Y-128766723D01*
X112819047Y-128766723D02*
X112866666Y-128576247D01*
X112866666Y-128576247D02*
X112866666Y-128195295D01*
X112866666Y-128195295D02*
X112819047Y-128100057D01*
X112819047Y-128100057D02*
X112771428Y-128052438D01*
X112771428Y-128052438D02*
X112676190Y-128004819D01*
X112676190Y-128004819D02*
X112485714Y-128004819D01*
X112485714Y-128004819D02*
X112390476Y-128052438D01*
X112390476Y-128052438D02*
X112342857Y-128100057D01*
X112342857Y-128100057D02*
X112295238Y-128195295D01*
X112295238Y-128195295D02*
X112295238Y-128433390D01*
X112295238Y-128433390D02*
X112342857Y-128528628D01*
X112342857Y-128528628D02*
X112390476Y-128576247D01*
X112390476Y-128576247D02*
X112485714Y-128623866D01*
X112485714Y-128623866D02*
X112676190Y-128623866D01*
X112676190Y-128623866D02*
X112771428Y-128576247D01*
X112771428Y-128576247D02*
X112819047Y-128528628D01*
X112819047Y-128528628D02*
X112866666Y-128433390D01*
X175116666Y-112714819D02*
X175116666Y-113429104D01*
X175116666Y-113429104D02*
X175069047Y-113571961D01*
X175069047Y-113571961D02*
X174973809Y-113667200D01*
X174973809Y-113667200D02*
X174830952Y-113714819D01*
X174830952Y-113714819D02*
X174735714Y-113714819D01*
X176069047Y-112714819D02*
X175592857Y-112714819D01*
X175592857Y-112714819D02*
X175545238Y-113191009D01*
X175545238Y-113191009D02*
X175592857Y-113143390D01*
X175592857Y-113143390D02*
X175688095Y-113095771D01*
X175688095Y-113095771D02*
X175926190Y-113095771D01*
X175926190Y-113095771D02*
X176021428Y-113143390D01*
X176021428Y-113143390D02*
X176069047Y-113191009D01*
X176069047Y-113191009D02*
X176116666Y-113286247D01*
X176116666Y-113286247D02*
X176116666Y-113524342D01*
X176116666Y-113524342D02*
X176069047Y-113619580D01*
X176069047Y-113619580D02*
X176021428Y-113667200D01*
X176021428Y-113667200D02*
X175926190Y-113714819D01*
X175926190Y-113714819D02*
X175688095Y-113714819D01*
X175688095Y-113714819D02*
X175592857Y-113667200D01*
X175592857Y-113667200D02*
X175545238Y-113619580D01*
X156713095Y-85834819D02*
X156713095Y-86644342D01*
X156713095Y-86644342D02*
X156760714Y-86739580D01*
X156760714Y-86739580D02*
X156808333Y-86787200D01*
X156808333Y-86787200D02*
X156903571Y-86834819D01*
X156903571Y-86834819D02*
X157094047Y-86834819D01*
X157094047Y-86834819D02*
X157189285Y-86787200D01*
X157189285Y-86787200D02*
X157236904Y-86739580D01*
X157236904Y-86739580D02*
X157284523Y-86644342D01*
X157284523Y-86644342D02*
X157284523Y-85834819D01*
X158189285Y-86168152D02*
X158189285Y-86834819D01*
X157951190Y-85787200D02*
X157713095Y-86501485D01*
X157713095Y-86501485D02*
X158332142Y-86501485D01*
X143464998Y-110900868D02*
X143384185Y-110927805D01*
X143384185Y-110927805D02*
X143303373Y-111008618D01*
X143303373Y-111008618D02*
X143249498Y-111116367D01*
X143249498Y-111116367D02*
X143249498Y-111224117D01*
X143249498Y-111224117D02*
X143276436Y-111304929D01*
X143276436Y-111304929D02*
X143357248Y-111439616D01*
X143357248Y-111439616D02*
X143438060Y-111520428D01*
X143438060Y-111520428D02*
X143572747Y-111601241D01*
X143572747Y-111601241D02*
X143653560Y-111628178D01*
X143653560Y-111628178D02*
X143761309Y-111628178D01*
X143761309Y-111628178D02*
X143869059Y-111574303D01*
X143869059Y-111574303D02*
X143922934Y-111520428D01*
X143922934Y-111520428D02*
X143976808Y-111412679D01*
X143976808Y-111412679D02*
X143976808Y-111358804D01*
X143976808Y-111358804D02*
X143788247Y-111170242D01*
X143788247Y-111170242D02*
X143680497Y-111277992D01*
X144273120Y-111170242D02*
X143707434Y-110604557D01*
X143707434Y-110604557D02*
X143922934Y-110389057D01*
X143922934Y-110389057D02*
X144003746Y-110362120D01*
X144003746Y-110362120D02*
X144057621Y-110362120D01*
X144057621Y-110362120D02*
X144138433Y-110389057D01*
X144138433Y-110389057D02*
X144219245Y-110469870D01*
X144219245Y-110469870D02*
X144246182Y-110550682D01*
X144246182Y-110550682D02*
X144246182Y-110604557D01*
X144246182Y-110604557D02*
X144219245Y-110685369D01*
X144219245Y-110685369D02*
X144003746Y-110900868D01*
X145135117Y-110308245D02*
X144811868Y-110631494D01*
X144973492Y-110469870D02*
X144407807Y-109904184D01*
X144407807Y-109904184D02*
X144434744Y-110038871D01*
X144434744Y-110038871D02*
X144434744Y-110146621D01*
X144434744Y-110146621D02*
X144407807Y-110227433D01*
X145081242Y-109230749D02*
X144811868Y-109500123D01*
X144811868Y-109500123D02*
X145054305Y-109796434D01*
X145054305Y-109796434D02*
X145054305Y-109742560D01*
X145054305Y-109742560D02*
X145081242Y-109661747D01*
X145081242Y-109661747D02*
X145215929Y-109527060D01*
X145215929Y-109527060D02*
X145296741Y-109500123D01*
X145296741Y-109500123D02*
X145350616Y-109500123D01*
X145350616Y-109500123D02*
X145431428Y-109527060D01*
X145431428Y-109527060D02*
X145566115Y-109661747D01*
X145566115Y-109661747D02*
X145593053Y-109742560D01*
X145593053Y-109742560D02*
X145593053Y-109796434D01*
X145593053Y-109796434D02*
X145566115Y-109877247D01*
X145566115Y-109877247D02*
X145431428Y-110011934D01*
X145431428Y-110011934D02*
X145350616Y-110038871D01*
X145350616Y-110038871D02*
X145296741Y-110038871D01*
X143961435Y-105578431D02*
X143880623Y-105605368D01*
X143880623Y-105605368D02*
X143799811Y-105686180D01*
X143799811Y-105686180D02*
X143745936Y-105793930D01*
X143745936Y-105793930D02*
X143745936Y-105901680D01*
X143745936Y-105901680D02*
X143772873Y-105982492D01*
X143772873Y-105982492D02*
X143853685Y-106117179D01*
X143853685Y-106117179D02*
X143934498Y-106197991D01*
X143934498Y-106197991D02*
X144069185Y-106278803D01*
X144069185Y-106278803D02*
X144149997Y-106305741D01*
X144149997Y-106305741D02*
X144257746Y-106305741D01*
X144257746Y-106305741D02*
X144365496Y-106251866D01*
X144365496Y-106251866D02*
X144419371Y-106197991D01*
X144419371Y-106197991D02*
X144473246Y-106090241D01*
X144473246Y-106090241D02*
X144473246Y-106036367D01*
X144473246Y-106036367D02*
X144284684Y-105847805D01*
X144284684Y-105847805D02*
X144176934Y-105955554D01*
X144769557Y-105847805D02*
X144203872Y-105282119D01*
X144203872Y-105282119D02*
X145092806Y-105524556D01*
X145092806Y-105524556D02*
X144527120Y-104958871D01*
X145362180Y-105255182D02*
X144796494Y-104689497D01*
X144796494Y-104689497D02*
X144931181Y-104554810D01*
X144931181Y-104554810D02*
X145038931Y-104500935D01*
X145038931Y-104500935D02*
X145146680Y-104500935D01*
X145146680Y-104500935D02*
X145227493Y-104527872D01*
X145227493Y-104527872D02*
X145362180Y-104608685D01*
X145362180Y-104608685D02*
X145442992Y-104689497D01*
X145442992Y-104689497D02*
X145523804Y-104824184D01*
X145523804Y-104824184D02*
X145550741Y-104904996D01*
X145550741Y-104904996D02*
X145550741Y-105012746D01*
X145550741Y-105012746D02*
X145496867Y-105120495D01*
X145496867Y-105120495D02*
X145362180Y-105255182D01*
X143988372Y-82691494D02*
X143907560Y-82718431D01*
X143907560Y-82718431D02*
X143826748Y-82799243D01*
X143826748Y-82799243D02*
X143772873Y-82906993D01*
X143772873Y-82906993D02*
X143772873Y-83014742D01*
X143772873Y-83014742D02*
X143799810Y-83095555D01*
X143799810Y-83095555D02*
X143880623Y-83230242D01*
X143880623Y-83230242D02*
X143961435Y-83311054D01*
X143961435Y-83311054D02*
X144096122Y-83391866D01*
X144096122Y-83391866D02*
X144176934Y-83418803D01*
X144176934Y-83418803D02*
X144284684Y-83418803D01*
X144284684Y-83418803D02*
X144392433Y-83364929D01*
X144392433Y-83364929D02*
X144446308Y-83311054D01*
X144446308Y-83311054D02*
X144500183Y-83203304D01*
X144500183Y-83203304D02*
X144500183Y-83149429D01*
X144500183Y-83149429D02*
X144311621Y-82960868D01*
X144311621Y-82960868D02*
X144203871Y-83068617D01*
X144796494Y-82960868D02*
X144230809Y-82395182D01*
X144230809Y-82395182D02*
X144446308Y-82179683D01*
X144446308Y-82179683D02*
X144527120Y-82152746D01*
X144527120Y-82152746D02*
X144580995Y-82152746D01*
X144580995Y-82152746D02*
X144661807Y-82179683D01*
X144661807Y-82179683D02*
X144742619Y-82260495D01*
X144742619Y-82260495D02*
X144769557Y-82341307D01*
X144769557Y-82341307D02*
X144769557Y-82395182D01*
X144769557Y-82395182D02*
X144742619Y-82475994D01*
X144742619Y-82475994D02*
X144527120Y-82691494D01*
X145038931Y-81587060D02*
X144931181Y-81694810D01*
X144931181Y-81694810D02*
X144904244Y-81775622D01*
X144904244Y-81775622D02*
X144904244Y-81829497D01*
X144904244Y-81829497D02*
X144931181Y-81964184D01*
X144931181Y-81964184D02*
X145011993Y-82098871D01*
X145011993Y-82098871D02*
X145227493Y-82314370D01*
X145227493Y-82314370D02*
X145308305Y-82341307D01*
X145308305Y-82341307D02*
X145362180Y-82341307D01*
X145362180Y-82341307D02*
X145442992Y-82314370D01*
X145442992Y-82314370D02*
X145550741Y-82206620D01*
X145550741Y-82206620D02*
X145577679Y-82125808D01*
X145577679Y-82125808D02*
X145577679Y-82071933D01*
X145577679Y-82071933D02*
X145550741Y-81991121D01*
X145550741Y-81991121D02*
X145416054Y-81856434D01*
X145416054Y-81856434D02*
X145335242Y-81829497D01*
X145335242Y-81829497D02*
X145281367Y-81829497D01*
X145281367Y-81829497D02*
X145200555Y-81856434D01*
X145200555Y-81856434D02*
X145092806Y-81964184D01*
X145092806Y-81964184D02*
X145065868Y-82044996D01*
X145065868Y-82044996D02*
X145065868Y-82098871D01*
X145065868Y-82098871D02*
X145092806Y-82179683D01*
X143961435Y-67478431D02*
X143880623Y-67505368D01*
X143880623Y-67505368D02*
X143799811Y-67586180D01*
X143799811Y-67586180D02*
X143745936Y-67693930D01*
X143745936Y-67693930D02*
X143745936Y-67801680D01*
X143745936Y-67801680D02*
X143772873Y-67882492D01*
X143772873Y-67882492D02*
X143853685Y-68017179D01*
X143853685Y-68017179D02*
X143934498Y-68097991D01*
X143934498Y-68097991D02*
X144069185Y-68178803D01*
X144069185Y-68178803D02*
X144149997Y-68205741D01*
X144149997Y-68205741D02*
X144257746Y-68205741D01*
X144257746Y-68205741D02*
X144365496Y-68151866D01*
X144365496Y-68151866D02*
X144419371Y-68097991D01*
X144419371Y-68097991D02*
X144473246Y-67990241D01*
X144473246Y-67990241D02*
X144473246Y-67936367D01*
X144473246Y-67936367D02*
X144284684Y-67747805D01*
X144284684Y-67747805D02*
X144176934Y-67855554D01*
X144769557Y-67747805D02*
X144203872Y-67182119D01*
X144203872Y-67182119D02*
X145092806Y-67424556D01*
X145092806Y-67424556D02*
X144527120Y-66858871D01*
X145362180Y-67155182D02*
X144796494Y-66589497D01*
X144796494Y-66589497D02*
X144931181Y-66454810D01*
X144931181Y-66454810D02*
X145038931Y-66400935D01*
X145038931Y-66400935D02*
X145146680Y-66400935D01*
X145146680Y-66400935D02*
X145227493Y-66427872D01*
X145227493Y-66427872D02*
X145362180Y-66508685D01*
X145362180Y-66508685D02*
X145442992Y-66589497D01*
X145442992Y-66589497D02*
X145523804Y-66724184D01*
X145523804Y-66724184D02*
X145550741Y-66804996D01*
X145550741Y-66804996D02*
X145550741Y-66912746D01*
X145550741Y-66912746D02*
X145496867Y-67020495D01*
X145496867Y-67020495D02*
X145362180Y-67155182D01*
X169561435Y-67478431D02*
X169480623Y-67505368D01*
X169480623Y-67505368D02*
X169399811Y-67586180D01*
X169399811Y-67586180D02*
X169345936Y-67693930D01*
X169345936Y-67693930D02*
X169345936Y-67801680D01*
X169345936Y-67801680D02*
X169372873Y-67882492D01*
X169372873Y-67882492D02*
X169453685Y-68017179D01*
X169453685Y-68017179D02*
X169534498Y-68097991D01*
X169534498Y-68097991D02*
X169669185Y-68178803D01*
X169669185Y-68178803D02*
X169749997Y-68205741D01*
X169749997Y-68205741D02*
X169857746Y-68205741D01*
X169857746Y-68205741D02*
X169965496Y-68151866D01*
X169965496Y-68151866D02*
X170019371Y-68097991D01*
X170019371Y-68097991D02*
X170073246Y-67990241D01*
X170073246Y-67990241D02*
X170073246Y-67936367D01*
X170073246Y-67936367D02*
X169884684Y-67747805D01*
X169884684Y-67747805D02*
X169776934Y-67855554D01*
X170369557Y-67747805D02*
X169803872Y-67182119D01*
X169803872Y-67182119D02*
X170692806Y-67424556D01*
X170692806Y-67424556D02*
X170127120Y-66858871D01*
X170962180Y-67155182D02*
X170396494Y-66589497D01*
X170396494Y-66589497D02*
X170531181Y-66454810D01*
X170531181Y-66454810D02*
X170638931Y-66400935D01*
X170638931Y-66400935D02*
X170746680Y-66400935D01*
X170746680Y-66400935D02*
X170827493Y-66427872D01*
X170827493Y-66427872D02*
X170962180Y-66508685D01*
X170962180Y-66508685D02*
X171042992Y-66589497D01*
X171042992Y-66589497D02*
X171123804Y-66724184D01*
X171123804Y-66724184D02*
X171150741Y-66804996D01*
X171150741Y-66804996D02*
X171150741Y-66912746D01*
X171150741Y-66912746D02*
X171096867Y-67020495D01*
X171096867Y-67020495D02*
X170962180Y-67155182D01*
X169572998Y-108360868D02*
X169492185Y-108387805D01*
X169492185Y-108387805D02*
X169411373Y-108468618D01*
X169411373Y-108468618D02*
X169357498Y-108576367D01*
X169357498Y-108576367D02*
X169357498Y-108684117D01*
X169357498Y-108684117D02*
X169384436Y-108764929D01*
X169384436Y-108764929D02*
X169465248Y-108899616D01*
X169465248Y-108899616D02*
X169546060Y-108980428D01*
X169546060Y-108980428D02*
X169680747Y-109061241D01*
X169680747Y-109061241D02*
X169761560Y-109088178D01*
X169761560Y-109088178D02*
X169869309Y-109088178D01*
X169869309Y-109088178D02*
X169977059Y-109034303D01*
X169977059Y-109034303D02*
X170030934Y-108980428D01*
X170030934Y-108980428D02*
X170084808Y-108872679D01*
X170084808Y-108872679D02*
X170084808Y-108818804D01*
X170084808Y-108818804D02*
X169896247Y-108630242D01*
X169896247Y-108630242D02*
X169788497Y-108737992D01*
X170381120Y-108630242D02*
X169815434Y-108064557D01*
X169815434Y-108064557D02*
X170030934Y-107849057D01*
X170030934Y-107849057D02*
X170111746Y-107822120D01*
X170111746Y-107822120D02*
X170165621Y-107822120D01*
X170165621Y-107822120D02*
X170246433Y-107849057D01*
X170246433Y-107849057D02*
X170327245Y-107929870D01*
X170327245Y-107929870D02*
X170354182Y-108010682D01*
X170354182Y-108010682D02*
X170354182Y-108064557D01*
X170354182Y-108064557D02*
X170327245Y-108145369D01*
X170327245Y-108145369D02*
X170111746Y-108360868D01*
X171243117Y-107768245D02*
X170919868Y-108091494D01*
X171081492Y-107929870D02*
X170515807Y-107364184D01*
X170515807Y-107364184D02*
X170542744Y-107498871D01*
X170542744Y-107498871D02*
X170542744Y-107606621D01*
X170542744Y-107606621D02*
X170515807Y-107687433D01*
X170865993Y-107013998D02*
X171243117Y-106636874D01*
X171243117Y-106636874D02*
X171566366Y-107444996D01*
X143961435Y-80178431D02*
X143880623Y-80205368D01*
X143880623Y-80205368D02*
X143799811Y-80286180D01*
X143799811Y-80286180D02*
X143745936Y-80393930D01*
X143745936Y-80393930D02*
X143745936Y-80501680D01*
X143745936Y-80501680D02*
X143772873Y-80582492D01*
X143772873Y-80582492D02*
X143853685Y-80717179D01*
X143853685Y-80717179D02*
X143934498Y-80797991D01*
X143934498Y-80797991D02*
X144069185Y-80878803D01*
X144069185Y-80878803D02*
X144149997Y-80905741D01*
X144149997Y-80905741D02*
X144257746Y-80905741D01*
X144257746Y-80905741D02*
X144365496Y-80851866D01*
X144365496Y-80851866D02*
X144419371Y-80797991D01*
X144419371Y-80797991D02*
X144473246Y-80690241D01*
X144473246Y-80690241D02*
X144473246Y-80636367D01*
X144473246Y-80636367D02*
X144284684Y-80447805D01*
X144284684Y-80447805D02*
X144176934Y-80555554D01*
X144769557Y-80447805D02*
X144203872Y-79882119D01*
X144203872Y-79882119D02*
X145092806Y-80124556D01*
X145092806Y-80124556D02*
X144527120Y-79558871D01*
X145362180Y-79855182D02*
X144796494Y-79289497D01*
X144796494Y-79289497D02*
X144931181Y-79154810D01*
X144931181Y-79154810D02*
X145038931Y-79100935D01*
X145038931Y-79100935D02*
X145146680Y-79100935D01*
X145146680Y-79100935D02*
X145227493Y-79127872D01*
X145227493Y-79127872D02*
X145362180Y-79208685D01*
X145362180Y-79208685D02*
X145442992Y-79289497D01*
X145442992Y-79289497D02*
X145523804Y-79424184D01*
X145523804Y-79424184D02*
X145550741Y-79504996D01*
X145550741Y-79504996D02*
X145550741Y-79612746D01*
X145550741Y-79612746D02*
X145496867Y-79720495D01*
X145496867Y-79720495D02*
X145362180Y-79855182D01*
X143988372Y-62371494D02*
X143907560Y-62398431D01*
X143907560Y-62398431D02*
X143826748Y-62479243D01*
X143826748Y-62479243D02*
X143772873Y-62586993D01*
X143772873Y-62586993D02*
X143772873Y-62694742D01*
X143772873Y-62694742D02*
X143799810Y-62775555D01*
X143799810Y-62775555D02*
X143880623Y-62910242D01*
X143880623Y-62910242D02*
X143961435Y-62991054D01*
X143961435Y-62991054D02*
X144096122Y-63071866D01*
X144096122Y-63071866D02*
X144176934Y-63098803D01*
X144176934Y-63098803D02*
X144284684Y-63098803D01*
X144284684Y-63098803D02*
X144392433Y-63044929D01*
X144392433Y-63044929D02*
X144446308Y-62991054D01*
X144446308Y-62991054D02*
X144500183Y-62883304D01*
X144500183Y-62883304D02*
X144500183Y-62829429D01*
X144500183Y-62829429D02*
X144311621Y-62640868D01*
X144311621Y-62640868D02*
X144203871Y-62748617D01*
X144796494Y-62640868D02*
X144230809Y-62075182D01*
X144230809Y-62075182D02*
X144446308Y-61859683D01*
X144446308Y-61859683D02*
X144527120Y-61832746D01*
X144527120Y-61832746D02*
X144580995Y-61832746D01*
X144580995Y-61832746D02*
X144661807Y-61859683D01*
X144661807Y-61859683D02*
X144742619Y-61940495D01*
X144742619Y-61940495D02*
X144769557Y-62021307D01*
X144769557Y-62021307D02*
X144769557Y-62075182D01*
X144769557Y-62075182D02*
X144742619Y-62155994D01*
X144742619Y-62155994D02*
X144527120Y-62371494D01*
X144904244Y-61401747D02*
X144958119Y-61347872D01*
X144958119Y-61347872D02*
X145038931Y-61320935D01*
X145038931Y-61320935D02*
X145092806Y-61320935D01*
X145092806Y-61320935D02*
X145173618Y-61347872D01*
X145173618Y-61347872D02*
X145308305Y-61428685D01*
X145308305Y-61428685D02*
X145442992Y-61563372D01*
X145442992Y-61563372D02*
X145523804Y-61698059D01*
X145523804Y-61698059D02*
X145550741Y-61778871D01*
X145550741Y-61778871D02*
X145550741Y-61832746D01*
X145550741Y-61832746D02*
X145523804Y-61913558D01*
X145523804Y-61913558D02*
X145469929Y-61967433D01*
X145469929Y-61967433D02*
X145389117Y-61994370D01*
X145389117Y-61994370D02*
X145335242Y-61994370D01*
X145335242Y-61994370D02*
X145254430Y-61967433D01*
X145254430Y-61967433D02*
X145119743Y-61886620D01*
X145119743Y-61886620D02*
X144985056Y-61751933D01*
X144985056Y-61751933D02*
X144904244Y-61617246D01*
X144904244Y-61617246D02*
X144877306Y-61536434D01*
X144877306Y-61536434D02*
X144877306Y-61482559D01*
X144877306Y-61482559D02*
X144904244Y-61401747D01*
X169365123Y-72870868D02*
X169715309Y-72520682D01*
X169715309Y-72520682D02*
X169742247Y-72924743D01*
X169742247Y-72924743D02*
X169823059Y-72843931D01*
X169823059Y-72843931D02*
X169903871Y-72816993D01*
X169903871Y-72816993D02*
X169957746Y-72816993D01*
X169957746Y-72816993D02*
X170038558Y-72843931D01*
X170038558Y-72843931D02*
X170173245Y-72978618D01*
X170173245Y-72978618D02*
X170200182Y-73059430D01*
X170200182Y-73059430D02*
X170200182Y-73113305D01*
X170200182Y-73113305D02*
X170173245Y-73194117D01*
X170173245Y-73194117D02*
X170011621Y-73355741D01*
X170011621Y-73355741D02*
X169930808Y-73382679D01*
X169930808Y-73382679D02*
X169876934Y-73382679D01*
X169876934Y-72359057D02*
X170631181Y-72736181D01*
X170631181Y-72736181D02*
X170254057Y-71981934D01*
X170388744Y-71847247D02*
X170738930Y-71497061D01*
X170738930Y-71497061D02*
X170765868Y-71901122D01*
X170765868Y-71901122D02*
X170846680Y-71820309D01*
X170846680Y-71820309D02*
X170927492Y-71793372D01*
X170927492Y-71793372D02*
X170981367Y-71793372D01*
X170981367Y-71793372D02*
X171062179Y-71820309D01*
X171062179Y-71820309D02*
X171196866Y-71954996D01*
X171196866Y-71954996D02*
X171223804Y-72035809D01*
X171223804Y-72035809D02*
X171223804Y-72089683D01*
X171223804Y-72089683D02*
X171196866Y-72170496D01*
X171196866Y-72170496D02*
X171035242Y-72332120D01*
X171035242Y-72332120D02*
X170954430Y-72359057D01*
X170954430Y-72359057D02*
X170900555Y-72359057D01*
X143888372Y-64901494D02*
X143807560Y-64928431D01*
X143807560Y-64928431D02*
X143726748Y-65009243D01*
X143726748Y-65009243D02*
X143672873Y-65116993D01*
X143672873Y-65116993D02*
X143672873Y-65224742D01*
X143672873Y-65224742D02*
X143699810Y-65305555D01*
X143699810Y-65305555D02*
X143780623Y-65440242D01*
X143780623Y-65440242D02*
X143861435Y-65521054D01*
X143861435Y-65521054D02*
X143996122Y-65601866D01*
X143996122Y-65601866D02*
X144076934Y-65628803D01*
X144076934Y-65628803D02*
X144184684Y-65628803D01*
X144184684Y-65628803D02*
X144292433Y-65574929D01*
X144292433Y-65574929D02*
X144346308Y-65521054D01*
X144346308Y-65521054D02*
X144400183Y-65413304D01*
X144400183Y-65413304D02*
X144400183Y-65359429D01*
X144400183Y-65359429D02*
X144211621Y-65170868D01*
X144211621Y-65170868D02*
X144103871Y-65278617D01*
X144696494Y-65170868D02*
X144130809Y-64605182D01*
X144130809Y-64605182D02*
X144346308Y-64389683D01*
X144346308Y-64389683D02*
X144427120Y-64362746D01*
X144427120Y-64362746D02*
X144480995Y-64362746D01*
X144480995Y-64362746D02*
X144561807Y-64389683D01*
X144561807Y-64389683D02*
X144642619Y-64470495D01*
X144642619Y-64470495D02*
X144669557Y-64551307D01*
X144669557Y-64551307D02*
X144669557Y-64605182D01*
X144669557Y-64605182D02*
X144642619Y-64685994D01*
X144642619Y-64685994D02*
X144427120Y-64901494D01*
X145558491Y-64308871D02*
X145235242Y-64632120D01*
X145396867Y-64470495D02*
X144831181Y-63904810D01*
X144831181Y-63904810D02*
X144858119Y-64039497D01*
X144858119Y-64039497D02*
X144858119Y-64147246D01*
X144858119Y-64147246D02*
X144831181Y-64228059D01*
X169572998Y-77626868D02*
X169492185Y-77653805D01*
X169492185Y-77653805D02*
X169411373Y-77734618D01*
X169411373Y-77734618D02*
X169357498Y-77842367D01*
X169357498Y-77842367D02*
X169357498Y-77950117D01*
X169357498Y-77950117D02*
X169384436Y-78030929D01*
X169384436Y-78030929D02*
X169465248Y-78165616D01*
X169465248Y-78165616D02*
X169546060Y-78246428D01*
X169546060Y-78246428D02*
X169680747Y-78327241D01*
X169680747Y-78327241D02*
X169761560Y-78354178D01*
X169761560Y-78354178D02*
X169869309Y-78354178D01*
X169869309Y-78354178D02*
X169977059Y-78300303D01*
X169977059Y-78300303D02*
X170030934Y-78246428D01*
X170030934Y-78246428D02*
X170084808Y-78138679D01*
X170084808Y-78138679D02*
X170084808Y-78084804D01*
X170084808Y-78084804D02*
X169896247Y-77896242D01*
X169896247Y-77896242D02*
X169788497Y-78003992D01*
X170381120Y-77896242D02*
X169815434Y-77330557D01*
X169815434Y-77330557D02*
X170030934Y-77115057D01*
X170030934Y-77115057D02*
X170111746Y-77088120D01*
X170111746Y-77088120D02*
X170165621Y-77088120D01*
X170165621Y-77088120D02*
X170246433Y-77115057D01*
X170246433Y-77115057D02*
X170327245Y-77195870D01*
X170327245Y-77195870D02*
X170354182Y-77276682D01*
X170354182Y-77276682D02*
X170354182Y-77330557D01*
X170354182Y-77330557D02*
X170327245Y-77411369D01*
X170327245Y-77411369D02*
X170111746Y-77626868D01*
X170408057Y-76845683D02*
X170408057Y-76791809D01*
X170408057Y-76791809D02*
X170434995Y-76710996D01*
X170434995Y-76710996D02*
X170569682Y-76576309D01*
X170569682Y-76576309D02*
X170650494Y-76549372D01*
X170650494Y-76549372D02*
X170704369Y-76549372D01*
X170704369Y-76549372D02*
X170785181Y-76576309D01*
X170785181Y-76576309D02*
X170839056Y-76630184D01*
X170839056Y-76630184D02*
X170892930Y-76737934D01*
X170892930Y-76737934D02*
X170892930Y-77384431D01*
X170892930Y-77384431D02*
X171243117Y-77034245D01*
X171243117Y-76387747D02*
X171162305Y-76414685D01*
X171162305Y-76414685D02*
X171108430Y-76414685D01*
X171108430Y-76414685D02*
X171027618Y-76387747D01*
X171027618Y-76387747D02*
X171000680Y-76360810D01*
X171000680Y-76360810D02*
X170973743Y-76279998D01*
X170973743Y-76279998D02*
X170973743Y-76226123D01*
X170973743Y-76226123D02*
X171000680Y-76145311D01*
X171000680Y-76145311D02*
X171108430Y-76037561D01*
X171108430Y-76037561D02*
X171189242Y-76010624D01*
X171189242Y-76010624D02*
X171243117Y-76010624D01*
X171243117Y-76010624D02*
X171323929Y-76037561D01*
X171323929Y-76037561D02*
X171350866Y-76064499D01*
X171350866Y-76064499D02*
X171377804Y-76145311D01*
X171377804Y-76145311D02*
X171377804Y-76199186D01*
X171377804Y-76199186D02*
X171350866Y-76279998D01*
X171350866Y-76279998D02*
X171243117Y-76387747D01*
X171243117Y-76387747D02*
X171216179Y-76468560D01*
X171216179Y-76468560D02*
X171216179Y-76522434D01*
X171216179Y-76522434D02*
X171243117Y-76603247D01*
X171243117Y-76603247D02*
X171350866Y-76710996D01*
X171350866Y-76710996D02*
X171431679Y-76737934D01*
X171431679Y-76737934D02*
X171485553Y-76737934D01*
X171485553Y-76737934D02*
X171566366Y-76710996D01*
X171566366Y-76710996D02*
X171674115Y-76603247D01*
X171674115Y-76603247D02*
X171701053Y-76522434D01*
X171701053Y-76522434D02*
X171701053Y-76468560D01*
X171701053Y-76468560D02*
X171674115Y-76387747D01*
X171674115Y-76387747D02*
X171566366Y-76279998D01*
X171566366Y-76279998D02*
X171485553Y-76253060D01*
X171485553Y-76253060D02*
X171431679Y-76253060D01*
X171431679Y-76253060D02*
X171350866Y-76279998D01*
X169572998Y-85500868D02*
X169492185Y-85527805D01*
X169492185Y-85527805D02*
X169411373Y-85608618D01*
X169411373Y-85608618D02*
X169357498Y-85716367D01*
X169357498Y-85716367D02*
X169357498Y-85824117D01*
X169357498Y-85824117D02*
X169384436Y-85904929D01*
X169384436Y-85904929D02*
X169465248Y-86039616D01*
X169465248Y-86039616D02*
X169546060Y-86120428D01*
X169546060Y-86120428D02*
X169680747Y-86201241D01*
X169680747Y-86201241D02*
X169761560Y-86228178D01*
X169761560Y-86228178D02*
X169869309Y-86228178D01*
X169869309Y-86228178D02*
X169977059Y-86174303D01*
X169977059Y-86174303D02*
X170030934Y-86120428D01*
X170030934Y-86120428D02*
X170084808Y-86012679D01*
X170084808Y-86012679D02*
X170084808Y-85958804D01*
X170084808Y-85958804D02*
X169896247Y-85770242D01*
X169896247Y-85770242D02*
X169788497Y-85877992D01*
X170381120Y-85770242D02*
X169815434Y-85204557D01*
X169815434Y-85204557D02*
X170030934Y-84989057D01*
X170030934Y-84989057D02*
X170111746Y-84962120D01*
X170111746Y-84962120D02*
X170165621Y-84962120D01*
X170165621Y-84962120D02*
X170246433Y-84989057D01*
X170246433Y-84989057D02*
X170327245Y-85069870D01*
X170327245Y-85069870D02*
X170354182Y-85150682D01*
X170354182Y-85150682D02*
X170354182Y-85204557D01*
X170354182Y-85204557D02*
X170327245Y-85285369D01*
X170327245Y-85285369D02*
X170111746Y-85500868D01*
X170408057Y-84719683D02*
X170408057Y-84665809D01*
X170408057Y-84665809D02*
X170434995Y-84584996D01*
X170434995Y-84584996D02*
X170569682Y-84450309D01*
X170569682Y-84450309D02*
X170650494Y-84423372D01*
X170650494Y-84423372D02*
X170704369Y-84423372D01*
X170704369Y-84423372D02*
X170785181Y-84450309D01*
X170785181Y-84450309D02*
X170839056Y-84504184D01*
X170839056Y-84504184D02*
X170892930Y-84611934D01*
X170892930Y-84611934D02*
X170892930Y-85258431D01*
X170892930Y-85258431D02*
X171243117Y-84908245D01*
X171162305Y-83857686D02*
X171054555Y-83965436D01*
X171054555Y-83965436D02*
X171027618Y-84046248D01*
X171027618Y-84046248D02*
X171027618Y-84100123D01*
X171027618Y-84100123D02*
X171054555Y-84234810D01*
X171054555Y-84234810D02*
X171135367Y-84369497D01*
X171135367Y-84369497D02*
X171350866Y-84584996D01*
X171350866Y-84584996D02*
X171431679Y-84611934D01*
X171431679Y-84611934D02*
X171485553Y-84611934D01*
X171485553Y-84611934D02*
X171566366Y-84584996D01*
X171566366Y-84584996D02*
X171674115Y-84477247D01*
X171674115Y-84477247D02*
X171701053Y-84396434D01*
X171701053Y-84396434D02*
X171701053Y-84342560D01*
X171701053Y-84342560D02*
X171674115Y-84261747D01*
X171674115Y-84261747D02*
X171539428Y-84127060D01*
X171539428Y-84127060D02*
X171458616Y-84100123D01*
X171458616Y-84100123D02*
X171404741Y-84100123D01*
X171404741Y-84100123D02*
X171323929Y-84127060D01*
X171323929Y-84127060D02*
X171216179Y-84234810D01*
X171216179Y-84234810D02*
X171189242Y-84315622D01*
X171189242Y-84315622D02*
X171189242Y-84369497D01*
X171189242Y-84369497D02*
X171216179Y-84450309D01*
X169630064Y-75914049D02*
X169899438Y-75644675D01*
X169737813Y-76129549D02*
X169360690Y-75375301D01*
X169360690Y-75375301D02*
X170114937Y-75752425D01*
X170303499Y-75563863D02*
X169737813Y-74998178D01*
X169737813Y-74998178D02*
X169872500Y-74863491D01*
X169872500Y-74863491D02*
X169980250Y-74809616D01*
X169980250Y-74809616D02*
X170087999Y-74809616D01*
X170087999Y-74809616D02*
X170168812Y-74836553D01*
X170168812Y-74836553D02*
X170303499Y-74917366D01*
X170303499Y-74917366D02*
X170384311Y-74998178D01*
X170384311Y-74998178D02*
X170465123Y-75132865D01*
X170465123Y-75132865D02*
X170492060Y-75213677D01*
X170492060Y-75213677D02*
X170492060Y-75321427D01*
X170492060Y-75321427D02*
X170438186Y-75429176D01*
X170438186Y-75429176D02*
X170303499Y-75563863D01*
X171138558Y-74621054D02*
X171138558Y-74674929D01*
X171138558Y-74674929D02*
X171084683Y-74782679D01*
X171084683Y-74782679D02*
X171030808Y-74836553D01*
X171030808Y-74836553D02*
X170923059Y-74890428D01*
X170923059Y-74890428D02*
X170815309Y-74890428D01*
X170815309Y-74890428D02*
X170734497Y-74863491D01*
X170734497Y-74863491D02*
X170599810Y-74782679D01*
X170599810Y-74782679D02*
X170518998Y-74701866D01*
X170518998Y-74701866D02*
X170438186Y-74567179D01*
X170438186Y-74567179D02*
X170411248Y-74486367D01*
X170411248Y-74486367D02*
X170411248Y-74378618D01*
X170411248Y-74378618D02*
X170465123Y-74270868D01*
X170465123Y-74270868D02*
X170518998Y-74216993D01*
X170518998Y-74216993D02*
X170626747Y-74163118D01*
X170626747Y-74163118D02*
X170680622Y-74163118D01*
X171354057Y-74621054D02*
X171785056Y-74190056D01*
X171219370Y-73516621D02*
X171973618Y-73893744D01*
X171973618Y-73893744D02*
X171596494Y-73139497D01*
X172673990Y-73193372D02*
X172216054Y-73112560D01*
X172350741Y-73516621D02*
X171785056Y-72950935D01*
X171785056Y-72950935D02*
X172000555Y-72735436D01*
X172000555Y-72735436D02*
X172081367Y-72708499D01*
X172081367Y-72708499D02*
X172135242Y-72708499D01*
X172135242Y-72708499D02*
X172216054Y-72735436D01*
X172216054Y-72735436D02*
X172296866Y-72816248D01*
X172296866Y-72816248D02*
X172323804Y-72897061D01*
X172323804Y-72897061D02*
X172323804Y-72950935D01*
X172323804Y-72950935D02*
X172296866Y-73031748D01*
X172296866Y-73031748D02*
X172081367Y-73247247D01*
X172620115Y-72654624D02*
X172808677Y-72466062D01*
X173185800Y-72681561D02*
X172916426Y-72950935D01*
X172916426Y-72950935D02*
X172350741Y-72385250D01*
X172350741Y-72385250D02*
X172620115Y-72115876D01*
X173320488Y-71954251D02*
X173131926Y-72142813D01*
X173428237Y-72439125D02*
X172862552Y-71873439D01*
X172862552Y-71873439D02*
X173131926Y-71604065D01*
X169561435Y-105578431D02*
X169480623Y-105605368D01*
X169480623Y-105605368D02*
X169399811Y-105686180D01*
X169399811Y-105686180D02*
X169345936Y-105793930D01*
X169345936Y-105793930D02*
X169345936Y-105901680D01*
X169345936Y-105901680D02*
X169372873Y-105982492D01*
X169372873Y-105982492D02*
X169453685Y-106117179D01*
X169453685Y-106117179D02*
X169534498Y-106197991D01*
X169534498Y-106197991D02*
X169669185Y-106278803D01*
X169669185Y-106278803D02*
X169749997Y-106305741D01*
X169749997Y-106305741D02*
X169857746Y-106305741D01*
X169857746Y-106305741D02*
X169965496Y-106251866D01*
X169965496Y-106251866D02*
X170019371Y-106197991D01*
X170019371Y-106197991D02*
X170073246Y-106090241D01*
X170073246Y-106090241D02*
X170073246Y-106036367D01*
X170073246Y-106036367D02*
X169884684Y-105847805D01*
X169884684Y-105847805D02*
X169776934Y-105955554D01*
X170369557Y-105847805D02*
X169803872Y-105282119D01*
X169803872Y-105282119D02*
X170692806Y-105524556D01*
X170692806Y-105524556D02*
X170127120Y-104958871D01*
X170962180Y-105255182D02*
X170396494Y-104689497D01*
X170396494Y-104689497D02*
X170531181Y-104554810D01*
X170531181Y-104554810D02*
X170638931Y-104500935D01*
X170638931Y-104500935D02*
X170746680Y-104500935D01*
X170746680Y-104500935D02*
X170827493Y-104527872D01*
X170827493Y-104527872D02*
X170962180Y-104608685D01*
X170962180Y-104608685D02*
X171042992Y-104689497D01*
X171042992Y-104689497D02*
X171123804Y-104824184D01*
X171123804Y-104824184D02*
X171150741Y-104904996D01*
X171150741Y-104904996D02*
X171150741Y-105012746D01*
X171150741Y-105012746D02*
X171096867Y-105120495D01*
X171096867Y-105120495D02*
X170962180Y-105255182D01*
X143318998Y-100740868D02*
X143238185Y-100767805D01*
X143238185Y-100767805D02*
X143157373Y-100848618D01*
X143157373Y-100848618D02*
X143103498Y-100956367D01*
X143103498Y-100956367D02*
X143103498Y-101064117D01*
X143103498Y-101064117D02*
X143130436Y-101144929D01*
X143130436Y-101144929D02*
X143211248Y-101279616D01*
X143211248Y-101279616D02*
X143292060Y-101360428D01*
X143292060Y-101360428D02*
X143426747Y-101441241D01*
X143426747Y-101441241D02*
X143507560Y-101468178D01*
X143507560Y-101468178D02*
X143615309Y-101468178D01*
X143615309Y-101468178D02*
X143723059Y-101414303D01*
X143723059Y-101414303D02*
X143776934Y-101360428D01*
X143776934Y-101360428D02*
X143830808Y-101252679D01*
X143830808Y-101252679D02*
X143830808Y-101198804D01*
X143830808Y-101198804D02*
X143642247Y-101010242D01*
X143642247Y-101010242D02*
X143534497Y-101117992D01*
X144127120Y-101010242D02*
X143561434Y-100444557D01*
X143561434Y-100444557D02*
X143776934Y-100229057D01*
X143776934Y-100229057D02*
X143857746Y-100202120D01*
X143857746Y-100202120D02*
X143911621Y-100202120D01*
X143911621Y-100202120D02*
X143992433Y-100229057D01*
X143992433Y-100229057D02*
X144073245Y-100309870D01*
X144073245Y-100309870D02*
X144100182Y-100390682D01*
X144100182Y-100390682D02*
X144100182Y-100444557D01*
X144100182Y-100444557D02*
X144073245Y-100525369D01*
X144073245Y-100525369D02*
X143857746Y-100740868D01*
X144989117Y-100148245D02*
X144665868Y-100471494D01*
X144827492Y-100309870D02*
X144261807Y-99744184D01*
X144261807Y-99744184D02*
X144288744Y-99878871D01*
X144288744Y-99878871D02*
X144288744Y-99986621D01*
X144288744Y-99986621D02*
X144261807Y-100067433D01*
X144692805Y-99420935D02*
X144692805Y-99367060D01*
X144692805Y-99367060D02*
X144719743Y-99286248D01*
X144719743Y-99286248D02*
X144854430Y-99151561D01*
X144854430Y-99151561D02*
X144935242Y-99124624D01*
X144935242Y-99124624D02*
X144989117Y-99124624D01*
X144989117Y-99124624D02*
X145069929Y-99151561D01*
X145069929Y-99151561D02*
X145123804Y-99205436D01*
X145123804Y-99205436D02*
X145177679Y-99313186D01*
X145177679Y-99313186D02*
X145177679Y-99959683D01*
X145177679Y-99959683D02*
X145527865Y-99609497D01*
X169572998Y-95670868D02*
X169492185Y-95697805D01*
X169492185Y-95697805D02*
X169411373Y-95778618D01*
X169411373Y-95778618D02*
X169357498Y-95886367D01*
X169357498Y-95886367D02*
X169357498Y-95994117D01*
X169357498Y-95994117D02*
X169384436Y-96074929D01*
X169384436Y-96074929D02*
X169465248Y-96209616D01*
X169465248Y-96209616D02*
X169546060Y-96290428D01*
X169546060Y-96290428D02*
X169680747Y-96371241D01*
X169680747Y-96371241D02*
X169761560Y-96398178D01*
X169761560Y-96398178D02*
X169869309Y-96398178D01*
X169869309Y-96398178D02*
X169977059Y-96344303D01*
X169977059Y-96344303D02*
X170030934Y-96290428D01*
X170030934Y-96290428D02*
X170084808Y-96182679D01*
X170084808Y-96182679D02*
X170084808Y-96128804D01*
X170084808Y-96128804D02*
X169896247Y-95940242D01*
X169896247Y-95940242D02*
X169788497Y-96047992D01*
X170381120Y-95940242D02*
X169815434Y-95374557D01*
X169815434Y-95374557D02*
X170030934Y-95159057D01*
X170030934Y-95159057D02*
X170111746Y-95132120D01*
X170111746Y-95132120D02*
X170165621Y-95132120D01*
X170165621Y-95132120D02*
X170246433Y-95159057D01*
X170246433Y-95159057D02*
X170327245Y-95239870D01*
X170327245Y-95239870D02*
X170354182Y-95320682D01*
X170354182Y-95320682D02*
X170354182Y-95374557D01*
X170354182Y-95374557D02*
X170327245Y-95455369D01*
X170327245Y-95455369D02*
X170111746Y-95670868D01*
X170408057Y-94889683D02*
X170408057Y-94835809D01*
X170408057Y-94835809D02*
X170434995Y-94754996D01*
X170434995Y-94754996D02*
X170569682Y-94620309D01*
X170569682Y-94620309D02*
X170650494Y-94593372D01*
X170650494Y-94593372D02*
X170704369Y-94593372D01*
X170704369Y-94593372D02*
X170785181Y-94620309D01*
X170785181Y-94620309D02*
X170839056Y-94674184D01*
X170839056Y-94674184D02*
X170892930Y-94781934D01*
X170892930Y-94781934D02*
X170892930Y-95428431D01*
X170892930Y-95428431D02*
X171243117Y-95078245D01*
X171781865Y-94539497D02*
X171458616Y-94862746D01*
X171620240Y-94701121D02*
X171054555Y-94135436D01*
X171054555Y-94135436D02*
X171081492Y-94270123D01*
X171081492Y-94270123D02*
X171081492Y-94377873D01*
X171081492Y-94377873D02*
X171054555Y-94458685D01*
X169397407Y-70338584D02*
X169747593Y-69988398D01*
X169747593Y-69988398D02*
X169774531Y-70392459D01*
X169774531Y-70392459D02*
X169855343Y-70311646D01*
X169855343Y-70311646D02*
X169936155Y-70284709D01*
X169936155Y-70284709D02*
X169990030Y-70284709D01*
X169990030Y-70284709D02*
X170070842Y-70311646D01*
X170070842Y-70311646D02*
X170205529Y-70446333D01*
X170205529Y-70446333D02*
X170232467Y-70527146D01*
X170232467Y-70527146D02*
X170232467Y-70581020D01*
X170232467Y-70581020D02*
X170205529Y-70661833D01*
X170205529Y-70661833D02*
X170043905Y-70823457D01*
X170043905Y-70823457D02*
X169963093Y-70850394D01*
X169963093Y-70850394D02*
X169909218Y-70850394D01*
X169909218Y-69826773D02*
X170663465Y-70203897D01*
X170663465Y-70203897D02*
X170286342Y-69449649D01*
X170421028Y-69314963D02*
X170771215Y-68964776D01*
X170771215Y-68964776D02*
X170798152Y-69368837D01*
X170798152Y-69368837D02*
X170878964Y-69288025D01*
X170878964Y-69288025D02*
X170959776Y-69261088D01*
X170959776Y-69261088D02*
X171013651Y-69261088D01*
X171013651Y-69261088D02*
X171094464Y-69288025D01*
X171094464Y-69288025D02*
X171229151Y-69422712D01*
X171229151Y-69422712D02*
X171256088Y-69503524D01*
X171256088Y-69503524D02*
X171256088Y-69557399D01*
X171256088Y-69557399D02*
X171229151Y-69638211D01*
X171229151Y-69638211D02*
X171067526Y-69799836D01*
X171067526Y-69799836D02*
X170986714Y-69826773D01*
X170986714Y-69826773D02*
X170932839Y-69826773D01*
X171498525Y-69476587D02*
X171929523Y-69045588D01*
X171714024Y-68560715D02*
X171902586Y-68372153D01*
X172279709Y-68587652D02*
X172010335Y-68857026D01*
X172010335Y-68857026D02*
X171444650Y-68291341D01*
X171444650Y-68291341D02*
X171714024Y-68021967D01*
X172522146Y-68345215D02*
X171956461Y-67779530D01*
X171956461Y-67779530D02*
X172845395Y-68021967D01*
X172845395Y-68021967D02*
X172279710Y-67456281D01*
X143464998Y-103280868D02*
X143384185Y-103307805D01*
X143384185Y-103307805D02*
X143303373Y-103388618D01*
X143303373Y-103388618D02*
X143249498Y-103496367D01*
X143249498Y-103496367D02*
X143249498Y-103604117D01*
X143249498Y-103604117D02*
X143276436Y-103684929D01*
X143276436Y-103684929D02*
X143357248Y-103819616D01*
X143357248Y-103819616D02*
X143438060Y-103900428D01*
X143438060Y-103900428D02*
X143572747Y-103981241D01*
X143572747Y-103981241D02*
X143653560Y-104008178D01*
X143653560Y-104008178D02*
X143761309Y-104008178D01*
X143761309Y-104008178D02*
X143869059Y-103954303D01*
X143869059Y-103954303D02*
X143922934Y-103900428D01*
X143922934Y-103900428D02*
X143976808Y-103792679D01*
X143976808Y-103792679D02*
X143976808Y-103738804D01*
X143976808Y-103738804D02*
X143788247Y-103550242D01*
X143788247Y-103550242D02*
X143680497Y-103657992D01*
X144273120Y-103550242D02*
X143707434Y-102984557D01*
X143707434Y-102984557D02*
X143922934Y-102769057D01*
X143922934Y-102769057D02*
X144003746Y-102742120D01*
X144003746Y-102742120D02*
X144057621Y-102742120D01*
X144057621Y-102742120D02*
X144138433Y-102769057D01*
X144138433Y-102769057D02*
X144219245Y-102849870D01*
X144219245Y-102849870D02*
X144246182Y-102930682D01*
X144246182Y-102930682D02*
X144246182Y-102984557D01*
X144246182Y-102984557D02*
X144219245Y-103065369D01*
X144219245Y-103065369D02*
X144003746Y-103280868D01*
X145135117Y-102688245D02*
X144811868Y-103011494D01*
X144973492Y-102849870D02*
X144407807Y-102284184D01*
X144407807Y-102284184D02*
X144434744Y-102418871D01*
X144434744Y-102418871D02*
X144434744Y-102526621D01*
X144434744Y-102526621D02*
X144407807Y-102607433D01*
X144757993Y-101933998D02*
X145108179Y-101583812D01*
X145108179Y-101583812D02*
X145135117Y-101987873D01*
X145135117Y-101987873D02*
X145215929Y-101907060D01*
X145215929Y-101907060D02*
X145296741Y-101880123D01*
X145296741Y-101880123D02*
X145350616Y-101880123D01*
X145350616Y-101880123D02*
X145431428Y-101907060D01*
X145431428Y-101907060D02*
X145566115Y-102041747D01*
X145566115Y-102041747D02*
X145593053Y-102122560D01*
X145593053Y-102122560D02*
X145593053Y-102176434D01*
X145593053Y-102176434D02*
X145566115Y-102257247D01*
X145566115Y-102257247D02*
X145404491Y-102418871D01*
X145404491Y-102418871D02*
X145323679Y-102445808D01*
X145323679Y-102445808D02*
X145269804Y-102445808D01*
X169428406Y-62907585D02*
X170182653Y-63284709D01*
X170182653Y-63284709D02*
X169805529Y-62530462D01*
X170452027Y-62422712D02*
X170559776Y-62368838D01*
X170559776Y-62368838D02*
X170613651Y-62368838D01*
X170613651Y-62368838D02*
X170694463Y-62395775D01*
X170694463Y-62395775D02*
X170775276Y-62476587D01*
X170775276Y-62476587D02*
X170802213Y-62557399D01*
X170802213Y-62557399D02*
X170802213Y-62611274D01*
X170802213Y-62611274D02*
X170775276Y-62692086D01*
X170775276Y-62692086D02*
X170559776Y-62907586D01*
X170559776Y-62907586D02*
X169994091Y-62341900D01*
X169994091Y-62341900D02*
X170182653Y-62153338D01*
X170182653Y-62153338D02*
X170263465Y-62126401D01*
X170263465Y-62126401D02*
X170317340Y-62126401D01*
X170317340Y-62126401D02*
X170398152Y-62153338D01*
X170398152Y-62153338D02*
X170452027Y-62207213D01*
X170452027Y-62207213D02*
X170478964Y-62288025D01*
X170478964Y-62288025D02*
X170478964Y-62341900D01*
X170478964Y-62341900D02*
X170452027Y-62422712D01*
X170452027Y-62422712D02*
X170263465Y-62611274D01*
X170559776Y-61776215D02*
X171017712Y-62234151D01*
X171017712Y-62234151D02*
X171098524Y-62261088D01*
X171098524Y-62261088D02*
X171152399Y-62261088D01*
X171152399Y-62261088D02*
X171233211Y-62234151D01*
X171233211Y-62234151D02*
X171340961Y-62126401D01*
X171340961Y-62126401D02*
X171367898Y-62045589D01*
X171367898Y-62045589D02*
X171367898Y-61991714D01*
X171367898Y-61991714D02*
X171340961Y-61910902D01*
X171340961Y-61910902D02*
X170883025Y-61452966D01*
X171664210Y-61749277D02*
X171771959Y-61695403D01*
X171771959Y-61695403D02*
X171906646Y-61560716D01*
X171906646Y-61560716D02*
X171933584Y-61479903D01*
X171933584Y-61479903D02*
X171933584Y-61426029D01*
X171933584Y-61426029D02*
X171906646Y-61345216D01*
X171906646Y-61345216D02*
X171852771Y-61291342D01*
X171852771Y-61291342D02*
X171771959Y-61264404D01*
X171771959Y-61264404D02*
X171718084Y-61264404D01*
X171718084Y-61264404D02*
X171637272Y-61291342D01*
X171637272Y-61291342D02*
X171502585Y-61372154D01*
X171502585Y-61372154D02*
X171421773Y-61399091D01*
X171421773Y-61399091D02*
X171367898Y-61399091D01*
X171367898Y-61399091D02*
X171287086Y-61372154D01*
X171287086Y-61372154D02*
X171233211Y-61318279D01*
X171233211Y-61318279D02*
X171206274Y-61237467D01*
X171206274Y-61237467D02*
X171206274Y-61183592D01*
X171206274Y-61183592D02*
X171233211Y-61102780D01*
X171233211Y-61102780D02*
X171367898Y-60968093D01*
X171367898Y-60968093D02*
X171475648Y-60914218D01*
X143988372Y-90311494D02*
X143907560Y-90338431D01*
X143907560Y-90338431D02*
X143826748Y-90419243D01*
X143826748Y-90419243D02*
X143772873Y-90526993D01*
X143772873Y-90526993D02*
X143772873Y-90634742D01*
X143772873Y-90634742D02*
X143799810Y-90715555D01*
X143799810Y-90715555D02*
X143880623Y-90850242D01*
X143880623Y-90850242D02*
X143961435Y-90931054D01*
X143961435Y-90931054D02*
X144096122Y-91011866D01*
X144096122Y-91011866D02*
X144176934Y-91038803D01*
X144176934Y-91038803D02*
X144284684Y-91038803D01*
X144284684Y-91038803D02*
X144392433Y-90984929D01*
X144392433Y-90984929D02*
X144446308Y-90931054D01*
X144446308Y-90931054D02*
X144500183Y-90823304D01*
X144500183Y-90823304D02*
X144500183Y-90769429D01*
X144500183Y-90769429D02*
X144311621Y-90580868D01*
X144311621Y-90580868D02*
X144203871Y-90688617D01*
X144796494Y-90580868D02*
X144230809Y-90015182D01*
X144230809Y-90015182D02*
X144446308Y-89799683D01*
X144446308Y-89799683D02*
X144527120Y-89772746D01*
X144527120Y-89772746D02*
X144580995Y-89772746D01*
X144580995Y-89772746D02*
X144661807Y-89799683D01*
X144661807Y-89799683D02*
X144742619Y-89880495D01*
X144742619Y-89880495D02*
X144769557Y-89961307D01*
X144769557Y-89961307D02*
X144769557Y-90015182D01*
X144769557Y-90015182D02*
X144742619Y-90095994D01*
X144742619Y-90095994D02*
X144527120Y-90311494D01*
X145389117Y-89988245D02*
X145496867Y-89880495D01*
X145496867Y-89880495D02*
X145523804Y-89799683D01*
X145523804Y-89799683D02*
X145523804Y-89745808D01*
X145523804Y-89745808D02*
X145496867Y-89611121D01*
X145496867Y-89611121D02*
X145416054Y-89476434D01*
X145416054Y-89476434D02*
X145200555Y-89260935D01*
X145200555Y-89260935D02*
X145119743Y-89233998D01*
X145119743Y-89233998D02*
X145065868Y-89233998D01*
X145065868Y-89233998D02*
X144985056Y-89260935D01*
X144985056Y-89260935D02*
X144877306Y-89368685D01*
X144877306Y-89368685D02*
X144850369Y-89449497D01*
X144850369Y-89449497D02*
X144850369Y-89503372D01*
X144850369Y-89503372D02*
X144877306Y-89584184D01*
X144877306Y-89584184D02*
X145011993Y-89718871D01*
X145011993Y-89718871D02*
X145092806Y-89745808D01*
X145092806Y-89745808D02*
X145146680Y-89745808D01*
X145146680Y-89745808D02*
X145227493Y-89718871D01*
X145227493Y-89718871D02*
X145335242Y-89611121D01*
X145335242Y-89611121D02*
X145362180Y-89530309D01*
X145362180Y-89530309D02*
X145362180Y-89476434D01*
X145362180Y-89476434D02*
X145335242Y-89395622D01*
X169626873Y-81121240D02*
X169896247Y-80851866D01*
X169734623Y-81336739D02*
X169357499Y-80582492D01*
X169357499Y-80582492D02*
X170111746Y-80959615D01*
X170057871Y-79935994D02*
X169977059Y-79962932D01*
X169977059Y-79962932D02*
X169896247Y-80043744D01*
X169896247Y-80043744D02*
X169842372Y-80151494D01*
X169842372Y-80151494D02*
X169842372Y-80259243D01*
X169842372Y-80259243D02*
X169869310Y-80340055D01*
X169869310Y-80340055D02*
X169950122Y-80474742D01*
X169950122Y-80474742D02*
X170030934Y-80555555D01*
X170030934Y-80555555D02*
X170165621Y-80636367D01*
X170165621Y-80636367D02*
X170246433Y-80663304D01*
X170246433Y-80663304D02*
X170354183Y-80663304D01*
X170354183Y-80663304D02*
X170461932Y-80609429D01*
X170461932Y-80609429D02*
X170515807Y-80555555D01*
X170515807Y-80555555D02*
X170569682Y-80447805D01*
X170569682Y-80447805D02*
X170569682Y-80393930D01*
X170569682Y-80393930D02*
X170381120Y-80205368D01*
X170381120Y-80205368D02*
X170273371Y-80313118D01*
X170865993Y-80205368D02*
X170300308Y-79639683D01*
X170300308Y-79639683D02*
X171189242Y-79882120D01*
X171189242Y-79882120D02*
X170623557Y-79316434D01*
X171458616Y-79612746D02*
X170892931Y-79047060D01*
X170892931Y-79047060D02*
X171027618Y-78912373D01*
X171027618Y-78912373D02*
X171135367Y-78858498D01*
X171135367Y-78858498D02*
X171243117Y-78858498D01*
X171243117Y-78858498D02*
X171323929Y-78885436D01*
X171323929Y-78885436D02*
X171458616Y-78966248D01*
X171458616Y-78966248D02*
X171539428Y-79047060D01*
X171539428Y-79047060D02*
X171620241Y-79181747D01*
X171620241Y-79181747D02*
X171647178Y-79262560D01*
X171647178Y-79262560D02*
X171647178Y-79370309D01*
X171647178Y-79370309D02*
X171593303Y-79478059D01*
X171593303Y-79478059D02*
X171458616Y-79612746D01*
X161379761Y-112904200D02*
X161494047Y-112942295D01*
X161494047Y-112942295D02*
X161684523Y-112942295D01*
X161684523Y-112942295D02*
X161760714Y-112904200D01*
X161760714Y-112904200D02*
X161798809Y-112866104D01*
X161798809Y-112866104D02*
X161836904Y-112789914D01*
X161836904Y-112789914D02*
X161836904Y-112713723D01*
X161836904Y-112713723D02*
X161798809Y-112637533D01*
X161798809Y-112637533D02*
X161760714Y-112599438D01*
X161760714Y-112599438D02*
X161684523Y-112561342D01*
X161684523Y-112561342D02*
X161532142Y-112523247D01*
X161532142Y-112523247D02*
X161455952Y-112485152D01*
X161455952Y-112485152D02*
X161417857Y-112447057D01*
X161417857Y-112447057D02*
X161379761Y-112370866D01*
X161379761Y-112370866D02*
X161379761Y-112294676D01*
X161379761Y-112294676D02*
X161417857Y-112218485D01*
X161417857Y-112218485D02*
X161455952Y-112180390D01*
X161455952Y-112180390D02*
X161532142Y-112142295D01*
X161532142Y-112142295D02*
X161722619Y-112142295D01*
X161722619Y-112142295D02*
X161836904Y-112180390D01*
X162103571Y-112142295D02*
X162294047Y-112942295D01*
X162294047Y-112942295D02*
X162446428Y-112370866D01*
X162446428Y-112370866D02*
X162598809Y-112942295D01*
X162598809Y-112942295D02*
X162789286Y-112142295D01*
X163094048Y-112942295D02*
X163094048Y-112142295D01*
X163094048Y-112142295D02*
X163284524Y-112142295D01*
X163284524Y-112142295D02*
X163398810Y-112180390D01*
X163398810Y-112180390D02*
X163475000Y-112256580D01*
X163475000Y-112256580D02*
X163513095Y-112332771D01*
X163513095Y-112332771D02*
X163551191Y-112485152D01*
X163551191Y-112485152D02*
X163551191Y-112599438D01*
X163551191Y-112599438D02*
X163513095Y-112751819D01*
X163513095Y-112751819D02*
X163475000Y-112828009D01*
X163475000Y-112828009D02*
X163398810Y-112904200D01*
X163398810Y-112904200D02*
X163284524Y-112942295D01*
X163284524Y-112942295D02*
X163094048Y-112942295D01*
X163894048Y-112942295D02*
X163894048Y-112142295D01*
X164427381Y-112142295D02*
X164579762Y-112142295D01*
X164579762Y-112142295D02*
X164655952Y-112180390D01*
X164655952Y-112180390D02*
X164732143Y-112256580D01*
X164732143Y-112256580D02*
X164770238Y-112408961D01*
X164770238Y-112408961D02*
X164770238Y-112675628D01*
X164770238Y-112675628D02*
X164732143Y-112828009D01*
X164732143Y-112828009D02*
X164655952Y-112904200D01*
X164655952Y-112904200D02*
X164579762Y-112942295D01*
X164579762Y-112942295D02*
X164427381Y-112942295D01*
X164427381Y-112942295D02*
X164351190Y-112904200D01*
X164351190Y-112904200D02*
X164275000Y-112828009D01*
X164275000Y-112828009D02*
X164236904Y-112675628D01*
X164236904Y-112675628D02*
X164236904Y-112408961D01*
X164236904Y-112408961D02*
X164275000Y-112256580D01*
X164275000Y-112256580D02*
X164351190Y-112180390D01*
X164351190Y-112180390D02*
X164427381Y-112142295D01*
X143988372Y-72531494D02*
X143907560Y-72558431D01*
X143907560Y-72558431D02*
X143826748Y-72639243D01*
X143826748Y-72639243D02*
X143772873Y-72746993D01*
X143772873Y-72746993D02*
X143772873Y-72854742D01*
X143772873Y-72854742D02*
X143799810Y-72935555D01*
X143799810Y-72935555D02*
X143880623Y-73070242D01*
X143880623Y-73070242D02*
X143961435Y-73151054D01*
X143961435Y-73151054D02*
X144096122Y-73231866D01*
X144096122Y-73231866D02*
X144176934Y-73258803D01*
X144176934Y-73258803D02*
X144284684Y-73258803D01*
X144284684Y-73258803D02*
X144392433Y-73204929D01*
X144392433Y-73204929D02*
X144446308Y-73151054D01*
X144446308Y-73151054D02*
X144500183Y-73043304D01*
X144500183Y-73043304D02*
X144500183Y-72989429D01*
X144500183Y-72989429D02*
X144311621Y-72800868D01*
X144311621Y-72800868D02*
X144203871Y-72908617D01*
X144796494Y-72800868D02*
X144230809Y-72235182D01*
X144230809Y-72235182D02*
X144446308Y-72019683D01*
X144446308Y-72019683D02*
X144527120Y-71992746D01*
X144527120Y-71992746D02*
X144580995Y-71992746D01*
X144580995Y-71992746D02*
X144661807Y-72019683D01*
X144661807Y-72019683D02*
X144742619Y-72100495D01*
X144742619Y-72100495D02*
X144769557Y-72181307D01*
X144769557Y-72181307D02*
X144769557Y-72235182D01*
X144769557Y-72235182D02*
X144742619Y-72315994D01*
X144742619Y-72315994D02*
X144527120Y-72531494D01*
X144742619Y-71723372D02*
X145092806Y-71373185D01*
X145092806Y-71373185D02*
X145119743Y-71777246D01*
X145119743Y-71777246D02*
X145200555Y-71696434D01*
X145200555Y-71696434D02*
X145281367Y-71669497D01*
X145281367Y-71669497D02*
X145335242Y-71669497D01*
X145335242Y-71669497D02*
X145416054Y-71696434D01*
X145416054Y-71696434D02*
X145550741Y-71831121D01*
X145550741Y-71831121D02*
X145577679Y-71911933D01*
X145577679Y-71911933D02*
X145577679Y-71965808D01*
X145577679Y-71965808D02*
X145550741Y-72046620D01*
X145550741Y-72046620D02*
X145389117Y-72208245D01*
X145389117Y-72208245D02*
X145308305Y-72235182D01*
X145308305Y-72235182D02*
X145254430Y-72235182D01*
X169572998Y-82970868D02*
X169492185Y-82997805D01*
X169492185Y-82997805D02*
X169411373Y-83078618D01*
X169411373Y-83078618D02*
X169357498Y-83186367D01*
X169357498Y-83186367D02*
X169357498Y-83294117D01*
X169357498Y-83294117D02*
X169384436Y-83374929D01*
X169384436Y-83374929D02*
X169465248Y-83509616D01*
X169465248Y-83509616D02*
X169546060Y-83590428D01*
X169546060Y-83590428D02*
X169680747Y-83671241D01*
X169680747Y-83671241D02*
X169761560Y-83698178D01*
X169761560Y-83698178D02*
X169869309Y-83698178D01*
X169869309Y-83698178D02*
X169977059Y-83644303D01*
X169977059Y-83644303D02*
X170030934Y-83590428D01*
X170030934Y-83590428D02*
X170084808Y-83482679D01*
X170084808Y-83482679D02*
X170084808Y-83428804D01*
X170084808Y-83428804D02*
X169896247Y-83240242D01*
X169896247Y-83240242D02*
X169788497Y-83347992D01*
X170381120Y-83240242D02*
X169815434Y-82674557D01*
X169815434Y-82674557D02*
X170030934Y-82459057D01*
X170030934Y-82459057D02*
X170111746Y-82432120D01*
X170111746Y-82432120D02*
X170165621Y-82432120D01*
X170165621Y-82432120D02*
X170246433Y-82459057D01*
X170246433Y-82459057D02*
X170327245Y-82539870D01*
X170327245Y-82539870D02*
X170354182Y-82620682D01*
X170354182Y-82620682D02*
X170354182Y-82674557D01*
X170354182Y-82674557D02*
X170327245Y-82755369D01*
X170327245Y-82755369D02*
X170111746Y-82970868D01*
X170408057Y-82189683D02*
X170408057Y-82135809D01*
X170408057Y-82135809D02*
X170434995Y-82054996D01*
X170434995Y-82054996D02*
X170569682Y-81920309D01*
X170569682Y-81920309D02*
X170650494Y-81893372D01*
X170650494Y-81893372D02*
X170704369Y-81893372D01*
X170704369Y-81893372D02*
X170785181Y-81920309D01*
X170785181Y-81920309D02*
X170839056Y-81974184D01*
X170839056Y-81974184D02*
X170892930Y-82081934D01*
X170892930Y-82081934D02*
X170892930Y-82728431D01*
X170892930Y-82728431D02*
X171243117Y-82378245D01*
X170865993Y-81623998D02*
X171243117Y-81246874D01*
X171243117Y-81246874D02*
X171566366Y-82054996D01*
X143988372Y-77611494D02*
X143907560Y-77638431D01*
X143907560Y-77638431D02*
X143826748Y-77719243D01*
X143826748Y-77719243D02*
X143772873Y-77826993D01*
X143772873Y-77826993D02*
X143772873Y-77934742D01*
X143772873Y-77934742D02*
X143799810Y-78015555D01*
X143799810Y-78015555D02*
X143880623Y-78150242D01*
X143880623Y-78150242D02*
X143961435Y-78231054D01*
X143961435Y-78231054D02*
X144096122Y-78311866D01*
X144096122Y-78311866D02*
X144176934Y-78338803D01*
X144176934Y-78338803D02*
X144284684Y-78338803D01*
X144284684Y-78338803D02*
X144392433Y-78284929D01*
X144392433Y-78284929D02*
X144446308Y-78231054D01*
X144446308Y-78231054D02*
X144500183Y-78123304D01*
X144500183Y-78123304D02*
X144500183Y-78069429D01*
X144500183Y-78069429D02*
X144311621Y-77880868D01*
X144311621Y-77880868D02*
X144203871Y-77988617D01*
X144796494Y-77880868D02*
X144230809Y-77315182D01*
X144230809Y-77315182D02*
X144446308Y-77099683D01*
X144446308Y-77099683D02*
X144527120Y-77072746D01*
X144527120Y-77072746D02*
X144580995Y-77072746D01*
X144580995Y-77072746D02*
X144661807Y-77099683D01*
X144661807Y-77099683D02*
X144742619Y-77180495D01*
X144742619Y-77180495D02*
X144769557Y-77261307D01*
X144769557Y-77261307D02*
X144769557Y-77315182D01*
X144769557Y-77315182D02*
X144742619Y-77395994D01*
X144742619Y-77395994D02*
X144527120Y-77611494D01*
X145065868Y-76480123D02*
X144796494Y-76749497D01*
X144796494Y-76749497D02*
X145038931Y-77045808D01*
X145038931Y-77045808D02*
X145038931Y-76991933D01*
X145038931Y-76991933D02*
X145065868Y-76911121D01*
X145065868Y-76911121D02*
X145200555Y-76776434D01*
X145200555Y-76776434D02*
X145281367Y-76749497D01*
X145281367Y-76749497D02*
X145335242Y-76749497D01*
X145335242Y-76749497D02*
X145416054Y-76776434D01*
X145416054Y-76776434D02*
X145550741Y-76911121D01*
X145550741Y-76911121D02*
X145577679Y-76991933D01*
X145577679Y-76991933D02*
X145577679Y-77045808D01*
X145577679Y-77045808D02*
X145550741Y-77126620D01*
X145550741Y-77126620D02*
X145416054Y-77261307D01*
X145416054Y-77261307D02*
X145335242Y-77288245D01*
X145335242Y-77288245D02*
X145281367Y-77288245D01*
X169395749Y-65450242D02*
X170149996Y-65827366D01*
X170149996Y-65827366D02*
X169772873Y-65073118D01*
X170473245Y-65450242D02*
X170580995Y-65396367D01*
X170580995Y-65396367D02*
X170715682Y-65261680D01*
X170715682Y-65261680D02*
X170742619Y-65180868D01*
X170742619Y-65180868D02*
X170742619Y-65126993D01*
X170742619Y-65126993D02*
X170715682Y-65046181D01*
X170715682Y-65046181D02*
X170661807Y-64992306D01*
X170661807Y-64992306D02*
X170580995Y-64965369D01*
X170580995Y-64965369D02*
X170527120Y-64965369D01*
X170527120Y-64965369D02*
X170446308Y-64992306D01*
X170446308Y-64992306D02*
X170311621Y-65073118D01*
X170311621Y-65073118D02*
X170230808Y-65100056D01*
X170230808Y-65100056D02*
X170176934Y-65100056D01*
X170176934Y-65100056D02*
X170096121Y-65073118D01*
X170096121Y-65073118D02*
X170042247Y-65019244D01*
X170042247Y-65019244D02*
X170015309Y-64938431D01*
X170015309Y-64938431D02*
X170015309Y-64884557D01*
X170015309Y-64884557D02*
X170042247Y-64803744D01*
X170042247Y-64803744D02*
X170176934Y-64669057D01*
X170176934Y-64669057D02*
X170284683Y-64615183D01*
X170904244Y-64534370D02*
X171173618Y-64803744D01*
X170419370Y-64426621D02*
X170904244Y-64534370D01*
X170904244Y-64534370D02*
X170796494Y-64049497D01*
X171496866Y-64426621D02*
X171604616Y-64372746D01*
X171604616Y-64372746D02*
X171739303Y-64238059D01*
X171739303Y-64238059D02*
X171766240Y-64157247D01*
X171766240Y-64157247D02*
X171766240Y-64103372D01*
X171766240Y-64103372D02*
X171739303Y-64022560D01*
X171739303Y-64022560D02*
X171685428Y-63968685D01*
X171685428Y-63968685D02*
X171604616Y-63941748D01*
X171604616Y-63941748D02*
X171550741Y-63941748D01*
X171550741Y-63941748D02*
X171469929Y-63968685D01*
X171469929Y-63968685D02*
X171335242Y-64049497D01*
X171335242Y-64049497D02*
X171254430Y-64076435D01*
X171254430Y-64076435D02*
X171200555Y-64076435D01*
X171200555Y-64076435D02*
X171119743Y-64049497D01*
X171119743Y-64049497D02*
X171065868Y-63995622D01*
X171065868Y-63995622D02*
X171038930Y-63914810D01*
X171038930Y-63914810D02*
X171038930Y-63860935D01*
X171038930Y-63860935D02*
X171065868Y-63780123D01*
X171065868Y-63780123D02*
X171200555Y-63645436D01*
X171200555Y-63645436D02*
X171308304Y-63591561D01*
X143888372Y-69991494D02*
X143807560Y-70018431D01*
X143807560Y-70018431D02*
X143726748Y-70099243D01*
X143726748Y-70099243D02*
X143672873Y-70206993D01*
X143672873Y-70206993D02*
X143672873Y-70314742D01*
X143672873Y-70314742D02*
X143699810Y-70395555D01*
X143699810Y-70395555D02*
X143780623Y-70530242D01*
X143780623Y-70530242D02*
X143861435Y-70611054D01*
X143861435Y-70611054D02*
X143996122Y-70691866D01*
X143996122Y-70691866D02*
X144076934Y-70718803D01*
X144076934Y-70718803D02*
X144184684Y-70718803D01*
X144184684Y-70718803D02*
X144292433Y-70664929D01*
X144292433Y-70664929D02*
X144346308Y-70611054D01*
X144346308Y-70611054D02*
X144400183Y-70503304D01*
X144400183Y-70503304D02*
X144400183Y-70449429D01*
X144400183Y-70449429D02*
X144211621Y-70260868D01*
X144211621Y-70260868D02*
X144103871Y-70368617D01*
X144696494Y-70260868D02*
X144130809Y-69695182D01*
X144130809Y-69695182D02*
X144346308Y-69479683D01*
X144346308Y-69479683D02*
X144427120Y-69452746D01*
X144427120Y-69452746D02*
X144480995Y-69452746D01*
X144480995Y-69452746D02*
X144561807Y-69479683D01*
X144561807Y-69479683D02*
X144642619Y-69560495D01*
X144642619Y-69560495D02*
X144669557Y-69641307D01*
X144669557Y-69641307D02*
X144669557Y-69695182D01*
X144669557Y-69695182D02*
X144642619Y-69775994D01*
X144642619Y-69775994D02*
X144427120Y-69991494D01*
X144723432Y-69210309D02*
X144723432Y-69156434D01*
X144723432Y-69156434D02*
X144750369Y-69075622D01*
X144750369Y-69075622D02*
X144885056Y-68940935D01*
X144885056Y-68940935D02*
X144965868Y-68913998D01*
X144965868Y-68913998D02*
X145019743Y-68913998D01*
X145019743Y-68913998D02*
X145100555Y-68940935D01*
X145100555Y-68940935D02*
X145154430Y-68994810D01*
X145154430Y-68994810D02*
X145208305Y-69102559D01*
X145208305Y-69102559D02*
X145208305Y-69749057D01*
X145208305Y-69749057D02*
X145558491Y-69398871D01*
X143988372Y-87771494D02*
X143907560Y-87798431D01*
X143907560Y-87798431D02*
X143826748Y-87879243D01*
X143826748Y-87879243D02*
X143772873Y-87986993D01*
X143772873Y-87986993D02*
X143772873Y-88094742D01*
X143772873Y-88094742D02*
X143799810Y-88175555D01*
X143799810Y-88175555D02*
X143880623Y-88310242D01*
X143880623Y-88310242D02*
X143961435Y-88391054D01*
X143961435Y-88391054D02*
X144096122Y-88471866D01*
X144096122Y-88471866D02*
X144176934Y-88498803D01*
X144176934Y-88498803D02*
X144284684Y-88498803D01*
X144284684Y-88498803D02*
X144392433Y-88444929D01*
X144392433Y-88444929D02*
X144446308Y-88391054D01*
X144446308Y-88391054D02*
X144500183Y-88283304D01*
X144500183Y-88283304D02*
X144500183Y-88229429D01*
X144500183Y-88229429D02*
X144311621Y-88040868D01*
X144311621Y-88040868D02*
X144203871Y-88148617D01*
X144796494Y-88040868D02*
X144230809Y-87475182D01*
X144230809Y-87475182D02*
X144446308Y-87259683D01*
X144446308Y-87259683D02*
X144527120Y-87232746D01*
X144527120Y-87232746D02*
X144580995Y-87232746D01*
X144580995Y-87232746D02*
X144661807Y-87259683D01*
X144661807Y-87259683D02*
X144742619Y-87340495D01*
X144742619Y-87340495D02*
X144769557Y-87421307D01*
X144769557Y-87421307D02*
X144769557Y-87475182D01*
X144769557Y-87475182D02*
X144742619Y-87555994D01*
X144742619Y-87555994D02*
X144527120Y-87771494D01*
X145119743Y-87071121D02*
X145038931Y-87098059D01*
X145038931Y-87098059D02*
X144985056Y-87098059D01*
X144985056Y-87098059D02*
X144904244Y-87071121D01*
X144904244Y-87071121D02*
X144877306Y-87044184D01*
X144877306Y-87044184D02*
X144850369Y-86963372D01*
X144850369Y-86963372D02*
X144850369Y-86909497D01*
X144850369Y-86909497D02*
X144877306Y-86828685D01*
X144877306Y-86828685D02*
X144985056Y-86720935D01*
X144985056Y-86720935D02*
X145065868Y-86693998D01*
X145065868Y-86693998D02*
X145119743Y-86693998D01*
X145119743Y-86693998D02*
X145200555Y-86720935D01*
X145200555Y-86720935D02*
X145227493Y-86747872D01*
X145227493Y-86747872D02*
X145254430Y-86828685D01*
X145254430Y-86828685D02*
X145254430Y-86882559D01*
X145254430Y-86882559D02*
X145227493Y-86963372D01*
X145227493Y-86963372D02*
X145119743Y-87071121D01*
X145119743Y-87071121D02*
X145092806Y-87151933D01*
X145092806Y-87151933D02*
X145092806Y-87205808D01*
X145092806Y-87205808D02*
X145119743Y-87286620D01*
X145119743Y-87286620D02*
X145227493Y-87394370D01*
X145227493Y-87394370D02*
X145308305Y-87421307D01*
X145308305Y-87421307D02*
X145362180Y-87421307D01*
X145362180Y-87421307D02*
X145442992Y-87394370D01*
X145442992Y-87394370D02*
X145550741Y-87286620D01*
X145550741Y-87286620D02*
X145577679Y-87205808D01*
X145577679Y-87205808D02*
X145577679Y-87151933D01*
X145577679Y-87151933D02*
X145550741Y-87071121D01*
X145550741Y-87071121D02*
X145442992Y-86963372D01*
X145442992Y-86963372D02*
X145362180Y-86936434D01*
X145362180Y-86936434D02*
X145308305Y-86936434D01*
X145308305Y-86936434D02*
X145227493Y-86963372D01*
X169572998Y-110900868D02*
X169492185Y-110927805D01*
X169492185Y-110927805D02*
X169411373Y-111008618D01*
X169411373Y-111008618D02*
X169357498Y-111116367D01*
X169357498Y-111116367D02*
X169357498Y-111224117D01*
X169357498Y-111224117D02*
X169384436Y-111304929D01*
X169384436Y-111304929D02*
X169465248Y-111439616D01*
X169465248Y-111439616D02*
X169546060Y-111520428D01*
X169546060Y-111520428D02*
X169680747Y-111601241D01*
X169680747Y-111601241D02*
X169761560Y-111628178D01*
X169761560Y-111628178D02*
X169869309Y-111628178D01*
X169869309Y-111628178D02*
X169977059Y-111574303D01*
X169977059Y-111574303D02*
X170030934Y-111520428D01*
X170030934Y-111520428D02*
X170084808Y-111412679D01*
X170084808Y-111412679D02*
X170084808Y-111358804D01*
X170084808Y-111358804D02*
X169896247Y-111170242D01*
X169896247Y-111170242D02*
X169788497Y-111277992D01*
X170381120Y-111170242D02*
X169815434Y-110604557D01*
X169815434Y-110604557D02*
X170030934Y-110389057D01*
X170030934Y-110389057D02*
X170111746Y-110362120D01*
X170111746Y-110362120D02*
X170165621Y-110362120D01*
X170165621Y-110362120D02*
X170246433Y-110389057D01*
X170246433Y-110389057D02*
X170327245Y-110469870D01*
X170327245Y-110469870D02*
X170354182Y-110550682D01*
X170354182Y-110550682D02*
X170354182Y-110604557D01*
X170354182Y-110604557D02*
X170327245Y-110685369D01*
X170327245Y-110685369D02*
X170111746Y-110900868D01*
X171243117Y-110308245D02*
X170919868Y-110631494D01*
X171081492Y-110469870D02*
X170515807Y-109904184D01*
X170515807Y-109904184D02*
X170542744Y-110038871D01*
X170542744Y-110038871D02*
X170542744Y-110146621D01*
X170542744Y-110146621D02*
X170515807Y-110227433D01*
X171162305Y-109257686D02*
X171054555Y-109365436D01*
X171054555Y-109365436D02*
X171027618Y-109446248D01*
X171027618Y-109446248D02*
X171027618Y-109500123D01*
X171027618Y-109500123D02*
X171054555Y-109634810D01*
X171054555Y-109634810D02*
X171135367Y-109769497D01*
X171135367Y-109769497D02*
X171350866Y-109984996D01*
X171350866Y-109984996D02*
X171431679Y-110011934D01*
X171431679Y-110011934D02*
X171485553Y-110011934D01*
X171485553Y-110011934D02*
X171566366Y-109984996D01*
X171566366Y-109984996D02*
X171674115Y-109877247D01*
X171674115Y-109877247D02*
X171701053Y-109796434D01*
X171701053Y-109796434D02*
X171701053Y-109742560D01*
X171701053Y-109742560D02*
X171674115Y-109661747D01*
X171674115Y-109661747D02*
X171539428Y-109527060D01*
X171539428Y-109527060D02*
X171458616Y-109500123D01*
X171458616Y-109500123D02*
X171404741Y-109500123D01*
X171404741Y-109500123D02*
X171323929Y-109527060D01*
X171323929Y-109527060D02*
X171216179Y-109634810D01*
X171216179Y-109634810D02*
X171189242Y-109715622D01*
X171189242Y-109715622D02*
X171189242Y-109769497D01*
X171189242Y-109769497D02*
X171216179Y-109850309D01*
X169572998Y-100740868D02*
X169492185Y-100767805D01*
X169492185Y-100767805D02*
X169411373Y-100848618D01*
X169411373Y-100848618D02*
X169357498Y-100956367D01*
X169357498Y-100956367D02*
X169357498Y-101064117D01*
X169357498Y-101064117D02*
X169384436Y-101144929D01*
X169384436Y-101144929D02*
X169465248Y-101279616D01*
X169465248Y-101279616D02*
X169546060Y-101360428D01*
X169546060Y-101360428D02*
X169680747Y-101441241D01*
X169680747Y-101441241D02*
X169761560Y-101468178D01*
X169761560Y-101468178D02*
X169869309Y-101468178D01*
X169869309Y-101468178D02*
X169977059Y-101414303D01*
X169977059Y-101414303D02*
X170030934Y-101360428D01*
X170030934Y-101360428D02*
X170084808Y-101252679D01*
X170084808Y-101252679D02*
X170084808Y-101198804D01*
X170084808Y-101198804D02*
X169896247Y-101010242D01*
X169896247Y-101010242D02*
X169788497Y-101117992D01*
X170381120Y-101010242D02*
X169815434Y-100444557D01*
X169815434Y-100444557D02*
X170030934Y-100229057D01*
X170030934Y-100229057D02*
X170111746Y-100202120D01*
X170111746Y-100202120D02*
X170165621Y-100202120D01*
X170165621Y-100202120D02*
X170246433Y-100229057D01*
X170246433Y-100229057D02*
X170327245Y-100309870D01*
X170327245Y-100309870D02*
X170354182Y-100390682D01*
X170354182Y-100390682D02*
X170354182Y-100444557D01*
X170354182Y-100444557D02*
X170327245Y-100525369D01*
X170327245Y-100525369D02*
X170111746Y-100740868D01*
X171243117Y-100148245D02*
X170919868Y-100471494D01*
X171081492Y-100309870D02*
X170515807Y-99744184D01*
X170515807Y-99744184D02*
X170542744Y-99878871D01*
X170542744Y-99878871D02*
X170542744Y-99986621D01*
X170542744Y-99986621D02*
X170515807Y-100067433D01*
X171512491Y-99878871D02*
X171620240Y-99771121D01*
X171620240Y-99771121D02*
X171647178Y-99690309D01*
X171647178Y-99690309D02*
X171647178Y-99636434D01*
X171647178Y-99636434D02*
X171620240Y-99501747D01*
X171620240Y-99501747D02*
X171539428Y-99367060D01*
X171539428Y-99367060D02*
X171323929Y-99151561D01*
X171323929Y-99151561D02*
X171243117Y-99124624D01*
X171243117Y-99124624D02*
X171189242Y-99124624D01*
X171189242Y-99124624D02*
X171108430Y-99151561D01*
X171108430Y-99151561D02*
X171000680Y-99259311D01*
X171000680Y-99259311D02*
X170973743Y-99340123D01*
X170973743Y-99340123D02*
X170973743Y-99393998D01*
X170973743Y-99393998D02*
X171000680Y-99474810D01*
X171000680Y-99474810D02*
X171135367Y-99609497D01*
X171135367Y-99609497D02*
X171216179Y-99636434D01*
X171216179Y-99636434D02*
X171270054Y-99636434D01*
X171270054Y-99636434D02*
X171350866Y-99609497D01*
X171350866Y-99609497D02*
X171458616Y-99501747D01*
X171458616Y-99501747D02*
X171485553Y-99420935D01*
X171485553Y-99420935D02*
X171485553Y-99367060D01*
X171485553Y-99367060D02*
X171458616Y-99286248D01*
X144088372Y-85201494D02*
X144007560Y-85228431D01*
X144007560Y-85228431D02*
X143926748Y-85309243D01*
X143926748Y-85309243D02*
X143872873Y-85416993D01*
X143872873Y-85416993D02*
X143872873Y-85524742D01*
X143872873Y-85524742D02*
X143899810Y-85605555D01*
X143899810Y-85605555D02*
X143980623Y-85740242D01*
X143980623Y-85740242D02*
X144061435Y-85821054D01*
X144061435Y-85821054D02*
X144196122Y-85901866D01*
X144196122Y-85901866D02*
X144276934Y-85928803D01*
X144276934Y-85928803D02*
X144384684Y-85928803D01*
X144384684Y-85928803D02*
X144492433Y-85874929D01*
X144492433Y-85874929D02*
X144546308Y-85821054D01*
X144546308Y-85821054D02*
X144600183Y-85713304D01*
X144600183Y-85713304D02*
X144600183Y-85659429D01*
X144600183Y-85659429D02*
X144411621Y-85470868D01*
X144411621Y-85470868D02*
X144303871Y-85578617D01*
X144896494Y-85470868D02*
X144330809Y-84905182D01*
X144330809Y-84905182D02*
X144546308Y-84689683D01*
X144546308Y-84689683D02*
X144627120Y-84662746D01*
X144627120Y-84662746D02*
X144680995Y-84662746D01*
X144680995Y-84662746D02*
X144761807Y-84689683D01*
X144761807Y-84689683D02*
X144842619Y-84770495D01*
X144842619Y-84770495D02*
X144869557Y-84851307D01*
X144869557Y-84851307D02*
X144869557Y-84905182D01*
X144869557Y-84905182D02*
X144842619Y-84985994D01*
X144842619Y-84985994D02*
X144627120Y-85201494D01*
X144842619Y-84393372D02*
X145219743Y-84016248D01*
X145219743Y-84016248D02*
X145542992Y-84824370D01*
X143318998Y-98200868D02*
X143238185Y-98227805D01*
X143238185Y-98227805D02*
X143157373Y-98308618D01*
X143157373Y-98308618D02*
X143103498Y-98416367D01*
X143103498Y-98416367D02*
X143103498Y-98524117D01*
X143103498Y-98524117D02*
X143130436Y-98604929D01*
X143130436Y-98604929D02*
X143211248Y-98739616D01*
X143211248Y-98739616D02*
X143292060Y-98820428D01*
X143292060Y-98820428D02*
X143426747Y-98901241D01*
X143426747Y-98901241D02*
X143507560Y-98928178D01*
X143507560Y-98928178D02*
X143615309Y-98928178D01*
X143615309Y-98928178D02*
X143723059Y-98874303D01*
X143723059Y-98874303D02*
X143776934Y-98820428D01*
X143776934Y-98820428D02*
X143830808Y-98712679D01*
X143830808Y-98712679D02*
X143830808Y-98658804D01*
X143830808Y-98658804D02*
X143642247Y-98470242D01*
X143642247Y-98470242D02*
X143534497Y-98577992D01*
X144127120Y-98470242D02*
X143561434Y-97904557D01*
X143561434Y-97904557D02*
X143776934Y-97689057D01*
X143776934Y-97689057D02*
X143857746Y-97662120D01*
X143857746Y-97662120D02*
X143911621Y-97662120D01*
X143911621Y-97662120D02*
X143992433Y-97689057D01*
X143992433Y-97689057D02*
X144073245Y-97769870D01*
X144073245Y-97769870D02*
X144100182Y-97850682D01*
X144100182Y-97850682D02*
X144100182Y-97904557D01*
X144100182Y-97904557D02*
X144073245Y-97985369D01*
X144073245Y-97985369D02*
X143857746Y-98200868D01*
X144989117Y-97608245D02*
X144665868Y-97931494D01*
X144827492Y-97769870D02*
X144261807Y-97204184D01*
X144261807Y-97204184D02*
X144288744Y-97338871D01*
X144288744Y-97338871D02*
X144288744Y-97446621D01*
X144288744Y-97446621D02*
X144261807Y-97527433D01*
X145527865Y-97069497D02*
X145204616Y-97392746D01*
X145366240Y-97231121D02*
X144800555Y-96665436D01*
X144800555Y-96665436D02*
X144827492Y-96800123D01*
X144827492Y-96800123D02*
X144827492Y-96907873D01*
X144827492Y-96907873D02*
X144800555Y-96988685D01*
X169572998Y-90580868D02*
X169492185Y-90607805D01*
X169492185Y-90607805D02*
X169411373Y-90688618D01*
X169411373Y-90688618D02*
X169357498Y-90796367D01*
X169357498Y-90796367D02*
X169357498Y-90904117D01*
X169357498Y-90904117D02*
X169384436Y-90984929D01*
X169384436Y-90984929D02*
X169465248Y-91119616D01*
X169465248Y-91119616D02*
X169546060Y-91200428D01*
X169546060Y-91200428D02*
X169680747Y-91281241D01*
X169680747Y-91281241D02*
X169761560Y-91308178D01*
X169761560Y-91308178D02*
X169869309Y-91308178D01*
X169869309Y-91308178D02*
X169977059Y-91254303D01*
X169977059Y-91254303D02*
X170030934Y-91200428D01*
X170030934Y-91200428D02*
X170084808Y-91092679D01*
X170084808Y-91092679D02*
X170084808Y-91038804D01*
X170084808Y-91038804D02*
X169896247Y-90850242D01*
X169896247Y-90850242D02*
X169788497Y-90957992D01*
X170381120Y-90850242D02*
X169815434Y-90284557D01*
X169815434Y-90284557D02*
X170030934Y-90069057D01*
X170030934Y-90069057D02*
X170111746Y-90042120D01*
X170111746Y-90042120D02*
X170165621Y-90042120D01*
X170165621Y-90042120D02*
X170246433Y-90069057D01*
X170246433Y-90069057D02*
X170327245Y-90149870D01*
X170327245Y-90149870D02*
X170354182Y-90230682D01*
X170354182Y-90230682D02*
X170354182Y-90284557D01*
X170354182Y-90284557D02*
X170327245Y-90365369D01*
X170327245Y-90365369D02*
X170111746Y-90580868D01*
X170408057Y-89799683D02*
X170408057Y-89745809D01*
X170408057Y-89745809D02*
X170434995Y-89664996D01*
X170434995Y-89664996D02*
X170569682Y-89530309D01*
X170569682Y-89530309D02*
X170650494Y-89503372D01*
X170650494Y-89503372D02*
X170704369Y-89503372D01*
X170704369Y-89503372D02*
X170785181Y-89530309D01*
X170785181Y-89530309D02*
X170839056Y-89584184D01*
X170839056Y-89584184D02*
X170892930Y-89691934D01*
X170892930Y-89691934D02*
X170892930Y-90338431D01*
X170892930Y-90338431D02*
X171243117Y-89988245D01*
X170946805Y-89260935D02*
X170946805Y-89207060D01*
X170946805Y-89207060D02*
X170973743Y-89126248D01*
X170973743Y-89126248D02*
X171108430Y-88991561D01*
X171108430Y-88991561D02*
X171189242Y-88964624D01*
X171189242Y-88964624D02*
X171243117Y-88964624D01*
X171243117Y-88964624D02*
X171323929Y-88991561D01*
X171323929Y-88991561D02*
X171377804Y-89045436D01*
X171377804Y-89045436D02*
X171431679Y-89153186D01*
X171431679Y-89153186D02*
X171431679Y-89799683D01*
X171431679Y-89799683D02*
X171781865Y-89449497D01*
X169572998Y-98200868D02*
X169492185Y-98227805D01*
X169492185Y-98227805D02*
X169411373Y-98308618D01*
X169411373Y-98308618D02*
X169357498Y-98416367D01*
X169357498Y-98416367D02*
X169357498Y-98524117D01*
X169357498Y-98524117D02*
X169384436Y-98604929D01*
X169384436Y-98604929D02*
X169465248Y-98739616D01*
X169465248Y-98739616D02*
X169546060Y-98820428D01*
X169546060Y-98820428D02*
X169680747Y-98901241D01*
X169680747Y-98901241D02*
X169761560Y-98928178D01*
X169761560Y-98928178D02*
X169869309Y-98928178D01*
X169869309Y-98928178D02*
X169977059Y-98874303D01*
X169977059Y-98874303D02*
X170030934Y-98820428D01*
X170030934Y-98820428D02*
X170084808Y-98712679D01*
X170084808Y-98712679D02*
X170084808Y-98658804D01*
X170084808Y-98658804D02*
X169896247Y-98470242D01*
X169896247Y-98470242D02*
X169788497Y-98577992D01*
X170381120Y-98470242D02*
X169815434Y-97904557D01*
X169815434Y-97904557D02*
X170030934Y-97689057D01*
X170030934Y-97689057D02*
X170111746Y-97662120D01*
X170111746Y-97662120D02*
X170165621Y-97662120D01*
X170165621Y-97662120D02*
X170246433Y-97689057D01*
X170246433Y-97689057D02*
X170327245Y-97769870D01*
X170327245Y-97769870D02*
X170354182Y-97850682D01*
X170354182Y-97850682D02*
X170354182Y-97904557D01*
X170354182Y-97904557D02*
X170327245Y-97985369D01*
X170327245Y-97985369D02*
X170111746Y-98200868D01*
X170408057Y-97419683D02*
X170408057Y-97365809D01*
X170408057Y-97365809D02*
X170434995Y-97284996D01*
X170434995Y-97284996D02*
X170569682Y-97150309D01*
X170569682Y-97150309D02*
X170650494Y-97123372D01*
X170650494Y-97123372D02*
X170704369Y-97123372D01*
X170704369Y-97123372D02*
X170785181Y-97150309D01*
X170785181Y-97150309D02*
X170839056Y-97204184D01*
X170839056Y-97204184D02*
X170892930Y-97311934D01*
X170892930Y-97311934D02*
X170892930Y-97958431D01*
X170892930Y-97958431D02*
X171243117Y-97608245D01*
X171027618Y-96692373D02*
X171081492Y-96638499D01*
X171081492Y-96638499D02*
X171162305Y-96611561D01*
X171162305Y-96611561D02*
X171216179Y-96611561D01*
X171216179Y-96611561D02*
X171296992Y-96638499D01*
X171296992Y-96638499D02*
X171431679Y-96719311D01*
X171431679Y-96719311D02*
X171566366Y-96853998D01*
X171566366Y-96853998D02*
X171647178Y-96988685D01*
X171647178Y-96988685D02*
X171674115Y-97069497D01*
X171674115Y-97069497D02*
X171674115Y-97123372D01*
X171674115Y-97123372D02*
X171647178Y-97204184D01*
X171647178Y-97204184D02*
X171593303Y-97258059D01*
X171593303Y-97258059D02*
X171512491Y-97284996D01*
X171512491Y-97284996D02*
X171458616Y-97284996D01*
X171458616Y-97284996D02*
X171377804Y-97258059D01*
X171377804Y-97258059D02*
X171243117Y-97177247D01*
X171243117Y-97177247D02*
X171108430Y-97042560D01*
X171108430Y-97042560D02*
X171027618Y-96907873D01*
X171027618Y-96907873D02*
X171000680Y-96827060D01*
X171000680Y-96827060D02*
X171000680Y-96773186D01*
X171000680Y-96773186D02*
X171027618Y-96692373D01*
X143988372Y-75071494D02*
X143907560Y-75098431D01*
X143907560Y-75098431D02*
X143826748Y-75179243D01*
X143826748Y-75179243D02*
X143772873Y-75286993D01*
X143772873Y-75286993D02*
X143772873Y-75394742D01*
X143772873Y-75394742D02*
X143799810Y-75475555D01*
X143799810Y-75475555D02*
X143880623Y-75610242D01*
X143880623Y-75610242D02*
X143961435Y-75691054D01*
X143961435Y-75691054D02*
X144096122Y-75771866D01*
X144096122Y-75771866D02*
X144176934Y-75798803D01*
X144176934Y-75798803D02*
X144284684Y-75798803D01*
X144284684Y-75798803D02*
X144392433Y-75744929D01*
X144392433Y-75744929D02*
X144446308Y-75691054D01*
X144446308Y-75691054D02*
X144500183Y-75583304D01*
X144500183Y-75583304D02*
X144500183Y-75529429D01*
X144500183Y-75529429D02*
X144311621Y-75340868D01*
X144311621Y-75340868D02*
X144203871Y-75448617D01*
X144796494Y-75340868D02*
X144230809Y-74775182D01*
X144230809Y-74775182D02*
X144446308Y-74559683D01*
X144446308Y-74559683D02*
X144527120Y-74532746D01*
X144527120Y-74532746D02*
X144580995Y-74532746D01*
X144580995Y-74532746D02*
X144661807Y-74559683D01*
X144661807Y-74559683D02*
X144742619Y-74640495D01*
X144742619Y-74640495D02*
X144769557Y-74721307D01*
X144769557Y-74721307D02*
X144769557Y-74775182D01*
X144769557Y-74775182D02*
X144742619Y-74855994D01*
X144742619Y-74855994D02*
X144527120Y-75071494D01*
X145227493Y-74155622D02*
X145604616Y-74532746D01*
X144877306Y-74074810D02*
X145146680Y-74613558D01*
X145146680Y-74613558D02*
X145496867Y-74263372D01*
X169572998Y-103280868D02*
X169492185Y-103307805D01*
X169492185Y-103307805D02*
X169411373Y-103388618D01*
X169411373Y-103388618D02*
X169357498Y-103496367D01*
X169357498Y-103496367D02*
X169357498Y-103604117D01*
X169357498Y-103604117D02*
X169384436Y-103684929D01*
X169384436Y-103684929D02*
X169465248Y-103819616D01*
X169465248Y-103819616D02*
X169546060Y-103900428D01*
X169546060Y-103900428D02*
X169680747Y-103981241D01*
X169680747Y-103981241D02*
X169761560Y-104008178D01*
X169761560Y-104008178D02*
X169869309Y-104008178D01*
X169869309Y-104008178D02*
X169977059Y-103954303D01*
X169977059Y-103954303D02*
X170030934Y-103900428D01*
X170030934Y-103900428D02*
X170084808Y-103792679D01*
X170084808Y-103792679D02*
X170084808Y-103738804D01*
X170084808Y-103738804D02*
X169896247Y-103550242D01*
X169896247Y-103550242D02*
X169788497Y-103657992D01*
X170381120Y-103550242D02*
X169815434Y-102984557D01*
X169815434Y-102984557D02*
X170030934Y-102769057D01*
X170030934Y-102769057D02*
X170111746Y-102742120D01*
X170111746Y-102742120D02*
X170165621Y-102742120D01*
X170165621Y-102742120D02*
X170246433Y-102769057D01*
X170246433Y-102769057D02*
X170327245Y-102849870D01*
X170327245Y-102849870D02*
X170354182Y-102930682D01*
X170354182Y-102930682D02*
X170354182Y-102984557D01*
X170354182Y-102984557D02*
X170327245Y-103065369D01*
X170327245Y-103065369D02*
X170111746Y-103280868D01*
X171243117Y-102688245D02*
X170919868Y-103011494D01*
X171081492Y-102849870D02*
X170515807Y-102284184D01*
X170515807Y-102284184D02*
X170542744Y-102418871D01*
X170542744Y-102418871D02*
X170542744Y-102526621D01*
X170542744Y-102526621D02*
X170515807Y-102607433D01*
X171243117Y-102041747D02*
X171162305Y-102068685D01*
X171162305Y-102068685D02*
X171108430Y-102068685D01*
X171108430Y-102068685D02*
X171027618Y-102041747D01*
X171027618Y-102041747D02*
X171000680Y-102014810D01*
X171000680Y-102014810D02*
X170973743Y-101933998D01*
X170973743Y-101933998D02*
X170973743Y-101880123D01*
X170973743Y-101880123D02*
X171000680Y-101799311D01*
X171000680Y-101799311D02*
X171108430Y-101691561D01*
X171108430Y-101691561D02*
X171189242Y-101664624D01*
X171189242Y-101664624D02*
X171243117Y-101664624D01*
X171243117Y-101664624D02*
X171323929Y-101691561D01*
X171323929Y-101691561D02*
X171350866Y-101718499D01*
X171350866Y-101718499D02*
X171377804Y-101799311D01*
X171377804Y-101799311D02*
X171377804Y-101853186D01*
X171377804Y-101853186D02*
X171350866Y-101933998D01*
X171350866Y-101933998D02*
X171243117Y-102041747D01*
X171243117Y-102041747D02*
X171216179Y-102122560D01*
X171216179Y-102122560D02*
X171216179Y-102176434D01*
X171216179Y-102176434D02*
X171243117Y-102257247D01*
X171243117Y-102257247D02*
X171350866Y-102364996D01*
X171350866Y-102364996D02*
X171431679Y-102391934D01*
X171431679Y-102391934D02*
X171485553Y-102391934D01*
X171485553Y-102391934D02*
X171566366Y-102364996D01*
X171566366Y-102364996D02*
X171674115Y-102257247D01*
X171674115Y-102257247D02*
X171701053Y-102176434D01*
X171701053Y-102176434D02*
X171701053Y-102122560D01*
X171701053Y-102122560D02*
X171674115Y-102041747D01*
X171674115Y-102041747D02*
X171566366Y-101933998D01*
X171566366Y-101933998D02*
X171485553Y-101907060D01*
X171485553Y-101907060D02*
X171431679Y-101907060D01*
X171431679Y-101907060D02*
X171350866Y-101933998D01*
X169561435Y-92878431D02*
X169480623Y-92905368D01*
X169480623Y-92905368D02*
X169399811Y-92986180D01*
X169399811Y-92986180D02*
X169345936Y-93093930D01*
X169345936Y-93093930D02*
X169345936Y-93201680D01*
X169345936Y-93201680D02*
X169372873Y-93282492D01*
X169372873Y-93282492D02*
X169453685Y-93417179D01*
X169453685Y-93417179D02*
X169534498Y-93497991D01*
X169534498Y-93497991D02*
X169669185Y-93578803D01*
X169669185Y-93578803D02*
X169749997Y-93605741D01*
X169749997Y-93605741D02*
X169857746Y-93605741D01*
X169857746Y-93605741D02*
X169965496Y-93551866D01*
X169965496Y-93551866D02*
X170019371Y-93497991D01*
X170019371Y-93497991D02*
X170073246Y-93390241D01*
X170073246Y-93390241D02*
X170073246Y-93336367D01*
X170073246Y-93336367D02*
X169884684Y-93147805D01*
X169884684Y-93147805D02*
X169776934Y-93255554D01*
X170369557Y-93147805D02*
X169803872Y-92582119D01*
X169803872Y-92582119D02*
X170692806Y-92824556D01*
X170692806Y-92824556D02*
X170127120Y-92258871D01*
X170962180Y-92555182D02*
X170396494Y-91989497D01*
X170396494Y-91989497D02*
X170531181Y-91854810D01*
X170531181Y-91854810D02*
X170638931Y-91800935D01*
X170638931Y-91800935D02*
X170746680Y-91800935D01*
X170746680Y-91800935D02*
X170827493Y-91827872D01*
X170827493Y-91827872D02*
X170962180Y-91908685D01*
X170962180Y-91908685D02*
X171042992Y-91989497D01*
X171042992Y-91989497D02*
X171123804Y-92124184D01*
X171123804Y-92124184D02*
X171150741Y-92204996D01*
X171150741Y-92204996D02*
X171150741Y-92312746D01*
X171150741Y-92312746D02*
X171096867Y-92420495D01*
X171096867Y-92420495D02*
X170962180Y-92555182D01*
X143464998Y-95660868D02*
X143384185Y-95687805D01*
X143384185Y-95687805D02*
X143303373Y-95768618D01*
X143303373Y-95768618D02*
X143249498Y-95876367D01*
X143249498Y-95876367D02*
X143249498Y-95984117D01*
X143249498Y-95984117D02*
X143276436Y-96064929D01*
X143276436Y-96064929D02*
X143357248Y-96199616D01*
X143357248Y-96199616D02*
X143438060Y-96280428D01*
X143438060Y-96280428D02*
X143572747Y-96361241D01*
X143572747Y-96361241D02*
X143653560Y-96388178D01*
X143653560Y-96388178D02*
X143761309Y-96388178D01*
X143761309Y-96388178D02*
X143869059Y-96334303D01*
X143869059Y-96334303D02*
X143922934Y-96280428D01*
X143922934Y-96280428D02*
X143976808Y-96172679D01*
X143976808Y-96172679D02*
X143976808Y-96118804D01*
X143976808Y-96118804D02*
X143788247Y-95930242D01*
X143788247Y-95930242D02*
X143680497Y-96037992D01*
X144273120Y-95930242D02*
X143707434Y-95364557D01*
X143707434Y-95364557D02*
X143922934Y-95149057D01*
X143922934Y-95149057D02*
X144003746Y-95122120D01*
X144003746Y-95122120D02*
X144057621Y-95122120D01*
X144057621Y-95122120D02*
X144138433Y-95149057D01*
X144138433Y-95149057D02*
X144219245Y-95229870D01*
X144219245Y-95229870D02*
X144246182Y-95310682D01*
X144246182Y-95310682D02*
X144246182Y-95364557D01*
X144246182Y-95364557D02*
X144219245Y-95445369D01*
X144219245Y-95445369D02*
X144003746Y-95660868D01*
X145135117Y-95068245D02*
X144811868Y-95391494D01*
X144973492Y-95229870D02*
X144407807Y-94664184D01*
X144407807Y-94664184D02*
X144434744Y-94798871D01*
X144434744Y-94798871D02*
X144434744Y-94906621D01*
X144434744Y-94906621D02*
X144407807Y-94987433D01*
X144919618Y-94152373D02*
X144973492Y-94098499D01*
X144973492Y-94098499D02*
X145054305Y-94071561D01*
X145054305Y-94071561D02*
X145108179Y-94071561D01*
X145108179Y-94071561D02*
X145188992Y-94098499D01*
X145188992Y-94098499D02*
X145323679Y-94179311D01*
X145323679Y-94179311D02*
X145458366Y-94313998D01*
X145458366Y-94313998D02*
X145539178Y-94448685D01*
X145539178Y-94448685D02*
X145566115Y-94529497D01*
X145566115Y-94529497D02*
X145566115Y-94583372D01*
X145566115Y-94583372D02*
X145539178Y-94664184D01*
X145539178Y-94664184D02*
X145485303Y-94718059D01*
X145485303Y-94718059D02*
X145404491Y-94744996D01*
X145404491Y-94744996D02*
X145350616Y-94744996D01*
X145350616Y-94744996D02*
X145269804Y-94718059D01*
X145269804Y-94718059D02*
X145135117Y-94637247D01*
X145135117Y-94637247D02*
X145000430Y-94502560D01*
X145000430Y-94502560D02*
X144919618Y-94367873D01*
X144919618Y-94367873D02*
X144892680Y-94287060D01*
X144892680Y-94287060D02*
X144892680Y-94233186D01*
X144892680Y-94233186D02*
X144919618Y-94152373D01*
X149965475Y-112904200D02*
X150079761Y-112942295D01*
X150079761Y-112942295D02*
X150270237Y-112942295D01*
X150270237Y-112942295D02*
X150346428Y-112904200D01*
X150346428Y-112904200D02*
X150384523Y-112866104D01*
X150384523Y-112866104D02*
X150422618Y-112789914D01*
X150422618Y-112789914D02*
X150422618Y-112713723D01*
X150422618Y-112713723D02*
X150384523Y-112637533D01*
X150384523Y-112637533D02*
X150346428Y-112599438D01*
X150346428Y-112599438D02*
X150270237Y-112561342D01*
X150270237Y-112561342D02*
X150117856Y-112523247D01*
X150117856Y-112523247D02*
X150041666Y-112485152D01*
X150041666Y-112485152D02*
X150003571Y-112447057D01*
X150003571Y-112447057D02*
X149965475Y-112370866D01*
X149965475Y-112370866D02*
X149965475Y-112294676D01*
X149965475Y-112294676D02*
X150003571Y-112218485D01*
X150003571Y-112218485D02*
X150041666Y-112180390D01*
X150041666Y-112180390D02*
X150117856Y-112142295D01*
X150117856Y-112142295D02*
X150308333Y-112142295D01*
X150308333Y-112142295D02*
X150422618Y-112180390D01*
X150689285Y-112142295D02*
X150879761Y-112942295D01*
X150879761Y-112942295D02*
X151032142Y-112370866D01*
X151032142Y-112370866D02*
X151184523Y-112942295D01*
X151184523Y-112942295D02*
X151375000Y-112142295D01*
X152136905Y-112866104D02*
X152098809Y-112904200D01*
X152098809Y-112904200D02*
X151984524Y-112942295D01*
X151984524Y-112942295D02*
X151908333Y-112942295D01*
X151908333Y-112942295D02*
X151794047Y-112904200D01*
X151794047Y-112904200D02*
X151717857Y-112828009D01*
X151717857Y-112828009D02*
X151679762Y-112751819D01*
X151679762Y-112751819D02*
X151641666Y-112599438D01*
X151641666Y-112599438D02*
X151641666Y-112485152D01*
X151641666Y-112485152D02*
X151679762Y-112332771D01*
X151679762Y-112332771D02*
X151717857Y-112256580D01*
X151717857Y-112256580D02*
X151794047Y-112180390D01*
X151794047Y-112180390D02*
X151908333Y-112142295D01*
X151908333Y-112142295D02*
X151984524Y-112142295D01*
X151984524Y-112142295D02*
X152098809Y-112180390D01*
X152098809Y-112180390D02*
X152136905Y-112218485D01*
X152860714Y-112942295D02*
X152479762Y-112942295D01*
X152479762Y-112942295D02*
X152479762Y-112142295D01*
X153127381Y-112942295D02*
X153127381Y-112142295D01*
X153584524Y-112942295D02*
X153241666Y-112485152D01*
X153584524Y-112142295D02*
X153127381Y-112599438D01*
X143418998Y-108360868D02*
X143338185Y-108387805D01*
X143338185Y-108387805D02*
X143257373Y-108468618D01*
X143257373Y-108468618D02*
X143203498Y-108576367D01*
X143203498Y-108576367D02*
X143203498Y-108684117D01*
X143203498Y-108684117D02*
X143230436Y-108764929D01*
X143230436Y-108764929D02*
X143311248Y-108899616D01*
X143311248Y-108899616D02*
X143392060Y-108980428D01*
X143392060Y-108980428D02*
X143526747Y-109061241D01*
X143526747Y-109061241D02*
X143607560Y-109088178D01*
X143607560Y-109088178D02*
X143715309Y-109088178D01*
X143715309Y-109088178D02*
X143823059Y-109034303D01*
X143823059Y-109034303D02*
X143876934Y-108980428D01*
X143876934Y-108980428D02*
X143930808Y-108872679D01*
X143930808Y-108872679D02*
X143930808Y-108818804D01*
X143930808Y-108818804D02*
X143742247Y-108630242D01*
X143742247Y-108630242D02*
X143634497Y-108737992D01*
X144227120Y-108630242D02*
X143661434Y-108064557D01*
X143661434Y-108064557D02*
X143876934Y-107849057D01*
X143876934Y-107849057D02*
X143957746Y-107822120D01*
X143957746Y-107822120D02*
X144011621Y-107822120D01*
X144011621Y-107822120D02*
X144092433Y-107849057D01*
X144092433Y-107849057D02*
X144173245Y-107929870D01*
X144173245Y-107929870D02*
X144200182Y-108010682D01*
X144200182Y-108010682D02*
X144200182Y-108064557D01*
X144200182Y-108064557D02*
X144173245Y-108145369D01*
X144173245Y-108145369D02*
X143957746Y-108360868D01*
X145089117Y-107768245D02*
X144765868Y-108091494D01*
X144927492Y-107929870D02*
X144361807Y-107364184D01*
X144361807Y-107364184D02*
X144388744Y-107498871D01*
X144388744Y-107498871D02*
X144388744Y-107606621D01*
X144388744Y-107606621D02*
X144361807Y-107687433D01*
X145196866Y-106906248D02*
X145573990Y-107283372D01*
X144846680Y-106825436D02*
X145116054Y-107364184D01*
X145116054Y-107364184D02*
X145466240Y-107013998D01*
X143961435Y-92878431D02*
X143880623Y-92905368D01*
X143880623Y-92905368D02*
X143799811Y-92986180D01*
X143799811Y-92986180D02*
X143745936Y-93093930D01*
X143745936Y-93093930D02*
X143745936Y-93201680D01*
X143745936Y-93201680D02*
X143772873Y-93282492D01*
X143772873Y-93282492D02*
X143853685Y-93417179D01*
X143853685Y-93417179D02*
X143934498Y-93497991D01*
X143934498Y-93497991D02*
X144069185Y-93578803D01*
X144069185Y-93578803D02*
X144149997Y-93605741D01*
X144149997Y-93605741D02*
X144257746Y-93605741D01*
X144257746Y-93605741D02*
X144365496Y-93551866D01*
X144365496Y-93551866D02*
X144419371Y-93497991D01*
X144419371Y-93497991D02*
X144473246Y-93390241D01*
X144473246Y-93390241D02*
X144473246Y-93336367D01*
X144473246Y-93336367D02*
X144284684Y-93147805D01*
X144284684Y-93147805D02*
X144176934Y-93255554D01*
X144769557Y-93147805D02*
X144203872Y-92582119D01*
X144203872Y-92582119D02*
X145092806Y-92824556D01*
X145092806Y-92824556D02*
X144527120Y-92258871D01*
X145362180Y-92555182D02*
X144796494Y-91989497D01*
X144796494Y-91989497D02*
X144931181Y-91854810D01*
X144931181Y-91854810D02*
X145038931Y-91800935D01*
X145038931Y-91800935D02*
X145146680Y-91800935D01*
X145146680Y-91800935D02*
X145227493Y-91827872D01*
X145227493Y-91827872D02*
X145362180Y-91908685D01*
X145362180Y-91908685D02*
X145442992Y-91989497D01*
X145442992Y-91989497D02*
X145523804Y-92124184D01*
X145523804Y-92124184D02*
X145550741Y-92204996D01*
X145550741Y-92204996D02*
X145550741Y-92312746D01*
X145550741Y-92312746D02*
X145496867Y-92420495D01*
X145496867Y-92420495D02*
X145362180Y-92555182D01*
X170313651Y-88323710D02*
X169855716Y-88242898D01*
X169990403Y-88646959D02*
X169424717Y-88081274D01*
X169424717Y-88081274D02*
X169640216Y-87865775D01*
X169640216Y-87865775D02*
X169721029Y-87838837D01*
X169721029Y-87838837D02*
X169774903Y-87838837D01*
X169774903Y-87838837D02*
X169855716Y-87865775D01*
X169855716Y-87865775D02*
X169936528Y-87946587D01*
X169936528Y-87946587D02*
X169963465Y-88027399D01*
X169963465Y-88027399D02*
X169963465Y-88081274D01*
X169963465Y-88081274D02*
X169936528Y-88162086D01*
X169936528Y-88162086D02*
X169721029Y-88377585D01*
X169990403Y-87515588D02*
X170448338Y-87973524D01*
X170448338Y-87973524D02*
X170529151Y-88000462D01*
X170529151Y-88000462D02*
X170583025Y-88000462D01*
X170583025Y-88000462D02*
X170663838Y-87973524D01*
X170663838Y-87973524D02*
X170771587Y-87865775D01*
X170771587Y-87865775D02*
X170798525Y-87784962D01*
X170798525Y-87784962D02*
X170798525Y-87731088D01*
X170798525Y-87731088D02*
X170771587Y-87650275D01*
X170771587Y-87650275D02*
X170313651Y-87192340D01*
X171148711Y-87488651D02*
X170583025Y-86922966D01*
X170583025Y-86922966D02*
X171471959Y-87165402D01*
X171471959Y-87165402D02*
X170906274Y-86599717D01*
X123995714Y-60399104D02*
X124471904Y-60399104D01*
X123900476Y-60684819D02*
X124233809Y-59684819D01*
X124233809Y-59684819D02*
X124567142Y-60684819D01*
X125329047Y-60018152D02*
X125329047Y-60684819D01*
X125090952Y-59637200D02*
X124852857Y-60351485D01*
X124852857Y-60351485D02*
X125471904Y-60351485D01*
X123995714Y-85399104D02*
X124471904Y-85399104D01*
X123900476Y-85684819D02*
X124233809Y-84684819D01*
X124233809Y-84684819D02*
X124567142Y-85684819D01*
X124805238Y-84684819D02*
X125424285Y-84684819D01*
X125424285Y-84684819D02*
X125090952Y-85065771D01*
X125090952Y-85065771D02*
X125233809Y-85065771D01*
X125233809Y-85065771D02*
X125329047Y-85113390D01*
X125329047Y-85113390D02*
X125376666Y-85161009D01*
X125376666Y-85161009D02*
X125424285Y-85256247D01*
X125424285Y-85256247D02*
X125424285Y-85494342D01*
X125424285Y-85494342D02*
X125376666Y-85589580D01*
X125376666Y-85589580D02*
X125329047Y-85637200D01*
X125329047Y-85637200D02*
X125233809Y-85684819D01*
X125233809Y-85684819D02*
X124948095Y-85684819D01*
X124948095Y-85684819D02*
X124852857Y-85637200D01*
X124852857Y-85637200D02*
X124805238Y-85589580D01*
X110116666Y-77714819D02*
X110116666Y-78429104D01*
X110116666Y-78429104D02*
X110069047Y-78571961D01*
X110069047Y-78571961D02*
X109973809Y-78667200D01*
X109973809Y-78667200D02*
X109830952Y-78714819D01*
X109830952Y-78714819D02*
X109735714Y-78714819D01*
X110497619Y-77714819D02*
X111116666Y-77714819D01*
X111116666Y-77714819D02*
X110783333Y-78095771D01*
X110783333Y-78095771D02*
X110926190Y-78095771D01*
X110926190Y-78095771D02*
X111021428Y-78143390D01*
X111021428Y-78143390D02*
X111069047Y-78191009D01*
X111069047Y-78191009D02*
X111116666Y-78286247D01*
X111116666Y-78286247D02*
X111116666Y-78524342D01*
X111116666Y-78524342D02*
X111069047Y-78619580D01*
X111069047Y-78619580D02*
X111021428Y-78667200D01*
X111021428Y-78667200D02*
X110926190Y-78714819D01*
X110926190Y-78714819D02*
X110640476Y-78714819D01*
X110640476Y-78714819D02*
X110545238Y-78667200D01*
X110545238Y-78667200D02*
X110497619Y-78619580D01*
D11*
%TO.C,U5*%
X131370000Y-51390000D02*
X131370000Y-56031000D01*
X131370000Y-51390000D02*
X141610000Y-51390000D01*
X131370000Y-52900000D02*
X141610000Y-52900000D01*
X131370000Y-56031000D02*
X141610000Y-56031000D01*
X134640000Y-51390000D02*
X134640000Y-52900000D01*
X138341000Y-51390000D02*
X138341000Y-52900000D01*
X141610000Y-51390000D02*
X141610000Y-56031000D01*
%TO.C,A2*%
X116850000Y-111620000D02*
X116850000Y-113020000D01*
X116850000Y-114290000D02*
X116850000Y-132200000D01*
X116850000Y-132200000D02*
X132350000Y-132200000D01*
X118250000Y-111620000D02*
X116850000Y-111620000D01*
X119520000Y-111620000D02*
X119520000Y-114290000D01*
X119520000Y-114290000D02*
X116850000Y-114290000D01*
X119520000Y-114290000D02*
X119520000Y-132200000D01*
X129680000Y-111620000D02*
X129680000Y-132200000D01*
X132350000Y-111620000D02*
X119520000Y-111620000D01*
X132350000Y-132200000D02*
X132350000Y-111620000D01*
%TO.C,J6*%
X137895000Y-71105000D02*
X137895000Y-83865000D01*
X137895000Y-71105000D02*
X140555000Y-71105000D01*
X137895000Y-83865000D02*
X140555000Y-83865000D01*
X139225000Y-68505000D02*
X140555000Y-68505000D01*
X140555000Y-68505000D02*
X140555000Y-69835000D01*
X140555000Y-71105000D02*
X140555000Y-83865000D01*
%TO.C,J1*%
X106780000Y-124510000D02*
X106780000Y-114290000D01*
X106780000Y-124510000D02*
X104120000Y-124510000D01*
X106780000Y-114290000D02*
X104120000Y-114290000D01*
X105450000Y-127110000D02*
X104120000Y-127110000D01*
X104120000Y-127110000D02*
X104120000Y-125780000D01*
X104120000Y-124510000D02*
X104120000Y-114290000D01*
%TO.C,J4*%
X121430000Y-53580000D02*
X118830000Y-53580000D01*
X121430000Y-53580000D02*
X121430000Y-56240000D01*
X118830000Y-53580000D02*
X118830000Y-56240000D01*
X124030000Y-54910000D02*
X124030000Y-56240000D01*
X124030000Y-56240000D02*
X122700000Y-56240000D01*
X121430000Y-56240000D02*
X118830000Y-56240000D01*
%TO.C,J8*%
X174120000Y-83870000D02*
X174120000Y-83990000D01*
X174120000Y-83990000D02*
X176780000Y-83990000D01*
X175450000Y-81330000D02*
X176780000Y-81330000D01*
X176780000Y-81330000D02*
X176780000Y-82660000D01*
X176780000Y-83870000D02*
X176780000Y-83990000D01*
%TO.C,J7*%
X151880000Y-56240000D02*
X157020000Y-56240000D01*
X151880000Y-56240000D02*
X151880000Y-53580000D01*
X157020000Y-56240000D02*
X157020000Y-53580000D01*
X149280000Y-54910000D02*
X149280000Y-53580000D01*
X149280000Y-53580000D02*
X150610000Y-53580000D01*
X151880000Y-53580000D02*
X157020000Y-53580000D01*
%TO.C,A1*%
X154840000Y-117440000D02*
X154840000Y-135220000D01*
X137060000Y-117440000D02*
X154840000Y-117440000D01*
X152300000Y-127600000D02*
X139600000Y-127600000D01*
X152300000Y-127600000D02*
X152300000Y-137760000D01*
X139600000Y-127600000D02*
X139600000Y-137760000D01*
X154840000Y-135220000D02*
X137060000Y-135220000D01*
X137060000Y-135220000D02*
X137060000Y-117440000D01*
X152300000Y-137760000D02*
X150395000Y-137760000D01*
X151665000Y-137760000D02*
X151665000Y-145380000D01*
X139600000Y-137760000D02*
X141505000Y-137760000D01*
X151665000Y-145380000D02*
X140235000Y-145380000D01*
X140235000Y-145380000D02*
X140235000Y-137760000D01*
X150395000Y-137760001D02*
G75*
G03*
X141505001Y-137760001I-4445000J-10159999D01*
G01*
%TO.C,J2*%
X112030000Y-99220000D02*
X112030000Y-89000000D01*
X112030000Y-99220000D02*
X109370000Y-99220000D01*
X112030000Y-89000000D02*
X109370000Y-89000000D01*
X110700000Y-101820000D02*
X109370000Y-101820000D01*
X109370000Y-101820000D02*
X109370000Y-100490000D01*
X109370000Y-99220000D02*
X109370000Y-89000000D01*
%TO.C,J9*%
X113530000Y-124510000D02*
X113530000Y-114290000D01*
X113530000Y-124510000D02*
X110870000Y-124510000D01*
X113530000Y-114290000D02*
X110870000Y-114290000D01*
X112200000Y-127110000D02*
X110870000Y-127110000D01*
X110870000Y-127110000D02*
X110870000Y-125780000D01*
X110870000Y-124510000D02*
X110870000Y-114290000D01*
%TO.C,J5*%
X176780000Y-109220000D02*
X176780000Y-104080000D01*
X176780000Y-109220000D02*
X174120000Y-109220000D01*
X176780000Y-104080000D02*
X174120000Y-104080000D01*
X175450000Y-111820000D02*
X174120000Y-111820000D01*
X174120000Y-111820000D02*
X174120000Y-110490000D01*
X174120000Y-109220000D02*
X174120000Y-104080000D01*
%TO.C,U4*%
X146975000Y-60880000D02*
X146975000Y-61180000D01*
X146975000Y-60880000D02*
X167975000Y-60880000D01*
X146975000Y-63280000D02*
X146975000Y-63680000D01*
X146975000Y-63547000D02*
X149982000Y-63547000D01*
X146975000Y-65880000D02*
X146975000Y-66280000D01*
X146975000Y-68380000D02*
X146975000Y-68780000D01*
X146975000Y-70980000D02*
X146975000Y-71380000D01*
X146975000Y-73480000D02*
X146975000Y-73880000D01*
X146975000Y-75980000D02*
X146975000Y-76380000D01*
X146975000Y-78580000D02*
X146975000Y-78980000D01*
X146975000Y-81080000D02*
X146975000Y-81480000D01*
X146975000Y-83680000D02*
X146975000Y-84080000D01*
X146975000Y-86180000D02*
X146975000Y-86580000D01*
X146975000Y-88680000D02*
X146975000Y-89080000D01*
X146975000Y-91280000D02*
X146975000Y-91680000D01*
X146975000Y-93780000D02*
X146975000Y-94180000D01*
X146975000Y-96380000D02*
X146975000Y-96780000D01*
X146975000Y-98880000D02*
X146975000Y-99280000D01*
X146975000Y-101480000D02*
X146975000Y-101880000D01*
X146975000Y-103980000D02*
X146975000Y-104380000D01*
X146975000Y-106480000D02*
X146975000Y-106880000D01*
X146975000Y-109080000D02*
X146975000Y-109480000D01*
X149982000Y-63547000D02*
X149982000Y-60880000D01*
X153775000Y-111880000D02*
X146975000Y-111880000D01*
X155975000Y-111880000D02*
X156375000Y-111880000D01*
X158575000Y-111880000D02*
X158975000Y-111880000D01*
X167975000Y-60880000D02*
X167975000Y-61180000D01*
X167975000Y-63280000D02*
X167975000Y-63680000D01*
X167975000Y-65880000D02*
X167975000Y-66280000D01*
X167975000Y-68380000D02*
X167975000Y-68780000D01*
X167975000Y-70980000D02*
X167975000Y-71380000D01*
X167975000Y-73480000D02*
X167975000Y-73880000D01*
X167975000Y-75980000D02*
X167975000Y-76380000D01*
X167975000Y-78580000D02*
X167975000Y-78980000D01*
X167975000Y-81080000D02*
X167975000Y-81480000D01*
X167975000Y-83680000D02*
X167975000Y-84080000D01*
X167975000Y-86180000D02*
X167975000Y-86580000D01*
X167975000Y-88680000D02*
X167975000Y-89080000D01*
X167975000Y-91280000D02*
X167975000Y-91680000D01*
X167975000Y-93780000D02*
X167975000Y-94180000D01*
X167975000Y-96380000D02*
X167975000Y-96780000D01*
X167975000Y-98880000D02*
X167975000Y-99280000D01*
X167975000Y-101480000D02*
X167975000Y-101880000D01*
X167975000Y-103980000D02*
X167975000Y-104380000D01*
X167975000Y-106480000D02*
X167975000Y-106880000D01*
X167975000Y-109080000D02*
X167975000Y-109480000D01*
X167975000Y-111880000D02*
X161175000Y-111880000D01*
%TO.C,A4*%
X116960000Y-61370000D02*
X116960000Y-62770000D01*
X116960000Y-64040000D02*
X116960000Y-81950000D01*
X116960000Y-81950000D02*
X132460000Y-81950000D01*
X118360000Y-61370000D02*
X116960000Y-61370000D01*
X119630000Y-61370000D02*
X119630000Y-64040000D01*
X119630000Y-64040000D02*
X116960000Y-64040000D01*
X119630000Y-64040000D02*
X119630000Y-81950000D01*
X129790000Y-61370000D02*
X129790000Y-81950000D01*
X132460000Y-61370000D02*
X119630000Y-61370000D01*
X132460000Y-81950000D02*
X132460000Y-61370000D01*
%TO.C,A3*%
X116960000Y-86370000D02*
X116960000Y-87770000D01*
X116960000Y-89040000D02*
X116960000Y-106950000D01*
X116960000Y-106950000D02*
X132460000Y-106950000D01*
X118360000Y-86370000D02*
X116960000Y-86370000D01*
X119630000Y-86370000D02*
X119630000Y-89040000D01*
X119630000Y-89040000D02*
X116960000Y-89040000D01*
X119630000Y-89040000D02*
X119630000Y-106950000D01*
X129790000Y-86370000D02*
X129790000Y-106950000D01*
X132460000Y-86370000D02*
X119630000Y-86370000D01*
X132460000Y-106950000D02*
X132460000Y-86370000D01*
%TO.C,J3*%
X111780000Y-74220000D02*
X111780000Y-64000000D01*
X111780000Y-74220000D02*
X109120000Y-74220000D01*
X111780000Y-64000000D02*
X109120000Y-64000000D01*
X110450000Y-76820000D02*
X109120000Y-76820000D01*
X109120000Y-76820000D02*
X109120000Y-75490000D01*
X109120000Y-74220000D02*
X109120000Y-64000000D01*
%TD*%
M02*
