%TF.GenerationSoftware,KiCad,Pcbnew,7.0.9*%
%TF.CreationDate,2023-12-03T20:45:46+01:00*%
%TF.ProjectId,Automatic_sampler_logic,4175746f-6d61-4746-9963-5f73616d706c,rev?*%
%TF.SameCoordinates,Original*%
%TF.FileFunction,Copper,L1,Top*%
%TF.FilePolarity,Positive*%
%FSLAX46Y46*%
G04 Gerber Fmt 4.6, Leading zero omitted, Abs format (unit mm)*
G04 Created by KiCad (PCBNEW 7.0.9) date 2023-12-03 20:45:46*
%MOMM*%
%LPD*%
G01*
G04 APERTURE LIST*
%TA.AperFunction,NonConductor*%
%ADD10C,0.200000*%
%TD*%
%TA.AperFunction,ComponentPad*%
%ADD11R,1.905000X2.000000*%
%TD*%
%TA.AperFunction,ComponentPad*%
%ADD12O,1.905000X2.000000*%
%TD*%
%TA.AperFunction,ComponentPad*%
%ADD13R,1.600000X1.600000*%
%TD*%
%TA.AperFunction,ComponentPad*%
%ADD14O,1.600000X1.600000*%
%TD*%
%TA.AperFunction,ComponentPad*%
%ADD15R,1.700000X1.700000*%
%TD*%
%TA.AperFunction,ComponentPad*%
%ADD16O,1.700000X1.700000*%
%TD*%
%TA.AperFunction,ComponentPad*%
%ADD17R,1.524000X1.524000*%
%TD*%
%TA.AperFunction,ComponentPad*%
%ADD18C,1.524000*%
%TD*%
%TA.AperFunction,SMDPad,CuDef*%
%ADD19R,3.500000X1.700000*%
%TD*%
%TA.AperFunction,SMDPad,CuDef*%
%ADD20R,1.700000X3.500000*%
%TD*%
%TA.AperFunction,Conductor*%
%ADD21C,0.250000*%
%TD*%
G04 APERTURE END LIST*
D10*
X102950000Y-48910000D02*
X177950000Y-48910000D01*
X177950000Y-136410000D01*
X102950000Y-136410000D01*
X102950000Y-48910000D01*
D11*
%TO.P,U5,1,VI*%
%TO.N,+12V*%
X133950000Y-54660000D03*
D12*
%TO.P,U5,2,GND*%
%TO.N,GND*%
X136490000Y-54660000D03*
%TO.P,U5,3,VO*%
%TO.N,+5V*%
X139030000Y-54660000D03*
%TD*%
D13*
%TO.P,A2,1,GND*%
%TO.N,GND*%
X118250000Y-113020000D03*
D14*
%TO.P,A2,2,~{FLT}*%
%TO.N,Net-(A2-~{FLT})*%
X118250000Y-115560000D03*
%TO.P,A2,3,A2*%
%TO.N,Net-(A2-A2)*%
X118250000Y-118100000D03*
%TO.P,A2,4,A1*%
%TO.N,Net-(A2-A1)*%
X118250000Y-120640000D03*
%TO.P,A2,5,B1*%
%TO.N,Net-(A2-B1)*%
X118250000Y-123180000D03*
%TO.P,A2,6,B2*%
%TO.N,Net-(A2-B2)*%
X118250000Y-125720000D03*
%TO.P,A2,7,GND*%
%TO.N,GND*%
X118250000Y-128260000D03*
%TO.P,A2,8,VMOT*%
%TO.N,+12V*%
X118250000Y-130800000D03*
%TO.P,A2,9,~{EN}*%
%TO.N,MOT_EN_X*%
X130950000Y-130800000D03*
%TO.P,A2,10,M0*%
%TO.N,unconnected-(A2-M0-Pad10)*%
X130950000Y-128260000D03*
%TO.P,A2,11,M1*%
%TO.N,unconnected-(A2-M1-Pad11)*%
X130950000Y-125720000D03*
%TO.P,A2,12,M2*%
%TO.N,unconnected-(A2-M2-Pad12)*%
X130950000Y-123180000D03*
%TO.P,A2,13,~{RST}*%
%TO.N,+5V*%
X130950000Y-120640000D03*
%TO.P,A2,14,~{SLP}*%
X130950000Y-118100000D03*
%TO.P,A2,15,STEP*%
%TO.N,MOT_ST*%
X130950000Y-115560000D03*
%TO.P,A2,16,DIR*%
%TO.N,MOT_DIR*%
X130950000Y-113020000D03*
%TD*%
D15*
%TO.P,J6,1,Pin_1*%
%TO.N,LCD_D7*%
X139225000Y-69835000D03*
D16*
%TO.P,J6,2,Pin_2*%
%TO.N,LCD_D6*%
X139225000Y-72375000D03*
%TO.P,J6,3,Pin_3*%
%TO.N,LCD_D5*%
X139225000Y-74915000D03*
%TO.P,J6,4,Pin_4*%
%TO.N,LCD_D4*%
X139225000Y-77455000D03*
%TO.P,J6,5,Pin_5*%
%TO.N,LCD_RS*%
X139225000Y-79995000D03*
%TO.P,J6,6,Pin_6*%
%TO.N,LCD_E*%
X139225000Y-82535000D03*
%TD*%
D15*
%TO.P,J1,1,Pin_1*%
%TO.N,Net-(A2-B2)*%
X105450000Y-125780000D03*
D16*
%TO.P,J1,2,Pin_2*%
%TO.N,Net-(A2-B1)*%
X105450000Y-123240000D03*
%TO.P,J1,3,Pin_3*%
%TO.N,Net-(A2-A1)*%
X105450000Y-120700000D03*
%TO.P,J1,4,Pin_4*%
%TO.N,Net-(A2-A2)*%
X105450000Y-118160000D03*
%TO.P,J1,5,Pin_5*%
%TO.N,Net-(A2-~{FLT})*%
X105450000Y-115620000D03*
%TD*%
D15*
%TO.P,J4,1,Pin_1*%
%TO.N,GND*%
X122700000Y-54910000D03*
D16*
%TO.P,J4,2,Pin_2*%
%TO.N,+12V*%
X120160000Y-54910000D03*
%TD*%
D15*
%TO.P,J8,1,Pin_1*%
%TO.N,Button*%
X175450000Y-82660000D03*
%TD*%
%TO.P,J7,1,Pin_1*%
%TO.N,+5V*%
X150610000Y-54910000D03*
D16*
%TO.P,J7,2,Pin_2*%
%TO.N,+3.3V*%
X153150000Y-54910000D03*
%TO.P,J7,3,Pin_3*%
%TO.N,GND*%
X155690000Y-54910000D03*
%TD*%
D17*
%TO.P,A1,1,3V3*%
%TO.N,+3.3V*%
X152300000Y-118710000D03*
D18*
%TO.P,A1,2,CS*%
%TO.N,SD_CS*%
X149760000Y-118710000D03*
%TO.P,A1,3,MOSI*%
%TO.N,SD_MOSI*%
X147220000Y-118710000D03*
%TO.P,A1,4,CLK*%
%TO.N,SD_CLK*%
X144680000Y-118710000D03*
%TO.P,A1,5,MISO*%
%TO.N,SD_MISO*%
X142140000Y-118710000D03*
%TO.P,A1,6,GND*%
%TO.N,GND*%
X139600000Y-118710000D03*
%TD*%
D15*
%TO.P,J2,1,Pin_1*%
%TO.N,Net-(A3-B2)*%
X110700000Y-100490000D03*
D16*
%TO.P,J2,2,Pin_2*%
%TO.N,Net-(A3-B1)*%
X110700000Y-97950000D03*
%TO.P,J2,3,Pin_3*%
%TO.N,Net-(A3-A1)*%
X110700000Y-95410000D03*
%TO.P,J2,4,Pin_4*%
%TO.N,Net-(A3-A2)*%
X110700000Y-92870000D03*
%TO.P,J2,5,Pin_5*%
%TO.N,Net-(A3-~{FLT})*%
X110700000Y-90330000D03*
%TD*%
D15*
%TO.P,J9,1,Pin_1*%
%TO.N,Net-(A2-B2)*%
X112200000Y-125780000D03*
D16*
%TO.P,J9,2,Pin_2*%
%TO.N,Net-(A2-B1)*%
X112200000Y-123240000D03*
%TO.P,J9,3,Pin_3*%
%TO.N,Net-(A2-A1)*%
X112200000Y-120700000D03*
%TO.P,J9,4,Pin_4*%
%TO.N,Net-(A2-A2)*%
X112200000Y-118160000D03*
%TO.P,J9,5,Pin_5*%
%TO.N,Net-(A2-~{FLT})*%
X112200000Y-115620000D03*
%TD*%
D15*
%TO.P,J5,1,Pin_1*%
%TO.N,F_X*%
X175450000Y-110490000D03*
D16*
%TO.P,J5,2,Pin_2*%
%TO.N,F_Y*%
X175450000Y-107950000D03*
%TO.P,J5,3,Pin_3*%
%TO.N,F_Z*%
X175450000Y-105410000D03*
%TD*%
%TO.P,U4,1,GPIO0*%
%TO.N,MOT_ST*%
X148585000Y-62250000D03*
D19*
X147685000Y-62250000D03*
D16*
%TO.P,U4,2,GPIO1*%
%TO.N,MOT_DIR*%
X148585000Y-64790000D03*
D19*
X147685000Y-64790000D03*
D15*
%TO.P,U4,3,GND*%
%TO.N,unconnected-(U4-GND-Pad3)*%
X148585000Y-67330000D03*
D19*
X147685000Y-67330000D03*
D16*
%TO.P,U4,4,GPIO2*%
%TO.N,LCD_D7*%
X148585000Y-69870000D03*
D19*
X147685000Y-69870000D03*
D16*
%TO.P,U4,5,GPIO3*%
%TO.N,LCD_D6*%
X148585000Y-72410000D03*
D19*
X147685000Y-72410000D03*
D16*
%TO.P,U4,6,GPIO4*%
%TO.N,LCD_D5*%
X148585000Y-74950000D03*
D19*
X147685000Y-74950000D03*
D16*
%TO.P,U4,7,GPIO5*%
%TO.N,LCD_D4*%
X148585000Y-77490000D03*
D19*
X147685000Y-77490000D03*
D15*
%TO.P,U4,8,GND*%
%TO.N,unconnected-(U4-GND-Pad8)*%
X148585000Y-80030000D03*
D19*
X147685000Y-80030000D03*
D16*
%TO.P,U4,9,GPIO6*%
%TO.N,MOT_EN_X*%
X148585000Y-82570000D03*
D19*
X147685000Y-82570000D03*
D16*
%TO.P,U4,10,GPIO7*%
%TO.N,MOT_EN_Y*%
X148585000Y-85110000D03*
D19*
X147685000Y-85110000D03*
D16*
%TO.P,U4,11,GPIO8*%
%TO.N,SD_MISO*%
X148585000Y-87650000D03*
D19*
X147685000Y-87650000D03*
D16*
%TO.P,U4,12,GPIO9*%
%TO.N,MOT_EN_Z*%
X148585000Y-90190000D03*
D19*
X147685000Y-90190000D03*
D15*
%TO.P,U4,13,GND*%
%TO.N,unconnected-(U4-GND-Pad13)*%
X148585000Y-92730000D03*
D19*
X147685000Y-92730000D03*
D16*
%TO.P,U4,14,GPIO10*%
%TO.N,SD_CLK*%
X148585000Y-95270000D03*
D19*
X147685000Y-95270000D03*
D16*
%TO.P,U4,15,GPIO11*%
%TO.N,LCD_E*%
X148585000Y-97810000D03*
D19*
X147685000Y-97810000D03*
D16*
%TO.P,U4,16,GPIO12*%
%TO.N,LCD_RS*%
X148585000Y-100350000D03*
D19*
X147685000Y-100350000D03*
D16*
%TO.P,U4,17,GPIO13*%
%TO.N,SD_CS*%
X148585000Y-102890000D03*
D19*
X147685000Y-102890000D03*
D15*
%TO.P,U4,18,GND*%
%TO.N,unconnected-(U4-GND-Pad18)*%
X148585000Y-105430000D03*
D19*
X147685000Y-105430000D03*
D16*
%TO.P,U4,19,GPIO14*%
%TO.N,unconnected-(U4-GPIO14-Pad19)*%
X148585000Y-107970000D03*
D19*
X147685000Y-107970000D03*
D16*
%TO.P,U4,20,GPIO15*%
%TO.N,SD_MOSI*%
X148585000Y-110510000D03*
D19*
X147685000Y-110510000D03*
D16*
%TO.P,U4,21,GPIO16*%
%TO.N,F_X*%
X166365000Y-110510000D03*
D19*
X167265000Y-110510000D03*
D16*
%TO.P,U4,22,GPIO17*%
%TO.N,F_Y*%
X166365000Y-107970000D03*
D19*
X167265000Y-107970000D03*
D15*
%TO.P,U4,23,GND*%
%TO.N,unconnected-(U4-GND-Pad23)*%
X166365000Y-105430000D03*
D19*
X167265000Y-105430000D03*
D16*
%TO.P,U4,24,GPIO18*%
%TO.N,unconnected-(U4-GPIO18-Pad24)*%
X166365000Y-102890000D03*
D19*
X167265000Y-102890000D03*
D16*
%TO.P,U4,25,GPIO19*%
%TO.N,unconnected-(U4-GPIO19-Pad25)*%
X166365000Y-100350000D03*
D19*
X167265000Y-100350000D03*
D16*
%TO.P,U4,26,GPIO20*%
%TO.N,unconnected-(U4-GPIO20-Pad26)*%
X166365000Y-97810000D03*
D19*
X167265000Y-97810000D03*
D16*
%TO.P,U4,27,GPIO21*%
%TO.N,unconnected-(U4-GPIO21-Pad27)*%
X166365000Y-95270000D03*
D19*
X167265000Y-95270000D03*
D15*
%TO.P,U4,28,GND*%
%TO.N,unconnected-(U4-GND-Pad28)*%
X166365000Y-92730000D03*
D19*
X167265000Y-92730000D03*
D16*
%TO.P,U4,29,GPIO22*%
%TO.N,F_Z*%
X166365000Y-90190000D03*
D19*
X167265000Y-90190000D03*
D16*
%TO.P,U4,30,RUN*%
%TO.N,unconnected-(U4-RUN-Pad30)*%
X166365000Y-87650000D03*
D19*
X167265000Y-87650000D03*
D16*
%TO.P,U4,31,GPIO26_ADC0*%
%TO.N,unconnected-(U4-GPIO26_ADC0-Pad31)*%
X166365000Y-85110000D03*
D19*
X167265000Y-85110000D03*
D16*
%TO.P,U4,32,GPIO27_ADC1*%
%TO.N,Button*%
X166365000Y-82570000D03*
D19*
X167265000Y-82570000D03*
D15*
%TO.P,U4,33,AGND*%
%TO.N,unconnected-(U4-AGND-Pad33)*%
X166365000Y-80030000D03*
D19*
X167265000Y-80030000D03*
D16*
%TO.P,U4,34,GPIO28_ADC2*%
%TO.N,unconnected-(U4-GPIO28_ADC2-Pad34)*%
X166365000Y-77490000D03*
D19*
X167265000Y-77490000D03*
D16*
%TO.P,U4,35,ADC_VREF*%
%TO.N,unconnected-(U4-ADC_VREF-Pad35)*%
X166365000Y-74950000D03*
D19*
X167265000Y-74950000D03*
D16*
%TO.P,U4,36,3V3*%
%TO.N,+3.3V*%
X166365000Y-72410000D03*
D19*
X167265000Y-72410000D03*
D16*
%TO.P,U4,37,3V3_EN*%
%TO.N,unconnected-(U4-3V3_EN-Pad37)*%
X166365000Y-69870000D03*
D19*
X167265000Y-69870000D03*
D15*
%TO.P,U4,38,GND*%
%TO.N,GND*%
X166365000Y-67330000D03*
D19*
X167265000Y-67330000D03*
D16*
%TO.P,U4,39,VSYS*%
%TO.N,+5V*%
X166365000Y-64790000D03*
D19*
X167265000Y-64790000D03*
D16*
%TO.P,U4,40,VBUS*%
%TO.N,unconnected-(U4-VBUS-Pad40)*%
X166365000Y-62250000D03*
D19*
X167265000Y-62250000D03*
D16*
%TO.P,U4,41,SWCLK*%
%TO.N,unconnected-(U4-SWCLK-Pad41)*%
X154935000Y-110280000D03*
D20*
X154935000Y-111180000D03*
D15*
%TO.P,U4,42,GND*%
%TO.N,unconnected-(U4-GND-Pad42)*%
X157475000Y-110280000D03*
D20*
X157475000Y-111180000D03*
D16*
%TO.P,U4,43,SWDIO*%
%TO.N,unconnected-(U4-SWDIO-Pad43)*%
X160015000Y-110280000D03*
D20*
X160015000Y-111180000D03*
%TD*%
D13*
%TO.P,A4,1,GND*%
%TO.N,GND*%
X118360000Y-62770000D03*
D14*
%TO.P,A4,2,~{FLT}*%
%TO.N,Net-(A4-~{FLT})*%
X118360000Y-65310000D03*
%TO.P,A4,3,A2*%
%TO.N,Net-(A4-A2)*%
X118360000Y-67850000D03*
%TO.P,A4,4,A1*%
%TO.N,Net-(A4-A1)*%
X118360000Y-70390000D03*
%TO.P,A4,5,B1*%
%TO.N,Net-(A4-B1)*%
X118360000Y-72930000D03*
%TO.P,A4,6,B2*%
%TO.N,Net-(A4-B2)*%
X118360000Y-75470000D03*
%TO.P,A4,7,GND*%
%TO.N,GND*%
X118360000Y-78010000D03*
%TO.P,A4,8,VMOT*%
%TO.N,+12V*%
X118360000Y-80550000D03*
%TO.P,A4,9,~{EN}*%
%TO.N,MOT_EN_Z*%
X131060000Y-80550000D03*
%TO.P,A4,10,M0*%
%TO.N,unconnected-(A4-M0-Pad10)*%
X131060000Y-78010000D03*
%TO.P,A4,11,M1*%
%TO.N,unconnected-(A4-M1-Pad11)*%
X131060000Y-75470000D03*
%TO.P,A4,12,M2*%
%TO.N,unconnected-(A4-M2-Pad12)*%
X131060000Y-72930000D03*
%TO.P,A4,13,~{RST}*%
%TO.N,+5V*%
X131060000Y-70390000D03*
%TO.P,A4,14,~{SLP}*%
X131060000Y-67850000D03*
%TO.P,A4,15,STEP*%
%TO.N,MOT_ST*%
X131060000Y-65310000D03*
%TO.P,A4,16,DIR*%
%TO.N,MOT_DIR*%
X131060000Y-62770000D03*
%TD*%
D13*
%TO.P,A3,1,GND*%
%TO.N,GND*%
X118360000Y-87770000D03*
D14*
%TO.P,A3,2,~{FLT}*%
%TO.N,Net-(A3-~{FLT})*%
X118360000Y-90310000D03*
%TO.P,A3,3,A2*%
%TO.N,Net-(A3-A2)*%
X118360000Y-92850000D03*
%TO.P,A3,4,A1*%
%TO.N,Net-(A3-A1)*%
X118360000Y-95390000D03*
%TO.P,A3,5,B1*%
%TO.N,Net-(A3-B1)*%
X118360000Y-97930000D03*
%TO.P,A3,6,B2*%
%TO.N,Net-(A3-B2)*%
X118360000Y-100470000D03*
%TO.P,A3,7,GND*%
%TO.N,GND*%
X118360000Y-103010000D03*
%TO.P,A3,8,VMOT*%
%TO.N,+12V*%
X118360000Y-105550000D03*
%TO.P,A3,9,~{EN}*%
%TO.N,MOT_EN_Y*%
X131060000Y-105550000D03*
%TO.P,A3,10,M0*%
%TO.N,unconnected-(A3-M0-Pad10)*%
X131060000Y-103010000D03*
%TO.P,A3,11,M1*%
%TO.N,unconnected-(A3-M1-Pad11)*%
X131060000Y-100470000D03*
%TO.P,A3,12,M2*%
%TO.N,unconnected-(A3-M2-Pad12)*%
X131060000Y-97930000D03*
%TO.P,A3,13,~{RST}*%
%TO.N,+5V*%
X131060000Y-95390000D03*
%TO.P,A3,14,~{SLP}*%
X131060000Y-92850000D03*
%TO.P,A3,15,STEP*%
%TO.N,MOT_ST*%
X131060000Y-90310000D03*
%TO.P,A3,16,DIR*%
%TO.N,MOT_DIR*%
X131060000Y-87770000D03*
%TD*%
D15*
%TO.P,J3,1,Pin_1*%
%TO.N,Net-(A4-B2)*%
X110450000Y-75490000D03*
D16*
%TO.P,J3,2,Pin_2*%
%TO.N,Net-(A4-B1)*%
X110450000Y-72950000D03*
%TO.P,J3,3,Pin_3*%
%TO.N,Net-(A4-A1)*%
X110450000Y-70410000D03*
%TO.P,J3,4,Pin_4*%
%TO.N,Net-(A4-A2)*%
X110450000Y-67870000D03*
%TO.P,J3,5,Pin_5*%
%TO.N,Net-(A4-~{FLT})*%
X110450000Y-65330000D03*
%TD*%
D21*
%TO.N,SD_MISO*%
X143440000Y-120010000D02*
X142140000Y-118710000D01*
X145350000Y-120010000D02*
X143440000Y-120010000D01*
X145950000Y-119410000D02*
X145350000Y-120010000D01*
X145950000Y-117810000D02*
X145950000Y-119410000D01*
X150700000Y-95505000D02*
X149695000Y-96510000D01*
X144950000Y-116810000D02*
X145950000Y-117810000D01*
X150700000Y-88460000D02*
X150700000Y-95505000D01*
X149890000Y-87650000D02*
X150700000Y-88460000D01*
X149695000Y-96510000D02*
X145650000Y-96510000D01*
X148585000Y-87650000D02*
X149890000Y-87650000D01*
X145650000Y-96510000D02*
X144950000Y-97210000D01*
X144950000Y-97210000D02*
X144950000Y-116810000D01*
%TO.N,LCD_E*%
X149650000Y-97810000D02*
X148585000Y-97810000D01*
X151700000Y-95760000D02*
X149650000Y-97810000D01*
X151700000Y-70635000D02*
X151700000Y-95760000D01*
X149675000Y-68610000D02*
X151700000Y-70635000D01*
X143650000Y-68610000D02*
X149675000Y-68610000D01*
X135950000Y-76910000D02*
X135950000Y-69160000D01*
X137750000Y-78710000D02*
X135950000Y-76910000D01*
X140950000Y-80810000D02*
X140950000Y-79710000D01*
X140950000Y-79710000D02*
X139950000Y-78710000D01*
X139950000Y-78710000D02*
X137750000Y-78710000D01*
X135950000Y-69160000D02*
X137700000Y-67410000D01*
X139225000Y-82535000D02*
X140950000Y-80810000D01*
X137700000Y-67410000D02*
X142450000Y-67410000D01*
X142450000Y-67410000D02*
X143650000Y-68610000D01*
%TO.N,LCD_RS*%
X152950000Y-95985000D02*
X148585000Y-100350000D01*
X152950000Y-69410000D02*
X152950000Y-95985000D01*
X149550000Y-66010000D02*
X152950000Y-69410000D01*
X134450000Y-68910000D02*
X137350000Y-66010000D01*
X137285000Y-79995000D02*
X134450000Y-77160000D01*
X137350000Y-66010000D02*
X149550000Y-66010000D01*
X139225000Y-79995000D02*
X137285000Y-79995000D01*
X134450000Y-77160000D02*
X134450000Y-68910000D01*
%TO.N,MOT_DIR*%
X129700000Y-99910000D02*
X129700000Y-111770000D01*
X130450000Y-99160000D02*
X129700000Y-99910000D01*
X134050000Y-97060000D02*
X131950000Y-99160000D01*
X129700000Y-111770000D02*
X130950000Y-113020000D01*
X134050000Y-90760000D02*
X134050000Y-97060000D01*
X131060000Y-87770000D02*
X134050000Y-90760000D01*
X131950000Y-99160000D02*
X130450000Y-99160000D01*
%TO.N,MOT_EN_X*%
X134750000Y-127000000D02*
X130950000Y-130800000D01*
X134750000Y-113910000D02*
X134750000Y-127000000D01*
X138750000Y-109910000D02*
X134750000Y-113910000D01*
X138750000Y-97710000D02*
X138750000Y-109910000D01*
X144950000Y-91510000D02*
X138750000Y-97710000D01*
X149615000Y-91510000D02*
X144950000Y-91510000D01*
X149900000Y-91225000D02*
X149615000Y-91510000D01*
X149655000Y-88910000D02*
X149900000Y-89155000D01*
X145695000Y-88910000D02*
X149655000Y-88910000D01*
X144650000Y-87865000D02*
X145695000Y-88910000D01*
X144650000Y-86710000D02*
X144650000Y-87865000D01*
X144950000Y-86410000D02*
X144650000Y-86710000D01*
X149635000Y-86410000D02*
X144950000Y-86410000D01*
X150350000Y-85695000D02*
X149635000Y-86410000D01*
X150350000Y-83110000D02*
X150350000Y-85695000D01*
X149900000Y-89155000D02*
X149900000Y-91225000D01*
X149810000Y-82570000D02*
X150350000Y-83110000D01*
X148585000Y-82570000D02*
X149810000Y-82570000D01*
%TO.N,SD_CLK*%
X143650000Y-117680000D02*
X144680000Y-118710000D01*
X143650000Y-97510000D02*
X143650000Y-117680000D01*
X145890000Y-95270000D02*
X143650000Y-97510000D01*
X148585000Y-95270000D02*
X145890000Y-95270000D01*
%TO.N,MOT_DIR*%
X131420991Y-74160000D02*
X130200000Y-74160000D01*
X130200000Y-74160000D02*
X128650000Y-75710000D01*
X128650000Y-75710000D02*
X128650000Y-85360000D01*
X128650000Y-85360000D02*
X131060000Y-87770000D01*
X133080000Y-72500991D02*
X131420991Y-74160000D01*
X133080000Y-64790000D02*
X133080000Y-72500991D01*
%TO.N,MOT_ST*%
X129845000Y-71515000D02*
X131595000Y-71515000D01*
X132185000Y-70925000D02*
X132185000Y-66435000D01*
X132185000Y-66435000D02*
X131060000Y-65310000D01*
X127550000Y-73810000D02*
X129845000Y-71515000D01*
X131595000Y-71515000D02*
X132185000Y-70925000D01*
X131060000Y-90310000D02*
X127550000Y-86800000D01*
X127550000Y-86800000D02*
X127550000Y-73810000D01*
%TO.N,MOT_EN_Y*%
X129650000Y-83810000D02*
X135050000Y-89210000D01*
X135050000Y-89210000D02*
X135050000Y-101560000D01*
X130350000Y-79310000D02*
X129650000Y-80010000D01*
X131850000Y-79310000D02*
X130350000Y-79310000D01*
X137650000Y-85110000D02*
X131850000Y-79310000D01*
X129650000Y-80010000D02*
X129650000Y-83810000D01*
X135050000Y-101560000D02*
X131060000Y-105550000D01*
X148585000Y-85110000D02*
X137650000Y-85110000D01*
%TO.N,Button*%
X166455000Y-82660000D02*
X166365000Y-82570000D01*
X175450000Y-82660000D02*
X166455000Y-82660000D01*
%TO.N,+3.3V*%
X160400000Y-118710000D02*
X152300000Y-118710000D01*
X163950000Y-115160000D02*
X160400000Y-118710000D01*
X165162919Y-72447081D02*
X163950000Y-73660000D01*
X165162919Y-72410000D02*
X165162919Y-72447081D01*
X163950000Y-73660000D02*
X163950000Y-115160000D01*
%TO.N,MOT_ST*%
X132950000Y-95410000D02*
X132950000Y-92200000D01*
X131700000Y-96660000D02*
X132950000Y-95410000D01*
X130450000Y-96660000D02*
X131700000Y-96660000D01*
X128200000Y-98910000D02*
X130450000Y-96660000D01*
X128200000Y-112810000D02*
X128200000Y-98910000D01*
X132950000Y-92200000D02*
X131060000Y-90310000D01*
X130950000Y-115560000D02*
X128200000Y-112810000D01*
%TO.N,MOT_EN_Z*%
X140700000Y-90190000D02*
X148585000Y-90190000D01*
X131060000Y-80550000D02*
X140700000Y-90190000D01*
%TO.N,MOT_DIR*%
X131060000Y-62770000D02*
X133080000Y-64790000D01*
X133080000Y-64790000D02*
X148585000Y-64790000D01*
%TO.N,MOT_ST*%
X129200000Y-59660000D02*
X145995000Y-59660000D01*
X145995000Y-59660000D02*
X148585000Y-62250000D01*
X128200000Y-60660000D02*
X129200000Y-59660000D01*
X131060000Y-65310000D02*
X128200000Y-62450000D01*
X128200000Y-62450000D02*
X128200000Y-60660000D01*
%TO.N,+5V*%
X130950000Y-118100000D02*
X130950000Y-120640000D01*
X126200000Y-113350000D02*
X130950000Y-118100000D01*
X126200000Y-87990000D02*
X126200000Y-113350000D01*
X131060000Y-92850000D02*
X131060000Y-95390000D01*
X126200000Y-87990000D02*
X131060000Y-92850000D01*
X126200000Y-62990000D02*
X126200000Y-87990000D01*
X131060000Y-67850000D02*
X131060000Y-70390000D01*
X126200000Y-62990000D02*
X131060000Y-67850000D01*
X126200000Y-60410000D02*
X126200000Y-62990000D01*
X128450000Y-58160000D02*
X126200000Y-60410000D01*
X135530000Y-58160000D02*
X128450000Y-58160000D01*
X139030000Y-54660000D02*
X135530000Y-58160000D01*
%TO.N,Net-(A2-~{FLT})*%
X112200000Y-115620000D02*
X118190000Y-115620000D01*
X118190000Y-115620000D02*
X118250000Y-115560000D01*
%TO.N,Net-(A2-A2)*%
X118190000Y-118160000D02*
X118250000Y-118100000D01*
X112200000Y-118160000D02*
X118190000Y-118160000D01*
%TO.N,Net-(A2-A1)*%
X118190000Y-120700000D02*
X118250000Y-120640000D01*
X112200000Y-120700000D02*
X118190000Y-120700000D01*
%TO.N,Net-(A2-B1)*%
X118190000Y-123240000D02*
X118250000Y-123180000D01*
X112200000Y-123240000D02*
X118190000Y-123240000D01*
%TO.N,Net-(A2-B2)*%
X118190000Y-125780000D02*
X118250000Y-125720000D01*
X112200000Y-125780000D02*
X118190000Y-125780000D01*
X105450000Y-125780000D02*
X112200000Y-125780000D01*
%TO.N,Net-(A2-B1)*%
X105450000Y-123240000D02*
X112200000Y-123240000D01*
%TO.N,Net-(A2-A1)*%
X105450000Y-120700000D02*
X112200000Y-120700000D01*
%TO.N,Net-(A2-A2)*%
X105450000Y-118160000D02*
X112200000Y-118160000D01*
%TO.N,Net-(A2-~{FLT})*%
X105450000Y-115620000D02*
X112200000Y-115620000D01*
%TO.N,Net-(A3-B2)*%
X118340000Y-100490000D02*
X118360000Y-100470000D01*
X110700000Y-100490000D02*
X118340000Y-100490000D01*
%TO.N,Net-(A3-B1)*%
X118340000Y-97950000D02*
X118360000Y-97930000D01*
X110700000Y-97950000D02*
X118340000Y-97950000D01*
%TO.N,Net-(A3-A1)*%
X118340000Y-95410000D02*
X118360000Y-95390000D01*
X110700000Y-95410000D02*
X118340000Y-95410000D01*
%TO.N,Net-(A3-A2)*%
X118340000Y-92870000D02*
X118360000Y-92850000D01*
X110700000Y-92870000D02*
X118340000Y-92870000D01*
%TO.N,Net-(A3-~{FLT})*%
X118340000Y-90330000D02*
X118360000Y-90310000D01*
X110700000Y-90330000D02*
X118340000Y-90330000D01*
%TO.N,Net-(A4-~{FLT})*%
X110470000Y-65310000D02*
X110450000Y-65330000D01*
X118360000Y-65310000D02*
X110470000Y-65310000D01*
%TO.N,Net-(A4-A2)*%
X110470000Y-67850000D02*
X110450000Y-67870000D01*
X118360000Y-67850000D02*
X110470000Y-67850000D01*
%TO.N,Net-(A4-A1)*%
X118360000Y-70390000D02*
X110470000Y-70390000D01*
X110470000Y-70390000D02*
X110450000Y-70410000D01*
%TO.N,Net-(A4-B1)*%
X110470000Y-72930000D02*
X110450000Y-72950000D01*
X118360000Y-72930000D02*
X110470000Y-72930000D01*
%TO.N,Net-(A4-B2)*%
X118360000Y-75470000D02*
X110470000Y-75470000D01*
X110470000Y-75470000D02*
X110450000Y-75490000D01*
%TO.N,SD_CS*%
X149680000Y-102890000D02*
X148585000Y-102890000D01*
X151950000Y-105160000D02*
X149680000Y-102890000D01*
X151950000Y-110410000D02*
X151950000Y-105160000D01*
X149760000Y-112600000D02*
X151950000Y-110410000D01*
X149760000Y-118710000D02*
X149760000Y-112600000D01*
%TO.N,SD_MOSI*%
X147220000Y-111875000D02*
X148585000Y-110510000D01*
X147220000Y-118710000D02*
X147220000Y-111875000D01*
%TO.N,F_X*%
X166385000Y-110490000D02*
X166365000Y-110510000D01*
X175450000Y-110490000D02*
X166385000Y-110490000D01*
%TO.N,F_Y*%
X166385000Y-107950000D02*
X166365000Y-107970000D01*
X175450000Y-107950000D02*
X166385000Y-107950000D01*
%TO.N,F_Z*%
X170980000Y-90190000D02*
X175450000Y-94660000D01*
X175450000Y-94660000D02*
X175450000Y-105410000D01*
X166365000Y-90190000D02*
X170980000Y-90190000D01*
X167975000Y-90190000D02*
X168005000Y-90160000D01*
X166365000Y-90190000D02*
X167975000Y-90190000D01*
%TO.N,+3.3V*%
X156400000Y-58160000D02*
X153150000Y-54910000D01*
X162200000Y-69447081D02*
X162200000Y-59910000D01*
X160450000Y-58160000D02*
X156400000Y-58160000D01*
X165162919Y-72410000D02*
X162200000Y-69447081D01*
X166365000Y-72410000D02*
X165162919Y-72410000D01*
X162200000Y-59910000D02*
X160450000Y-58160000D01*
%TO.N,GND*%
X159200000Y-54910000D02*
X155690000Y-54910000D01*
X163450000Y-59160000D02*
X159200000Y-54910000D01*
X163450000Y-64415000D02*
X163450000Y-59160000D01*
X166365000Y-67330000D02*
X163450000Y-64415000D01*
%TO.N,+5V*%
X167975000Y-64790000D02*
X166365000Y-64790000D01*
X170700000Y-62065000D02*
X167975000Y-64790000D01*
X170700000Y-55660000D02*
X170700000Y-62065000D01*
X166700000Y-51660000D02*
X170700000Y-55660000D01*
X153700000Y-51660000D02*
X166700000Y-51660000D01*
X150610000Y-54750000D02*
X153700000Y-51660000D01*
X150610000Y-54910000D02*
X150610000Y-54750000D01*
X150610000Y-54820000D02*
X150610000Y-54910000D01*
X147450000Y-51660000D02*
X150610000Y-54820000D01*
X142030000Y-51660000D02*
X147450000Y-51660000D01*
X139030000Y-54660000D02*
X142030000Y-51660000D01*
%TO.N,+12V*%
X131200000Y-51410000D02*
X133950000Y-54160000D01*
X123660000Y-51410000D02*
X131200000Y-51410000D01*
X120160000Y-54910000D02*
X123660000Y-51410000D01*
X133950000Y-54160000D02*
X133950000Y-54660000D01*
X120160000Y-54910000D02*
X120160000Y-78750000D01*
%TO.N,LCD_D4*%
X148550000Y-77455000D02*
X148585000Y-77490000D01*
X139225000Y-77455000D02*
X148550000Y-77455000D01*
%TO.N,LCD_D5*%
X139225000Y-74915000D02*
X148550000Y-74915000D01*
X148550000Y-74915000D02*
X148585000Y-74950000D01*
%TO.N,LCD_D6*%
X148550000Y-72375000D02*
X148585000Y-72410000D01*
X139225000Y-72375000D02*
X148550000Y-72375000D01*
%TO.N,LCD_D7*%
X148550000Y-69835000D02*
X148585000Y-69870000D01*
X139225000Y-69835000D02*
X148550000Y-69835000D01*
%TO.N,+12V*%
X120160000Y-128890000D02*
X118250000Y-130800000D01*
X120160000Y-103750000D02*
X120160000Y-128890000D01*
X118360000Y-105550000D02*
X120160000Y-103750000D01*
X120160000Y-103750000D02*
X120160000Y-78750000D01*
X120160000Y-78750000D02*
X118360000Y-80550000D01*
%TD*%
%TA.AperFunction,Conductor*%
%TO.N,GND*%
G36*
X166456587Y-52305185D02*
G01*
X166477229Y-52321819D01*
X170038181Y-55882771D01*
X170071666Y-55944094D01*
X170074500Y-55970452D01*
X170074500Y-61754547D01*
X170054815Y-61821586D01*
X170038181Y-61842228D01*
X169727180Y-62153229D01*
X169665857Y-62186714D01*
X169596165Y-62181730D01*
X169540232Y-62139858D01*
X169515815Y-62074394D01*
X169515499Y-62065548D01*
X169515499Y-61352129D01*
X169515498Y-61352123D01*
X169515497Y-61352116D01*
X169509091Y-61292517D01*
X169506817Y-61286421D01*
X169458797Y-61157671D01*
X169458793Y-61157664D01*
X169372547Y-61042455D01*
X169372544Y-61042452D01*
X169257335Y-60956206D01*
X169257328Y-60956202D01*
X169122482Y-60905908D01*
X169122483Y-60905908D01*
X169062883Y-60899501D01*
X169062881Y-60899500D01*
X169062873Y-60899500D01*
X169062865Y-60899500D01*
X166426680Y-60899500D01*
X166421278Y-60899264D01*
X166382494Y-60895871D01*
X166365001Y-60894341D01*
X166364998Y-60894341D01*
X166337715Y-60896727D01*
X166308719Y-60899264D01*
X166303319Y-60899500D01*
X165467129Y-60899500D01*
X165467123Y-60899501D01*
X165407516Y-60905908D01*
X165272671Y-60956202D01*
X165272664Y-60956206D01*
X165157455Y-61042452D01*
X165157452Y-61042455D01*
X165071206Y-61157664D01*
X165071202Y-61157671D01*
X165020908Y-61292517D01*
X165014877Y-61348621D01*
X165014501Y-61352123D01*
X165014500Y-61352135D01*
X165014500Y-62188322D01*
X165014264Y-62193723D01*
X165009341Y-62250000D01*
X165011764Y-62277702D01*
X165014264Y-62306271D01*
X165014500Y-62311677D01*
X165014500Y-63147870D01*
X165014501Y-63147876D01*
X165020908Y-63207483D01*
X165071202Y-63342328D01*
X165071203Y-63342330D01*
X165148578Y-63445689D01*
X165172995Y-63511153D01*
X165158144Y-63579426D01*
X165148578Y-63594311D01*
X165071203Y-63697669D01*
X165071202Y-63697671D01*
X165020908Y-63832517D01*
X165014501Y-63892116D01*
X165014501Y-63892123D01*
X165014500Y-63892135D01*
X165014500Y-64728322D01*
X165014264Y-64733728D01*
X165009341Y-64789998D01*
X165009341Y-64790001D01*
X165014264Y-64846271D01*
X165014500Y-64851677D01*
X165014500Y-65687870D01*
X165014501Y-65687876D01*
X165020908Y-65747483D01*
X165071202Y-65882328D01*
X165071206Y-65882335D01*
X165148889Y-65986105D01*
X165173307Y-66051569D01*
X165158456Y-66119842D01*
X165148890Y-66134727D01*
X165071647Y-66237910D01*
X165071645Y-66237913D01*
X165021403Y-66372620D01*
X165021401Y-66372627D01*
X165015000Y-66432155D01*
X165015000Y-67080000D01*
X165919428Y-67080000D01*
X165896318Y-67115960D01*
X165855000Y-67256673D01*
X165855000Y-67403327D01*
X165896318Y-67544040D01*
X165919428Y-67580000D01*
X165015000Y-67580000D01*
X165015000Y-68227844D01*
X165021401Y-68287372D01*
X165021403Y-68287379D01*
X165071645Y-68422086D01*
X165071646Y-68422088D01*
X165148890Y-68525272D01*
X165173307Y-68590736D01*
X165158456Y-68659009D01*
X165148890Y-68673894D01*
X165071204Y-68777669D01*
X165071202Y-68777671D01*
X165020908Y-68912517D01*
X165014502Y-68972105D01*
X165014500Y-68972127D01*
X165014500Y-68972128D01*
X165014500Y-68972135D01*
X165014500Y-69808322D01*
X165014264Y-69813728D01*
X165009341Y-69869998D01*
X165009341Y-69870001D01*
X165014264Y-69926271D01*
X165014500Y-69931677D01*
X165014500Y-70767870D01*
X165014501Y-70767876D01*
X165020908Y-70827483D01*
X165071202Y-70962328D01*
X165071203Y-70962330D01*
X165071204Y-70962331D01*
X165131251Y-71042544D01*
X165148578Y-71065689D01*
X165172995Y-71131153D01*
X165158144Y-71199426D01*
X165148577Y-71214311D01*
X165107290Y-71269463D01*
X165051357Y-71311334D01*
X164981665Y-71316318D01*
X164920343Y-71282833D01*
X162861819Y-69224309D01*
X162828334Y-69162986D01*
X162825500Y-69136628D01*
X162825500Y-59992742D01*
X162827224Y-59977122D01*
X162826939Y-59977095D01*
X162827673Y-59969333D01*
X162825500Y-59900172D01*
X162825500Y-59870656D01*
X162825500Y-59870650D01*
X162824631Y-59863779D01*
X162824173Y-59857952D01*
X162822710Y-59811373D01*
X162817119Y-59792130D01*
X162813173Y-59773078D01*
X162810664Y-59753208D01*
X162793504Y-59709867D01*
X162791624Y-59704379D01*
X162778618Y-59659610D01*
X162768422Y-59642370D01*
X162759861Y-59624894D01*
X162752487Y-59606270D01*
X162752486Y-59606268D01*
X162725079Y-59568545D01*
X162721888Y-59563686D01*
X162698172Y-59523583D01*
X162698165Y-59523574D01*
X162684006Y-59509415D01*
X162671368Y-59494619D01*
X162659594Y-59478413D01*
X162623688Y-59448709D01*
X162619376Y-59444786D01*
X160950803Y-57776212D01*
X160940980Y-57763950D01*
X160940759Y-57764134D01*
X160935786Y-57758123D01*
X160917159Y-57740631D01*
X160885364Y-57710773D01*
X160874919Y-57700328D01*
X160864475Y-57689883D01*
X160858986Y-57685625D01*
X160854561Y-57681847D01*
X160820582Y-57649938D01*
X160820580Y-57649936D01*
X160820577Y-57649935D01*
X160803029Y-57640288D01*
X160786763Y-57629604D01*
X160770933Y-57617325D01*
X160728168Y-57598818D01*
X160722922Y-57596248D01*
X160682093Y-57573803D01*
X160682092Y-57573802D01*
X160662693Y-57568822D01*
X160644281Y-57562518D01*
X160625898Y-57554562D01*
X160625892Y-57554560D01*
X160579874Y-57547272D01*
X160574152Y-57546087D01*
X160529021Y-57534500D01*
X160529019Y-57534500D01*
X160508984Y-57534500D01*
X160489586Y-57532973D01*
X160481333Y-57531666D01*
X160469805Y-57529840D01*
X160469804Y-57529840D01*
X160423416Y-57534225D01*
X160417578Y-57534500D01*
X156710452Y-57534500D01*
X156643413Y-57514815D01*
X156622771Y-57498181D01*
X155476319Y-56351728D01*
X155442834Y-56290405D01*
X155440000Y-56264047D01*
X155440000Y-55345501D01*
X155547685Y-55394680D01*
X155654237Y-55410000D01*
X155725763Y-55410000D01*
X155832315Y-55394680D01*
X155940000Y-55345501D01*
X155940000Y-56240633D01*
X156153483Y-56183433D01*
X156153492Y-56183429D01*
X156367578Y-56083600D01*
X156561082Y-55948105D01*
X156728105Y-55781082D01*
X156863600Y-55587578D01*
X156963429Y-55373492D01*
X156963432Y-55373486D01*
X157020636Y-55160000D01*
X156123686Y-55160000D01*
X156149493Y-55119844D01*
X156190000Y-54981889D01*
X156190000Y-54838111D01*
X156149493Y-54700156D01*
X156123686Y-54660000D01*
X157020636Y-54660000D01*
X157020635Y-54659999D01*
X156963432Y-54446513D01*
X156963429Y-54446507D01*
X156863600Y-54232422D01*
X156863599Y-54232420D01*
X156728113Y-54038926D01*
X156728108Y-54038920D01*
X156561082Y-53871894D01*
X156367578Y-53736399D01*
X156153492Y-53636570D01*
X156153486Y-53636567D01*
X155940000Y-53579364D01*
X155940000Y-54474498D01*
X155832315Y-54425320D01*
X155725763Y-54410000D01*
X155654237Y-54410000D01*
X155547685Y-54425320D01*
X155440000Y-54474498D01*
X155440000Y-53579364D01*
X155439999Y-53579364D01*
X155226513Y-53636567D01*
X155226507Y-53636570D01*
X155012422Y-53736399D01*
X155012420Y-53736400D01*
X154818926Y-53871886D01*
X154818920Y-53871891D01*
X154651891Y-54038920D01*
X154651890Y-54038922D01*
X154521880Y-54224595D01*
X154467303Y-54268219D01*
X154397804Y-54275412D01*
X154335450Y-54243890D01*
X154318730Y-54224594D01*
X154188494Y-54038597D01*
X154021402Y-53871506D01*
X154021395Y-53871501D01*
X153827834Y-53735967D01*
X153827830Y-53735965D01*
X153787794Y-53717296D01*
X153613663Y-53636097D01*
X153613659Y-53636096D01*
X153613655Y-53636094D01*
X153385413Y-53574938D01*
X153385403Y-53574936D01*
X153150001Y-53554341D01*
X153149999Y-53554341D01*
X152985559Y-53568728D01*
X152917059Y-53554961D01*
X152866875Y-53506346D01*
X152850942Y-53438318D01*
X152874317Y-53372474D01*
X152887070Y-53357519D01*
X152942135Y-53302455D01*
X153922772Y-52321819D01*
X153984095Y-52288334D01*
X154010453Y-52285500D01*
X166389548Y-52285500D01*
X166456587Y-52305185D01*
G37*
%TD.AperFunction*%
%TA.AperFunction,Conductor*%
G36*
X177292539Y-49530185D02*
G01*
X177338294Y-49582989D01*
X177349500Y-49634500D01*
X177349500Y-135685500D01*
X177329815Y-135752539D01*
X177277011Y-135798294D01*
X177225500Y-135809500D01*
X103674500Y-135809500D01*
X103607461Y-135789815D01*
X103561706Y-135737011D01*
X103550500Y-135685500D01*
X103550500Y-123240000D01*
X104094341Y-123240000D01*
X104114936Y-123475403D01*
X104114938Y-123475413D01*
X104176094Y-123703655D01*
X104176096Y-123703659D01*
X104176097Y-123703663D01*
X104236283Y-123832732D01*
X104275965Y-123917830D01*
X104275967Y-123917834D01*
X104316684Y-123975983D01*
X104411501Y-124111396D01*
X104411506Y-124111402D01*
X104533430Y-124233326D01*
X104566915Y-124294649D01*
X104561931Y-124364341D01*
X104520059Y-124420274D01*
X104489083Y-124437189D01*
X104357669Y-124486203D01*
X104357664Y-124486206D01*
X104242455Y-124572452D01*
X104242452Y-124572455D01*
X104156206Y-124687664D01*
X104156202Y-124687671D01*
X104105908Y-124822517D01*
X104099636Y-124880858D01*
X104099501Y-124882123D01*
X104099500Y-124882135D01*
X104099500Y-126677870D01*
X104099501Y-126677876D01*
X104105908Y-126737483D01*
X104156202Y-126872328D01*
X104156206Y-126872335D01*
X104242452Y-126987544D01*
X104242455Y-126987547D01*
X104357664Y-127073793D01*
X104357671Y-127073797D01*
X104492517Y-127124091D01*
X104492516Y-127124091D01*
X104499444Y-127124835D01*
X104552127Y-127130500D01*
X106347872Y-127130499D01*
X106407483Y-127124091D01*
X106542331Y-127073796D01*
X106657546Y-126987546D01*
X106743796Y-126872331D01*
X106794091Y-126737483D01*
X106800500Y-126677873D01*
X106800500Y-126529500D01*
X106820185Y-126462461D01*
X106872989Y-126416706D01*
X106924500Y-126405500D01*
X110725501Y-126405500D01*
X110792540Y-126425185D01*
X110838295Y-126477989D01*
X110849501Y-126529500D01*
X110849501Y-126677876D01*
X110855908Y-126737483D01*
X110906202Y-126872328D01*
X110906206Y-126872335D01*
X110992452Y-126987544D01*
X110992455Y-126987547D01*
X111107664Y-127073793D01*
X111107671Y-127073797D01*
X111242517Y-127124091D01*
X111242516Y-127124091D01*
X111249444Y-127124835D01*
X111302127Y-127130500D01*
X113097872Y-127130499D01*
X113157483Y-127124091D01*
X113292331Y-127073796D01*
X113407546Y-126987546D01*
X113493796Y-126872331D01*
X113544091Y-126737483D01*
X113550500Y-126677873D01*
X113550500Y-126529500D01*
X113570185Y-126462461D01*
X113622989Y-126416706D01*
X113674500Y-126405500D01*
X117077824Y-126405500D01*
X117144863Y-126425185D01*
X117179399Y-126458377D01*
X117249954Y-126559141D01*
X117410858Y-126720045D01*
X117410861Y-126720047D01*
X117597266Y-126850568D01*
X117655865Y-126877893D01*
X117708305Y-126924065D01*
X117727457Y-126991258D01*
X117707242Y-127058139D01*
X117655867Y-127102657D01*
X117597515Y-127129867D01*
X117411179Y-127260342D01*
X117250342Y-127421179D01*
X117119865Y-127607517D01*
X117023734Y-127813673D01*
X117023730Y-127813682D01*
X116971127Y-128009999D01*
X116971128Y-128010000D01*
X117934314Y-128010000D01*
X117922359Y-128021955D01*
X117864835Y-128134852D01*
X117845014Y-128260000D01*
X117864835Y-128385148D01*
X117922359Y-128498045D01*
X117934314Y-128510000D01*
X116971128Y-128510000D01*
X117023730Y-128706317D01*
X117023734Y-128706326D01*
X117119865Y-128912482D01*
X117250342Y-129098820D01*
X117411179Y-129259657D01*
X117597518Y-129390134D01*
X117597520Y-129390135D01*
X117655865Y-129417342D01*
X117708305Y-129463514D01*
X117727457Y-129530707D01*
X117707242Y-129597589D01*
X117655867Y-129642105D01*
X117655275Y-129642382D01*
X117597264Y-129669433D01*
X117410858Y-129799954D01*
X117249954Y-129960858D01*
X117119432Y-130147265D01*
X117119431Y-130147267D01*
X117023261Y-130353502D01*
X117023258Y-130353511D01*
X116964366Y-130573302D01*
X116964364Y-130573313D01*
X116944532Y-130799998D01*
X116944532Y-130800001D01*
X116964364Y-131026686D01*
X116964366Y-131026697D01*
X117023258Y-131246488D01*
X117023261Y-131246497D01*
X117119431Y-131452732D01*
X117119432Y-131452734D01*
X117249954Y-131639141D01*
X117410858Y-131800045D01*
X117410861Y-131800047D01*
X117597266Y-131930568D01*
X117803504Y-132026739D01*
X118023308Y-132085635D01*
X118185230Y-132099801D01*
X118249998Y-132105468D01*
X118250000Y-132105468D01*
X118250002Y-132105468D01*
X118306673Y-132100509D01*
X118476692Y-132085635D01*
X118696496Y-132026739D01*
X118902734Y-131930568D01*
X119089139Y-131800047D01*
X119250047Y-131639139D01*
X119380568Y-131452734D01*
X119476739Y-131246496D01*
X119535635Y-131026692D01*
X119555468Y-130800000D01*
X119535635Y-130573308D01*
X119517318Y-130504948D01*
X119518981Y-130435103D01*
X119549410Y-130385179D01*
X120543788Y-129390801D01*
X120556042Y-129380986D01*
X120555859Y-129380764D01*
X120561866Y-129375792D01*
X120561877Y-129375786D01*
X120592775Y-129342882D01*
X120609227Y-129325364D01*
X120619671Y-129314918D01*
X120630120Y-129304471D01*
X120634379Y-129298978D01*
X120638152Y-129294561D01*
X120670062Y-129260582D01*
X120679715Y-129243020D01*
X120690389Y-129226770D01*
X120702673Y-129210936D01*
X120721180Y-129168167D01*
X120723749Y-129162924D01*
X120746196Y-129122093D01*
X120746197Y-129122092D01*
X120751177Y-129102691D01*
X120757478Y-129084288D01*
X120765438Y-129065896D01*
X120772730Y-129019849D01*
X120773911Y-129014152D01*
X120785500Y-128969019D01*
X120785500Y-128948983D01*
X120787027Y-128929582D01*
X120790160Y-128909804D01*
X120785775Y-128863415D01*
X120785500Y-128857577D01*
X120785500Y-103808983D01*
X120787027Y-103789582D01*
X120787296Y-103787883D01*
X120790160Y-103769804D01*
X120785775Y-103723415D01*
X120785500Y-103717577D01*
X120785500Y-78808983D01*
X120787027Y-78789582D01*
X120787660Y-78785585D01*
X120790160Y-78769804D01*
X120785775Y-78723415D01*
X120785500Y-78717577D01*
X120785500Y-56185226D01*
X120805185Y-56118187D01*
X120838374Y-56083654D01*
X121031401Y-55948495D01*
X121153717Y-55826178D01*
X121215036Y-55792696D01*
X121284728Y-55797680D01*
X121340662Y-55839551D01*
X121357577Y-55870528D01*
X121406646Y-56002088D01*
X121406649Y-56002093D01*
X121492809Y-56117187D01*
X121492812Y-56117190D01*
X121607906Y-56203350D01*
X121607913Y-56203354D01*
X121742620Y-56253596D01*
X121742627Y-56253598D01*
X121802155Y-56259999D01*
X121802172Y-56260000D01*
X122450000Y-56260000D01*
X122450000Y-55345501D01*
X122557685Y-55394680D01*
X122664237Y-55410000D01*
X122735763Y-55410000D01*
X122842315Y-55394680D01*
X122950000Y-55345501D01*
X122950000Y-56260000D01*
X123597828Y-56260000D01*
X123597844Y-56259999D01*
X123657372Y-56253598D01*
X123657379Y-56253596D01*
X123792086Y-56203354D01*
X123792093Y-56203350D01*
X123907187Y-56117190D01*
X123907190Y-56117187D01*
X123993350Y-56002093D01*
X123993354Y-56002086D01*
X124043596Y-55867379D01*
X124043598Y-55867372D01*
X124049999Y-55807844D01*
X124050000Y-55807827D01*
X124050000Y-55160000D01*
X123133686Y-55160000D01*
X123159493Y-55119844D01*
X123200000Y-54981889D01*
X123200000Y-54838111D01*
X123159493Y-54700156D01*
X123133686Y-54660000D01*
X124050000Y-54660000D01*
X124050000Y-54012172D01*
X124049999Y-54012155D01*
X124043598Y-53952627D01*
X124043596Y-53952620D01*
X123993354Y-53817913D01*
X123993350Y-53817906D01*
X123907190Y-53702812D01*
X123907187Y-53702809D01*
X123792093Y-53616649D01*
X123792086Y-53616645D01*
X123657379Y-53566403D01*
X123657372Y-53566401D01*
X123597844Y-53560000D01*
X122950000Y-53560000D01*
X122950000Y-54474498D01*
X122842315Y-54425320D01*
X122735763Y-54410000D01*
X122664237Y-54410000D01*
X122557685Y-54425320D01*
X122450000Y-54474498D01*
X122450000Y-53555952D01*
X122469685Y-53488913D01*
X122486319Y-53468271D01*
X123882772Y-52071819D01*
X123944095Y-52038334D01*
X123970453Y-52035500D01*
X130889548Y-52035500D01*
X130956587Y-52055185D01*
X130977228Y-52071818D01*
X132460682Y-53555273D01*
X132494166Y-53616594D01*
X132497000Y-53642952D01*
X132497000Y-55707870D01*
X132497001Y-55707876D01*
X132503408Y-55767483D01*
X132553702Y-55902328D01*
X132553706Y-55902335D01*
X132639952Y-56017544D01*
X132639955Y-56017547D01*
X132755164Y-56103793D01*
X132755171Y-56103797D01*
X132890017Y-56154091D01*
X132890016Y-56154091D01*
X132896944Y-56154835D01*
X132949627Y-56160500D01*
X134950372Y-56160499D01*
X135009983Y-56154091D01*
X135144831Y-56103796D01*
X135260046Y-56017546D01*
X135346296Y-55902331D01*
X135346297Y-55902328D01*
X135346298Y-55902327D01*
X135357907Y-55871199D01*
X135399776Y-55815264D01*
X135465240Y-55790844D01*
X135533513Y-55805694D01*
X135550252Y-55816675D01*
X135692831Y-55927649D01*
X135692840Y-55927655D01*
X135904531Y-56042215D01*
X135904545Y-56042221D01*
X136132207Y-56120379D01*
X136368359Y-56159785D01*
X136431244Y-56190235D01*
X136467684Y-56249850D01*
X136466109Y-56319702D01*
X136435631Y-56369775D01*
X135307228Y-57498181D01*
X135245905Y-57531666D01*
X135219547Y-57534500D01*
X128532743Y-57534500D01*
X128517122Y-57532775D01*
X128517095Y-57533061D01*
X128509333Y-57532326D01*
X128440172Y-57534500D01*
X128410649Y-57534500D01*
X128403778Y-57535367D01*
X128397959Y-57535825D01*
X128351374Y-57537289D01*
X128351368Y-57537290D01*
X128332126Y-57542880D01*
X128313087Y-57546823D01*
X128293217Y-57549334D01*
X128293200Y-57549338D01*
X128249882Y-57566488D01*
X128244358Y-57568379D01*
X128199607Y-57581383D01*
X128199604Y-57581384D01*
X128182358Y-57591583D01*
X128164893Y-57600139D01*
X128159010Y-57602468D01*
X128146266Y-57607514D01*
X128108572Y-57634899D01*
X128103691Y-57638105D01*
X128063580Y-57661828D01*
X128049408Y-57676000D01*
X128034623Y-57688628D01*
X128018412Y-57700407D01*
X127988709Y-57736310D01*
X127984777Y-57740631D01*
X125816208Y-59909199D01*
X125803951Y-59919020D01*
X125804134Y-59919241D01*
X125798123Y-59924213D01*
X125750772Y-59974636D01*
X125729889Y-59995519D01*
X125729877Y-59995532D01*
X125725621Y-60001017D01*
X125721837Y-60005447D01*
X125689937Y-60039418D01*
X125689936Y-60039420D01*
X125680284Y-60056976D01*
X125669610Y-60073226D01*
X125657329Y-60089061D01*
X125657324Y-60089068D01*
X125638815Y-60131838D01*
X125636245Y-60137084D01*
X125613803Y-60177906D01*
X125608822Y-60197307D01*
X125602521Y-60215710D01*
X125594562Y-60234102D01*
X125594561Y-60234105D01*
X125587271Y-60280127D01*
X125586087Y-60285846D01*
X125574501Y-60330972D01*
X125574500Y-60330982D01*
X125574500Y-60351016D01*
X125572973Y-60370415D01*
X125569840Y-60390194D01*
X125569840Y-60390195D01*
X125574225Y-60436583D01*
X125574500Y-60442421D01*
X125574500Y-62907255D01*
X125572775Y-62922872D01*
X125573061Y-62922899D01*
X125572326Y-62930665D01*
X125574500Y-62999814D01*
X125574500Y-87907255D01*
X125572775Y-87922872D01*
X125573061Y-87922899D01*
X125572326Y-87930665D01*
X125574500Y-87999814D01*
X125574500Y-113267255D01*
X125572775Y-113282872D01*
X125573061Y-113282899D01*
X125572326Y-113290665D01*
X125574500Y-113359814D01*
X125574500Y-113389343D01*
X125574501Y-113389360D01*
X125575368Y-113396231D01*
X125575826Y-113402050D01*
X125577290Y-113448624D01*
X125577291Y-113448627D01*
X125582880Y-113467867D01*
X125586824Y-113486911D01*
X125588897Y-113503319D01*
X125589336Y-113506791D01*
X125606490Y-113550119D01*
X125608382Y-113555647D01*
X125621381Y-113600388D01*
X125631580Y-113617634D01*
X125640138Y-113635103D01*
X125647514Y-113653732D01*
X125674898Y-113691423D01*
X125678106Y-113696307D01*
X125701827Y-113736416D01*
X125701833Y-113736424D01*
X125715990Y-113750580D01*
X125728628Y-113765376D01*
X125740405Y-113781586D01*
X125740406Y-113781587D01*
X125776309Y-113811288D01*
X125780620Y-113815210D01*
X128706354Y-116740945D01*
X129650586Y-117685177D01*
X129684071Y-117746500D01*
X129682680Y-117804949D01*
X129664367Y-117873296D01*
X129664364Y-117873313D01*
X129644532Y-118099999D01*
X129644532Y-118100001D01*
X129664364Y-118326686D01*
X129664366Y-118326697D01*
X129723258Y-118546488D01*
X129723261Y-118546497D01*
X129819431Y-118752732D01*
X129819432Y-118752734D01*
X129949954Y-118939141D01*
X130110858Y-119100045D01*
X130271623Y-119212613D01*
X130315248Y-119267189D01*
X130324500Y-119314188D01*
X130324500Y-119425811D01*
X130304815Y-119492850D01*
X130271623Y-119527386D01*
X130110859Y-119639953D01*
X129949954Y-119800858D01*
X129819432Y-119987265D01*
X129819431Y-119987267D01*
X129723261Y-120193502D01*
X129723258Y-120193511D01*
X129664366Y-120413302D01*
X129664364Y-120413313D01*
X129644532Y-120639998D01*
X129644532Y-120640001D01*
X129664364Y-120866686D01*
X129664366Y-120866697D01*
X129723258Y-121086488D01*
X129723261Y-121086497D01*
X129819431Y-121292732D01*
X129819432Y-121292734D01*
X129949954Y-121479141D01*
X130110858Y-121640045D01*
X130110861Y-121640047D01*
X130297266Y-121770568D01*
X130355275Y-121797618D01*
X130407714Y-121843791D01*
X130426866Y-121910984D01*
X130406650Y-121977865D01*
X130355275Y-122022382D01*
X130297267Y-122049431D01*
X130297265Y-122049432D01*
X130110858Y-122179954D01*
X129949954Y-122340858D01*
X129819432Y-122527265D01*
X129819431Y-122527267D01*
X129723261Y-122733502D01*
X129723258Y-122733511D01*
X129664366Y-122953302D01*
X129664364Y-122953313D01*
X129644532Y-123179998D01*
X129644532Y-123180001D01*
X129664364Y-123406686D01*
X129664366Y-123406697D01*
X129723258Y-123626488D01*
X129723261Y-123626497D01*
X129819431Y-123832732D01*
X129819432Y-123832734D01*
X129949954Y-124019141D01*
X130110858Y-124180045D01*
X130110861Y-124180047D01*
X130297266Y-124310568D01*
X130338623Y-124329853D01*
X130355275Y-124337618D01*
X130407714Y-124383791D01*
X130426866Y-124450984D01*
X130406650Y-124517865D01*
X130355275Y-124562382D01*
X130297267Y-124589431D01*
X130297265Y-124589432D01*
X130110858Y-124719954D01*
X129949954Y-124880858D01*
X129819432Y-125067265D01*
X129819431Y-125067267D01*
X129723261Y-125273502D01*
X129723258Y-125273511D01*
X129664366Y-125493302D01*
X129664364Y-125493313D01*
X129644532Y-125719998D01*
X129644532Y-125720001D01*
X129664364Y-125946686D01*
X129664366Y-125946697D01*
X129723258Y-126166488D01*
X129723261Y-126166497D01*
X129819431Y-126372732D01*
X129819432Y-126372734D01*
X129949954Y-126559141D01*
X130110858Y-126720045D01*
X130110861Y-126720047D01*
X130297266Y-126850568D01*
X130355275Y-126877618D01*
X130407714Y-126923791D01*
X130426866Y-126990984D01*
X130406650Y-127057865D01*
X130355275Y-127102382D01*
X130297267Y-127129431D01*
X130297265Y-127129432D01*
X130110858Y-127259954D01*
X129949954Y-127420858D01*
X129819432Y-127607265D01*
X129819431Y-127607267D01*
X129723261Y-127813502D01*
X129723258Y-127813511D01*
X129664366Y-128033302D01*
X129664364Y-128033313D01*
X129644532Y-128259998D01*
X129644532Y-128260001D01*
X129664364Y-128486686D01*
X129664366Y-128486697D01*
X129723258Y-128706488D01*
X129723261Y-128706497D01*
X129819431Y-128912732D01*
X129819432Y-128912734D01*
X129949954Y-129099141D01*
X130110858Y-129260045D01*
X130110861Y-129260047D01*
X130297266Y-129390568D01*
X130354683Y-129417342D01*
X130355275Y-129417618D01*
X130407714Y-129463791D01*
X130426866Y-129530984D01*
X130406650Y-129597865D01*
X130355275Y-129642382D01*
X130297267Y-129669431D01*
X130297265Y-129669432D01*
X130110858Y-129799954D01*
X129949954Y-129960858D01*
X129819432Y-130147265D01*
X129819431Y-130147267D01*
X129723261Y-130353502D01*
X129723258Y-130353511D01*
X129664366Y-130573302D01*
X129664364Y-130573313D01*
X129644532Y-130799998D01*
X129644532Y-130800001D01*
X129664364Y-131026686D01*
X129664366Y-131026697D01*
X129723258Y-131246488D01*
X129723261Y-131246497D01*
X129819431Y-131452732D01*
X129819432Y-131452734D01*
X129949954Y-131639141D01*
X130110858Y-131800045D01*
X130110861Y-131800047D01*
X130297266Y-131930568D01*
X130503504Y-132026739D01*
X130723308Y-132085635D01*
X130885230Y-132099801D01*
X130949998Y-132105468D01*
X130950000Y-132105468D01*
X130950002Y-132105468D01*
X131006673Y-132100509D01*
X131176692Y-132085635D01*
X131396496Y-132026739D01*
X131602734Y-131930568D01*
X131789139Y-131800047D01*
X131950047Y-131639139D01*
X132080568Y-131452734D01*
X132176739Y-131246496D01*
X132235635Y-131026692D01*
X132255468Y-130800000D01*
X132235635Y-130573308D01*
X132217318Y-130504947D01*
X132218981Y-130435101D01*
X132249410Y-130385178D01*
X135133786Y-127500802D01*
X135146048Y-127490980D01*
X135145865Y-127490759D01*
X135151867Y-127485792D01*
X135151877Y-127485786D01*
X135199241Y-127435348D01*
X135220120Y-127414470D01*
X135224373Y-127408986D01*
X135228150Y-127404563D01*
X135260062Y-127370582D01*
X135269714Y-127353023D01*
X135280389Y-127336772D01*
X135292674Y-127320936D01*
X135311186Y-127278152D01*
X135313742Y-127272935D01*
X135336197Y-127232092D01*
X135341180Y-127212680D01*
X135347477Y-127194291D01*
X135355438Y-127175895D01*
X135362729Y-127129853D01*
X135363908Y-127124162D01*
X135375500Y-127079019D01*
X135375500Y-127058983D01*
X135377027Y-127039582D01*
X135380160Y-127019804D01*
X135375775Y-126973415D01*
X135375500Y-126967577D01*
X135375500Y-114220452D01*
X135395185Y-114153413D01*
X135411819Y-114132771D01*
X137265529Y-112279061D01*
X139133788Y-110410801D01*
X139146042Y-110400986D01*
X139145859Y-110400764D01*
X139151866Y-110395792D01*
X139151877Y-110395786D01*
X139182775Y-110362882D01*
X139199227Y-110345364D01*
X139209671Y-110334918D01*
X139220120Y-110324471D01*
X139224379Y-110318978D01*
X139228152Y-110314561D01*
X139260062Y-110280582D01*
X139269713Y-110263024D01*
X139280396Y-110246761D01*
X139292673Y-110230936D01*
X139311185Y-110188153D01*
X139313738Y-110182941D01*
X139336197Y-110142092D01*
X139341180Y-110122680D01*
X139347481Y-110104280D01*
X139355437Y-110085896D01*
X139362729Y-110039852D01*
X139363906Y-110034171D01*
X139375500Y-109989019D01*
X139375500Y-109968983D01*
X139377027Y-109949582D01*
X139380160Y-109929804D01*
X139375775Y-109883415D01*
X139375500Y-109877577D01*
X139375500Y-98020452D01*
X139395185Y-97953413D01*
X139411819Y-97932771D01*
X145172772Y-92171819D01*
X145234095Y-92138334D01*
X145260453Y-92135500D01*
X145310500Y-92135500D01*
X145377539Y-92155185D01*
X145423294Y-92207989D01*
X145434500Y-92259500D01*
X145434500Y-93627870D01*
X145434501Y-93627876D01*
X145440908Y-93687483D01*
X145491202Y-93822328D01*
X145491203Y-93822330D01*
X145568578Y-93925689D01*
X145592995Y-93991153D01*
X145578144Y-94059426D01*
X145568578Y-94074309D01*
X145566760Y-94076739D01*
X145491203Y-94177669D01*
X145491202Y-94177671D01*
X145440908Y-94312517D01*
X145434567Y-94371501D01*
X145434501Y-94372123D01*
X145434500Y-94372135D01*
X145434500Y-94789546D01*
X145414815Y-94856585D01*
X145398181Y-94877227D01*
X143266208Y-97009199D01*
X143253951Y-97019020D01*
X143254134Y-97019241D01*
X143248123Y-97024213D01*
X143200772Y-97074636D01*
X143179889Y-97095519D01*
X143179877Y-97095532D01*
X143175621Y-97101017D01*
X143171837Y-97105447D01*
X143139937Y-97139418D01*
X143139936Y-97139420D01*
X143130284Y-97156976D01*
X143119610Y-97173226D01*
X143107329Y-97189061D01*
X143107324Y-97189068D01*
X143088815Y-97231838D01*
X143086245Y-97237084D01*
X143063803Y-97277906D01*
X143058822Y-97297307D01*
X143052521Y-97315710D01*
X143044562Y-97334102D01*
X143044561Y-97334105D01*
X143037271Y-97380127D01*
X143036087Y-97385846D01*
X143024501Y-97430972D01*
X143024500Y-97430982D01*
X143024500Y-97451016D01*
X143022973Y-97470415D01*
X143019840Y-97490194D01*
X143019840Y-97490195D01*
X143024225Y-97536583D01*
X143024500Y-97542421D01*
X143024500Y-117549902D01*
X143004815Y-117616941D01*
X142952011Y-117662696D01*
X142882853Y-117672640D01*
X142829377Y-117651477D01*
X142773666Y-117612469D01*
X142773662Y-117612466D01*
X142726457Y-117590454D01*
X142573450Y-117519106D01*
X142573447Y-117519105D01*
X142573445Y-117519104D01*
X142360070Y-117461930D01*
X142360062Y-117461929D01*
X142140002Y-117442677D01*
X142139998Y-117442677D01*
X141919937Y-117461929D01*
X141919929Y-117461930D01*
X141706554Y-117519104D01*
X141706550Y-117519106D01*
X141684103Y-117529572D01*
X141506340Y-117612465D01*
X141506338Y-117612466D01*
X141325377Y-117739175D01*
X141169175Y-117895377D01*
X141051934Y-118062817D01*
X141042466Y-118076339D01*
X141042348Y-118076593D01*
X140982105Y-118205782D01*
X140935932Y-118258221D01*
X140868738Y-118277372D01*
X140801857Y-118257156D01*
X140757341Y-118205780D01*
X140697100Y-118076593D01*
X140697099Y-118076591D01*
X140651740Y-118011811D01*
X139984903Y-118678648D01*
X139984949Y-118678102D01*
X139953734Y-118554838D01*
X139884187Y-118448388D01*
X139783843Y-118370287D01*
X139663578Y-118329000D01*
X139627447Y-118329000D01*
X140298187Y-117658258D01*
X140233409Y-117612900D01*
X140233407Y-117612899D01*
X140033284Y-117519580D01*
X140033270Y-117519575D01*
X139819986Y-117462426D01*
X139819976Y-117462424D01*
X139600001Y-117443179D01*
X139599999Y-117443179D01*
X139380023Y-117462424D01*
X139380013Y-117462426D01*
X139166729Y-117519575D01*
X139166720Y-117519579D01*
X138966586Y-117612903D01*
X138901812Y-117658257D01*
X138901811Y-117658258D01*
X139572554Y-118329000D01*
X139568431Y-118329000D01*
X139474579Y-118344661D01*
X139362749Y-118405180D01*
X139276629Y-118498731D01*
X139225552Y-118615177D01*
X139219894Y-118683447D01*
X138548258Y-118011811D01*
X138548257Y-118011812D01*
X138502903Y-118076586D01*
X138409579Y-118276720D01*
X138409575Y-118276729D01*
X138352426Y-118490013D01*
X138352424Y-118490023D01*
X138333179Y-118709999D01*
X138333179Y-118710000D01*
X138352424Y-118929976D01*
X138352426Y-118929986D01*
X138409575Y-119143270D01*
X138409580Y-119143284D01*
X138502899Y-119343407D01*
X138502900Y-119343409D01*
X138548258Y-119408187D01*
X139215096Y-118741349D01*
X139215051Y-118741898D01*
X139246266Y-118865162D01*
X139315813Y-118971612D01*
X139416157Y-119049713D01*
X139536422Y-119091000D01*
X139572553Y-119091000D01*
X138901811Y-119761741D01*
X138966582Y-119807094D01*
X138966592Y-119807100D01*
X139166715Y-119900419D01*
X139166729Y-119900424D01*
X139380013Y-119957573D01*
X139380023Y-119957575D01*
X139599999Y-119976821D01*
X139600001Y-119976821D01*
X139819976Y-119957575D01*
X139819986Y-119957573D01*
X140033270Y-119900424D01*
X140033284Y-119900419D01*
X140233408Y-119807100D01*
X140233420Y-119807093D01*
X140298186Y-119761742D01*
X140298187Y-119761740D01*
X139627448Y-119091000D01*
X139631569Y-119091000D01*
X139725421Y-119075339D01*
X139837251Y-119014820D01*
X139923371Y-118921269D01*
X139974448Y-118804823D01*
X139980105Y-118736552D01*
X140651740Y-119408187D01*
X140651742Y-119408186D01*
X140697093Y-119343420D01*
X140697100Y-119343408D01*
X140757342Y-119214219D01*
X140803514Y-119161779D01*
X140870707Y-119142627D01*
X140937588Y-119162842D01*
X140982106Y-119214219D01*
X141042464Y-119343658D01*
X141042468Y-119343666D01*
X141169170Y-119524615D01*
X141169175Y-119524621D01*
X141325378Y-119680824D01*
X141325384Y-119680829D01*
X141506333Y-119807531D01*
X141506335Y-119807532D01*
X141506338Y-119807534D01*
X141706550Y-119900894D01*
X141919932Y-119958070D01*
X142077123Y-119971822D01*
X142139998Y-119977323D01*
X142140000Y-119977323D01*
X142140002Y-119977323D01*
X142195151Y-119972498D01*
X142360068Y-119958070D01*
X142404022Y-119946292D01*
X142473870Y-119947955D01*
X142523796Y-119978386D01*
X142939194Y-120393784D01*
X142949019Y-120406048D01*
X142949240Y-120405866D01*
X142954210Y-120411873D01*
X142954213Y-120411876D01*
X142954214Y-120411877D01*
X143004651Y-120459241D01*
X143025530Y-120480120D01*
X143031004Y-120484366D01*
X143035442Y-120488156D01*
X143069418Y-120520062D01*
X143069422Y-120520064D01*
X143086973Y-120529713D01*
X143103231Y-120540392D01*
X143119064Y-120552674D01*
X143141015Y-120562172D01*
X143161837Y-120571183D01*
X143167081Y-120573752D01*
X143207908Y-120596197D01*
X143227312Y-120601179D01*
X143245710Y-120607478D01*
X143264105Y-120615438D01*
X143310129Y-120622726D01*
X143315832Y-120623907D01*
X143360981Y-120635500D01*
X143381016Y-120635500D01*
X143400413Y-120637026D01*
X143420196Y-120640160D01*
X143466584Y-120635775D01*
X143472422Y-120635500D01*
X145267257Y-120635500D01*
X145282877Y-120637224D01*
X145282904Y-120636939D01*
X145290660Y-120637671D01*
X145290667Y-120637673D01*
X145359814Y-120635500D01*
X145389350Y-120635500D01*
X145396228Y-120634630D01*
X145402041Y-120634172D01*
X145448627Y-120632709D01*
X145467869Y-120627117D01*
X145486912Y-120623174D01*
X145506792Y-120620664D01*
X145550122Y-120603507D01*
X145555646Y-120601617D01*
X145559396Y-120600527D01*
X145600390Y-120588618D01*
X145617629Y-120578422D01*
X145635103Y-120569862D01*
X145653727Y-120562488D01*
X145653727Y-120562487D01*
X145653732Y-120562486D01*
X145691449Y-120535082D01*
X145696305Y-120531892D01*
X145736420Y-120508170D01*
X145750589Y-120493999D01*
X145765379Y-120481368D01*
X145781587Y-120469594D01*
X145811299Y-120433676D01*
X145815212Y-120429376D01*
X146333787Y-119910802D01*
X146346042Y-119900986D01*
X146345859Y-119900764D01*
X146351866Y-119895792D01*
X146351877Y-119895786D01*
X146382775Y-119862882D01*
X146399227Y-119845364D01*
X146422877Y-119821715D01*
X146423704Y-119822542D01*
X146478545Y-119787939D01*
X146548412Y-119788519D01*
X146583614Y-119805627D01*
X146584798Y-119806455D01*
X146586338Y-119807534D01*
X146786550Y-119900894D01*
X146999932Y-119958070D01*
X147157123Y-119971822D01*
X147219998Y-119977323D01*
X147220000Y-119977323D01*
X147220002Y-119977323D01*
X147275151Y-119972498D01*
X147440068Y-119958070D01*
X147653450Y-119900894D01*
X147853662Y-119807534D01*
X148034620Y-119680826D01*
X148190826Y-119524620D01*
X148317534Y-119343662D01*
X148377618Y-119214811D01*
X148423790Y-119162371D01*
X148490983Y-119143219D01*
X148557865Y-119163435D01*
X148602382Y-119214811D01*
X148662464Y-119343658D01*
X148662468Y-119343666D01*
X148789170Y-119524615D01*
X148789175Y-119524621D01*
X148945378Y-119680824D01*
X148945384Y-119680829D01*
X149126333Y-119807531D01*
X149126335Y-119807532D01*
X149126338Y-119807534D01*
X149326550Y-119900894D01*
X149539932Y-119958070D01*
X149697123Y-119971822D01*
X149759998Y-119977323D01*
X149760000Y-119977323D01*
X149760002Y-119977323D01*
X149815151Y-119972498D01*
X149980068Y-119958070D01*
X150193450Y-119900894D01*
X150393662Y-119807534D01*
X150574620Y-119680826D01*
X150730826Y-119524620D01*
X150811927Y-119408795D01*
X150866501Y-119365172D01*
X150935999Y-119357978D01*
X150998354Y-119389500D01*
X151033769Y-119449730D01*
X151037500Y-119479917D01*
X151037500Y-119519868D01*
X151037501Y-119519876D01*
X151043908Y-119579483D01*
X151094202Y-119714328D01*
X151094206Y-119714335D01*
X151180452Y-119829544D01*
X151180455Y-119829547D01*
X151295664Y-119915793D01*
X151295671Y-119915797D01*
X151430517Y-119966091D01*
X151430516Y-119966091D01*
X151437444Y-119966835D01*
X151490127Y-119972500D01*
X153109872Y-119972499D01*
X153169483Y-119966091D01*
X153304331Y-119915796D01*
X153419546Y-119829546D01*
X153505796Y-119714331D01*
X153556091Y-119579483D01*
X153562500Y-119519873D01*
X153562500Y-119459500D01*
X153582185Y-119392461D01*
X153634989Y-119346706D01*
X153686500Y-119335500D01*
X160317257Y-119335500D01*
X160332877Y-119337224D01*
X160332904Y-119336939D01*
X160340660Y-119337671D01*
X160340667Y-119337673D01*
X160409814Y-119335500D01*
X160439350Y-119335500D01*
X160446228Y-119334630D01*
X160452041Y-119334172D01*
X160498627Y-119332709D01*
X160517869Y-119327117D01*
X160536912Y-119323174D01*
X160556792Y-119320664D01*
X160600122Y-119303507D01*
X160605646Y-119301617D01*
X160609396Y-119300527D01*
X160650390Y-119288618D01*
X160667629Y-119278422D01*
X160685103Y-119269862D01*
X160703727Y-119262488D01*
X160703727Y-119262487D01*
X160703732Y-119262486D01*
X160741449Y-119235082D01*
X160746305Y-119231892D01*
X160786420Y-119208170D01*
X160800589Y-119193999D01*
X160815379Y-119181368D01*
X160831587Y-119169594D01*
X160861299Y-119133676D01*
X160865212Y-119129376D01*
X164333788Y-115660801D01*
X164346042Y-115650986D01*
X164345859Y-115650764D01*
X164351866Y-115645792D01*
X164351877Y-115645786D01*
X164391021Y-115604102D01*
X164399227Y-115595364D01*
X164409671Y-115584918D01*
X164420120Y-115574471D01*
X164424379Y-115568978D01*
X164428152Y-115564561D01*
X164460062Y-115530582D01*
X164469713Y-115513024D01*
X164480396Y-115496761D01*
X164492673Y-115480936D01*
X164511185Y-115438153D01*
X164513738Y-115432941D01*
X164536197Y-115392092D01*
X164541180Y-115372680D01*
X164547481Y-115354280D01*
X164555437Y-115335896D01*
X164562729Y-115289852D01*
X164563906Y-115284171D01*
X164575500Y-115239019D01*
X164575500Y-115218983D01*
X164577027Y-115199582D01*
X164577626Y-115195800D01*
X164580160Y-115179804D01*
X164575775Y-115133415D01*
X164575500Y-115127577D01*
X164575500Y-73970452D01*
X164595185Y-73903413D01*
X164611819Y-73882771D01*
X164764735Y-73729855D01*
X164936219Y-73558370D01*
X164997540Y-73524887D01*
X165067231Y-73529871D01*
X165123164Y-73571741D01*
X165148577Y-73605688D01*
X165172995Y-73671153D01*
X165158144Y-73739426D01*
X165148578Y-73754311D01*
X165071203Y-73857669D01*
X165071202Y-73857671D01*
X165020908Y-73992517D01*
X165015417Y-74043597D01*
X165014501Y-74052123D01*
X165014500Y-74052135D01*
X165014500Y-74888322D01*
X165014264Y-74893728D01*
X165009341Y-74949998D01*
X165009341Y-74950001D01*
X165014264Y-75006271D01*
X165014500Y-75011677D01*
X165014500Y-75847870D01*
X165014501Y-75847876D01*
X165020908Y-75907483D01*
X165071202Y-76042328D01*
X165071203Y-76042330D01*
X165148578Y-76145689D01*
X165172995Y-76211153D01*
X165158144Y-76279426D01*
X165148578Y-76294311D01*
X165071203Y-76397669D01*
X165071202Y-76397671D01*
X165020908Y-76532517D01*
X165015417Y-76583597D01*
X165014501Y-76592123D01*
X165014500Y-76592135D01*
X165014500Y-77428322D01*
X165014264Y-77433728D01*
X165009341Y-77489998D01*
X165009341Y-77490001D01*
X165014264Y-77546271D01*
X165014500Y-77551677D01*
X165014500Y-78387870D01*
X165014501Y-78387876D01*
X165020908Y-78447483D01*
X165071202Y-78582328D01*
X165071203Y-78582330D01*
X165071204Y-78582331D01*
X165131391Y-78662731D01*
X165148578Y-78685689D01*
X165172995Y-78751153D01*
X165158144Y-78819426D01*
X165148578Y-78834311D01*
X165071203Y-78937669D01*
X165071202Y-78937671D01*
X165020908Y-79072517D01*
X165014501Y-79132116D01*
X165014501Y-79132123D01*
X165014500Y-79132135D01*
X165014500Y-80927870D01*
X165014501Y-80927876D01*
X165020908Y-80987483D01*
X165071202Y-81122328D01*
X165071203Y-81122330D01*
X165148578Y-81225689D01*
X165172995Y-81291153D01*
X165158144Y-81359426D01*
X165148578Y-81374311D01*
X165071203Y-81477669D01*
X165071202Y-81477671D01*
X165020908Y-81612517D01*
X165015417Y-81663597D01*
X165014501Y-81672123D01*
X165014500Y-81672135D01*
X165014500Y-82508322D01*
X165014264Y-82513728D01*
X165009341Y-82569998D01*
X165009341Y-82570001D01*
X165014264Y-82626271D01*
X165014500Y-82631677D01*
X165014500Y-83467870D01*
X165014501Y-83467876D01*
X165020908Y-83527483D01*
X165071202Y-83662328D01*
X165071203Y-83662330D01*
X165148578Y-83765689D01*
X165172995Y-83831153D01*
X165158144Y-83899426D01*
X165148578Y-83914311D01*
X165071203Y-84017669D01*
X165071202Y-84017671D01*
X165020908Y-84152517D01*
X165014501Y-84212116D01*
X165014501Y-84212123D01*
X165014500Y-84212135D01*
X165014500Y-85048322D01*
X165014264Y-85053728D01*
X165009341Y-85109998D01*
X165009341Y-85110001D01*
X165014264Y-85166271D01*
X165014500Y-85171677D01*
X165014500Y-86007870D01*
X165014501Y-86007876D01*
X165020908Y-86067483D01*
X165071202Y-86202328D01*
X165071203Y-86202330D01*
X165087587Y-86224216D01*
X165145080Y-86301017D01*
X165148578Y-86305689D01*
X165172995Y-86371153D01*
X165158144Y-86439426D01*
X165148578Y-86454311D01*
X165071203Y-86557669D01*
X165071202Y-86557671D01*
X165020908Y-86692517D01*
X165014501Y-86752116D01*
X165014501Y-86752123D01*
X165014500Y-86752135D01*
X165014500Y-87588322D01*
X165014264Y-87593728D01*
X165009341Y-87649998D01*
X165009341Y-87650001D01*
X165014264Y-87706271D01*
X165014500Y-87711677D01*
X165014500Y-88547870D01*
X165014501Y-88547876D01*
X165020908Y-88607483D01*
X165071202Y-88742328D01*
X165071203Y-88742330D01*
X165148578Y-88845689D01*
X165172995Y-88911153D01*
X165158144Y-88979426D01*
X165148578Y-88994309D01*
X165141876Y-89003263D01*
X165071203Y-89097669D01*
X165071202Y-89097671D01*
X165020908Y-89232517D01*
X165016116Y-89277096D01*
X165014501Y-89292123D01*
X165014500Y-89292135D01*
X165014500Y-90128322D01*
X165014264Y-90133728D01*
X165009341Y-90189998D01*
X165009341Y-90190001D01*
X165014264Y-90246271D01*
X165014500Y-90251677D01*
X165014500Y-91087870D01*
X165014501Y-91087876D01*
X165020908Y-91147483D01*
X165071202Y-91282328D01*
X165071203Y-91282330D01*
X165148578Y-91385689D01*
X165172995Y-91451153D01*
X165158144Y-91519426D01*
X165148578Y-91534311D01*
X165071203Y-91637669D01*
X165071202Y-91637671D01*
X165020908Y-91772517D01*
X165019144Y-91788929D01*
X165014501Y-91832123D01*
X165014500Y-91832135D01*
X165014500Y-93627870D01*
X165014501Y-93627876D01*
X165020908Y-93687483D01*
X165071202Y-93822328D01*
X165071203Y-93822330D01*
X165148578Y-93925689D01*
X165172995Y-93991153D01*
X165158144Y-94059426D01*
X165148578Y-94074309D01*
X165146760Y-94076739D01*
X165071203Y-94177669D01*
X165071202Y-94177671D01*
X165020908Y-94312517D01*
X165014567Y-94371501D01*
X165014501Y-94372123D01*
X165014500Y-94372135D01*
X165014500Y-95208322D01*
X165014264Y-95213728D01*
X165009341Y-95269998D01*
X165009341Y-95270001D01*
X165014264Y-95326271D01*
X165014500Y-95331677D01*
X165014500Y-96167870D01*
X165014501Y-96167876D01*
X165020908Y-96227483D01*
X165071202Y-96362328D01*
X165071203Y-96362330D01*
X165148578Y-96465689D01*
X165172995Y-96531153D01*
X165158144Y-96599426D01*
X165148578Y-96614311D01*
X165071203Y-96717669D01*
X165071202Y-96717671D01*
X165020908Y-96852517D01*
X165014567Y-96911501D01*
X165014501Y-96912123D01*
X165014500Y-96912135D01*
X165014500Y-97748322D01*
X165014264Y-97753728D01*
X165009341Y-97809998D01*
X165009341Y-97810001D01*
X165014264Y-97866271D01*
X165014500Y-97871677D01*
X165014500Y-98707870D01*
X165014501Y-98707876D01*
X165020908Y-98767483D01*
X165071202Y-98902328D01*
X165071203Y-98902330D01*
X165148578Y-99005689D01*
X165172995Y-99071153D01*
X165158144Y-99139426D01*
X165148578Y-99154311D01*
X165071203Y-99257669D01*
X165071202Y-99257671D01*
X165020908Y-99392517D01*
X165017501Y-99424213D01*
X165014501Y-99452123D01*
X165014500Y-99452135D01*
X165014500Y-100288322D01*
X165014264Y-100293728D01*
X165009341Y-100349998D01*
X165009341Y-100350001D01*
X165014264Y-100406271D01*
X165014500Y-100411677D01*
X165014500Y-101247870D01*
X165014501Y-101247876D01*
X165020908Y-101307483D01*
X165071202Y-101442328D01*
X165071203Y-101442330D01*
X165148578Y-101545689D01*
X165172995Y-101611153D01*
X165158144Y-101679426D01*
X165148578Y-101694311D01*
X165071203Y-101797669D01*
X165071202Y-101797671D01*
X165020908Y-101932517D01*
X165014501Y-101992116D01*
X165014501Y-101992123D01*
X165014500Y-101992135D01*
X165014500Y-102828322D01*
X165014264Y-102833728D01*
X165009341Y-102889998D01*
X165009341Y-102890001D01*
X165014264Y-102946271D01*
X165014500Y-102951677D01*
X165014500Y-103787870D01*
X165014501Y-103787876D01*
X165020908Y-103847483D01*
X165071202Y-103982328D01*
X165071203Y-103982330D01*
X165071204Y-103982331D01*
X165143302Y-104078642D01*
X165148578Y-104085689D01*
X165172995Y-104151153D01*
X165158144Y-104219426D01*
X165148578Y-104234311D01*
X165071203Y-104337669D01*
X165071202Y-104337671D01*
X165020908Y-104472517D01*
X165014501Y-104532116D01*
X165014501Y-104532123D01*
X165014500Y-104532135D01*
X165014500Y-106327870D01*
X165014501Y-106327876D01*
X165020908Y-106387483D01*
X165071202Y-106522328D01*
X165071203Y-106522330D01*
X165148578Y-106625689D01*
X165172995Y-106691153D01*
X165158144Y-106759426D01*
X165148578Y-106774311D01*
X165071203Y-106877669D01*
X165071202Y-106877671D01*
X165020908Y-107012517D01*
X165014501Y-107072116D01*
X165014501Y-107072123D01*
X165014500Y-107072135D01*
X165014500Y-107908322D01*
X165014264Y-107913728D01*
X165009341Y-107969998D01*
X165009341Y-107970001D01*
X165014264Y-108026271D01*
X165014500Y-108031677D01*
X165014500Y-108867870D01*
X165014501Y-108867876D01*
X165020908Y-108927483D01*
X165071202Y-109062328D01*
X165071203Y-109062330D01*
X165090416Y-109087995D01*
X165128973Y-109139501D01*
X165148578Y-109165689D01*
X165172995Y-109231153D01*
X165158144Y-109299426D01*
X165148578Y-109314311D01*
X165071203Y-109417669D01*
X165071202Y-109417671D01*
X165020908Y-109552517D01*
X165014501Y-109612116D01*
X165014501Y-109612123D01*
X165014500Y-109612135D01*
X165014500Y-110448322D01*
X165014264Y-110453723D01*
X165009341Y-110510000D01*
X165011954Y-110539874D01*
X165014264Y-110566271D01*
X165014500Y-110571677D01*
X165014500Y-111407870D01*
X165014501Y-111407876D01*
X165020908Y-111467483D01*
X165071202Y-111602328D01*
X165071206Y-111602335D01*
X165157452Y-111717544D01*
X165157455Y-111717547D01*
X165272664Y-111803793D01*
X165272671Y-111803797D01*
X165407517Y-111854091D01*
X165407516Y-111854091D01*
X165414444Y-111854835D01*
X165467127Y-111860500D01*
X166303322Y-111860499D01*
X166308727Y-111860734D01*
X166365000Y-111865659D01*
X166421272Y-111860734D01*
X166426678Y-111860499D01*
X169062871Y-111860499D01*
X169062872Y-111860499D01*
X169122483Y-111854091D01*
X169257331Y-111803796D01*
X169372546Y-111717546D01*
X169458796Y-111602331D01*
X169509091Y-111467483D01*
X169515500Y-111407873D01*
X169515500Y-111239500D01*
X169535185Y-111172461D01*
X169587989Y-111126706D01*
X169639500Y-111115500D01*
X173975501Y-111115500D01*
X174042540Y-111135185D01*
X174088295Y-111187989D01*
X174099501Y-111239500D01*
X174099501Y-111387876D01*
X174105908Y-111447483D01*
X174156202Y-111582328D01*
X174156206Y-111582335D01*
X174242452Y-111697544D01*
X174242455Y-111697547D01*
X174357664Y-111783793D01*
X174357671Y-111783797D01*
X174492517Y-111834091D01*
X174492516Y-111834091D01*
X174499444Y-111834835D01*
X174552127Y-111840500D01*
X176347872Y-111840499D01*
X176407483Y-111834091D01*
X176542331Y-111783796D01*
X176657546Y-111697546D01*
X176743796Y-111582331D01*
X176794091Y-111447483D01*
X176800500Y-111387873D01*
X176800499Y-109592128D01*
X176794091Y-109532517D01*
X176751256Y-109417671D01*
X176743797Y-109397671D01*
X176743793Y-109397664D01*
X176657547Y-109282455D01*
X176657544Y-109282452D01*
X176542335Y-109196206D01*
X176542328Y-109196202D01*
X176410917Y-109147189D01*
X176354983Y-109105318D01*
X176330566Y-109039853D01*
X176345418Y-108971580D01*
X176366563Y-108943332D01*
X176488495Y-108821401D01*
X176624035Y-108627830D01*
X176723903Y-108413663D01*
X176785063Y-108185408D01*
X176805659Y-107950000D01*
X176785063Y-107714592D01*
X176723903Y-107486337D01*
X176624035Y-107272171D01*
X176623652Y-107271623D01*
X176488494Y-107078597D01*
X176321402Y-106911506D01*
X176321396Y-106911501D01*
X176135842Y-106781575D01*
X176092217Y-106726998D01*
X176085023Y-106657500D01*
X176116546Y-106595145D01*
X176135842Y-106578425D01*
X176215954Y-106522330D01*
X176321401Y-106448495D01*
X176488495Y-106281401D01*
X176624035Y-106087830D01*
X176723903Y-105873663D01*
X176785063Y-105645408D01*
X176805659Y-105410000D01*
X176785063Y-105174592D01*
X176723903Y-104946337D01*
X176624035Y-104732171D01*
X176621403Y-104728411D01*
X176488494Y-104538597D01*
X176321402Y-104371506D01*
X176321401Y-104371505D01*
X176185916Y-104276637D01*
X176128376Y-104236347D01*
X176084751Y-104181770D01*
X176075500Y-104134772D01*
X176075500Y-94742742D01*
X176077224Y-94727122D01*
X176076939Y-94727095D01*
X176077673Y-94719333D01*
X176075500Y-94650172D01*
X176075500Y-94620656D01*
X176075500Y-94620650D01*
X176074631Y-94613779D01*
X176074173Y-94607952D01*
X176074124Y-94606384D01*
X176072710Y-94561373D01*
X176067119Y-94542130D01*
X176063173Y-94523078D01*
X176060664Y-94503208D01*
X176043504Y-94459867D01*
X176041624Y-94454379D01*
X176028618Y-94409610D01*
X176018422Y-94392370D01*
X176009861Y-94374894D01*
X176002487Y-94356270D01*
X176002486Y-94356268D01*
X175975079Y-94318545D01*
X175971888Y-94313686D01*
X175971196Y-94312516D01*
X175948170Y-94273580D01*
X175948168Y-94273578D01*
X175948165Y-94273574D01*
X175934006Y-94259415D01*
X175921368Y-94244619D01*
X175920083Y-94242850D01*
X175909594Y-94228413D01*
X175873688Y-94198709D01*
X175869376Y-94194786D01*
X171480803Y-89806212D01*
X171470980Y-89793950D01*
X171470759Y-89794134D01*
X171465786Y-89788123D01*
X171426762Y-89751477D01*
X171415364Y-89740773D01*
X171404919Y-89730328D01*
X171394475Y-89719883D01*
X171388986Y-89715625D01*
X171384561Y-89711847D01*
X171350582Y-89679938D01*
X171350580Y-89679936D01*
X171350577Y-89679935D01*
X171333029Y-89670288D01*
X171316763Y-89659604D01*
X171313749Y-89657266D01*
X171300936Y-89647327D01*
X171300935Y-89647326D01*
X171300933Y-89647325D01*
X171258168Y-89628818D01*
X171252922Y-89626248D01*
X171212093Y-89603803D01*
X171212092Y-89603802D01*
X171192693Y-89598822D01*
X171174281Y-89592518D01*
X171155898Y-89584562D01*
X171155892Y-89584560D01*
X171109874Y-89577272D01*
X171104152Y-89576087D01*
X171059021Y-89564500D01*
X171059019Y-89564500D01*
X171038984Y-89564500D01*
X171019586Y-89562973D01*
X171012162Y-89561797D01*
X170999805Y-89559840D01*
X170999804Y-89559840D01*
X170953416Y-89564225D01*
X170947578Y-89564500D01*
X169639499Y-89564500D01*
X169572460Y-89544815D01*
X169526705Y-89492011D01*
X169515499Y-89440500D01*
X169515499Y-89292129D01*
X169515498Y-89292123D01*
X169515497Y-89292116D01*
X169510299Y-89243757D01*
X169509091Y-89232516D01*
X169458797Y-89097671D01*
X169458795Y-89097668D01*
X169448010Y-89083261D01*
X169381421Y-88994309D01*
X169357004Y-88928848D01*
X169371855Y-88860575D01*
X169381416Y-88845696D01*
X169458796Y-88742331D01*
X169509091Y-88607483D01*
X169515500Y-88547873D01*
X169515499Y-86752128D01*
X169509091Y-86692517D01*
X169508225Y-86690196D01*
X169458797Y-86557671D01*
X169458795Y-86557668D01*
X169441155Y-86534104D01*
X169381421Y-86454309D01*
X169357004Y-86388848D01*
X169371855Y-86320575D01*
X169381416Y-86305696D01*
X169458796Y-86202331D01*
X169509091Y-86067483D01*
X169515500Y-86007873D01*
X169515499Y-84212128D01*
X169509091Y-84152517D01*
X169458796Y-84017669D01*
X169381421Y-83914309D01*
X169357004Y-83848848D01*
X169371855Y-83780575D01*
X169381416Y-83765696D01*
X169458796Y-83662331D01*
X169509091Y-83527483D01*
X169515500Y-83467873D01*
X169515500Y-83409500D01*
X169535185Y-83342461D01*
X169587989Y-83296706D01*
X169639500Y-83285500D01*
X173975501Y-83285500D01*
X174042540Y-83305185D01*
X174088295Y-83357989D01*
X174099501Y-83409500D01*
X174099501Y-83557876D01*
X174105908Y-83617483D01*
X174156202Y-83752328D01*
X174156206Y-83752335D01*
X174242452Y-83867544D01*
X174242455Y-83867547D01*
X174357664Y-83953793D01*
X174357671Y-83953797D01*
X174492517Y-84004091D01*
X174492516Y-84004091D01*
X174499444Y-84004835D01*
X174552127Y-84010500D01*
X176347872Y-84010499D01*
X176407483Y-84004091D01*
X176542331Y-83953796D01*
X176657546Y-83867546D01*
X176743796Y-83752331D01*
X176794091Y-83617483D01*
X176800500Y-83557873D01*
X176800499Y-81762128D01*
X176794091Y-81702517D01*
X176793514Y-81700971D01*
X176743797Y-81567671D01*
X176743793Y-81567664D01*
X176657547Y-81452455D01*
X176657544Y-81452452D01*
X176542335Y-81366206D01*
X176542328Y-81366202D01*
X176407482Y-81315908D01*
X176407483Y-81315908D01*
X176347883Y-81309501D01*
X176347881Y-81309500D01*
X176347873Y-81309500D01*
X176347864Y-81309500D01*
X174552129Y-81309500D01*
X174552123Y-81309501D01*
X174492516Y-81315908D01*
X174357671Y-81366202D01*
X174357664Y-81366206D01*
X174242455Y-81452452D01*
X174242452Y-81452455D01*
X174156206Y-81567664D01*
X174156202Y-81567671D01*
X174105908Y-81702517D01*
X174099501Y-81762116D01*
X174099501Y-81762123D01*
X174099500Y-81762135D01*
X174099500Y-81910500D01*
X174079815Y-81977539D01*
X174027011Y-82023294D01*
X173975500Y-82034500D01*
X169639499Y-82034500D01*
X169572460Y-82014815D01*
X169526705Y-81962011D01*
X169515499Y-81910500D01*
X169515499Y-81672129D01*
X169515498Y-81672123D01*
X169515497Y-81672116D01*
X169509091Y-81612517D01*
X169485791Y-81550047D01*
X169458797Y-81477671D01*
X169458795Y-81477668D01*
X169381421Y-81374309D01*
X169357004Y-81308848D01*
X169371855Y-81240575D01*
X169381416Y-81225696D01*
X169458796Y-81122331D01*
X169509091Y-80987483D01*
X169515500Y-80927873D01*
X169515499Y-79132128D01*
X169509091Y-79072517D01*
X169458796Y-78937669D01*
X169381421Y-78834309D01*
X169357004Y-78768848D01*
X169371855Y-78700575D01*
X169381416Y-78685696D01*
X169458796Y-78582331D01*
X169509091Y-78447483D01*
X169515500Y-78387873D01*
X169515499Y-76592128D01*
X169509091Y-76532517D01*
X169485791Y-76470047D01*
X169458797Y-76397671D01*
X169458795Y-76397668D01*
X169451465Y-76387876D01*
X169381421Y-76294309D01*
X169357004Y-76228848D01*
X169371855Y-76160575D01*
X169381416Y-76145696D01*
X169458796Y-76042331D01*
X169509091Y-75907483D01*
X169515500Y-75847873D01*
X169515499Y-74052128D01*
X169509091Y-73992517D01*
X169500861Y-73970452D01*
X169458797Y-73857671D01*
X169458795Y-73857668D01*
X169381421Y-73754309D01*
X169357004Y-73688848D01*
X169371855Y-73620575D01*
X169381416Y-73605696D01*
X169458796Y-73502331D01*
X169509091Y-73367483D01*
X169515500Y-73307873D01*
X169515499Y-71512128D01*
X169509091Y-71452517D01*
X169507590Y-71448493D01*
X169458797Y-71317671D01*
X169458795Y-71317668D01*
X169381421Y-71214309D01*
X169357004Y-71148848D01*
X169371855Y-71080575D01*
X169381416Y-71065696D01*
X169458796Y-70962331D01*
X169509091Y-70827483D01*
X169515500Y-70767873D01*
X169515499Y-68972128D01*
X169509091Y-68912517D01*
X169507590Y-68908493D01*
X169458797Y-68777671D01*
X169458795Y-68777668D01*
X169432591Y-68742664D01*
X169381109Y-68673893D01*
X169356692Y-68608430D01*
X169371543Y-68540157D01*
X169381110Y-68525271D01*
X169458352Y-68422089D01*
X169458354Y-68422086D01*
X169508596Y-68287379D01*
X169508598Y-68287372D01*
X169514999Y-68227844D01*
X169515000Y-68227827D01*
X169515000Y-67580000D01*
X166810572Y-67580000D01*
X166833682Y-67544040D01*
X166875000Y-67403327D01*
X166875000Y-67256673D01*
X166833682Y-67115960D01*
X166810572Y-67080000D01*
X169515000Y-67080000D01*
X169515000Y-66432172D01*
X169514999Y-66432155D01*
X169508598Y-66372627D01*
X169508596Y-66372620D01*
X169458354Y-66237913D01*
X169458352Y-66237910D01*
X169381110Y-66134729D01*
X169356692Y-66069265D01*
X169371543Y-66000992D01*
X169381105Y-65986111D01*
X169458796Y-65882331D01*
X169509091Y-65747483D01*
X169515500Y-65687873D01*
X169515499Y-64185451D01*
X169535184Y-64118413D01*
X169551813Y-64097776D01*
X171083788Y-62565801D01*
X171096042Y-62555986D01*
X171095859Y-62555764D01*
X171101866Y-62550792D01*
X171101877Y-62550786D01*
X171132775Y-62517882D01*
X171149227Y-62500364D01*
X171159671Y-62489918D01*
X171170120Y-62479471D01*
X171174379Y-62473978D01*
X171178152Y-62469561D01*
X171210062Y-62435582D01*
X171219715Y-62418020D01*
X171230389Y-62401770D01*
X171242673Y-62385936D01*
X171261180Y-62343167D01*
X171263749Y-62337924D01*
X171271673Y-62323511D01*
X171286197Y-62297092D01*
X171291177Y-62277691D01*
X171297478Y-62259288D01*
X171305438Y-62240896D01*
X171312730Y-62194849D01*
X171313911Y-62189152D01*
X171325500Y-62144019D01*
X171325500Y-62123983D01*
X171327027Y-62104582D01*
X171327317Y-62102753D01*
X171330160Y-62084804D01*
X171325775Y-62038415D01*
X171325500Y-62032577D01*
X171325500Y-55742737D01*
X171327224Y-55727123D01*
X171326938Y-55727096D01*
X171327672Y-55719333D01*
X171325500Y-55650203D01*
X171325500Y-55620651D01*
X171325500Y-55620650D01*
X171324629Y-55613759D01*
X171324172Y-55607945D01*
X171322709Y-55561372D01*
X171317122Y-55542144D01*
X171313174Y-55523084D01*
X171310664Y-55503208D01*
X171293507Y-55459875D01*
X171291619Y-55454359D01*
X171278619Y-55409612D01*
X171268418Y-55392363D01*
X171259860Y-55374894D01*
X171252486Y-55356268D01*
X171252483Y-55356264D01*
X171252483Y-55356263D01*
X171225098Y-55318571D01*
X171221890Y-55313687D01*
X171198172Y-55273582D01*
X171198163Y-55273571D01*
X171184005Y-55259413D01*
X171171370Y-55244620D01*
X171159593Y-55228412D01*
X171123693Y-55198713D01*
X171119381Y-55194790D01*
X167200803Y-51276212D01*
X167190980Y-51263950D01*
X167190759Y-51264134D01*
X167185786Y-51258123D01*
X167167159Y-51240631D01*
X167135364Y-51210773D01*
X167124919Y-51200328D01*
X167114475Y-51189883D01*
X167108986Y-51185625D01*
X167104561Y-51181847D01*
X167070582Y-51149938D01*
X167070580Y-51149936D01*
X167070577Y-51149935D01*
X167053029Y-51140288D01*
X167036763Y-51129604D01*
X167020933Y-51117325D01*
X166978168Y-51098818D01*
X166972922Y-51096248D01*
X166932093Y-51073803D01*
X166932092Y-51073802D01*
X166912693Y-51068822D01*
X166894281Y-51062518D01*
X166875898Y-51054562D01*
X166875892Y-51054560D01*
X166829874Y-51047272D01*
X166824152Y-51046087D01*
X166779021Y-51034500D01*
X166779019Y-51034500D01*
X166758984Y-51034500D01*
X166739586Y-51032973D01*
X166732162Y-51031797D01*
X166719805Y-51029840D01*
X166719804Y-51029840D01*
X166673416Y-51034225D01*
X166667578Y-51034500D01*
X153782743Y-51034500D01*
X153767122Y-51032775D01*
X153767096Y-51033061D01*
X153759334Y-51032327D01*
X153759333Y-51032327D01*
X153690186Y-51034500D01*
X153660649Y-51034500D01*
X153653766Y-51035369D01*
X153647949Y-51035826D01*
X153601373Y-51037290D01*
X153582129Y-51042881D01*
X153563079Y-51046825D01*
X153543211Y-51049334D01*
X153499884Y-51066488D01*
X153494358Y-51068379D01*
X153449614Y-51081379D01*
X153449610Y-51081381D01*
X153432366Y-51091579D01*
X153414905Y-51100133D01*
X153396274Y-51107510D01*
X153396262Y-51107517D01*
X153358570Y-51134902D01*
X153353687Y-51138109D01*
X153313580Y-51161829D01*
X153299414Y-51175995D01*
X153284624Y-51188627D01*
X153268414Y-51200404D01*
X153268411Y-51200407D01*
X153238710Y-51236309D01*
X153234777Y-51240631D01*
X150952227Y-53523181D01*
X150890904Y-53556666D01*
X150864546Y-53559500D01*
X150285452Y-53559500D01*
X150218413Y-53539815D01*
X150197771Y-53523181D01*
X147950803Y-51276212D01*
X147940980Y-51263950D01*
X147940759Y-51264134D01*
X147935786Y-51258123D01*
X147917159Y-51240631D01*
X147885364Y-51210773D01*
X147874919Y-51200328D01*
X147864475Y-51189883D01*
X147858986Y-51185625D01*
X147854561Y-51181847D01*
X147820582Y-51149938D01*
X147820580Y-51149936D01*
X147820577Y-51149935D01*
X147803029Y-51140288D01*
X147786763Y-51129604D01*
X147770933Y-51117325D01*
X147728168Y-51098818D01*
X147722922Y-51096248D01*
X147682093Y-51073803D01*
X147682092Y-51073802D01*
X147662693Y-51068822D01*
X147644281Y-51062518D01*
X147625898Y-51054562D01*
X147625892Y-51054560D01*
X147579874Y-51047272D01*
X147574152Y-51046087D01*
X147529021Y-51034500D01*
X147529019Y-51034500D01*
X147508984Y-51034500D01*
X147489586Y-51032973D01*
X147482162Y-51031797D01*
X147469805Y-51029840D01*
X147469804Y-51029840D01*
X147423416Y-51034225D01*
X147417578Y-51034500D01*
X142112743Y-51034500D01*
X142097122Y-51032775D01*
X142097095Y-51033061D01*
X142089333Y-51032326D01*
X142020172Y-51034500D01*
X141990649Y-51034500D01*
X141983778Y-51035367D01*
X141977959Y-51035825D01*
X141931374Y-51037289D01*
X141931368Y-51037290D01*
X141912126Y-51042880D01*
X141893087Y-51046823D01*
X141873217Y-51049334D01*
X141873203Y-51049337D01*
X141829883Y-51066488D01*
X141824358Y-51068380D01*
X141779613Y-51081380D01*
X141779610Y-51081381D01*
X141762366Y-51091579D01*
X141744905Y-51100133D01*
X141726274Y-51107510D01*
X141726262Y-51107517D01*
X141688570Y-51134902D01*
X141683687Y-51138109D01*
X141643580Y-51161829D01*
X141629414Y-51175995D01*
X141614624Y-51188627D01*
X141598414Y-51200404D01*
X141598411Y-51200407D01*
X141568710Y-51236309D01*
X141564777Y-51240631D01*
X139605202Y-53200205D01*
X139543879Y-53233690D01*
X139477259Y-53229806D01*
X139387912Y-53199133D01*
X139188800Y-53165908D01*
X139150399Y-53159500D01*
X138909601Y-53159500D01*
X138871200Y-53165908D01*
X138672083Y-53199134D01*
X138444343Y-53277318D01*
X138444334Y-53277321D01*
X138232558Y-53391929D01*
X138136195Y-53466932D01*
X138042537Y-53539829D01*
X138042534Y-53539831D01*
X138042534Y-53539832D01*
X137879450Y-53716988D01*
X137879446Y-53716994D01*
X137863507Y-53741389D01*
X137810359Y-53786744D01*
X137741127Y-53796165D01*
X137677793Y-53766661D01*
X137655892Y-53741385D01*
X137640154Y-53717296D01*
X137477126Y-53540202D01*
X137477116Y-53540193D01*
X137287168Y-53392350D01*
X137287159Y-53392344D01*
X137075468Y-53277784D01*
X137075454Y-53277778D01*
X136847791Y-53199619D01*
X136740000Y-53181633D01*
X136740000Y-54168316D01*
X136711181Y-54150791D01*
X136565596Y-54110000D01*
X136452378Y-54110000D01*
X136340217Y-54125416D01*
X136240000Y-54168946D01*
X136240000Y-53181633D01*
X136239999Y-53181633D01*
X136132208Y-53199619D01*
X135904545Y-53277778D01*
X135904531Y-53277784D01*
X135692840Y-53392344D01*
X135692838Y-53392345D01*
X135550252Y-53503325D01*
X135485258Y-53528967D01*
X135416718Y-53515400D01*
X135366393Y-53466932D01*
X135357907Y-53448801D01*
X135353997Y-53438318D01*
X135346296Y-53417669D01*
X135346295Y-53417668D01*
X135346293Y-53417664D01*
X135260047Y-53302455D01*
X135260044Y-53302452D01*
X135144835Y-53216206D01*
X135144828Y-53216202D01*
X135009982Y-53165908D01*
X135009983Y-53165908D01*
X134950383Y-53159501D01*
X134950381Y-53159500D01*
X134950373Y-53159500D01*
X134950365Y-53159500D01*
X133885453Y-53159500D01*
X133818414Y-53139815D01*
X133797772Y-53123181D01*
X131700803Y-51026212D01*
X131690980Y-51013950D01*
X131690759Y-51014134D01*
X131685786Y-51008123D01*
X131667159Y-50990631D01*
X131635364Y-50960773D01*
X131624919Y-50950328D01*
X131614475Y-50939883D01*
X131608986Y-50935625D01*
X131604561Y-50931847D01*
X131570582Y-50899938D01*
X131570580Y-50899936D01*
X131570577Y-50899935D01*
X131553029Y-50890288D01*
X131536763Y-50879604D01*
X131520933Y-50867325D01*
X131478168Y-50848818D01*
X131472922Y-50846248D01*
X131432093Y-50823803D01*
X131432092Y-50823802D01*
X131412693Y-50818822D01*
X131394281Y-50812518D01*
X131375898Y-50804562D01*
X131375892Y-50804560D01*
X131329874Y-50797272D01*
X131324152Y-50796087D01*
X131279021Y-50784500D01*
X131279019Y-50784500D01*
X131258984Y-50784500D01*
X131239586Y-50782973D01*
X131232162Y-50781797D01*
X131219805Y-50779840D01*
X131219804Y-50779840D01*
X131173416Y-50784225D01*
X131167578Y-50784500D01*
X123742737Y-50784500D01*
X123727120Y-50782776D01*
X123727093Y-50783062D01*
X123719331Y-50782327D01*
X123650203Y-50784500D01*
X123620650Y-50784500D01*
X123619929Y-50784590D01*
X123613757Y-50785369D01*
X123607945Y-50785826D01*
X123561372Y-50787290D01*
X123561369Y-50787291D01*
X123542126Y-50792881D01*
X123523083Y-50796825D01*
X123503204Y-50799336D01*
X123503203Y-50799337D01*
X123459878Y-50816490D01*
X123454352Y-50818382D01*
X123409608Y-50831383D01*
X123409604Y-50831385D01*
X123392365Y-50841580D01*
X123374898Y-50850137D01*
X123356269Y-50857512D01*
X123356267Y-50857513D01*
X123318564Y-50884906D01*
X123313682Y-50888112D01*
X123273580Y-50911828D01*
X123259408Y-50926000D01*
X123244623Y-50938628D01*
X123228412Y-50950407D01*
X123198709Y-50986310D01*
X123194777Y-50990631D01*
X120615646Y-53569761D01*
X120554323Y-53603246D01*
X120495873Y-53601855D01*
X120395408Y-53574937D01*
X120160001Y-53554341D01*
X120159999Y-53554341D01*
X119924596Y-53574936D01*
X119924586Y-53574938D01*
X119696344Y-53636094D01*
X119696335Y-53636098D01*
X119482171Y-53735964D01*
X119482169Y-53735965D01*
X119288597Y-53871505D01*
X119121505Y-54038597D01*
X118985965Y-54232169D01*
X118985964Y-54232171D01*
X118886098Y-54446335D01*
X118886094Y-54446344D01*
X118824938Y-54674586D01*
X118824936Y-54674596D01*
X118804341Y-54909999D01*
X118804341Y-54910000D01*
X118824936Y-55145403D01*
X118824938Y-55145413D01*
X118886094Y-55373655D01*
X118886096Y-55373659D01*
X118886097Y-55373663D01*
X118960288Y-55532766D01*
X118985965Y-55587830D01*
X118985967Y-55587834D01*
X119029639Y-55650203D01*
X119121505Y-55781401D01*
X119288599Y-55948495D01*
X119481624Y-56083653D01*
X119525248Y-56138228D01*
X119534500Y-56185226D01*
X119534500Y-61397439D01*
X119514815Y-61464478D01*
X119462011Y-61510233D01*
X119392853Y-61520177D01*
X119367167Y-61513621D01*
X119267380Y-61476403D01*
X119267372Y-61476401D01*
X119207844Y-61470000D01*
X118610000Y-61470000D01*
X118610000Y-62454314D01*
X118598045Y-62442359D01*
X118485148Y-62384835D01*
X118391481Y-62370000D01*
X118328519Y-62370000D01*
X118234852Y-62384835D01*
X118121955Y-62442359D01*
X118110000Y-62454314D01*
X118110000Y-61470000D01*
X117512155Y-61470000D01*
X117452627Y-61476401D01*
X117452620Y-61476403D01*
X117317913Y-61526645D01*
X117317906Y-61526649D01*
X117202812Y-61612809D01*
X117202809Y-61612812D01*
X117116649Y-61727906D01*
X117116645Y-61727913D01*
X117066403Y-61862620D01*
X117066401Y-61862627D01*
X117060000Y-61922155D01*
X117060000Y-62520000D01*
X118044314Y-62520000D01*
X118032359Y-62531955D01*
X117974835Y-62644852D01*
X117955014Y-62770000D01*
X117974835Y-62895148D01*
X118032359Y-63008045D01*
X118044314Y-63020000D01*
X117060000Y-63020000D01*
X117060000Y-63617844D01*
X117066401Y-63677372D01*
X117066403Y-63677379D01*
X117116645Y-63812086D01*
X117116649Y-63812093D01*
X117202809Y-63927187D01*
X117202812Y-63927190D01*
X117317906Y-64013350D01*
X117317913Y-64013354D01*
X117452620Y-64063596D01*
X117452627Y-64063598D01*
X117488218Y-64067425D01*
X117552769Y-64094163D01*
X117592618Y-64151555D01*
X117595111Y-64221380D01*
X117559459Y-64281469D01*
X117546088Y-64292287D01*
X117520861Y-64309951D01*
X117359954Y-64470858D01*
X117247387Y-64631623D01*
X117192811Y-64675248D01*
X117145812Y-64684500D01*
X111711222Y-64684500D01*
X111644183Y-64664815D01*
X111609647Y-64631623D01*
X111592381Y-64606965D01*
X111492612Y-64464478D01*
X111488494Y-64458597D01*
X111321402Y-64291506D01*
X111321395Y-64291501D01*
X111127834Y-64155967D01*
X111127830Y-64155965D01*
X111068247Y-64128181D01*
X110913663Y-64056097D01*
X110913659Y-64056096D01*
X110913655Y-64056094D01*
X110685413Y-63994938D01*
X110685403Y-63994936D01*
X110450001Y-63974341D01*
X110449999Y-63974341D01*
X110214596Y-63994936D01*
X110214586Y-63994938D01*
X109986344Y-64056094D01*
X109986335Y-64056098D01*
X109772171Y-64155964D01*
X109772169Y-64155965D01*
X109578597Y-64291505D01*
X109411505Y-64458597D01*
X109275965Y-64652169D01*
X109275964Y-64652171D01*
X109176098Y-64866335D01*
X109176094Y-64866344D01*
X109114938Y-65094586D01*
X109114936Y-65094596D01*
X109094341Y-65329999D01*
X109094341Y-65330000D01*
X109114936Y-65565403D01*
X109114938Y-65565413D01*
X109176094Y-65793655D01*
X109176096Y-65793659D01*
X109176097Y-65793663D01*
X109272776Y-66000992D01*
X109275965Y-66007830D01*
X109275967Y-66007834D01*
X109364374Y-66134091D01*
X109411505Y-66201401D01*
X109578599Y-66368495D01*
X109578601Y-66368497D01*
X109578603Y-66368498D01*
X109764158Y-66498425D01*
X109807783Y-66553002D01*
X109814977Y-66622500D01*
X109783454Y-66684855D01*
X109764158Y-66701575D01*
X109578597Y-66831505D01*
X109411505Y-66998597D01*
X109275965Y-67192169D01*
X109275964Y-67192171D01*
X109176098Y-67406335D01*
X109176094Y-67406344D01*
X109114938Y-67634586D01*
X109114936Y-67634596D01*
X109094341Y-67869999D01*
X109094341Y-67870000D01*
X109114936Y-68105403D01*
X109114938Y-68105413D01*
X109176094Y-68333655D01*
X109176096Y-68333659D01*
X109176097Y-68333663D01*
X109262755Y-68519501D01*
X109275965Y-68547830D01*
X109275967Y-68547834D01*
X109411501Y-68741395D01*
X109411506Y-68741402D01*
X109578597Y-68908493D01*
X109578603Y-68908498D01*
X109764158Y-69038425D01*
X109807783Y-69093002D01*
X109814977Y-69162500D01*
X109783454Y-69224855D01*
X109764158Y-69241575D01*
X109578597Y-69371505D01*
X109411505Y-69538597D01*
X109275965Y-69732169D01*
X109275964Y-69732171D01*
X109176098Y-69946335D01*
X109176094Y-69946344D01*
X109114938Y-70174586D01*
X109114936Y-70174596D01*
X109094341Y-70409999D01*
X109094341Y-70410000D01*
X109114936Y-70645403D01*
X109114938Y-70645413D01*
X109176094Y-70873655D01*
X109176096Y-70873659D01*
X109176097Y-70873663D01*
X109272582Y-71080575D01*
X109275965Y-71087830D01*
X109275967Y-71087834D01*
X109411501Y-71281395D01*
X109411506Y-71281402D01*
X109578597Y-71448493D01*
X109578603Y-71448498D01*
X109764158Y-71578425D01*
X109807783Y-71633002D01*
X109814977Y-71702500D01*
X109783454Y-71764855D01*
X109764158Y-71781575D01*
X109578597Y-71911505D01*
X109411505Y-72078597D01*
X109275965Y-72272169D01*
X109275964Y-72272171D01*
X109176098Y-72486335D01*
X109176094Y-72486344D01*
X109114938Y-72714586D01*
X109114936Y-72714596D01*
X109094341Y-72949999D01*
X109094341Y-72950000D01*
X109114936Y-73185403D01*
X109114938Y-73185413D01*
X109176094Y-73413655D01*
X109176096Y-73413659D01*
X109176097Y-73413663D01*
X109272507Y-73620415D01*
X109275965Y-73627830D01*
X109275967Y-73627834D01*
X109359111Y-73746575D01*
X109411501Y-73821396D01*
X109411506Y-73821402D01*
X109533430Y-73943326D01*
X109566915Y-74004649D01*
X109561931Y-74074341D01*
X109520059Y-74130274D01*
X109489083Y-74147189D01*
X109357669Y-74196203D01*
X109357664Y-74196206D01*
X109242455Y-74282452D01*
X109242452Y-74282455D01*
X109156206Y-74397664D01*
X109156202Y-74397671D01*
X109105908Y-74532517D01*
X109099501Y-74592116D01*
X109099501Y-74592123D01*
X109099500Y-74592135D01*
X109099500Y-76387870D01*
X109099501Y-76387876D01*
X109105908Y-76447483D01*
X109156202Y-76582328D01*
X109156206Y-76582335D01*
X109242452Y-76697544D01*
X109242455Y-76697547D01*
X109357664Y-76783793D01*
X109357671Y-76783797D01*
X109492517Y-76834091D01*
X109492516Y-76834091D01*
X109499444Y-76834835D01*
X109552127Y-76840500D01*
X111347872Y-76840499D01*
X111407483Y-76834091D01*
X111542331Y-76783796D01*
X111657546Y-76697546D01*
X111743796Y-76582331D01*
X111794091Y-76447483D01*
X111800500Y-76387873D01*
X111800500Y-76219500D01*
X111820185Y-76152461D01*
X111872989Y-76106706D01*
X111924500Y-76095500D01*
X117145812Y-76095500D01*
X117212851Y-76115185D01*
X117247387Y-76148377D01*
X117359954Y-76309141D01*
X117520858Y-76470045D01*
X117520861Y-76470047D01*
X117707266Y-76600568D01*
X117765865Y-76627893D01*
X117818305Y-76674065D01*
X117837457Y-76741258D01*
X117817242Y-76808139D01*
X117765867Y-76852657D01*
X117707515Y-76879867D01*
X117521179Y-77010342D01*
X117360342Y-77171179D01*
X117229865Y-77357517D01*
X117133734Y-77563673D01*
X117133730Y-77563682D01*
X117081127Y-77759999D01*
X117081128Y-77760000D01*
X118044314Y-77760000D01*
X118032359Y-77771955D01*
X117974835Y-77884852D01*
X117955014Y-78010000D01*
X117974835Y-78135148D01*
X118032359Y-78248045D01*
X118044314Y-78260000D01*
X117081128Y-78260000D01*
X117133730Y-78456317D01*
X117133734Y-78456326D01*
X117229865Y-78662482D01*
X117360342Y-78848820D01*
X117521179Y-79009657D01*
X117707518Y-79140134D01*
X117707520Y-79140135D01*
X117765865Y-79167342D01*
X117818305Y-79213514D01*
X117837457Y-79280707D01*
X117817242Y-79347589D01*
X117765867Y-79392105D01*
X117735496Y-79406268D01*
X117707264Y-79419433D01*
X117520858Y-79549954D01*
X117359954Y-79710858D01*
X117229432Y-79897265D01*
X117229431Y-79897267D01*
X117133261Y-80103502D01*
X117133258Y-80103511D01*
X117074366Y-80323302D01*
X117074364Y-80323313D01*
X117054532Y-80549998D01*
X117054532Y-80550001D01*
X117074364Y-80776686D01*
X117074366Y-80776697D01*
X117133258Y-80996488D01*
X117133261Y-80996497D01*
X117229431Y-81202732D01*
X117229432Y-81202734D01*
X117359954Y-81389141D01*
X117520858Y-81550045D01*
X117520861Y-81550047D01*
X117707266Y-81680568D01*
X117913504Y-81776739D01*
X118133308Y-81835635D01*
X118290780Y-81849412D01*
X118359998Y-81855468D01*
X118360000Y-81855468D01*
X118360002Y-81855468D01*
X118429220Y-81849412D01*
X118586692Y-81835635D01*
X118806496Y-81776739D01*
X119012734Y-81680568D01*
X119199139Y-81550047D01*
X119252681Y-81496505D01*
X119322819Y-81426368D01*
X119384142Y-81392883D01*
X119453834Y-81397867D01*
X119509767Y-81439739D01*
X119534184Y-81505203D01*
X119534500Y-81514049D01*
X119534500Y-86397439D01*
X119514815Y-86464478D01*
X119462011Y-86510233D01*
X119392853Y-86520177D01*
X119367167Y-86513621D01*
X119267380Y-86476403D01*
X119267372Y-86476401D01*
X119207844Y-86470000D01*
X118610000Y-86470000D01*
X118610000Y-87454314D01*
X118598045Y-87442359D01*
X118485148Y-87384835D01*
X118391481Y-87370000D01*
X118328519Y-87370000D01*
X118234852Y-87384835D01*
X118121955Y-87442359D01*
X118110000Y-87454314D01*
X118110000Y-86470000D01*
X117512155Y-86470000D01*
X117452627Y-86476401D01*
X117452620Y-86476403D01*
X117317913Y-86526645D01*
X117317906Y-86526649D01*
X117202812Y-86612809D01*
X117202809Y-86612812D01*
X117116649Y-86727906D01*
X117116645Y-86727913D01*
X117066403Y-86862620D01*
X117066401Y-86862627D01*
X117060000Y-86922155D01*
X117060000Y-87520000D01*
X118044314Y-87520000D01*
X118032359Y-87531955D01*
X117974835Y-87644852D01*
X117955014Y-87770000D01*
X117974835Y-87895148D01*
X118032359Y-88008045D01*
X118044314Y-88020000D01*
X117060000Y-88020000D01*
X117060000Y-88617844D01*
X117066401Y-88677372D01*
X117066403Y-88677379D01*
X117116645Y-88812086D01*
X117116649Y-88812093D01*
X117202809Y-88927187D01*
X117202812Y-88927190D01*
X117317906Y-89013350D01*
X117317913Y-89013354D01*
X117452620Y-89063596D01*
X117452627Y-89063598D01*
X117488218Y-89067425D01*
X117552769Y-89094163D01*
X117592618Y-89151555D01*
X117595111Y-89221380D01*
X117559459Y-89281469D01*
X117546088Y-89292287D01*
X117520861Y-89309951D01*
X117359954Y-89470858D01*
X117325229Y-89520452D01*
X117233382Y-89651624D01*
X117178808Y-89695248D01*
X117131809Y-89704500D01*
X111975227Y-89704500D01*
X111908188Y-89684815D01*
X111873652Y-89651623D01*
X111738494Y-89458597D01*
X111571402Y-89291506D01*
X111571395Y-89291501D01*
X111553610Y-89279048D01*
X111494577Y-89237712D01*
X111377834Y-89155967D01*
X111377830Y-89155965D01*
X111282200Y-89111372D01*
X111163663Y-89056097D01*
X111163659Y-89056096D01*
X111163655Y-89056094D01*
X110935413Y-88994938D01*
X110935403Y-88994936D01*
X110700001Y-88974341D01*
X110699999Y-88974341D01*
X110464596Y-88994936D01*
X110464586Y-88994938D01*
X110236344Y-89056094D01*
X110236335Y-89056098D01*
X110022171Y-89155964D01*
X110022169Y-89155965D01*
X109828597Y-89291505D01*
X109661505Y-89458597D01*
X109525965Y-89652169D01*
X109525964Y-89652171D01*
X109426098Y-89866335D01*
X109426094Y-89866344D01*
X109364938Y-90094586D01*
X109364936Y-90094596D01*
X109344341Y-90329999D01*
X109344341Y-90330000D01*
X109364936Y-90565403D01*
X109364938Y-90565413D01*
X109426094Y-90793655D01*
X109426096Y-90793659D01*
X109426097Y-90793663D01*
X109483874Y-90917566D01*
X109525965Y-91007830D01*
X109525967Y-91007834D01*
X109582494Y-91088562D01*
X109661501Y-91201396D01*
X109661506Y-91201402D01*
X109828597Y-91368493D01*
X109828603Y-91368498D01*
X110014158Y-91498425D01*
X110057783Y-91553002D01*
X110064977Y-91622500D01*
X110033454Y-91684855D01*
X110014158Y-91701575D01*
X109828597Y-91831505D01*
X109661505Y-91998597D01*
X109525965Y-92192169D01*
X109525964Y-92192171D01*
X109426098Y-92406335D01*
X109426094Y-92406344D01*
X109364938Y-92634586D01*
X109364936Y-92634596D01*
X109344341Y-92869999D01*
X109344341Y-92870000D01*
X109364936Y-93105403D01*
X109364938Y-93105413D01*
X109426094Y-93333655D01*
X109426096Y-93333659D01*
X109426097Y-93333663D01*
X109504936Y-93502734D01*
X109525965Y-93547830D01*
X109525967Y-93547834D01*
X109586032Y-93633615D01*
X109661501Y-93741396D01*
X109661506Y-93741402D01*
X109828597Y-93908493D01*
X109828603Y-93908498D01*
X110014158Y-94038425D01*
X110057783Y-94093002D01*
X110064977Y-94162500D01*
X110033454Y-94224855D01*
X110014158Y-94241575D01*
X109828597Y-94371505D01*
X109661505Y-94538597D01*
X109525965Y-94732169D01*
X109525964Y-94732171D01*
X109426098Y-94946335D01*
X109426094Y-94946344D01*
X109364938Y-95174586D01*
X109364936Y-95174596D01*
X109344341Y-95409999D01*
X109344341Y-95410000D01*
X109364936Y-95645403D01*
X109364938Y-95645413D01*
X109426094Y-95873655D01*
X109426096Y-95873659D01*
X109426097Y-95873663D01*
X109504936Y-96042734D01*
X109525965Y-96087830D01*
X109525967Y-96087834D01*
X109616474Y-96217090D01*
X109661501Y-96281396D01*
X109661506Y-96281402D01*
X109828597Y-96448493D01*
X109828603Y-96448498D01*
X110014158Y-96578425D01*
X110057783Y-96633002D01*
X110064977Y-96702500D01*
X110033454Y-96764855D01*
X110014158Y-96781575D01*
X109828597Y-96911505D01*
X109661505Y-97078597D01*
X109525965Y-97272169D01*
X109525964Y-97272171D01*
X109426098Y-97486335D01*
X109426094Y-97486344D01*
X109364938Y-97714586D01*
X109364936Y-97714596D01*
X109344341Y-97949999D01*
X109344341Y-97950000D01*
X109364936Y-98185403D01*
X109364938Y-98185413D01*
X109426094Y-98413655D01*
X109426096Y-98413659D01*
X109426097Y-98413663D01*
X109504936Y-98582734D01*
X109525965Y-98627830D01*
X109525967Y-98627834D01*
X109603497Y-98738557D01*
X109661501Y-98821396D01*
X109661506Y-98821402D01*
X109783430Y-98943326D01*
X109816915Y-99004649D01*
X109811931Y-99074341D01*
X109770059Y-99130274D01*
X109739083Y-99147189D01*
X109607669Y-99196203D01*
X109607664Y-99196206D01*
X109492455Y-99282452D01*
X109492452Y-99282455D01*
X109406206Y-99397664D01*
X109406202Y-99397671D01*
X109355908Y-99532517D01*
X109349829Y-99589064D01*
X109349501Y-99592123D01*
X109349500Y-99592135D01*
X109349500Y-101387870D01*
X109349501Y-101387876D01*
X109355908Y-101447483D01*
X109406202Y-101582328D01*
X109406206Y-101582335D01*
X109492452Y-101697544D01*
X109492455Y-101697547D01*
X109607664Y-101783793D01*
X109607671Y-101783797D01*
X109742517Y-101834091D01*
X109742516Y-101834091D01*
X109749444Y-101834835D01*
X109802127Y-101840500D01*
X111597872Y-101840499D01*
X111657483Y-101834091D01*
X111792331Y-101783796D01*
X111907546Y-101697546D01*
X111993796Y-101582331D01*
X112044091Y-101447483D01*
X112050500Y-101387873D01*
X112050500Y-101239500D01*
X112070185Y-101172461D01*
X112122989Y-101126706D01*
X112174500Y-101115500D01*
X117159816Y-101115500D01*
X117226855Y-101135185D01*
X117261391Y-101168377D01*
X117359954Y-101309141D01*
X117520858Y-101470045D01*
X117520861Y-101470047D01*
X117707266Y-101600568D01*
X117765865Y-101627893D01*
X117818305Y-101674065D01*
X117837457Y-101741258D01*
X117817242Y-101808139D01*
X117765867Y-101852657D01*
X117707515Y-101879867D01*
X117521179Y-102010342D01*
X117360342Y-102171179D01*
X117229865Y-102357517D01*
X117133734Y-102563673D01*
X117133730Y-102563682D01*
X117081127Y-102759999D01*
X117081128Y-102760000D01*
X118044314Y-102760000D01*
X118032359Y-102771955D01*
X117974835Y-102884852D01*
X117955014Y-103010000D01*
X117974835Y-103135148D01*
X118032359Y-103248045D01*
X118044314Y-103260000D01*
X117081128Y-103260000D01*
X117133730Y-103456317D01*
X117133734Y-103456326D01*
X117229865Y-103662482D01*
X117360342Y-103848820D01*
X117521179Y-104009657D01*
X117707518Y-104140134D01*
X117707520Y-104140135D01*
X117765865Y-104167342D01*
X117818305Y-104213514D01*
X117837457Y-104280707D01*
X117817242Y-104347589D01*
X117765867Y-104392105D01*
X117707266Y-104419432D01*
X117707264Y-104419433D01*
X117520858Y-104549954D01*
X117359954Y-104710858D01*
X117229432Y-104897265D01*
X117229431Y-104897267D01*
X117133261Y-105103502D01*
X117133258Y-105103511D01*
X117074366Y-105323302D01*
X117074364Y-105323313D01*
X117054532Y-105549998D01*
X117054532Y-105550001D01*
X117074364Y-105776686D01*
X117074366Y-105776697D01*
X117133258Y-105996488D01*
X117133261Y-105996497D01*
X117229431Y-106202732D01*
X117229432Y-106202734D01*
X117359954Y-106389141D01*
X117520858Y-106550045D01*
X117520861Y-106550047D01*
X117707266Y-106680568D01*
X117913504Y-106776739D01*
X118133308Y-106835635D01*
X118295230Y-106849801D01*
X118359998Y-106855468D01*
X118360000Y-106855468D01*
X118360002Y-106855468D01*
X118416673Y-106850509D01*
X118586692Y-106835635D01*
X118806496Y-106776739D01*
X119012734Y-106680568D01*
X119199139Y-106550047D01*
X119243983Y-106505203D01*
X119322819Y-106426368D01*
X119384142Y-106392883D01*
X119453834Y-106397867D01*
X119509767Y-106439739D01*
X119534184Y-106505203D01*
X119534500Y-106514049D01*
X119534500Y-111710393D01*
X119514815Y-111777432D01*
X119462011Y-111823187D01*
X119392853Y-111833131D01*
X119336189Y-111809660D01*
X119292089Y-111776647D01*
X119292086Y-111776645D01*
X119157379Y-111726403D01*
X119157372Y-111726401D01*
X119097844Y-111720000D01*
X118500000Y-111720000D01*
X118500000Y-112704314D01*
X118488045Y-112692359D01*
X118375148Y-112634835D01*
X118281481Y-112620000D01*
X118218519Y-112620000D01*
X118124852Y-112634835D01*
X118011955Y-112692359D01*
X118000000Y-112704314D01*
X118000000Y-111720000D01*
X117402155Y-111720000D01*
X117342627Y-111726401D01*
X117342620Y-111726403D01*
X117207913Y-111776645D01*
X117207906Y-111776649D01*
X117092812Y-111862809D01*
X117092809Y-111862812D01*
X117006649Y-111977906D01*
X117006645Y-111977913D01*
X116956403Y-112112620D01*
X116956401Y-112112627D01*
X116950000Y-112172155D01*
X116950000Y-112770000D01*
X117934314Y-112770000D01*
X117922359Y-112781955D01*
X117864835Y-112894852D01*
X117845014Y-113020000D01*
X117864835Y-113145148D01*
X117922359Y-113258045D01*
X117934314Y-113270000D01*
X116950000Y-113270000D01*
X116950000Y-113867844D01*
X116956401Y-113927372D01*
X116956403Y-113927379D01*
X117006645Y-114062086D01*
X117006649Y-114062093D01*
X117092809Y-114177187D01*
X117092812Y-114177190D01*
X117207906Y-114263350D01*
X117207913Y-114263354D01*
X117342620Y-114313596D01*
X117342627Y-114313598D01*
X117378218Y-114317425D01*
X117442769Y-114344163D01*
X117482618Y-114401555D01*
X117485111Y-114471380D01*
X117449459Y-114531469D01*
X117436088Y-114542287D01*
X117410861Y-114559951D01*
X117249954Y-114720858D01*
X117119432Y-114907265D01*
X117119432Y-114907266D01*
X117112139Y-114922904D01*
X117065969Y-114975343D01*
X116999758Y-114994500D01*
X113475227Y-114994500D01*
X113408188Y-114974815D01*
X113373652Y-114941623D01*
X113238494Y-114748597D01*
X113071402Y-114581506D01*
X113071395Y-114581501D01*
X112877834Y-114445967D01*
X112877830Y-114445965D01*
X112842375Y-114429432D01*
X112663663Y-114346097D01*
X112663659Y-114346096D01*
X112663655Y-114346094D01*
X112435413Y-114284938D01*
X112435403Y-114284936D01*
X112200001Y-114264341D01*
X112199999Y-114264341D01*
X111964596Y-114284936D01*
X111964586Y-114284938D01*
X111736344Y-114346094D01*
X111736335Y-114346098D01*
X111522171Y-114445964D01*
X111522169Y-114445965D01*
X111328597Y-114581505D01*
X111161505Y-114748597D01*
X111026348Y-114941623D01*
X110971771Y-114985248D01*
X110924773Y-114994500D01*
X106725227Y-114994500D01*
X106658188Y-114974815D01*
X106623652Y-114941623D01*
X106488494Y-114748597D01*
X106321402Y-114581506D01*
X106321395Y-114581501D01*
X106127834Y-114445967D01*
X106127830Y-114445965D01*
X106092375Y-114429432D01*
X105913663Y-114346097D01*
X105913659Y-114346096D01*
X105913655Y-114346094D01*
X105685413Y-114284938D01*
X105685403Y-114284936D01*
X105450001Y-114264341D01*
X105449999Y-114264341D01*
X105214596Y-114284936D01*
X105214586Y-114284938D01*
X104986344Y-114346094D01*
X104986335Y-114346098D01*
X104772171Y-114445964D01*
X104772169Y-114445965D01*
X104578597Y-114581505D01*
X104411505Y-114748597D01*
X104275965Y-114942169D01*
X104275964Y-114942171D01*
X104176098Y-115156335D01*
X104176094Y-115156344D01*
X104114938Y-115384586D01*
X104114936Y-115384596D01*
X104094341Y-115619999D01*
X104094341Y-115620000D01*
X104114936Y-115855403D01*
X104114938Y-115855413D01*
X104176094Y-116083655D01*
X104176096Y-116083659D01*
X104176097Y-116083663D01*
X104236283Y-116212732D01*
X104275965Y-116297830D01*
X104275967Y-116297834D01*
X104316684Y-116355983D01*
X104411501Y-116491396D01*
X104411506Y-116491402D01*
X104578597Y-116658493D01*
X104578603Y-116658498D01*
X104764158Y-116788425D01*
X104807783Y-116843002D01*
X104814977Y-116912500D01*
X104783454Y-116974855D01*
X104764158Y-116991575D01*
X104578597Y-117121505D01*
X104411505Y-117288597D01*
X104275965Y-117482169D01*
X104275964Y-117482171D01*
X104176098Y-117696335D01*
X104176094Y-117696344D01*
X104114938Y-117924586D01*
X104114936Y-117924596D01*
X104094341Y-118159999D01*
X104094341Y-118160000D01*
X104114936Y-118395403D01*
X104114938Y-118395413D01*
X104176094Y-118623655D01*
X104176096Y-118623659D01*
X104176097Y-118623663D01*
X104216357Y-118710000D01*
X104275965Y-118837830D01*
X104275967Y-118837834D01*
X104346902Y-118939139D01*
X104411501Y-119031396D01*
X104411506Y-119031402D01*
X104578597Y-119198493D01*
X104578603Y-119198498D01*
X104764158Y-119328425D01*
X104807783Y-119383002D01*
X104814977Y-119452500D01*
X104783454Y-119514855D01*
X104764158Y-119531575D01*
X104578597Y-119661505D01*
X104411505Y-119828597D01*
X104275965Y-120022169D01*
X104275964Y-120022171D01*
X104176098Y-120236335D01*
X104176094Y-120236344D01*
X104114938Y-120464586D01*
X104114936Y-120464596D01*
X104094341Y-120699999D01*
X104094341Y-120700000D01*
X104114936Y-120935403D01*
X104114938Y-120935413D01*
X104176094Y-121163655D01*
X104176096Y-121163659D01*
X104176097Y-121163663D01*
X104236283Y-121292732D01*
X104275965Y-121377830D01*
X104275967Y-121377834D01*
X104316684Y-121435983D01*
X104411501Y-121571396D01*
X104411506Y-121571402D01*
X104578597Y-121738493D01*
X104578603Y-121738498D01*
X104764158Y-121868425D01*
X104807783Y-121923002D01*
X104814977Y-121992500D01*
X104783454Y-122054855D01*
X104764158Y-122071575D01*
X104578597Y-122201505D01*
X104411505Y-122368597D01*
X104275965Y-122562169D01*
X104275964Y-122562171D01*
X104176098Y-122776335D01*
X104176094Y-122776344D01*
X104114938Y-123004586D01*
X104114936Y-123004596D01*
X104094341Y-123239999D01*
X104094341Y-123240000D01*
X103550500Y-123240000D01*
X103550500Y-49634500D01*
X103570185Y-49567461D01*
X103622989Y-49521706D01*
X103674500Y-49510500D01*
X177225500Y-49510500D01*
X177292539Y-49530185D01*
G37*
%TD.AperFunction*%
%TD*%
M02*
