%TF.GenerationSoftware,KiCad,Pcbnew,7.0.9*%
%TF.CreationDate,2024-05-12T01:41:16+02:00*%
%TF.ProjectId,Automatic_sampler_logic,4175746f-6d61-4746-9963-5f73616d706c,rev?*%
%TF.SameCoordinates,Original*%
%TF.FileFunction,Copper,L1,Top*%
%TF.FilePolarity,Positive*%
%FSLAX46Y46*%
G04 Gerber Fmt 4.6, Leading zero omitted, Abs format (unit mm)*
G04 Created by KiCad (PCBNEW 7.0.9) date 2024-05-12 01:41:16*
%MOMM*%
%LPD*%
G01*
G04 APERTURE LIST*
G04 Aperture macros list*
%AMRoundRect*
0 Rectangle with rounded corners*
0 $1 Rounding radius*
0 $2 $3 $4 $5 $6 $7 $8 $9 X,Y pos of 4 corners*
0 Add a 4 corners polygon primitive as box body*
4,1,4,$2,$3,$4,$5,$6,$7,$8,$9,$2,$3,0*
0 Add four circle primitives for the rounded corners*
1,1,$1+$1,$2,$3*
1,1,$1+$1,$4,$5*
1,1,$1+$1,$6,$7*
1,1,$1+$1,$8,$9*
0 Add four rect primitives between the rounded corners*
20,1,$1+$1,$2,$3,$4,$5,0*
20,1,$1+$1,$4,$5,$6,$7,0*
20,1,$1+$1,$6,$7,$8,$9,0*
20,1,$1+$1,$8,$9,$2,$3,0*%
G04 Aperture macros list end*
%TA.AperFunction,NonConductor*%
%ADD10C,0.200000*%
%TD*%
%TA.AperFunction,ComponentPad*%
%ADD11R,1.600000X1.600000*%
%TD*%
%TA.AperFunction,ComponentPad*%
%ADD12O,1.600000X1.600000*%
%TD*%
%TA.AperFunction,ComponentPad*%
%ADD13O,1.700000X1.700000*%
%TD*%
%TA.AperFunction,SMDPad,CuDef*%
%ADD14R,1.700000X3.500000*%
%TD*%
%TA.AperFunction,ComponentPad*%
%ADD15R,1.700000X1.700000*%
%TD*%
%TA.AperFunction,SMDPad,CuDef*%
%ADD16R,3.500000X1.700000*%
%TD*%
%TA.AperFunction,ComponentPad*%
%ADD17R,1.905000X2.000000*%
%TD*%
%TA.AperFunction,ComponentPad*%
%ADD18O,1.905000X2.000000*%
%TD*%
%TA.AperFunction,ComponentPad*%
%ADD19C,1.600000*%
%TD*%
%TA.AperFunction,ComponentPad*%
%ADD20RoundRect,0.250000X-0.350000X-0.625000X0.350000X-0.625000X0.350000X0.625000X-0.350000X0.625000X0*%
%TD*%
%TA.AperFunction,ComponentPad*%
%ADD21O,1.200000X1.750000*%
%TD*%
%TA.AperFunction,ComponentPad*%
%ADD22R,1.800000X1.800000*%
%TD*%
%TA.AperFunction,ComponentPad*%
%ADD23C,1.800000*%
%TD*%
%TA.AperFunction,Conductor*%
%ADD24C,0.250000*%
%TD*%
G04 APERTURE END LIST*
D10*
X122750000Y-64750000D02*
X232750000Y-64750000D01*
X232750000Y-144750000D01*
X122750000Y-144750000D01*
X122750000Y-64750000D01*
D11*
%TO.P,A4,1,GND*%
%TO.N,GND*%
X209860000Y-127340000D03*
D12*
%TO.P,A4,2,~{FLT}*%
%TO.N,FLT*%
X212400000Y-127340000D03*
%TO.P,A4,3,A2*%
%TO.N,Net-(A4-A2)*%
X214940000Y-127340000D03*
%TO.P,A4,4,A1*%
%TO.N,Net-(A4-A1)*%
X217480000Y-127340000D03*
%TO.P,A4,5,B1*%
%TO.N,Net-(A4-B1)*%
X220020000Y-127340000D03*
%TO.P,A4,6,B2*%
%TO.N,Net-(A4-B2)*%
X222560000Y-127340000D03*
%TO.P,A4,7,GND*%
%TO.N,GND*%
X225100000Y-127340000D03*
%TO.P,A4,8,VMOT*%
%TO.N,+12V*%
X227640000Y-127340000D03*
%TO.P,A4,9,~{EN}*%
%TO.N,MOT_EN_Z*%
X227640000Y-114640000D03*
%TO.P,A4,10,M0*%
%TO.N,unconnected-(A4-M0-Pad10)*%
X225100000Y-114640000D03*
%TO.P,A4,11,M1*%
%TO.N,unconnected-(A4-M1-Pad11)*%
X222560000Y-114640000D03*
%TO.P,A4,12,M2*%
%TO.N,unconnected-(A4-M2-Pad12)*%
X220020000Y-114640000D03*
%TO.P,A4,13,~{RST}*%
%TO.N,+5V*%
X217480000Y-114640000D03*
%TO.P,A4,14,~{SLP}*%
X214940000Y-114640000D03*
%TO.P,A4,15,STEP*%
%TO.N,MOT_ST*%
X212400000Y-114640000D03*
%TO.P,A4,16,DIR*%
%TO.N,MOT_DIR*%
X209860000Y-114640000D03*
%TD*%
D11*
%TO.P,A2,1,GND*%
%TO.N,GND*%
X157360000Y-127590000D03*
D12*
%TO.P,A2,2,~{FLT}*%
%TO.N,FLT*%
X159900000Y-127590000D03*
%TO.P,A2,3,A2*%
%TO.N,Net-(A2-A2)*%
X162440000Y-127590000D03*
%TO.P,A2,4,A1*%
%TO.N,Net-(A2-A1)*%
X164980000Y-127590000D03*
%TO.P,A2,5,B1*%
%TO.N,Net-(A2-B1)*%
X167520000Y-127590000D03*
%TO.P,A2,6,B2*%
%TO.N,Net-(A2-B2)*%
X170060000Y-127590000D03*
%TO.P,A2,7,GND*%
%TO.N,GND*%
X172600000Y-127590000D03*
%TO.P,A2,8,VMOT*%
%TO.N,+12V*%
X175140000Y-127590000D03*
%TO.P,A2,9,~{EN}*%
%TO.N,MOT_EN_X*%
X175140000Y-114890000D03*
%TO.P,A2,10,M0*%
%TO.N,unconnected-(A2-M0-Pad10)*%
X172600000Y-114890000D03*
%TO.P,A2,11,M1*%
%TO.N,unconnected-(A2-M1-Pad11)*%
X170060000Y-114890000D03*
%TO.P,A2,12,M2*%
%TO.N,+5V*%
X167520000Y-114890000D03*
%TO.P,A2,13,~{RST}*%
X164980000Y-114890000D03*
%TO.P,A2,14,~{SLP}*%
X162440000Y-114890000D03*
%TO.P,A2,15,STEP*%
%TO.N,MOT_ST*%
X159900000Y-114890000D03*
%TO.P,A2,16,DIR*%
%TO.N,MOT_DIR*%
X157360000Y-114890000D03*
%TD*%
D13*
%TO.P,U4,1,GPIO0*%
%TO.N,MOT_ST*%
X134980000Y-100250000D03*
D14*
X134980000Y-101150000D03*
D13*
%TO.P,U4,2,GPIO1*%
%TO.N,MOT_DIR*%
X137520000Y-100250000D03*
D14*
X137520000Y-101150000D03*
%TO.P,U4,3,GND*%
%TO.N,unconnected-(U4-GND-Pad3)*%
X140060000Y-101150000D03*
D15*
X140060000Y-100250000D03*
D13*
%TO.P,U4,4,GPIO2*%
%TO.N,LCD_D7*%
X142600000Y-100250000D03*
D14*
X142600000Y-101150000D03*
D13*
%TO.P,U4,5,GPIO3*%
%TO.N,LCD_D6*%
X145140000Y-100250000D03*
D14*
X145140000Y-101150000D03*
D13*
%TO.P,U4,6,GPIO4*%
%TO.N,LCD_D5*%
X147680000Y-100250000D03*
D14*
X147680000Y-101150000D03*
%TO.P,U4,7,GPIO5*%
%TO.N,LCD_D4*%
X150220000Y-101150000D03*
D13*
X150220000Y-100250000D03*
D15*
%TO.P,U4,8,GND*%
%TO.N,unconnected-(U4-GND-Pad8)*%
X152760000Y-100250000D03*
D14*
X152760000Y-101150000D03*
%TO.P,U4,9,GPIO6*%
%TO.N,MOT_EN_Z*%
X155300000Y-101150000D03*
D13*
X155300000Y-100250000D03*
%TO.P,U4,10,GPIO7*%
%TO.N,MOT_EN_Y*%
X157840000Y-100250000D03*
D14*
X157840000Y-101150000D03*
%TO.P,U4,11,GPIO8*%
%TO.N,SD_MISO*%
X160380000Y-101150000D03*
D13*
X160380000Y-100250000D03*
%TO.P,U4,12,GPIO9*%
%TO.N,MOT_EN_X*%
X162920000Y-100250000D03*
D14*
X162920000Y-101150000D03*
D15*
%TO.P,U4,13,GND*%
%TO.N,unconnected-(U4-GND-Pad13)*%
X165460000Y-100250000D03*
D14*
X165460000Y-101150000D03*
%TO.P,U4,14,GPIO10*%
%TO.N,SD_CLK*%
X168000000Y-101150000D03*
D13*
X168000000Y-100250000D03*
%TO.P,U4,15,GPIO11*%
%TO.N,LCD_E*%
X170540000Y-100250000D03*
D14*
X170540000Y-101150000D03*
%TO.P,U4,16,GPIO12*%
%TO.N,LCD_RS*%
X173080000Y-101150000D03*
D13*
X173080000Y-100250000D03*
D14*
%TO.P,U4,17,GPIO13*%
%TO.N,SD_CS*%
X175620000Y-101150000D03*
D13*
X175620000Y-100250000D03*
D14*
%TO.P,U4,18,GND*%
%TO.N,unconnected-(U4-GND-Pad18)*%
X178160000Y-101150000D03*
D15*
X178160000Y-100250000D03*
D13*
%TO.P,U4,19,GPIO14*%
%TO.N,unconnected-(U4-GPIO14-Pad19)*%
X180700000Y-100250000D03*
D14*
X180700000Y-101150000D03*
%TO.P,U4,20,GPIO15*%
%TO.N,SD_MOSI*%
X183240000Y-101150000D03*
D13*
X183240000Y-100250000D03*
D14*
%TO.P,U4,21,GPIO16*%
%TO.N,F_X*%
X183240000Y-81570000D03*
D13*
X183240000Y-82470000D03*
D14*
%TO.P,U4,22,GPIO17*%
%TO.N,F_Y*%
X180700000Y-81570000D03*
D13*
X180700000Y-82470000D03*
D14*
%TO.P,U4,23,GND*%
%TO.N,unconnected-(U4-GND-Pad23)*%
X178160000Y-81570000D03*
D15*
X178160000Y-82470000D03*
D13*
%TO.P,U4,24,GPIO18*%
%TO.N,unconnected-(U4-GPIO18-Pad24)*%
X175620000Y-82470000D03*
D14*
X175620000Y-81570000D03*
%TO.P,U4,25,GPIO19*%
%TO.N,unconnected-(U4-GPIO19-Pad25)*%
X173080000Y-81570000D03*
D13*
X173080000Y-82470000D03*
D14*
%TO.P,U4,26,GPIO20*%
%TO.N,unconnected-(U4-GPIO20-Pad26)*%
X170540000Y-81570000D03*
D13*
X170540000Y-82470000D03*
%TO.P,U4,27,GPIO21*%
%TO.N,unconnected-(U4-GPIO21-Pad27)*%
X168000000Y-82470000D03*
D14*
X168000000Y-81570000D03*
D15*
%TO.P,U4,28,GND*%
%TO.N,unconnected-(U4-GND-Pad28)*%
X165460000Y-82470000D03*
D14*
X165460000Y-81570000D03*
D13*
%TO.P,U4,29,GPIO22*%
%TO.N,F_Z*%
X162920000Y-82470000D03*
D14*
X162920000Y-81570000D03*
%TO.P,U4,30,RUN*%
%TO.N,unconnected-(U4-RUN-Pad30)*%
X160380000Y-81570000D03*
D13*
X160380000Y-82470000D03*
%TO.P,U4,31,GPIO26_ADC0*%
%TO.N,unconnected-(U4-GPIO26_ADC0-Pad31)*%
X157840000Y-82470000D03*
D14*
X157840000Y-81570000D03*
D13*
%TO.P,U4,32,GPIO27_ADC1*%
%TO.N,Button*%
X155300000Y-82470000D03*
D14*
X155300000Y-81570000D03*
%TO.P,U4,33,AGND*%
%TO.N,unconnected-(U4-AGND-Pad33)*%
X152760000Y-81570000D03*
D15*
X152760000Y-82470000D03*
D14*
%TO.P,U4,34,GPIO28_ADC2*%
%TO.N,unconnected-(U4-GPIO28_ADC2-Pad34)*%
X150220000Y-81570000D03*
D13*
X150220000Y-82470000D03*
D14*
%TO.P,U4,35,ADC_VREF*%
%TO.N,unconnected-(U4-ADC_VREF-Pad35)*%
X147680000Y-81570000D03*
D13*
X147680000Y-82470000D03*
%TO.P,U4,36,3V3*%
%TO.N,+3.3V*%
X145140000Y-82470000D03*
D14*
X145140000Y-81570000D03*
%TO.P,U4,37,3V3_EN*%
%TO.N,unconnected-(U4-3V3_EN-Pad37)*%
X142600000Y-81570000D03*
D13*
X142600000Y-82470000D03*
D14*
%TO.P,U4,38,GND*%
%TO.N,GND*%
X140060000Y-81570000D03*
D15*
X140060000Y-82470000D03*
D14*
%TO.P,U4,39,VSYS*%
%TO.N,+5V*%
X137520000Y-81570000D03*
D13*
X137520000Y-82470000D03*
%TO.P,U4,40,VBUS*%
%TO.N,unconnected-(U4-VBUS-Pad40)*%
X134980000Y-82470000D03*
D14*
X134980000Y-81570000D03*
D16*
%TO.P,U4,41,SWCLK*%
%TO.N,unconnected-(U4-SWCLK-Pad41)*%
X183910000Y-93900000D03*
D13*
X183010000Y-93900000D03*
D15*
%TO.P,U4,42,GND*%
%TO.N,unconnected-(U4-GND-Pad42)*%
X183010000Y-91360000D03*
D16*
X183910000Y-91360000D03*
D13*
%TO.P,U4,43,SWDIO*%
%TO.N,unconnected-(U4-SWDIO-Pad43)*%
X183010000Y-88820000D03*
D16*
X183910000Y-88820000D03*
%TD*%
D17*
%TO.P,U5,1,VI*%
%TO.N,+12V*%
X208710000Y-98250000D03*
D18*
%TO.P,U5,2,GND*%
%TO.N,GND*%
X211250000Y-98250000D03*
%TO.P,U5,3,VO*%
%TO.N,+5V*%
X213790000Y-98250000D03*
%TD*%
D19*
%TO.P,R1,1*%
%TO.N,+5V*%
X225750000Y-90130000D03*
D12*
%TO.P,R1,2*%
%TO.N,Net-(D1-A)*%
X225750000Y-97750000D03*
%TD*%
D20*
%TO.P,J6,1,Pin_1*%
%TO.N,Net-(A4-A2)*%
X215500000Y-137250000D03*
D21*
%TO.P,J6,2,Pin_2*%
%TO.N,Net-(A4-A1)*%
X217500000Y-137250000D03*
%TO.P,J6,3,Pin_3*%
%TO.N,Net-(A4-B1)*%
X219500000Y-137250000D03*
%TO.P,J6,4,Pin_4*%
%TO.N,Net-(A4-B2)*%
X221500000Y-137250000D03*
%TD*%
D15*
%TO.P,J5,1,Pin_1*%
%TO.N,GND*%
X185750000Y-73000000D03*
D13*
%TO.P,J5,2,Pin_2*%
%TO.N,F_X*%
X183210000Y-73000000D03*
%TO.P,J5,3,Pin_3*%
%TO.N,F_Y*%
X180670000Y-73000000D03*
%TO.P,J5,4,Pin_4*%
%TO.N,F_Z*%
X178130000Y-73000000D03*
%TD*%
D15*
%TO.P,J4,1,Pin_1*%
%TO.N,GND*%
X189750000Y-83500000D03*
D13*
%TO.P,J4,2,Pin_2*%
%TO.N,+12V*%
X189750000Y-86040000D03*
%TD*%
D21*
%TO.P,J3,4,Pin_4*%
%TO.N,Net-(A3-B2)*%
X195000000Y-137500000D03*
%TO.P,J3,3,Pin_3*%
%TO.N,Net-(A3-B1)*%
X193000000Y-137500000D03*
%TO.P,J3,2,Pin_2*%
%TO.N,Net-(A3-A1)*%
X191000000Y-137500000D03*
D20*
%TO.P,J3,1,Pin_1*%
%TO.N,Net-(A3-A2)*%
X189000000Y-137500000D03*
%TD*%
%TO.P,J2,1,Pin_1*%
%TO.N,Net-(A2-A2)*%
X162750000Y-137750000D03*
D21*
%TO.P,J2,2,Pin_2*%
%TO.N,Net-(A2-A1)*%
X164750000Y-137750000D03*
%TO.P,J2,3,Pin_3*%
%TO.N,Net-(A2-B1)*%
X166750000Y-137750000D03*
%TO.P,J2,4,Pin_4*%
%TO.N,Net-(A2-B2)*%
X168750000Y-137750000D03*
%TD*%
D20*
%TO.P,J1,1,Pin_1*%
%TO.N,Net-(A1-A2)*%
X136250000Y-137250000D03*
D21*
%TO.P,J1,2,Pin_2*%
%TO.N,Net-(A1-A1)*%
X138250000Y-137250000D03*
%TO.P,J1,3,Pin_3*%
%TO.N,Net-(A1-B1)*%
X140250000Y-137250000D03*
%TO.P,J1,4,Pin_4*%
%TO.N,Net-(A1-B2)*%
X142250000Y-137250000D03*
%TD*%
D22*
%TO.P,D1,1,K*%
%TO.N,FLT*%
X223460000Y-102880000D03*
D23*
%TO.P,D1,2,A*%
%TO.N,Net-(D1-A)*%
X226000000Y-102880000D03*
%TD*%
D19*
%TO.P,C2,1*%
%TO.N,+5V*%
X219710000Y-90000000D03*
%TO.P,C2,2*%
%TO.N,GND*%
X214710000Y-90000000D03*
%TD*%
%TO.P,C1,1*%
%TO.N,+12V*%
X202960000Y-90000000D03*
%TO.P,C1,2*%
%TO.N,GND*%
X207960000Y-90000000D03*
%TD*%
D11*
%TO.P,A3,1,GND*%
%TO.N,GND*%
X183380000Y-127500000D03*
D12*
%TO.P,A3,2,~{FLT}*%
%TO.N,FLT*%
X185920000Y-127500000D03*
%TO.P,A3,3,A2*%
%TO.N,Net-(A3-A2)*%
X188460000Y-127500000D03*
%TO.P,A3,4,A1*%
%TO.N,Net-(A3-A1)*%
X191000000Y-127500000D03*
%TO.P,A3,5,B1*%
%TO.N,Net-(A3-B1)*%
X193540000Y-127500000D03*
%TO.P,A3,6,B2*%
%TO.N,Net-(A3-B2)*%
X196080000Y-127500000D03*
%TO.P,A3,7,GND*%
%TO.N,GND*%
X198620000Y-127500000D03*
%TO.P,A3,8,VMOT*%
%TO.N,+12V*%
X201160000Y-127500000D03*
%TO.P,A3,9,~{EN}*%
%TO.N,MOT_EN_Y*%
X201160000Y-114800000D03*
%TO.P,A3,10,M0*%
%TO.N,unconnected-(A3-M0-Pad10)*%
X198620000Y-114800000D03*
%TO.P,A3,11,M1*%
%TO.N,unconnected-(A3-M1-Pad11)*%
X196080000Y-114800000D03*
%TO.P,A3,12,M2*%
%TO.N,unconnected-(A3-M2-Pad12)*%
X193540000Y-114800000D03*
%TO.P,A3,13,~{RST}*%
%TO.N,+5V*%
X191000000Y-114800000D03*
%TO.P,A3,14,~{SLP}*%
X188460000Y-114800000D03*
%TO.P,A3,15,STEP*%
%TO.N,MOT_ST*%
X185920000Y-114800000D03*
%TO.P,A3,16,DIR*%
%TO.N,MOT_DIR*%
X183380000Y-114800000D03*
%TD*%
D11*
%TO.P,A1,1,GND*%
%TO.N,GND*%
X130610000Y-127590000D03*
D12*
%TO.P,A1,2,~{FLT}*%
%TO.N,FLT*%
X133150000Y-127590000D03*
%TO.P,A1,3,A2*%
%TO.N,Net-(A1-A2)*%
X135690000Y-127590000D03*
%TO.P,A1,4,A1*%
%TO.N,Net-(A1-A1)*%
X138230000Y-127590000D03*
%TO.P,A1,5,B1*%
%TO.N,Net-(A1-B1)*%
X140770000Y-127590000D03*
%TO.P,A1,6,B2*%
%TO.N,Net-(A1-B2)*%
X143310000Y-127590000D03*
%TO.P,A1,7,GND*%
%TO.N,GND*%
X145850000Y-127590000D03*
%TO.P,A1,8,VMOT*%
%TO.N,+12V*%
X148390000Y-127590000D03*
%TO.P,A1,9,~{EN}*%
%TO.N,MOT_EN_X*%
X148390000Y-114890000D03*
%TO.P,A1,10,M0*%
%TO.N,unconnected-(A1-M0-Pad10)*%
X145850000Y-114890000D03*
%TO.P,A1,11,M1*%
%TO.N,unconnected-(A1-M1-Pad11)*%
X143310000Y-114890000D03*
%TO.P,A1,12,M2*%
%TO.N,+5V*%
X140770000Y-114890000D03*
%TO.P,A1,13,~{RST}*%
X138230000Y-114890000D03*
%TO.P,A1,14,~{SLP}*%
X135690000Y-114890000D03*
%TO.P,A1,15,STEP*%
%TO.N,MOT_ST*%
X133150000Y-114890000D03*
%TO.P,A1,16,DIR*%
%TO.N,MOT_DIR*%
X130610000Y-114890000D03*
%TD*%
D24*
%TO.N,MOT_ST*%
X209000000Y-112750000D02*
X210510000Y-112750000D01*
X188500000Y-119250000D02*
X202500000Y-119250000D01*
X210510000Y-112750000D02*
X212400000Y-114640000D01*
X185920000Y-116670000D02*
X188500000Y-119250000D01*
X202500000Y-119250000D02*
X209000000Y-112750000D01*
X185920000Y-114800000D02*
X185920000Y-116670000D01*
X156750000Y-113250000D02*
X158260000Y-113250000D01*
X158260000Y-113250000D02*
X159900000Y-114890000D01*
X135000000Y-119000000D02*
X151000000Y-119000000D01*
X151000000Y-119000000D02*
X156750000Y-113250000D01*
X133150000Y-117150000D02*
X135000000Y-119000000D01*
X133150000Y-114890000D02*
X133150000Y-117150000D01*
%TO.N,MOT_DIR*%
X183500000Y-114920000D02*
X183380000Y-114800000D01*
X183500000Y-120750000D02*
X183500000Y-114920000D01*
X157500000Y-115030000D02*
X157500000Y-120750000D01*
X157360000Y-114890000D02*
X157500000Y-115030000D01*
X130610000Y-118110000D02*
X133250000Y-120750000D01*
X130610000Y-114890000D02*
X130610000Y-118110000D01*
X133250000Y-120750000D02*
X157500000Y-120750000D01*
X157500000Y-120750000D02*
X183500000Y-120750000D01*
%TO.N,+5V*%
X182000000Y-111250000D02*
X184910000Y-111250000D01*
X175500000Y-117750000D02*
X182000000Y-111250000D01*
X167520000Y-116270000D02*
X169000000Y-117750000D01*
X184910000Y-111250000D02*
X188460000Y-114800000D01*
X167520000Y-114890000D02*
X167520000Y-116270000D01*
X169000000Y-117750000D02*
X175500000Y-117750000D01*
%TO.N,MOT_ST*%
X183870000Y-112750000D02*
X185920000Y-114800000D01*
X182750000Y-112750000D02*
X183870000Y-112750000D01*
X176250000Y-119250000D02*
X182750000Y-112750000D01*
X164260000Y-119250000D02*
X176250000Y-119250000D01*
X159900000Y-114890000D02*
X164260000Y-119250000D01*
%TO.N,MOT_DIR*%
X209860000Y-117640000D02*
X209860000Y-114640000D01*
X183500000Y-120750000D02*
X206750000Y-120750000D01*
X206750000Y-120750000D02*
X209860000Y-117640000D01*
%TO.N,+5V*%
X158800000Y-111250000D02*
X162440000Y-114890000D01*
X156750000Y-111250000D02*
X158800000Y-111250000D01*
X151250000Y-116750000D02*
X156750000Y-111250000D01*
X140770000Y-116520000D02*
X141000000Y-116750000D01*
X140770000Y-114890000D02*
X140770000Y-116520000D01*
X141000000Y-116750000D02*
X151250000Y-116750000D01*
%TO.N,FLT*%
X231500000Y-110920000D02*
X223460000Y-102880000D01*
X231500000Y-134500000D02*
X231500000Y-110920000D01*
X222750000Y-143250000D02*
X231500000Y-134500000D01*
X206000000Y-143250000D02*
X222750000Y-143250000D01*
%TO.N,+12V*%
X165710000Y-86040000D02*
X189750000Y-86040000D01*
X160500000Y-91250000D02*
X165710000Y-86040000D01*
X134298122Y-91250000D02*
X160500000Y-91250000D01*
X128000000Y-97548122D02*
X134298122Y-91250000D01*
X130500000Y-122250000D02*
X128000000Y-119750000D01*
X144500000Y-122250000D02*
X130500000Y-122250000D01*
X128000000Y-119750000D02*
X128000000Y-97548122D01*
X148390000Y-126140000D02*
X144500000Y-122250000D01*
X148390000Y-127590000D02*
X148390000Y-126140000D01*
%TO.N,FLT*%
X159900000Y-137350000D02*
X154000000Y-143250000D01*
X159900000Y-127590000D02*
X159900000Y-137350000D01*
X154000000Y-143250000D02*
X179000000Y-143250000D01*
X135000000Y-143250000D02*
X154000000Y-143250000D01*
X185920000Y-136330000D02*
X179000000Y-143250000D01*
X185920000Y-127500000D02*
X185920000Y-136330000D01*
X179000000Y-143250000D02*
X206000000Y-143250000D01*
X212400000Y-136850000D02*
X206000000Y-143250000D01*
X212400000Y-127340000D02*
X212400000Y-136850000D01*
X133150000Y-141400000D02*
X135000000Y-143250000D01*
X133150000Y-127590000D02*
X133150000Y-141400000D01*
%TO.N,+5V*%
X213790000Y-104460000D02*
X213790000Y-98250000D01*
X213750000Y-104500000D02*
X213790000Y-104460000D01*
X230250000Y-113500000D02*
X224500000Y-107750000D01*
X230250000Y-115000000D02*
X230250000Y-113500000D01*
X228250000Y-117000000D02*
X230250000Y-115000000D01*
X217000000Y-107750000D02*
X213750000Y-104500000D01*
X219840000Y-117000000D02*
X228250000Y-117000000D01*
X217480000Y-114640000D02*
X219840000Y-117000000D01*
X224500000Y-107750000D02*
X217000000Y-107750000D01*
X211800000Y-111500000D02*
X214940000Y-114640000D01*
X208250000Y-111500000D02*
X211800000Y-111500000D01*
X202250000Y-117500000D02*
X208250000Y-111500000D01*
X191000000Y-114800000D02*
X193700000Y-117500000D01*
X193700000Y-117500000D02*
X202250000Y-117500000D01*
%TO.N,+12V*%
X201160000Y-127500000D02*
X201160000Y-125590000D01*
X203500000Y-123250000D02*
X178000000Y-123250000D01*
X201160000Y-125590000D02*
X203500000Y-123250000D01*
X224750000Y-123250000D02*
X203500000Y-123250000D01*
X175140000Y-127590000D02*
X175140000Y-126110000D01*
X175140000Y-126110000D02*
X178000000Y-123250000D01*
X178000000Y-123250000D02*
X152730000Y-123250000D01*
X227640000Y-126140000D02*
X224750000Y-123250000D01*
X152730000Y-123250000D02*
X148390000Y-127590000D01*
X227640000Y-127340000D02*
X227640000Y-126140000D01*
%TO.N,GND*%
X145850000Y-127590000D02*
X145850000Y-128850000D01*
%TO.N,Net-(D1-A)*%
X225750000Y-102630000D02*
X226000000Y-102880000D01*
X225750000Y-97750000D02*
X225750000Y-102630000D01*
%TO.N,+5V*%
X219840000Y-90130000D02*
X219710000Y-90000000D01*
X225750000Y-90130000D02*
X219840000Y-90130000D01*
%TO.N,MOT_EN_Z*%
X222750000Y-109750000D02*
X227640000Y-114640000D01*
X191750000Y-96500000D02*
X205000000Y-109750000D01*
X205000000Y-109750000D02*
X222750000Y-109750000D01*
X159050000Y-96500000D02*
X191750000Y-96500000D01*
X155300000Y-100250000D02*
X159050000Y-96500000D01*
%TO.N,MOT_EN_Y*%
X201160000Y-112160000D02*
X201160000Y-114800000D01*
X187250000Y-98250000D02*
X201160000Y-112160000D01*
X159840000Y-98250000D02*
X187250000Y-98250000D01*
X157840000Y-100250000D02*
X159840000Y-98250000D01*
%TO.N,MOT_EN_X*%
X169750000Y-109250000D02*
X171000000Y-109250000D01*
X162920000Y-102420000D02*
X169750000Y-109250000D01*
X162920000Y-100250000D02*
X162920000Y-102420000D01*
X171000000Y-109250000D02*
X175140000Y-113390000D01*
X175140000Y-113390000D02*
X175140000Y-114890000D01*
X162920000Y-102580000D02*
X162920000Y-100250000D01*
X150610000Y-114890000D02*
X162920000Y-102580000D01*
X148390000Y-114890000D02*
X150610000Y-114890000D01*
%TO.N,+5V*%
X140770000Y-114890000D02*
X138230000Y-114890000D01*
X135690000Y-114890000D02*
X138230000Y-114890000D01*
%TO.N,MOT_DIR*%
X137520000Y-98520000D02*
X137520000Y-100250000D01*
X135750000Y-96750000D02*
X137520000Y-98520000D01*
X133250000Y-96750000D02*
X135750000Y-96750000D01*
X130610000Y-99390000D02*
X133250000Y-96750000D01*
X130610000Y-114890000D02*
X130610000Y-99390000D01*
%TO.N,MOT_ST*%
X133150000Y-108600000D02*
X133150000Y-114890000D01*
X134980000Y-100250000D02*
X134980000Y-106770000D01*
X134980000Y-106770000D02*
X133150000Y-108600000D01*
%TO.N,+5V*%
X167520000Y-114890000D02*
X164980000Y-114890000D01*
X162440000Y-114890000D02*
X164980000Y-114890000D01*
X188460000Y-114800000D02*
X191000000Y-114800000D01*
X214940000Y-114640000D02*
X217480000Y-114640000D01*
X214210000Y-84500000D02*
X219710000Y-90000000D01*
X210000000Y-84500000D02*
X214210000Y-84500000D01*
X203250000Y-77750000D02*
X210000000Y-84500000D01*
X196500000Y-77750000D02*
X203250000Y-77750000D01*
X187000000Y-68250000D02*
X196500000Y-77750000D01*
X148750000Y-68250000D02*
X187000000Y-68250000D01*
X137520000Y-79480000D02*
X148750000Y-68250000D01*
X137520000Y-82470000D02*
X137520000Y-79480000D01*
%TO.N,GND*%
X185750000Y-72000000D02*
X185750000Y-73000000D01*
X140060000Y-82470000D02*
X140060000Y-80860000D01*
%TO.N,+12V*%
X202960000Y-92500000D02*
X208710000Y-98250000D01*
X202960000Y-90000000D02*
X202960000Y-92500000D01*
%TO.N,+5V*%
X219710000Y-92330000D02*
X213790000Y-98250000D01*
X219710000Y-90000000D02*
X219710000Y-92330000D01*
%TO.N,+12V*%
X193750000Y-90000000D02*
X202960000Y-90000000D01*
X192500000Y-88750000D02*
X193750000Y-90000000D01*
X192460000Y-88750000D02*
X192500000Y-88750000D01*
X189750000Y-86040000D02*
X192460000Y-88750000D01*
%TO.N,F_Z*%
X162920000Y-79580000D02*
X162920000Y-82470000D01*
X165750000Y-76750000D02*
X162920000Y-79580000D01*
X174380000Y-76750000D02*
X165750000Y-76750000D01*
X178130000Y-73000000D02*
X174380000Y-76750000D01*
%TO.N,F_X*%
X183210000Y-82440000D02*
X183240000Y-82470000D01*
X183210000Y-73000000D02*
X183210000Y-82440000D01*
%TO.N,F_Y*%
X180670000Y-73000000D02*
X180670000Y-82440000D01*
X180670000Y-82440000D02*
X180700000Y-82470000D01*
%TO.N,Net-(A4-A2)*%
X214940000Y-136690000D02*
X215500000Y-137250000D01*
X214940000Y-127340000D02*
X214940000Y-136690000D01*
%TO.N,Net-(A4-B1)*%
X220020000Y-136730000D02*
X219500000Y-137250000D01*
X220020000Y-127340000D02*
X220020000Y-136730000D01*
%TO.N,Net-(A4-A1)*%
X217480000Y-137230000D02*
X217500000Y-137250000D01*
X217480000Y-127340000D02*
X217480000Y-137230000D01*
%TO.N,Net-(A4-B2)*%
X222560000Y-136190000D02*
X221500000Y-137250000D01*
X222560000Y-127340000D02*
X222560000Y-136190000D01*
%TO.N,Net-(A3-B2)*%
X196080000Y-136420000D02*
X195000000Y-137500000D01*
X196080000Y-127500000D02*
X196080000Y-136420000D01*
%TO.N,Net-(A3-B1)*%
X193540000Y-136960000D02*
X193000000Y-137500000D01*
X193540000Y-127500000D02*
X193540000Y-136960000D01*
%TO.N,Net-(A3-A1)*%
X191000000Y-127500000D02*
X191000000Y-137500000D01*
%TO.N,Net-(A3-A2)*%
X188460000Y-136960000D02*
X189000000Y-137500000D01*
X188460000Y-127500000D02*
X188460000Y-136960000D01*
%TO.N,Net-(A2-B2)*%
X170060000Y-136440000D02*
X168750000Y-137750000D01*
X170060000Y-127590000D02*
X170060000Y-136440000D01*
%TO.N,Net-(A2-B1)*%
X167520000Y-136980000D02*
X166750000Y-137750000D01*
X167520000Y-127590000D02*
X167520000Y-136980000D01*
%TO.N,Net-(A2-A1)*%
X164980000Y-137520000D02*
X164750000Y-137750000D01*
X164980000Y-127590000D02*
X164980000Y-137520000D01*
%TO.N,Net-(A2-A2)*%
X162440000Y-137440000D02*
X162750000Y-137750000D01*
X162440000Y-127590000D02*
X162440000Y-137440000D01*
%TO.N,Net-(A1-A2)*%
X135690000Y-127590000D02*
X135690000Y-136690000D01*
X135690000Y-136690000D02*
X136250000Y-137250000D01*
%TO.N,Net-(A1-A1)*%
X138230000Y-137230000D02*
X138250000Y-137250000D01*
X138230000Y-127590000D02*
X138230000Y-137230000D01*
%TO.N,Net-(A1-B1)*%
X140770000Y-136730000D02*
X140250000Y-137250000D01*
X140770000Y-127590000D02*
X140770000Y-136730000D01*
%TO.N,Net-(A1-B2)*%
X143310000Y-136190000D02*
X142250000Y-137250000D01*
X143310000Y-127590000D02*
X143310000Y-136190000D01*
%TD*%
%TA.AperFunction,Conductor*%
%TO.N,GND*%
G36*
X232092539Y-65370185D02*
G01*
X232138294Y-65422989D01*
X232149500Y-65474500D01*
X232149500Y-110382003D01*
X232129815Y-110449042D01*
X232077011Y-110494797D01*
X232007853Y-110504741D01*
X231946461Y-110477548D01*
X231923689Y-110458710D01*
X231919376Y-110454786D01*
X225956771Y-104492181D01*
X225923286Y-104430858D01*
X225928270Y-104361166D01*
X225970142Y-104305233D01*
X226035606Y-104280816D01*
X226044452Y-104280500D01*
X226116048Y-104280500D01*
X226116049Y-104280500D01*
X226344981Y-104242298D01*
X226564503Y-104166936D01*
X226768626Y-104056470D01*
X226951784Y-103913913D01*
X227108979Y-103743153D01*
X227235924Y-103548849D01*
X227329157Y-103336300D01*
X227386134Y-103111305D01*
X227394737Y-103007482D01*
X227405300Y-102880006D01*
X227405300Y-102879993D01*
X227386135Y-102648702D01*
X227386133Y-102648691D01*
X227329157Y-102423699D01*
X227235924Y-102211151D01*
X227108983Y-102016852D01*
X227108980Y-102016849D01*
X227108979Y-102016847D01*
X226951784Y-101846087D01*
X226951779Y-101846083D01*
X226951777Y-101846081D01*
X226768634Y-101703535D01*
X226768628Y-101703531D01*
X226564504Y-101593064D01*
X226564495Y-101593060D01*
X226459237Y-101556925D01*
X226402221Y-101516539D01*
X226376091Y-101451739D01*
X226375500Y-101439644D01*
X226375500Y-98964188D01*
X226395185Y-98897149D01*
X226428377Y-98862613D01*
X226517798Y-98800000D01*
X226589139Y-98750047D01*
X226750047Y-98589139D01*
X226880568Y-98402734D01*
X226976739Y-98196496D01*
X227035635Y-97976692D01*
X227055468Y-97750000D01*
X227054587Y-97739935D01*
X227035635Y-97523309D01*
X227035633Y-97523302D01*
X227029093Y-97498895D01*
X226976739Y-97303504D01*
X226880568Y-97097266D01*
X226750047Y-96910861D01*
X226750045Y-96910858D01*
X226589141Y-96749954D01*
X226402734Y-96619432D01*
X226402732Y-96619431D01*
X226196497Y-96523261D01*
X226196488Y-96523258D01*
X225976697Y-96464366D01*
X225976693Y-96464365D01*
X225976692Y-96464365D01*
X225976691Y-96464364D01*
X225976686Y-96464364D01*
X225750002Y-96444532D01*
X225749998Y-96444532D01*
X225523313Y-96464364D01*
X225523302Y-96464366D01*
X225303511Y-96523258D01*
X225303502Y-96523261D01*
X225097267Y-96619431D01*
X225097265Y-96619432D01*
X224910858Y-96749954D01*
X224749954Y-96910858D01*
X224619432Y-97097265D01*
X224619431Y-97097267D01*
X224523261Y-97303502D01*
X224523258Y-97303511D01*
X224464366Y-97523302D01*
X224464365Y-97523309D01*
X224444532Y-97749998D01*
X224444532Y-97750001D01*
X224464364Y-97976686D01*
X224464366Y-97976697D01*
X224523258Y-98196488D01*
X224523261Y-98196497D01*
X224619431Y-98402732D01*
X224619432Y-98402734D01*
X224749954Y-98589141D01*
X224910858Y-98750045D01*
X225071623Y-98862613D01*
X225115248Y-98917189D01*
X225124500Y-98964188D01*
X225124500Y-101726092D01*
X225104815Y-101793131D01*
X225076664Y-101823944D01*
X225048219Y-101846084D01*
X225048218Y-101846085D01*
X225039866Y-101855158D01*
X224979979Y-101891148D01*
X224910141Y-101889047D01*
X224852525Y-101849522D01*
X224832455Y-101814507D01*
X224803797Y-101737671D01*
X224803793Y-101737664D01*
X224717547Y-101622455D01*
X224717544Y-101622452D01*
X224602335Y-101536206D01*
X224602328Y-101536202D01*
X224467482Y-101485908D01*
X224467483Y-101485908D01*
X224407883Y-101479501D01*
X224407881Y-101479500D01*
X224407873Y-101479500D01*
X224407864Y-101479500D01*
X222512129Y-101479500D01*
X222512123Y-101479501D01*
X222452516Y-101485908D01*
X222317671Y-101536202D01*
X222317664Y-101536206D01*
X222202455Y-101622452D01*
X222202452Y-101622455D01*
X222116206Y-101737664D01*
X222116202Y-101737671D01*
X222065908Y-101872517D01*
X222059501Y-101932116D01*
X222059500Y-101932135D01*
X222059500Y-103827870D01*
X222059501Y-103827876D01*
X222065908Y-103887483D01*
X222116202Y-104022328D01*
X222116206Y-104022335D01*
X222202452Y-104137544D01*
X222202455Y-104137547D01*
X222317664Y-104223793D01*
X222317671Y-104223797D01*
X222452517Y-104274091D01*
X222452516Y-104274091D01*
X222459444Y-104274835D01*
X222512127Y-104280500D01*
X223924547Y-104280499D01*
X223991586Y-104300184D01*
X224012228Y-104316818D01*
X230838181Y-111142771D01*
X230871666Y-111204094D01*
X230874500Y-111230452D01*
X230874500Y-112940547D01*
X230854815Y-113007586D01*
X230802011Y-113053341D01*
X230732853Y-113063285D01*
X230669297Y-113034260D01*
X230662819Y-113028228D01*
X225000803Y-107366212D01*
X224990980Y-107353950D01*
X224990759Y-107354134D01*
X224985786Y-107348123D01*
X224935364Y-107300773D01*
X224924919Y-107290328D01*
X224914475Y-107279883D01*
X224908986Y-107275625D01*
X224904561Y-107271847D01*
X224870582Y-107239938D01*
X224870580Y-107239936D01*
X224870577Y-107239935D01*
X224853029Y-107230288D01*
X224836763Y-107219604D01*
X224820933Y-107207325D01*
X224778168Y-107188818D01*
X224772922Y-107186248D01*
X224732093Y-107163803D01*
X224732092Y-107163802D01*
X224712693Y-107158822D01*
X224694281Y-107152518D01*
X224675898Y-107144562D01*
X224675892Y-107144560D01*
X224629874Y-107137272D01*
X224624152Y-107136087D01*
X224579021Y-107124500D01*
X224579019Y-107124500D01*
X224558984Y-107124500D01*
X224539586Y-107122973D01*
X224532162Y-107121797D01*
X224519805Y-107119840D01*
X224519804Y-107119840D01*
X224473416Y-107124225D01*
X224467578Y-107124500D01*
X217310452Y-107124500D01*
X217243413Y-107104815D01*
X217222771Y-107088181D01*
X214451819Y-104317228D01*
X214418334Y-104255905D01*
X214415500Y-104229547D01*
X214415500Y-99685008D01*
X214435185Y-99617969D01*
X214480483Y-99575953D01*
X214587437Y-99518073D01*
X214587436Y-99518073D01*
X214587439Y-99518072D01*
X214777463Y-99370171D01*
X214940551Y-99193010D01*
X215072255Y-98991422D01*
X215168983Y-98770905D01*
X215228095Y-98537476D01*
X215243000Y-98357600D01*
X215243000Y-98142400D01*
X215228095Y-97962524D01*
X215191636Y-97818550D01*
X215194260Y-97748730D01*
X215224158Y-97700431D01*
X220093788Y-92830801D01*
X220106042Y-92820986D01*
X220105859Y-92820764D01*
X220111866Y-92815792D01*
X220111877Y-92815786D01*
X220144980Y-92780535D01*
X220159227Y-92765364D01*
X220169671Y-92754918D01*
X220180120Y-92744471D01*
X220184379Y-92738978D01*
X220188152Y-92734561D01*
X220220062Y-92700582D01*
X220229713Y-92683024D01*
X220240396Y-92666761D01*
X220252673Y-92650936D01*
X220271185Y-92608153D01*
X220273738Y-92602941D01*
X220296197Y-92562092D01*
X220301180Y-92542680D01*
X220307481Y-92524280D01*
X220315437Y-92505896D01*
X220322729Y-92459852D01*
X220323906Y-92454171D01*
X220335500Y-92409019D01*
X220335500Y-92388983D01*
X220337027Y-92369582D01*
X220340160Y-92349804D01*
X220335775Y-92303415D01*
X220335500Y-92297577D01*
X220335500Y-91214188D01*
X220355185Y-91147149D01*
X220388377Y-91112613D01*
X220436836Y-91078681D01*
X220549139Y-91000047D01*
X220710047Y-90839139D01*
X220731587Y-90808377D01*
X220786164Y-90764752D01*
X220833162Y-90755500D01*
X224535812Y-90755500D01*
X224602851Y-90775185D01*
X224637387Y-90808377D01*
X224749954Y-90969141D01*
X224910858Y-91130045D01*
X224910861Y-91130047D01*
X225097266Y-91260568D01*
X225303504Y-91356739D01*
X225523308Y-91415635D01*
X225685230Y-91429801D01*
X225749998Y-91435468D01*
X225750000Y-91435468D01*
X225750002Y-91435468D01*
X225806673Y-91430509D01*
X225976692Y-91415635D01*
X226196496Y-91356739D01*
X226402734Y-91260568D01*
X226589139Y-91130047D01*
X226750047Y-90969139D01*
X226880568Y-90782734D01*
X226976739Y-90576496D01*
X227035635Y-90356692D01*
X227055468Y-90130000D01*
X227054118Y-90114575D01*
X227046028Y-90022101D01*
X227035635Y-89903308D01*
X226976739Y-89683504D01*
X226880568Y-89477266D01*
X226754898Y-89297789D01*
X226750045Y-89290858D01*
X226589141Y-89129954D01*
X226402734Y-88999432D01*
X226402732Y-88999431D01*
X226196497Y-88903261D01*
X226196488Y-88903258D01*
X225976697Y-88844366D01*
X225976693Y-88844365D01*
X225976692Y-88844365D01*
X225976691Y-88844364D01*
X225976686Y-88844364D01*
X225750002Y-88824532D01*
X225749998Y-88824532D01*
X225523313Y-88844364D01*
X225523302Y-88844366D01*
X225303511Y-88903258D01*
X225303502Y-88903261D01*
X225097267Y-88999431D01*
X225097265Y-88999432D01*
X224910858Y-89129954D01*
X224749954Y-89290858D01*
X224637387Y-89451623D01*
X224582811Y-89495248D01*
X224535812Y-89504500D01*
X220992885Y-89504500D01*
X220925846Y-89484815D01*
X220880503Y-89432905D01*
X220840569Y-89347268D01*
X220834206Y-89338181D01*
X220722006Y-89177941D01*
X220710045Y-89160858D01*
X220549141Y-88999954D01*
X220362734Y-88869432D01*
X220362732Y-88869431D01*
X220156497Y-88773261D01*
X220156488Y-88773258D01*
X219936697Y-88714366D01*
X219936693Y-88714365D01*
X219936692Y-88714365D01*
X219936691Y-88714364D01*
X219936686Y-88714364D01*
X219710002Y-88694532D01*
X219709999Y-88694532D01*
X219483313Y-88714364D01*
X219483296Y-88714367D01*
X219414949Y-88732680D01*
X219345099Y-88731016D01*
X219295177Y-88700586D01*
X214710803Y-84116212D01*
X214700980Y-84103950D01*
X214700759Y-84104134D01*
X214695786Y-84098123D01*
X214645364Y-84050773D01*
X214634919Y-84040328D01*
X214624475Y-84029883D01*
X214618986Y-84025625D01*
X214614561Y-84021847D01*
X214580582Y-83989938D01*
X214580580Y-83989936D01*
X214580577Y-83989935D01*
X214563029Y-83980288D01*
X214546763Y-83969604D01*
X214530933Y-83957325D01*
X214488168Y-83938818D01*
X214482922Y-83936248D01*
X214442093Y-83913803D01*
X214442092Y-83913802D01*
X214422693Y-83908822D01*
X214404281Y-83902518D01*
X214385898Y-83894562D01*
X214385892Y-83894560D01*
X214339874Y-83887272D01*
X214334152Y-83886087D01*
X214289021Y-83874500D01*
X214289019Y-83874500D01*
X214268984Y-83874500D01*
X214249586Y-83872973D01*
X214242162Y-83871797D01*
X214229805Y-83869840D01*
X214229804Y-83869840D01*
X214183416Y-83874225D01*
X214177578Y-83874500D01*
X210310452Y-83874500D01*
X210243413Y-83854815D01*
X210222771Y-83838181D01*
X203750803Y-77366212D01*
X203740980Y-77353950D01*
X203740759Y-77354134D01*
X203735786Y-77348123D01*
X203728858Y-77341617D01*
X203685364Y-77300773D01*
X203674919Y-77290328D01*
X203664475Y-77279883D01*
X203658986Y-77275625D01*
X203654561Y-77271847D01*
X203620582Y-77239938D01*
X203620580Y-77239936D01*
X203620577Y-77239935D01*
X203603029Y-77230288D01*
X203586763Y-77219604D01*
X203570936Y-77207327D01*
X203570935Y-77207326D01*
X203570933Y-77207325D01*
X203528168Y-77188818D01*
X203522922Y-77186248D01*
X203482093Y-77163803D01*
X203482092Y-77163802D01*
X203462693Y-77158822D01*
X203444281Y-77152518D01*
X203425898Y-77144562D01*
X203425892Y-77144560D01*
X203379874Y-77137272D01*
X203374152Y-77136087D01*
X203329021Y-77124500D01*
X203329019Y-77124500D01*
X203308984Y-77124500D01*
X203289586Y-77122973D01*
X203282162Y-77121797D01*
X203269805Y-77119840D01*
X203269804Y-77119840D01*
X203223416Y-77124225D01*
X203217578Y-77124500D01*
X196810452Y-77124500D01*
X196743413Y-77104815D01*
X196722771Y-77088181D01*
X187500803Y-67866212D01*
X187490980Y-67853950D01*
X187490759Y-67854134D01*
X187485786Y-67848123D01*
X187467159Y-67830631D01*
X187435364Y-67800773D01*
X187424919Y-67790328D01*
X187414475Y-67779883D01*
X187408986Y-67775625D01*
X187404561Y-67771847D01*
X187370582Y-67739938D01*
X187370580Y-67739936D01*
X187370577Y-67739935D01*
X187353029Y-67730288D01*
X187336763Y-67719604D01*
X187320933Y-67707325D01*
X187278168Y-67688818D01*
X187272922Y-67686248D01*
X187232093Y-67663803D01*
X187232092Y-67663802D01*
X187212693Y-67658822D01*
X187194281Y-67652518D01*
X187175898Y-67644562D01*
X187175892Y-67644560D01*
X187129874Y-67637272D01*
X187124152Y-67636087D01*
X187079021Y-67624500D01*
X187079019Y-67624500D01*
X187058984Y-67624500D01*
X187039586Y-67622973D01*
X187032162Y-67621797D01*
X187019805Y-67619840D01*
X187019804Y-67619840D01*
X186973416Y-67624225D01*
X186967578Y-67624500D01*
X148832737Y-67624500D01*
X148817120Y-67622776D01*
X148817093Y-67623062D01*
X148809331Y-67622327D01*
X148740203Y-67624500D01*
X148710650Y-67624500D01*
X148709929Y-67624590D01*
X148703757Y-67625369D01*
X148697945Y-67625826D01*
X148651378Y-67627290D01*
X148651367Y-67627292D01*
X148632134Y-67632879D01*
X148613094Y-67636822D01*
X148593217Y-67639334D01*
X148593210Y-67639335D01*
X148593208Y-67639336D01*
X148593206Y-67639336D01*
X148593205Y-67639337D01*
X148549868Y-67656494D01*
X148544342Y-67658386D01*
X148499611Y-67671382D01*
X148499608Y-67671383D01*
X148482363Y-67681581D01*
X148464901Y-67690135D01*
X148446272Y-67697511D01*
X148446267Y-67697513D01*
X148408564Y-67724906D01*
X148403682Y-67728112D01*
X148363580Y-67751828D01*
X148349408Y-67766000D01*
X148334623Y-67778628D01*
X148318412Y-67790407D01*
X148288709Y-67826310D01*
X148284777Y-67830631D01*
X137136208Y-78979199D01*
X137123951Y-78989020D01*
X137124134Y-78989241D01*
X137118123Y-78994213D01*
X137070772Y-79044636D01*
X137049889Y-79065519D01*
X137049877Y-79065532D01*
X137045621Y-79071017D01*
X137041837Y-79075447D01*
X137009937Y-79109418D01*
X137009936Y-79109420D01*
X137000284Y-79126976D01*
X136989610Y-79143226D01*
X136977329Y-79159061D01*
X136977324Y-79159068D01*
X136958815Y-79201838D01*
X136956245Y-79207084D01*
X136930045Y-79254744D01*
X136927129Y-79253141D01*
X136893462Y-79296259D01*
X136827515Y-79319338D01*
X136821188Y-79319500D01*
X136622130Y-79319500D01*
X136622123Y-79319501D01*
X136562516Y-79325908D01*
X136427671Y-79376202D01*
X136427669Y-79376203D01*
X136324311Y-79453578D01*
X136258847Y-79477995D01*
X136190574Y-79463144D01*
X136175689Y-79453578D01*
X136072330Y-79376203D01*
X136072328Y-79376202D01*
X135937482Y-79325908D01*
X135937483Y-79325908D01*
X135877883Y-79319501D01*
X135877881Y-79319500D01*
X135877873Y-79319500D01*
X135877864Y-79319500D01*
X134082129Y-79319500D01*
X134082123Y-79319501D01*
X134022516Y-79325908D01*
X133887671Y-79376202D01*
X133887664Y-79376206D01*
X133772455Y-79462452D01*
X133772452Y-79462455D01*
X133686206Y-79577664D01*
X133686202Y-79577671D01*
X133635908Y-79712517D01*
X133629501Y-79772116D01*
X133629501Y-79772123D01*
X133629500Y-79772135D01*
X133629500Y-82408319D01*
X133629264Y-82413725D01*
X133624341Y-82469997D01*
X133624341Y-82470001D01*
X133629264Y-82526274D01*
X133629500Y-82531679D01*
X133629500Y-83367870D01*
X133629501Y-83367876D01*
X133635908Y-83427483D01*
X133686202Y-83562328D01*
X133686206Y-83562335D01*
X133772452Y-83677544D01*
X133772455Y-83677547D01*
X133887664Y-83763793D01*
X133887671Y-83763797D01*
X134022517Y-83814091D01*
X134022516Y-83814091D01*
X134029444Y-83814835D01*
X134082127Y-83820500D01*
X134918319Y-83820499D01*
X134923724Y-83820734D01*
X134980000Y-83825659D01*
X135036275Y-83820734D01*
X135041681Y-83820499D01*
X135877871Y-83820499D01*
X135877872Y-83820499D01*
X135937483Y-83814091D01*
X136072331Y-83763796D01*
X136175690Y-83686421D01*
X136241152Y-83662004D01*
X136309425Y-83676855D01*
X136324303Y-83686416D01*
X136355599Y-83709844D01*
X136427668Y-83763795D01*
X136427671Y-83763797D01*
X136562517Y-83814091D01*
X136562516Y-83814091D01*
X136569444Y-83814835D01*
X136622127Y-83820500D01*
X137458319Y-83820499D01*
X137463724Y-83820734D01*
X137520000Y-83825659D01*
X137576275Y-83820734D01*
X137581681Y-83820499D01*
X138417871Y-83820499D01*
X138417872Y-83820499D01*
X138477483Y-83814091D01*
X138612331Y-83763796D01*
X138716106Y-83686109D01*
X138781570Y-83661692D01*
X138849843Y-83676543D01*
X138864729Y-83686110D01*
X138967910Y-83763352D01*
X138967913Y-83763354D01*
X139102620Y-83813596D01*
X139102627Y-83813598D01*
X139162155Y-83819999D01*
X139162172Y-83820000D01*
X139810000Y-83820000D01*
X139810000Y-82916494D01*
X139914839Y-82964373D01*
X140023527Y-82980000D01*
X140096473Y-82980000D01*
X140205161Y-82964373D01*
X140310000Y-82916494D01*
X140310000Y-83820000D01*
X140957828Y-83820000D01*
X140957844Y-83819999D01*
X141017372Y-83813598D01*
X141017379Y-83813596D01*
X141152086Y-83763354D01*
X141152089Y-83763352D01*
X141255271Y-83686110D01*
X141320735Y-83661692D01*
X141389008Y-83676543D01*
X141403888Y-83686105D01*
X141435599Y-83709844D01*
X141507668Y-83763795D01*
X141507671Y-83763797D01*
X141642517Y-83814091D01*
X141642516Y-83814091D01*
X141649444Y-83814835D01*
X141702127Y-83820500D01*
X142538319Y-83820499D01*
X142543724Y-83820734D01*
X142600000Y-83825659D01*
X142656275Y-83820734D01*
X142661681Y-83820499D01*
X143497871Y-83820499D01*
X143497872Y-83820499D01*
X143557483Y-83814091D01*
X143692331Y-83763796D01*
X143795690Y-83686421D01*
X143861152Y-83662004D01*
X143929425Y-83676855D01*
X143944303Y-83686416D01*
X143975599Y-83709844D01*
X144047668Y-83763795D01*
X144047671Y-83763797D01*
X144182517Y-83814091D01*
X144182516Y-83814091D01*
X144189444Y-83814835D01*
X144242127Y-83820500D01*
X145078319Y-83820499D01*
X145083724Y-83820734D01*
X145140000Y-83825659D01*
X145196275Y-83820734D01*
X145201681Y-83820499D01*
X146037871Y-83820499D01*
X146037872Y-83820499D01*
X146097483Y-83814091D01*
X146232331Y-83763796D01*
X146335690Y-83686421D01*
X146401152Y-83662004D01*
X146469425Y-83676855D01*
X146484303Y-83686416D01*
X146515599Y-83709844D01*
X146587668Y-83763795D01*
X146587671Y-83763797D01*
X146722517Y-83814091D01*
X146722516Y-83814091D01*
X146729444Y-83814835D01*
X146782127Y-83820500D01*
X147618319Y-83820499D01*
X147623724Y-83820734D01*
X147680000Y-83825659D01*
X147736275Y-83820734D01*
X147741681Y-83820499D01*
X148577871Y-83820499D01*
X148577872Y-83820499D01*
X148637483Y-83814091D01*
X148772331Y-83763796D01*
X148875690Y-83686421D01*
X148941152Y-83662004D01*
X149009425Y-83676855D01*
X149024303Y-83686416D01*
X149055599Y-83709844D01*
X149127668Y-83763795D01*
X149127671Y-83763797D01*
X149262517Y-83814091D01*
X149262516Y-83814091D01*
X149269444Y-83814835D01*
X149322127Y-83820500D01*
X150158319Y-83820499D01*
X150163724Y-83820734D01*
X150220000Y-83825659D01*
X150276275Y-83820734D01*
X150281681Y-83820499D01*
X151117871Y-83820499D01*
X151117872Y-83820499D01*
X151177483Y-83814091D01*
X151312331Y-83763796D01*
X151415690Y-83686421D01*
X151481152Y-83662004D01*
X151549425Y-83676855D01*
X151564303Y-83686416D01*
X151595599Y-83709844D01*
X151667668Y-83763795D01*
X151667671Y-83763797D01*
X151802517Y-83814091D01*
X151802516Y-83814091D01*
X151809444Y-83814835D01*
X151862127Y-83820500D01*
X153657872Y-83820499D01*
X153717483Y-83814091D01*
X153852331Y-83763796D01*
X153955690Y-83686421D01*
X154021152Y-83662004D01*
X154089425Y-83676855D01*
X154104303Y-83686416D01*
X154135599Y-83709844D01*
X154207668Y-83763795D01*
X154207671Y-83763797D01*
X154342517Y-83814091D01*
X154342516Y-83814091D01*
X154349444Y-83814835D01*
X154402127Y-83820500D01*
X155238319Y-83820499D01*
X155243724Y-83820734D01*
X155300000Y-83825659D01*
X155356275Y-83820734D01*
X155361681Y-83820499D01*
X156197871Y-83820499D01*
X156197872Y-83820499D01*
X156257483Y-83814091D01*
X156392331Y-83763796D01*
X156495690Y-83686421D01*
X156561152Y-83662004D01*
X156629425Y-83676855D01*
X156644303Y-83686416D01*
X156675599Y-83709844D01*
X156747668Y-83763795D01*
X156747671Y-83763797D01*
X156882517Y-83814091D01*
X156882516Y-83814091D01*
X156889444Y-83814835D01*
X156942127Y-83820500D01*
X157778319Y-83820499D01*
X157783724Y-83820734D01*
X157840000Y-83825659D01*
X157896275Y-83820734D01*
X157901681Y-83820499D01*
X158737871Y-83820499D01*
X158737872Y-83820499D01*
X158797483Y-83814091D01*
X158932331Y-83763796D01*
X159035690Y-83686421D01*
X159101152Y-83662004D01*
X159169425Y-83676855D01*
X159184303Y-83686416D01*
X159215599Y-83709844D01*
X159287668Y-83763795D01*
X159287671Y-83763797D01*
X159422517Y-83814091D01*
X159422516Y-83814091D01*
X159429444Y-83814835D01*
X159482127Y-83820500D01*
X160318319Y-83820499D01*
X160323724Y-83820734D01*
X160380000Y-83825659D01*
X160436275Y-83820734D01*
X160441681Y-83820499D01*
X161277871Y-83820499D01*
X161277872Y-83820499D01*
X161337483Y-83814091D01*
X161472331Y-83763796D01*
X161575690Y-83686421D01*
X161641152Y-83662004D01*
X161709425Y-83676855D01*
X161724303Y-83686416D01*
X161755599Y-83709844D01*
X161827668Y-83763795D01*
X161827671Y-83763797D01*
X161962517Y-83814091D01*
X161962516Y-83814091D01*
X161969444Y-83814835D01*
X162022127Y-83820500D01*
X162858319Y-83820499D01*
X162863724Y-83820734D01*
X162920000Y-83825659D01*
X162976275Y-83820734D01*
X162981681Y-83820499D01*
X163817871Y-83820499D01*
X163817872Y-83820499D01*
X163877483Y-83814091D01*
X164012331Y-83763796D01*
X164115690Y-83686421D01*
X164181152Y-83662004D01*
X164249425Y-83676855D01*
X164264303Y-83686416D01*
X164295599Y-83709844D01*
X164367668Y-83763795D01*
X164367671Y-83763797D01*
X164502517Y-83814091D01*
X164502516Y-83814091D01*
X164509444Y-83814835D01*
X164562127Y-83820500D01*
X166357872Y-83820499D01*
X166417483Y-83814091D01*
X166552331Y-83763796D01*
X166655690Y-83686421D01*
X166721152Y-83662004D01*
X166789425Y-83676855D01*
X166804303Y-83686416D01*
X166835599Y-83709844D01*
X166907668Y-83763795D01*
X166907671Y-83763797D01*
X167042517Y-83814091D01*
X167042516Y-83814091D01*
X167049444Y-83814835D01*
X167102127Y-83820500D01*
X167938319Y-83820499D01*
X167943724Y-83820734D01*
X168000000Y-83825659D01*
X168056275Y-83820734D01*
X168061681Y-83820499D01*
X168897871Y-83820499D01*
X168897872Y-83820499D01*
X168957483Y-83814091D01*
X169092331Y-83763796D01*
X169195690Y-83686421D01*
X169261152Y-83662004D01*
X169329425Y-83676855D01*
X169344303Y-83686416D01*
X169375599Y-83709844D01*
X169447668Y-83763795D01*
X169447671Y-83763797D01*
X169582517Y-83814091D01*
X169582516Y-83814091D01*
X169589444Y-83814835D01*
X169642127Y-83820500D01*
X170478319Y-83820499D01*
X170483724Y-83820734D01*
X170540000Y-83825659D01*
X170596275Y-83820734D01*
X170601681Y-83820499D01*
X171437871Y-83820499D01*
X171437872Y-83820499D01*
X171497483Y-83814091D01*
X171632331Y-83763796D01*
X171735690Y-83686421D01*
X171801152Y-83662004D01*
X171869425Y-83676855D01*
X171884303Y-83686416D01*
X171915599Y-83709844D01*
X171987668Y-83763795D01*
X171987671Y-83763797D01*
X172122517Y-83814091D01*
X172122516Y-83814091D01*
X172129444Y-83814835D01*
X172182127Y-83820500D01*
X173018319Y-83820499D01*
X173023724Y-83820734D01*
X173080000Y-83825659D01*
X173136275Y-83820734D01*
X173141681Y-83820499D01*
X173977871Y-83820499D01*
X173977872Y-83820499D01*
X174037483Y-83814091D01*
X174172331Y-83763796D01*
X174275690Y-83686421D01*
X174341152Y-83662004D01*
X174409425Y-83676855D01*
X174424303Y-83686416D01*
X174455599Y-83709844D01*
X174527668Y-83763795D01*
X174527671Y-83763797D01*
X174662517Y-83814091D01*
X174662516Y-83814091D01*
X174669444Y-83814835D01*
X174722127Y-83820500D01*
X175558319Y-83820499D01*
X175563724Y-83820734D01*
X175620000Y-83825659D01*
X175676275Y-83820734D01*
X175681681Y-83820499D01*
X176517871Y-83820499D01*
X176517872Y-83820499D01*
X176577483Y-83814091D01*
X176712331Y-83763796D01*
X176815690Y-83686421D01*
X176881152Y-83662004D01*
X176949425Y-83676855D01*
X176964303Y-83686416D01*
X176995599Y-83709844D01*
X177067668Y-83763795D01*
X177067671Y-83763797D01*
X177202517Y-83814091D01*
X177202516Y-83814091D01*
X177209444Y-83814835D01*
X177262127Y-83820500D01*
X179057872Y-83820499D01*
X179117483Y-83814091D01*
X179252331Y-83763796D01*
X179355690Y-83686421D01*
X179421152Y-83662004D01*
X179489425Y-83676855D01*
X179504303Y-83686416D01*
X179535599Y-83709844D01*
X179607668Y-83763795D01*
X179607671Y-83763797D01*
X179742517Y-83814091D01*
X179742516Y-83814091D01*
X179749444Y-83814835D01*
X179802127Y-83820500D01*
X180638319Y-83820499D01*
X180643724Y-83820734D01*
X180700000Y-83825659D01*
X180756275Y-83820734D01*
X180761681Y-83820499D01*
X181597871Y-83820499D01*
X181597872Y-83820499D01*
X181657483Y-83814091D01*
X181792331Y-83763796D01*
X181895690Y-83686421D01*
X181961152Y-83662004D01*
X182029425Y-83676855D01*
X182044303Y-83686416D01*
X182075599Y-83709844D01*
X182147668Y-83763795D01*
X182147671Y-83763797D01*
X182282517Y-83814091D01*
X182282516Y-83814091D01*
X182289444Y-83814835D01*
X182342127Y-83820500D01*
X183178319Y-83820499D01*
X183183724Y-83820734D01*
X183240000Y-83825659D01*
X183296275Y-83820734D01*
X183301681Y-83820499D01*
X184137871Y-83820499D01*
X184137872Y-83820499D01*
X184197483Y-83814091D01*
X184332331Y-83763796D01*
X184447546Y-83677546D01*
X184533796Y-83562331D01*
X184584091Y-83427483D01*
X184590500Y-83367873D01*
X184590499Y-82531675D01*
X184590735Y-82526268D01*
X184595659Y-82470000D01*
X184590735Y-82413725D01*
X184590499Y-82408321D01*
X184590499Y-79772129D01*
X184590498Y-79772123D01*
X184590497Y-79772116D01*
X184584091Y-79712517D01*
X184533796Y-79577669D01*
X184533795Y-79577668D01*
X184533793Y-79577664D01*
X184447547Y-79462455D01*
X184447544Y-79462452D01*
X184332335Y-79376206D01*
X184332328Y-79376202D01*
X184197482Y-79325908D01*
X184197483Y-79325908D01*
X184137883Y-79319501D01*
X184137881Y-79319500D01*
X184137873Y-79319500D01*
X184137865Y-79319500D01*
X183959500Y-79319500D01*
X183892461Y-79299815D01*
X183846706Y-79247011D01*
X183835500Y-79195500D01*
X183835500Y-74275226D01*
X183855185Y-74208187D01*
X183888374Y-74173654D01*
X184081401Y-74038495D01*
X184203717Y-73916178D01*
X184265036Y-73882696D01*
X184334728Y-73887680D01*
X184390662Y-73929551D01*
X184407577Y-73960528D01*
X184456646Y-74092088D01*
X184456649Y-74092093D01*
X184542809Y-74207187D01*
X184542812Y-74207190D01*
X184657906Y-74293350D01*
X184657913Y-74293354D01*
X184792620Y-74343596D01*
X184792627Y-74343598D01*
X184852155Y-74349999D01*
X184852172Y-74350000D01*
X185500000Y-74350000D01*
X185500000Y-73435501D01*
X185607685Y-73484680D01*
X185714237Y-73500000D01*
X185785763Y-73500000D01*
X185892315Y-73484680D01*
X186000000Y-73435501D01*
X186000000Y-74350000D01*
X186647828Y-74350000D01*
X186647844Y-74349999D01*
X186707372Y-74343598D01*
X186707379Y-74343596D01*
X186842086Y-74293354D01*
X186842093Y-74293350D01*
X186957187Y-74207190D01*
X186957190Y-74207187D01*
X187043350Y-74092093D01*
X187043354Y-74092086D01*
X187093596Y-73957379D01*
X187093598Y-73957372D01*
X187099999Y-73897844D01*
X187100000Y-73897827D01*
X187100000Y-73250000D01*
X186183686Y-73250000D01*
X186209493Y-73209844D01*
X186250000Y-73071889D01*
X186250000Y-72928111D01*
X186209493Y-72790156D01*
X186183686Y-72750000D01*
X187100000Y-72750000D01*
X187100000Y-72102172D01*
X187099999Y-72102155D01*
X187093598Y-72042627D01*
X187093596Y-72042620D01*
X187043354Y-71907913D01*
X187043350Y-71907906D01*
X186957190Y-71792812D01*
X186957187Y-71792809D01*
X186842093Y-71706649D01*
X186842086Y-71706645D01*
X186707379Y-71656403D01*
X186707372Y-71656401D01*
X186647844Y-71650000D01*
X186000000Y-71650000D01*
X186000000Y-72564498D01*
X185892315Y-72515320D01*
X185785763Y-72500000D01*
X185714237Y-72500000D01*
X185607685Y-72515320D01*
X185500000Y-72564498D01*
X185500000Y-71650000D01*
X184852155Y-71650000D01*
X184792627Y-71656401D01*
X184792620Y-71656403D01*
X184657913Y-71706645D01*
X184657906Y-71706649D01*
X184542812Y-71792809D01*
X184542809Y-71792812D01*
X184456649Y-71907906D01*
X184456645Y-71907913D01*
X184407578Y-72039470D01*
X184365707Y-72095404D01*
X184300242Y-72119821D01*
X184231969Y-72104969D01*
X184203715Y-72083819D01*
X184159366Y-72039470D01*
X184081401Y-71961505D01*
X184081397Y-71961502D01*
X184081396Y-71961501D01*
X183887834Y-71825967D01*
X183887830Y-71825965D01*
X183816727Y-71792809D01*
X183673663Y-71726097D01*
X183673659Y-71726096D01*
X183673655Y-71726094D01*
X183445413Y-71664938D01*
X183445403Y-71664936D01*
X183210001Y-71644341D01*
X183209999Y-71644341D01*
X182974596Y-71664936D01*
X182974586Y-71664938D01*
X182746344Y-71726094D01*
X182746335Y-71726098D01*
X182532171Y-71825964D01*
X182532169Y-71825965D01*
X182338597Y-71961505D01*
X182171505Y-72128597D01*
X182041575Y-72314158D01*
X181986998Y-72357783D01*
X181917500Y-72364977D01*
X181855145Y-72333454D01*
X181838425Y-72314158D01*
X181708494Y-72128597D01*
X181541402Y-71961506D01*
X181541395Y-71961501D01*
X181347834Y-71825967D01*
X181347830Y-71825965D01*
X181276727Y-71792809D01*
X181133663Y-71726097D01*
X181133659Y-71726096D01*
X181133655Y-71726094D01*
X180905413Y-71664938D01*
X180905403Y-71664936D01*
X180670001Y-71644341D01*
X180669999Y-71644341D01*
X180434596Y-71664936D01*
X180434586Y-71664938D01*
X180206344Y-71726094D01*
X180206335Y-71726098D01*
X179992171Y-71825964D01*
X179992169Y-71825965D01*
X179798597Y-71961505D01*
X179631505Y-72128597D01*
X179501575Y-72314158D01*
X179446998Y-72357783D01*
X179377500Y-72364977D01*
X179315145Y-72333454D01*
X179298425Y-72314158D01*
X179168494Y-72128597D01*
X179001402Y-71961506D01*
X179001395Y-71961501D01*
X178807834Y-71825967D01*
X178807830Y-71825965D01*
X178736727Y-71792809D01*
X178593663Y-71726097D01*
X178593659Y-71726096D01*
X178593655Y-71726094D01*
X178365413Y-71664938D01*
X178365403Y-71664936D01*
X178130001Y-71644341D01*
X178129999Y-71644341D01*
X177894596Y-71664936D01*
X177894586Y-71664938D01*
X177666344Y-71726094D01*
X177666335Y-71726098D01*
X177452171Y-71825964D01*
X177452169Y-71825965D01*
X177258597Y-71961505D01*
X177091505Y-72128597D01*
X176955965Y-72322169D01*
X176955964Y-72322171D01*
X176856098Y-72536335D01*
X176856094Y-72536344D01*
X176794938Y-72764586D01*
X176794936Y-72764596D01*
X176774341Y-72999999D01*
X176774341Y-73000000D01*
X176794936Y-73235403D01*
X176794938Y-73235413D01*
X176821856Y-73335872D01*
X176820193Y-73405722D01*
X176789762Y-73455646D01*
X174157228Y-76088181D01*
X174095905Y-76121666D01*
X174069547Y-76124500D01*
X165832737Y-76124500D01*
X165817120Y-76122776D01*
X165817093Y-76123062D01*
X165809331Y-76122327D01*
X165740203Y-76124500D01*
X165710650Y-76124500D01*
X165709929Y-76124590D01*
X165703757Y-76125369D01*
X165697945Y-76125826D01*
X165651372Y-76127290D01*
X165651369Y-76127291D01*
X165632126Y-76132881D01*
X165613083Y-76136825D01*
X165593204Y-76139336D01*
X165593203Y-76139337D01*
X165549878Y-76156490D01*
X165544352Y-76158382D01*
X165499608Y-76171383D01*
X165499604Y-76171385D01*
X165482365Y-76181580D01*
X165464898Y-76190137D01*
X165446269Y-76197512D01*
X165446267Y-76197513D01*
X165408564Y-76224906D01*
X165403682Y-76228112D01*
X165363580Y-76251828D01*
X165349408Y-76266000D01*
X165334623Y-76278628D01*
X165318412Y-76290407D01*
X165288709Y-76326310D01*
X165284777Y-76330631D01*
X162536208Y-79079199D01*
X162523951Y-79089020D01*
X162524134Y-79089241D01*
X162518123Y-79094213D01*
X162470772Y-79144636D01*
X162449889Y-79165519D01*
X162449877Y-79165532D01*
X162445621Y-79171017D01*
X162441837Y-79175447D01*
X162409937Y-79209418D01*
X162409936Y-79209420D01*
X162400284Y-79226976D01*
X162389610Y-79243226D01*
X162372551Y-79265222D01*
X162371443Y-79264363D01*
X162326501Y-79306313D01*
X162270856Y-79319500D01*
X162022130Y-79319500D01*
X162022123Y-79319501D01*
X161962516Y-79325908D01*
X161827671Y-79376202D01*
X161827669Y-79376203D01*
X161724311Y-79453578D01*
X161658847Y-79477995D01*
X161590574Y-79463144D01*
X161575689Y-79453578D01*
X161472330Y-79376203D01*
X161472328Y-79376202D01*
X161337482Y-79325908D01*
X161337483Y-79325908D01*
X161277883Y-79319501D01*
X161277881Y-79319500D01*
X161277873Y-79319500D01*
X161277864Y-79319500D01*
X159482129Y-79319500D01*
X159482123Y-79319501D01*
X159422516Y-79325908D01*
X159287671Y-79376202D01*
X159287669Y-79376203D01*
X159184311Y-79453578D01*
X159118847Y-79477995D01*
X159050574Y-79463144D01*
X159035689Y-79453578D01*
X158932330Y-79376203D01*
X158932328Y-79376202D01*
X158797482Y-79325908D01*
X158797483Y-79325908D01*
X158737883Y-79319501D01*
X158737881Y-79319500D01*
X158737873Y-79319500D01*
X158737864Y-79319500D01*
X156942129Y-79319500D01*
X156942123Y-79319501D01*
X156882516Y-79325908D01*
X156747671Y-79376202D01*
X156747669Y-79376203D01*
X156644311Y-79453578D01*
X156578847Y-79477995D01*
X156510574Y-79463144D01*
X156495689Y-79453578D01*
X156392330Y-79376203D01*
X156392328Y-79376202D01*
X156257482Y-79325908D01*
X156257483Y-79325908D01*
X156197883Y-79319501D01*
X156197881Y-79319500D01*
X156197873Y-79319500D01*
X156197864Y-79319500D01*
X154402129Y-79319500D01*
X154402123Y-79319501D01*
X154342516Y-79325908D01*
X154207671Y-79376202D01*
X154207669Y-79376203D01*
X154104311Y-79453578D01*
X154038847Y-79477995D01*
X153970574Y-79463144D01*
X153955689Y-79453578D01*
X153852330Y-79376203D01*
X153852328Y-79376202D01*
X153717482Y-79325908D01*
X153717483Y-79325908D01*
X153657883Y-79319501D01*
X153657881Y-79319500D01*
X153657873Y-79319500D01*
X153657864Y-79319500D01*
X151862129Y-79319500D01*
X151862123Y-79319501D01*
X151802516Y-79325908D01*
X151667671Y-79376202D01*
X151667669Y-79376203D01*
X151564311Y-79453578D01*
X151498847Y-79477995D01*
X151430574Y-79463144D01*
X151415689Y-79453578D01*
X151312330Y-79376203D01*
X151312328Y-79376202D01*
X151177482Y-79325908D01*
X151177483Y-79325908D01*
X151117883Y-79319501D01*
X151117881Y-79319500D01*
X151117873Y-79319500D01*
X151117864Y-79319500D01*
X149322129Y-79319500D01*
X149322123Y-79319501D01*
X149262516Y-79325908D01*
X149127671Y-79376202D01*
X149127669Y-79376203D01*
X149024311Y-79453578D01*
X148958847Y-79477995D01*
X148890574Y-79463144D01*
X148875689Y-79453578D01*
X148772330Y-79376203D01*
X148772328Y-79376202D01*
X148637482Y-79325908D01*
X148637483Y-79325908D01*
X148577883Y-79319501D01*
X148577881Y-79319500D01*
X148577873Y-79319500D01*
X148577864Y-79319500D01*
X146782129Y-79319500D01*
X146782123Y-79319501D01*
X146722516Y-79325908D01*
X146587671Y-79376202D01*
X146587669Y-79376203D01*
X146484311Y-79453578D01*
X146418847Y-79477995D01*
X146350574Y-79463144D01*
X146335689Y-79453578D01*
X146232330Y-79376203D01*
X146232328Y-79376202D01*
X146097482Y-79325908D01*
X146097483Y-79325908D01*
X146037883Y-79319501D01*
X146037881Y-79319500D01*
X146037873Y-79319500D01*
X146037864Y-79319500D01*
X144242129Y-79319500D01*
X144242123Y-79319501D01*
X144182516Y-79325908D01*
X144047671Y-79376202D01*
X144047669Y-79376203D01*
X143944311Y-79453578D01*
X143878847Y-79477995D01*
X143810574Y-79463144D01*
X143795689Y-79453578D01*
X143692330Y-79376203D01*
X143692328Y-79376202D01*
X143557482Y-79325908D01*
X143557483Y-79325908D01*
X143497883Y-79319501D01*
X143497881Y-79319500D01*
X143497873Y-79319500D01*
X143497864Y-79319500D01*
X141702129Y-79319500D01*
X141702123Y-79319501D01*
X141642516Y-79325908D01*
X141507671Y-79376202D01*
X141507669Y-79376204D01*
X141403894Y-79453890D01*
X141338430Y-79478307D01*
X141270157Y-79463456D01*
X141255272Y-79453890D01*
X141152088Y-79376646D01*
X141152086Y-79376645D01*
X141017379Y-79326403D01*
X141017372Y-79326401D01*
X140957844Y-79320000D01*
X140310000Y-79320000D01*
X140310000Y-82023505D01*
X140205161Y-81975627D01*
X140096473Y-81960000D01*
X140023527Y-81960000D01*
X139914839Y-81975627D01*
X139810000Y-82023505D01*
X139810000Y-79320000D01*
X139162155Y-79320000D01*
X139102627Y-79326401D01*
X139102620Y-79326403D01*
X138967913Y-79376645D01*
X138967910Y-79376647D01*
X138864727Y-79453890D01*
X138799262Y-79478307D01*
X138730989Y-79463455D01*
X138716106Y-79453890D01*
X138667442Y-79417460D01*
X138625573Y-79361527D01*
X138620589Y-79291836D01*
X138654072Y-79230516D01*
X148972772Y-68911819D01*
X149034095Y-68878334D01*
X149060453Y-68875500D01*
X186689548Y-68875500D01*
X186756587Y-68895185D01*
X186777229Y-68911819D01*
X195999197Y-78133788D01*
X196009022Y-78146051D01*
X196009243Y-78145869D01*
X196014214Y-78151878D01*
X196040217Y-78176295D01*
X196064635Y-78199226D01*
X196085529Y-78220120D01*
X196091011Y-78224373D01*
X196095443Y-78228157D01*
X196129418Y-78260062D01*
X196146976Y-78269714D01*
X196163233Y-78280393D01*
X196179064Y-78292673D01*
X196198737Y-78301186D01*
X196221833Y-78311182D01*
X196227077Y-78313750D01*
X196267908Y-78336197D01*
X196280523Y-78339435D01*
X196287305Y-78341177D01*
X196305719Y-78347481D01*
X196324104Y-78355438D01*
X196370157Y-78362732D01*
X196375826Y-78363906D01*
X196420981Y-78375500D01*
X196441016Y-78375500D01*
X196460413Y-78377026D01*
X196480196Y-78380160D01*
X196526584Y-78375775D01*
X196532422Y-78375500D01*
X202939548Y-78375500D01*
X203006587Y-78395185D01*
X203027229Y-78411819D01*
X209499194Y-84883784D01*
X209509019Y-84896048D01*
X209509240Y-84895866D01*
X209514210Y-84901873D01*
X209514213Y-84901876D01*
X209514214Y-84901877D01*
X209564651Y-84949241D01*
X209585530Y-84970120D01*
X209591004Y-84974366D01*
X209595442Y-84978156D01*
X209629418Y-85010062D01*
X209629422Y-85010064D01*
X209646973Y-85019713D01*
X209663231Y-85030392D01*
X209679064Y-85042674D01*
X209701015Y-85052172D01*
X209721837Y-85061183D01*
X209727081Y-85063752D01*
X209767908Y-85086197D01*
X209787312Y-85091179D01*
X209805710Y-85097478D01*
X209824105Y-85105438D01*
X209870129Y-85112726D01*
X209875832Y-85113907D01*
X209920981Y-85125500D01*
X209941016Y-85125500D01*
X209960413Y-85127026D01*
X209980196Y-85130160D01*
X210026584Y-85125775D01*
X210032422Y-85125500D01*
X213899548Y-85125500D01*
X213966587Y-85145185D01*
X213987229Y-85161819D01*
X218410586Y-89585176D01*
X218444071Y-89646499D01*
X218442681Y-89704948D01*
X218424365Y-89773307D01*
X218424364Y-89773313D01*
X218404532Y-89999999D01*
X218404532Y-90000001D01*
X218424364Y-90226686D01*
X218424366Y-90226697D01*
X218483258Y-90446488D01*
X218483261Y-90446497D01*
X218579431Y-90652732D01*
X218579432Y-90652734D01*
X218709954Y-90839141D01*
X218870858Y-91000045D01*
X219031623Y-91112613D01*
X219075248Y-91167189D01*
X219084500Y-91214188D01*
X219084500Y-92019546D01*
X219064815Y-92086585D01*
X219048181Y-92107227D01*
X214365202Y-96790205D01*
X214303879Y-96823690D01*
X214237259Y-96819806D01*
X214147912Y-96789133D01*
X213948800Y-96755908D01*
X213910399Y-96749500D01*
X213669601Y-96749500D01*
X213631200Y-96755908D01*
X213432083Y-96789134D01*
X213204343Y-96867318D01*
X213204334Y-96867321D01*
X212992558Y-96981929D01*
X212889252Y-97062336D01*
X212802537Y-97129829D01*
X212802534Y-97129831D01*
X212802534Y-97129832D01*
X212639450Y-97306988D01*
X212639446Y-97306994D01*
X212623507Y-97331389D01*
X212570359Y-97376744D01*
X212501127Y-97386165D01*
X212437793Y-97356661D01*
X212415892Y-97331385D01*
X212400154Y-97307296D01*
X212237126Y-97130202D01*
X212237116Y-97130193D01*
X212047168Y-96982350D01*
X212047159Y-96982344D01*
X211835468Y-96867784D01*
X211835454Y-96867778D01*
X211607791Y-96789619D01*
X211500000Y-96771633D01*
X211500000Y-97758316D01*
X211471181Y-97740791D01*
X211325596Y-97700000D01*
X211212378Y-97700000D01*
X211100217Y-97715416D01*
X211000000Y-97758946D01*
X211000000Y-96771633D01*
X210999999Y-96771633D01*
X210892208Y-96789619D01*
X210664545Y-96867778D01*
X210664531Y-96867784D01*
X210452840Y-96982344D01*
X210452838Y-96982345D01*
X210310252Y-97093325D01*
X210245258Y-97118967D01*
X210176718Y-97105400D01*
X210126393Y-97056932D01*
X210117907Y-97038801D01*
X210106297Y-97007671D01*
X210106293Y-97007664D01*
X210020047Y-96892455D01*
X210020044Y-96892452D01*
X209904835Y-96806206D01*
X209904828Y-96806202D01*
X209769982Y-96755908D01*
X209769983Y-96755908D01*
X209710383Y-96749501D01*
X209710381Y-96749500D01*
X209710373Y-96749500D01*
X209710365Y-96749500D01*
X208145452Y-96749500D01*
X208078413Y-96729815D01*
X208057771Y-96713181D01*
X203621819Y-92277228D01*
X203588334Y-92215905D01*
X203585500Y-92189547D01*
X203585500Y-91214188D01*
X203605185Y-91147149D01*
X203638377Y-91112613D01*
X203686836Y-91078681D01*
X203799139Y-91000047D01*
X203960047Y-90839139D01*
X204090568Y-90652734D01*
X204186739Y-90446496D01*
X204245635Y-90226692D01*
X204263929Y-90017595D01*
X204265468Y-90000002D01*
X206655034Y-90000002D01*
X206674858Y-90226599D01*
X206674860Y-90226610D01*
X206733730Y-90446317D01*
X206733734Y-90446326D01*
X206829865Y-90652481D01*
X206829866Y-90652483D01*
X206880973Y-90725471D01*
X206880974Y-90725472D01*
X207562046Y-90044399D01*
X207574835Y-90125148D01*
X207632359Y-90238045D01*
X207721955Y-90327641D01*
X207834852Y-90385165D01*
X207915599Y-90397953D01*
X207234526Y-91079025D01*
X207234526Y-91079026D01*
X207307512Y-91130131D01*
X207307516Y-91130133D01*
X207513673Y-91226265D01*
X207513682Y-91226269D01*
X207733389Y-91285139D01*
X207733400Y-91285141D01*
X207959998Y-91304966D01*
X207960002Y-91304966D01*
X208186599Y-91285141D01*
X208186610Y-91285139D01*
X208406317Y-91226269D01*
X208406331Y-91226264D01*
X208612478Y-91130136D01*
X208685472Y-91079025D01*
X208004401Y-90397953D01*
X208085148Y-90385165D01*
X208198045Y-90327641D01*
X208287641Y-90238045D01*
X208345165Y-90125148D01*
X208357953Y-90044400D01*
X209039025Y-90725472D01*
X209090136Y-90652478D01*
X209186264Y-90446331D01*
X209186269Y-90446317D01*
X209245139Y-90226610D01*
X209245141Y-90226599D01*
X209264966Y-90000002D01*
X213405034Y-90000002D01*
X213424858Y-90226599D01*
X213424860Y-90226610D01*
X213483730Y-90446317D01*
X213483734Y-90446326D01*
X213579865Y-90652481D01*
X213579866Y-90652483D01*
X213630973Y-90725471D01*
X213630974Y-90725472D01*
X214312046Y-90044399D01*
X214324835Y-90125148D01*
X214382359Y-90238045D01*
X214471955Y-90327641D01*
X214584852Y-90385165D01*
X214665599Y-90397953D01*
X213984526Y-91079025D01*
X213984526Y-91079026D01*
X214057512Y-91130131D01*
X214057516Y-91130133D01*
X214263673Y-91226265D01*
X214263682Y-91226269D01*
X214483389Y-91285139D01*
X214483400Y-91285141D01*
X214709998Y-91304966D01*
X214710002Y-91304966D01*
X214936599Y-91285141D01*
X214936610Y-91285139D01*
X215156317Y-91226269D01*
X215156331Y-91226264D01*
X215362478Y-91130136D01*
X215435472Y-91079025D01*
X214754401Y-90397953D01*
X214835148Y-90385165D01*
X214948045Y-90327641D01*
X215037641Y-90238045D01*
X215095165Y-90125148D01*
X215107953Y-90044400D01*
X215789025Y-90725472D01*
X215840136Y-90652478D01*
X215936264Y-90446331D01*
X215936269Y-90446317D01*
X215995139Y-90226610D01*
X215995141Y-90226599D01*
X216014966Y-90000002D01*
X216014966Y-89999997D01*
X215995141Y-89773400D01*
X215995139Y-89773389D01*
X215936269Y-89553682D01*
X215936265Y-89553673D01*
X215840133Y-89347516D01*
X215840131Y-89347512D01*
X215789026Y-89274526D01*
X215789025Y-89274526D01*
X215107953Y-89955598D01*
X215095165Y-89874852D01*
X215037641Y-89761955D01*
X214948045Y-89672359D01*
X214835148Y-89614835D01*
X214754400Y-89602046D01*
X215435472Y-88920974D01*
X215435471Y-88920973D01*
X215362483Y-88869866D01*
X215362481Y-88869865D01*
X215156326Y-88773734D01*
X215156317Y-88773730D01*
X214936610Y-88714860D01*
X214936599Y-88714858D01*
X214710002Y-88695034D01*
X214709998Y-88695034D01*
X214483400Y-88714858D01*
X214483389Y-88714860D01*
X214263682Y-88773730D01*
X214263673Y-88773734D01*
X214057513Y-88869868D01*
X213984527Y-88920972D01*
X213984526Y-88920973D01*
X214665600Y-89602046D01*
X214584852Y-89614835D01*
X214471955Y-89672359D01*
X214382359Y-89761955D01*
X214324835Y-89874852D01*
X214312046Y-89955599D01*
X213630973Y-89274526D01*
X213630972Y-89274527D01*
X213579868Y-89347513D01*
X213483734Y-89553673D01*
X213483730Y-89553682D01*
X213424860Y-89773389D01*
X213424858Y-89773400D01*
X213405034Y-89999997D01*
X213405034Y-90000002D01*
X209264966Y-90000002D01*
X209264966Y-89999997D01*
X209245141Y-89773400D01*
X209245139Y-89773389D01*
X209186269Y-89553682D01*
X209186265Y-89553673D01*
X209090133Y-89347516D01*
X209090131Y-89347512D01*
X209039026Y-89274526D01*
X209039025Y-89274526D01*
X208357953Y-89955598D01*
X208345165Y-89874852D01*
X208287641Y-89761955D01*
X208198045Y-89672359D01*
X208085148Y-89614835D01*
X208004400Y-89602046D01*
X208685472Y-88920974D01*
X208685471Y-88920973D01*
X208612483Y-88869866D01*
X208612481Y-88869865D01*
X208406326Y-88773734D01*
X208406317Y-88773730D01*
X208186610Y-88714860D01*
X208186599Y-88714858D01*
X207960002Y-88695034D01*
X207959998Y-88695034D01*
X207733400Y-88714858D01*
X207733389Y-88714860D01*
X207513682Y-88773730D01*
X207513673Y-88773734D01*
X207307513Y-88869868D01*
X207234527Y-88920972D01*
X207234526Y-88920973D01*
X207915600Y-89602046D01*
X207834852Y-89614835D01*
X207721955Y-89672359D01*
X207632359Y-89761955D01*
X207574835Y-89874852D01*
X207562046Y-89955599D01*
X206880973Y-89274526D01*
X206880972Y-89274527D01*
X206829868Y-89347513D01*
X206733734Y-89553673D01*
X206733730Y-89553682D01*
X206674860Y-89773389D01*
X206674858Y-89773400D01*
X206655034Y-89999997D01*
X206655034Y-90000002D01*
X204265468Y-90000002D01*
X204265468Y-90000001D01*
X204265468Y-89999998D01*
X204258376Y-89918939D01*
X204245635Y-89773308D01*
X204195225Y-89585176D01*
X204186741Y-89553511D01*
X204186738Y-89553502D01*
X204090568Y-89347266D01*
X203972006Y-89177941D01*
X203960045Y-89160858D01*
X203799141Y-88999954D01*
X203612734Y-88869432D01*
X203612732Y-88869431D01*
X203406497Y-88773261D01*
X203406488Y-88773258D01*
X203186697Y-88714366D01*
X203186693Y-88714365D01*
X203186692Y-88714365D01*
X203186691Y-88714364D01*
X203186686Y-88714364D01*
X202960002Y-88694532D01*
X202959998Y-88694532D01*
X202733313Y-88714364D01*
X202733302Y-88714366D01*
X202513511Y-88773258D01*
X202513502Y-88773261D01*
X202307267Y-88869431D01*
X202307265Y-88869432D01*
X202120858Y-88999954D01*
X201959954Y-89160858D01*
X201847387Y-89321623D01*
X201792811Y-89365248D01*
X201745812Y-89374500D01*
X194060452Y-89374500D01*
X193993413Y-89354815D01*
X193972771Y-89338181D01*
X193486987Y-88852397D01*
X193000803Y-88366212D01*
X192990980Y-88353950D01*
X192990759Y-88354134D01*
X192985786Y-88348123D01*
X192967156Y-88330628D01*
X192935364Y-88300773D01*
X192924919Y-88290328D01*
X192914475Y-88279883D01*
X192908986Y-88275625D01*
X192904561Y-88271847D01*
X192870582Y-88239938D01*
X192870580Y-88239936D01*
X192870577Y-88239935D01*
X192853029Y-88230288D01*
X192836763Y-88219604D01*
X192820936Y-88207327D01*
X192820932Y-88207325D01*
X192809113Y-88202210D01*
X192770681Y-88176091D01*
X191090237Y-86495647D01*
X191056752Y-86434324D01*
X191058143Y-86375872D01*
X191085063Y-86275408D01*
X191105659Y-86040000D01*
X191085063Y-85804592D01*
X191023903Y-85576337D01*
X190924035Y-85362171D01*
X190923651Y-85361623D01*
X190788496Y-85168600D01*
X190732622Y-85112726D01*
X190666179Y-85046283D01*
X190632696Y-84984963D01*
X190637680Y-84915271D01*
X190679551Y-84859337D01*
X190710529Y-84842422D01*
X190842086Y-84793354D01*
X190842093Y-84793350D01*
X190957187Y-84707190D01*
X190957190Y-84707187D01*
X191043350Y-84592093D01*
X191043354Y-84592086D01*
X191093596Y-84457379D01*
X191093598Y-84457372D01*
X191099999Y-84397844D01*
X191100000Y-84397827D01*
X191100000Y-83750000D01*
X190183686Y-83750000D01*
X190209493Y-83709844D01*
X190250000Y-83571889D01*
X190250000Y-83428111D01*
X190209493Y-83290156D01*
X190183686Y-83250000D01*
X191100000Y-83250000D01*
X191100000Y-82602172D01*
X191099999Y-82602155D01*
X191093598Y-82542627D01*
X191093596Y-82542620D01*
X191043354Y-82407913D01*
X191043350Y-82407906D01*
X190957190Y-82292812D01*
X190957187Y-82292809D01*
X190842093Y-82206649D01*
X190842086Y-82206645D01*
X190707379Y-82156403D01*
X190707372Y-82156401D01*
X190647844Y-82150000D01*
X190000000Y-82150000D01*
X190000000Y-83064498D01*
X189892315Y-83015320D01*
X189785763Y-83000000D01*
X189714237Y-83000000D01*
X189607685Y-83015320D01*
X189500000Y-83064498D01*
X189500000Y-82150000D01*
X188852155Y-82150000D01*
X188792627Y-82156401D01*
X188792620Y-82156403D01*
X188657913Y-82206645D01*
X188657906Y-82206649D01*
X188542812Y-82292809D01*
X188542809Y-82292812D01*
X188456649Y-82407906D01*
X188456645Y-82407913D01*
X188406403Y-82542620D01*
X188406401Y-82542627D01*
X188400000Y-82602155D01*
X188400000Y-83250000D01*
X189316314Y-83250000D01*
X189290507Y-83290156D01*
X189250000Y-83428111D01*
X189250000Y-83571889D01*
X189290507Y-83709844D01*
X189316314Y-83750000D01*
X188400000Y-83750000D01*
X188400000Y-84397844D01*
X188406401Y-84457372D01*
X188406403Y-84457379D01*
X188456645Y-84592086D01*
X188456649Y-84592093D01*
X188542809Y-84707187D01*
X188542812Y-84707190D01*
X188657906Y-84793350D01*
X188657913Y-84793354D01*
X188789470Y-84842421D01*
X188845403Y-84884292D01*
X188869821Y-84949756D01*
X188854970Y-85018029D01*
X188833819Y-85046284D01*
X188711503Y-85168600D01*
X188576348Y-85361623D01*
X188521771Y-85405248D01*
X188474773Y-85414500D01*
X165792743Y-85414500D01*
X165777122Y-85412775D01*
X165777095Y-85413061D01*
X165769333Y-85412326D01*
X165700172Y-85414500D01*
X165670649Y-85414500D01*
X165663778Y-85415367D01*
X165657959Y-85415825D01*
X165611374Y-85417289D01*
X165611368Y-85417290D01*
X165592126Y-85422880D01*
X165573087Y-85426823D01*
X165553217Y-85429334D01*
X165553203Y-85429337D01*
X165509883Y-85446488D01*
X165504358Y-85448380D01*
X165459613Y-85461380D01*
X165459610Y-85461381D01*
X165442366Y-85471579D01*
X165424905Y-85480133D01*
X165406274Y-85487510D01*
X165406262Y-85487517D01*
X165368570Y-85514902D01*
X165363687Y-85518109D01*
X165323580Y-85541829D01*
X165309414Y-85555995D01*
X165294624Y-85568627D01*
X165278414Y-85580404D01*
X165278411Y-85580407D01*
X165248710Y-85616309D01*
X165244777Y-85620631D01*
X160277228Y-90588181D01*
X160215905Y-90621666D01*
X160189547Y-90624500D01*
X134380865Y-90624500D01*
X134365244Y-90622775D01*
X134365217Y-90623061D01*
X134357455Y-90622326D01*
X134288294Y-90624500D01*
X134258771Y-90624500D01*
X134251900Y-90625367D01*
X134246081Y-90625825D01*
X134199496Y-90627289D01*
X134199490Y-90627290D01*
X134180248Y-90632880D01*
X134161209Y-90636823D01*
X134141339Y-90639334D01*
X134141325Y-90639337D01*
X134098005Y-90656488D01*
X134092480Y-90658380D01*
X134047735Y-90671380D01*
X134047732Y-90671381D01*
X134030488Y-90681579D01*
X134013027Y-90690133D01*
X133994396Y-90697510D01*
X133994384Y-90697517D01*
X133956692Y-90724902D01*
X133951809Y-90728109D01*
X133911702Y-90751829D01*
X133897536Y-90765995D01*
X133882746Y-90778627D01*
X133866536Y-90790404D01*
X133866533Y-90790407D01*
X133836832Y-90826309D01*
X133832899Y-90830631D01*
X127616208Y-97047321D01*
X127603951Y-97057142D01*
X127604134Y-97057363D01*
X127598123Y-97062335D01*
X127550772Y-97112758D01*
X127529889Y-97133641D01*
X127529877Y-97133654D01*
X127525621Y-97139139D01*
X127521837Y-97143569D01*
X127489937Y-97177540D01*
X127489936Y-97177542D01*
X127480284Y-97195098D01*
X127469610Y-97211348D01*
X127457329Y-97227183D01*
X127457324Y-97227190D01*
X127438815Y-97269960D01*
X127436245Y-97275206D01*
X127413803Y-97316028D01*
X127408822Y-97335429D01*
X127402521Y-97353832D01*
X127394562Y-97372224D01*
X127394561Y-97372227D01*
X127387271Y-97418249D01*
X127386087Y-97423968D01*
X127374501Y-97469094D01*
X127374500Y-97469104D01*
X127374500Y-97489138D01*
X127372973Y-97508535D01*
X127372249Y-97513105D01*
X127369840Y-97528316D01*
X127369840Y-97528317D01*
X127374225Y-97574705D01*
X127374500Y-97580543D01*
X127374500Y-119667255D01*
X127372775Y-119682872D01*
X127373061Y-119682899D01*
X127372326Y-119690665D01*
X127374500Y-119759814D01*
X127374500Y-119789343D01*
X127374501Y-119789360D01*
X127375368Y-119796231D01*
X127375826Y-119802050D01*
X127377290Y-119848624D01*
X127377291Y-119848627D01*
X127382880Y-119867867D01*
X127386824Y-119886911D01*
X127389336Y-119906791D01*
X127406490Y-119950119D01*
X127408382Y-119955647D01*
X127421381Y-120000388D01*
X127431580Y-120017634D01*
X127440136Y-120035100D01*
X127447514Y-120053732D01*
X127472542Y-120088181D01*
X127474898Y-120091423D01*
X127478106Y-120096307D01*
X127501827Y-120136416D01*
X127501833Y-120136424D01*
X127515990Y-120150580D01*
X127528628Y-120165376D01*
X127540405Y-120181586D01*
X127540406Y-120181587D01*
X127576309Y-120211288D01*
X127580620Y-120215210D01*
X129985249Y-122619840D01*
X129999197Y-122633788D01*
X130009022Y-122646051D01*
X130009243Y-122645869D01*
X130014214Y-122651878D01*
X130034981Y-122671379D01*
X130064635Y-122699226D01*
X130085529Y-122720120D01*
X130091011Y-122724373D01*
X130095443Y-122728157D01*
X130129418Y-122760062D01*
X130146976Y-122769714D01*
X130163233Y-122780393D01*
X130179064Y-122792673D01*
X130197782Y-122800773D01*
X130221833Y-122811182D01*
X130227077Y-122813750D01*
X130267908Y-122836197D01*
X130280523Y-122839435D01*
X130287305Y-122841177D01*
X130305719Y-122847481D01*
X130324104Y-122855438D01*
X130370157Y-122862732D01*
X130375826Y-122863906D01*
X130420981Y-122875500D01*
X130441016Y-122875500D01*
X130460413Y-122877026D01*
X130480196Y-122880160D01*
X130526584Y-122875775D01*
X130532422Y-122875500D01*
X144189548Y-122875500D01*
X144256587Y-122895185D01*
X144277229Y-122911819D01*
X147684280Y-126318870D01*
X147717765Y-126380193D01*
X147712781Y-126449885D01*
X147670909Y-126505818D01*
X147667722Y-126508126D01*
X147550859Y-126589953D01*
X147389954Y-126750858D01*
X147259433Y-126937264D01*
X147259432Y-126937266D01*
X147250118Y-126957241D01*
X147232106Y-126995867D01*
X147185933Y-127048306D01*
X147118739Y-127067457D01*
X147051858Y-127047241D01*
X147007342Y-126995865D01*
X146980135Y-126937520D01*
X146980134Y-126937518D01*
X146849657Y-126751179D01*
X146688820Y-126590342D01*
X146502482Y-126459865D01*
X146296328Y-126363734D01*
X146100000Y-126311127D01*
X146100000Y-127274314D01*
X146088045Y-127262359D01*
X145975148Y-127204835D01*
X145881481Y-127190000D01*
X145818519Y-127190000D01*
X145724852Y-127204835D01*
X145611955Y-127262359D01*
X145600000Y-127274314D01*
X145600000Y-126311127D01*
X145403671Y-126363734D01*
X145197517Y-126459865D01*
X145011179Y-126590342D01*
X144850342Y-126751179D01*
X144719867Y-126937515D01*
X144692657Y-126995867D01*
X144646484Y-127048306D01*
X144579290Y-127067457D01*
X144512409Y-127047241D01*
X144467893Y-126995865D01*
X144449882Y-126957241D01*
X144440568Y-126937266D01*
X144310047Y-126750861D01*
X144310045Y-126750858D01*
X144149141Y-126589954D01*
X143962734Y-126459432D01*
X143962732Y-126459431D01*
X143756497Y-126363261D01*
X143756488Y-126363258D01*
X143536697Y-126304366D01*
X143536693Y-126304365D01*
X143536692Y-126304365D01*
X143536691Y-126304364D01*
X143536686Y-126304364D01*
X143310002Y-126284532D01*
X143309998Y-126284532D01*
X143083313Y-126304364D01*
X143083302Y-126304366D01*
X142863511Y-126363258D01*
X142863502Y-126363261D01*
X142657267Y-126459431D01*
X142657265Y-126459432D01*
X142470858Y-126589954D01*
X142309954Y-126750858D01*
X142179432Y-126937265D01*
X142179431Y-126937267D01*
X142152382Y-126995275D01*
X142106209Y-127047714D01*
X142039016Y-127066866D01*
X141972135Y-127046650D01*
X141927618Y-126995275D01*
X141910103Y-126957714D01*
X141900568Y-126937266D01*
X141770047Y-126750861D01*
X141770045Y-126750858D01*
X141609141Y-126589954D01*
X141422734Y-126459432D01*
X141422732Y-126459431D01*
X141216497Y-126363261D01*
X141216488Y-126363258D01*
X140996697Y-126304366D01*
X140996693Y-126304365D01*
X140996692Y-126304365D01*
X140996691Y-126304364D01*
X140996686Y-126304364D01*
X140770002Y-126284532D01*
X140769998Y-126284532D01*
X140543313Y-126304364D01*
X140543302Y-126304366D01*
X140323511Y-126363258D01*
X140323502Y-126363261D01*
X140117267Y-126459431D01*
X140117265Y-126459432D01*
X139930858Y-126589954D01*
X139769954Y-126750858D01*
X139639432Y-126937265D01*
X139639431Y-126937267D01*
X139612382Y-126995275D01*
X139566209Y-127047714D01*
X139499016Y-127066866D01*
X139432135Y-127046650D01*
X139387618Y-126995275D01*
X139370103Y-126957714D01*
X139360568Y-126937266D01*
X139230047Y-126750861D01*
X139230045Y-126750858D01*
X139069141Y-126589954D01*
X138882734Y-126459432D01*
X138882732Y-126459431D01*
X138676497Y-126363261D01*
X138676488Y-126363258D01*
X138456697Y-126304366D01*
X138456693Y-126304365D01*
X138456692Y-126304365D01*
X138456691Y-126304364D01*
X138456686Y-126304364D01*
X138230002Y-126284532D01*
X138229998Y-126284532D01*
X138003313Y-126304364D01*
X138003302Y-126304366D01*
X137783511Y-126363258D01*
X137783502Y-126363261D01*
X137577267Y-126459431D01*
X137577265Y-126459432D01*
X137390858Y-126589954D01*
X137229954Y-126750858D01*
X137099432Y-126937265D01*
X137099431Y-126937267D01*
X137072382Y-126995275D01*
X137026209Y-127047714D01*
X136959016Y-127066866D01*
X136892135Y-127046650D01*
X136847618Y-126995275D01*
X136830103Y-126957714D01*
X136820568Y-126937266D01*
X136690047Y-126750861D01*
X136690045Y-126750858D01*
X136529141Y-126589954D01*
X136342734Y-126459432D01*
X136342732Y-126459431D01*
X136136497Y-126363261D01*
X136136488Y-126363258D01*
X135916697Y-126304366D01*
X135916693Y-126304365D01*
X135916692Y-126304365D01*
X135916691Y-126304364D01*
X135916686Y-126304364D01*
X135690002Y-126284532D01*
X135689998Y-126284532D01*
X135463313Y-126304364D01*
X135463302Y-126304366D01*
X135243511Y-126363258D01*
X135243502Y-126363261D01*
X135037267Y-126459431D01*
X135037265Y-126459432D01*
X134850858Y-126589954D01*
X134689954Y-126750858D01*
X134559432Y-126937265D01*
X134559431Y-126937267D01*
X134532382Y-126995275D01*
X134486209Y-127047714D01*
X134419016Y-127066866D01*
X134352135Y-127046650D01*
X134307618Y-126995275D01*
X134290103Y-126957714D01*
X134280568Y-126937266D01*
X134150047Y-126750861D01*
X134150045Y-126750858D01*
X133989141Y-126589954D01*
X133802734Y-126459432D01*
X133802732Y-126459431D01*
X133596497Y-126363261D01*
X133596488Y-126363258D01*
X133376697Y-126304366D01*
X133376693Y-126304365D01*
X133376692Y-126304365D01*
X133376691Y-126304364D01*
X133376686Y-126304364D01*
X133150002Y-126284532D01*
X133149998Y-126284532D01*
X132923313Y-126304364D01*
X132923302Y-126304366D01*
X132703511Y-126363258D01*
X132703502Y-126363261D01*
X132497267Y-126459431D01*
X132497265Y-126459432D01*
X132310858Y-126589954D01*
X132149951Y-126750861D01*
X132132287Y-126776088D01*
X132077710Y-126819712D01*
X132008211Y-126826904D01*
X131945857Y-126795380D01*
X131910445Y-126735150D01*
X131907425Y-126718218D01*
X131903598Y-126682627D01*
X131903596Y-126682620D01*
X131853354Y-126547913D01*
X131853350Y-126547906D01*
X131767190Y-126432812D01*
X131767187Y-126432809D01*
X131652093Y-126346649D01*
X131652086Y-126346645D01*
X131517379Y-126296403D01*
X131517372Y-126296401D01*
X131457844Y-126290000D01*
X130860000Y-126290000D01*
X130860000Y-127274314D01*
X130848045Y-127262359D01*
X130735148Y-127204835D01*
X130641481Y-127190000D01*
X130578519Y-127190000D01*
X130484852Y-127204835D01*
X130371955Y-127262359D01*
X130360000Y-127274314D01*
X130360000Y-126290000D01*
X129762155Y-126290000D01*
X129702627Y-126296401D01*
X129702620Y-126296403D01*
X129567913Y-126346645D01*
X129567906Y-126346649D01*
X129452812Y-126432809D01*
X129452809Y-126432812D01*
X129366649Y-126547906D01*
X129366645Y-126547913D01*
X129316403Y-126682620D01*
X129316401Y-126682627D01*
X129310000Y-126742155D01*
X129310000Y-127340000D01*
X130294314Y-127340000D01*
X130282359Y-127351955D01*
X130224835Y-127464852D01*
X130205014Y-127590000D01*
X130224835Y-127715148D01*
X130282359Y-127828045D01*
X130294314Y-127840000D01*
X129310000Y-127840000D01*
X129310000Y-128437844D01*
X129316401Y-128497372D01*
X129316403Y-128497379D01*
X129366645Y-128632086D01*
X129366649Y-128632093D01*
X129452809Y-128747187D01*
X129452812Y-128747190D01*
X129567906Y-128833350D01*
X129567913Y-128833354D01*
X129702620Y-128883596D01*
X129702627Y-128883598D01*
X129762155Y-128889999D01*
X129762172Y-128890000D01*
X130360000Y-128890000D01*
X130360000Y-127905686D01*
X130371955Y-127917641D01*
X130484852Y-127975165D01*
X130578519Y-127990000D01*
X130641481Y-127990000D01*
X130735148Y-127975165D01*
X130848045Y-127917641D01*
X130860000Y-127905686D01*
X130860000Y-128890000D01*
X131457828Y-128890000D01*
X131457844Y-128889999D01*
X131517372Y-128883598D01*
X131517379Y-128883596D01*
X131652086Y-128833354D01*
X131652093Y-128833350D01*
X131767187Y-128747190D01*
X131767190Y-128747187D01*
X131853350Y-128632093D01*
X131853354Y-128632086D01*
X131903596Y-128497380D01*
X131907424Y-128461781D01*
X131934162Y-128397230D01*
X131991555Y-128357382D01*
X132061380Y-128354888D01*
X132121469Y-128390540D01*
X132132289Y-128403912D01*
X132149956Y-128429143D01*
X132310858Y-128590045D01*
X132471623Y-128702613D01*
X132515248Y-128757189D01*
X132524500Y-128804188D01*
X132524500Y-141317255D01*
X132522775Y-141332872D01*
X132523061Y-141332899D01*
X132522326Y-141340665D01*
X132524500Y-141409814D01*
X132524500Y-141439343D01*
X132524501Y-141439360D01*
X132525368Y-141446231D01*
X132525826Y-141452050D01*
X132527290Y-141498624D01*
X132527291Y-141498627D01*
X132532880Y-141517867D01*
X132536824Y-141536911D01*
X132539336Y-141556791D01*
X132556490Y-141600119D01*
X132558382Y-141605647D01*
X132571381Y-141650388D01*
X132581580Y-141667634D01*
X132590138Y-141685103D01*
X132597514Y-141703732D01*
X132624898Y-141741423D01*
X132628106Y-141746307D01*
X132651827Y-141786416D01*
X132651833Y-141786424D01*
X132665990Y-141800580D01*
X132678628Y-141815376D01*
X132690405Y-141831586D01*
X132690406Y-141831587D01*
X132726309Y-141861288D01*
X132730620Y-141865210D01*
X133278229Y-142412819D01*
X134499197Y-143633788D01*
X134509022Y-143646051D01*
X134509243Y-143645869D01*
X134514214Y-143651878D01*
X134535043Y-143671437D01*
X134564635Y-143699226D01*
X134585529Y-143720120D01*
X134591011Y-143724373D01*
X134595443Y-143728157D01*
X134629418Y-143760062D01*
X134646976Y-143769714D01*
X134663235Y-143780395D01*
X134679064Y-143792673D01*
X134721838Y-143811182D01*
X134727056Y-143813738D01*
X134767908Y-143836197D01*
X134787316Y-143841180D01*
X134805717Y-143847480D01*
X134824104Y-143855437D01*
X134867488Y-143862308D01*
X134870119Y-143862725D01*
X134875839Y-143863909D01*
X134920981Y-143875500D01*
X134941016Y-143875500D01*
X134960414Y-143877026D01*
X134980194Y-143880159D01*
X134980195Y-143880160D01*
X134980195Y-143880159D01*
X134980196Y-143880160D01*
X135026584Y-143875775D01*
X135032422Y-143875500D01*
X153917257Y-143875500D01*
X153932877Y-143877224D01*
X153932904Y-143876939D01*
X153940660Y-143877671D01*
X153940667Y-143877673D01*
X154009814Y-143875500D01*
X178917257Y-143875500D01*
X178932877Y-143877224D01*
X178932904Y-143876939D01*
X178940660Y-143877671D01*
X178940667Y-143877673D01*
X179009814Y-143875500D01*
X205917257Y-143875500D01*
X205932877Y-143877224D01*
X205932904Y-143876939D01*
X205940660Y-143877671D01*
X205940667Y-143877673D01*
X206009814Y-143875500D01*
X222667257Y-143875500D01*
X222682877Y-143877224D01*
X222682904Y-143876939D01*
X222690660Y-143877671D01*
X222690667Y-143877673D01*
X222759814Y-143875500D01*
X222789350Y-143875500D01*
X222796228Y-143874630D01*
X222802041Y-143874172D01*
X222848627Y-143872709D01*
X222867869Y-143867117D01*
X222886912Y-143863174D01*
X222906792Y-143860664D01*
X222950122Y-143843507D01*
X222955646Y-143841617D01*
X222959396Y-143840527D01*
X223000390Y-143828618D01*
X223017629Y-143818422D01*
X223035103Y-143809862D01*
X223053727Y-143802488D01*
X223053727Y-143802487D01*
X223053732Y-143802486D01*
X223091449Y-143775082D01*
X223096305Y-143771892D01*
X223136420Y-143748170D01*
X223150589Y-143733999D01*
X223165379Y-143721368D01*
X223181587Y-143709594D01*
X223211299Y-143673676D01*
X223215212Y-143669376D01*
X231883786Y-135000802D01*
X231896048Y-134990980D01*
X231895865Y-134990759D01*
X231901870Y-134985789D01*
X231901877Y-134985786D01*
X231935107Y-134950398D01*
X231995348Y-134915004D01*
X232065161Y-134917796D01*
X232122383Y-134957889D01*
X232148845Y-135022554D01*
X232149500Y-135035282D01*
X232149500Y-144025500D01*
X232129815Y-144092539D01*
X232077011Y-144138294D01*
X232025500Y-144149500D01*
X123474500Y-144149500D01*
X123407461Y-144129815D01*
X123361706Y-144077011D01*
X123350500Y-144025500D01*
X123350500Y-88635000D01*
X133704700Y-88635000D01*
X133709632Y-88694532D01*
X133711955Y-88722567D01*
X133715819Y-88813523D01*
X133715820Y-88813534D01*
X133720939Y-88837284D01*
X133722120Y-88845233D01*
X133723865Y-88866301D01*
X133746205Y-88954519D01*
X133766046Y-89046582D01*
X133773883Y-89066084D01*
X133776458Y-89073987D01*
X133780844Y-89091303D01*
X133818655Y-89177504D01*
X133854934Y-89267787D01*
X133854935Y-89267788D01*
X133854936Y-89267790D01*
X133859084Y-89274527D01*
X133864232Y-89282888D01*
X133868218Y-89290495D01*
X133874076Y-89303850D01*
X133927275Y-89385277D01*
X133979930Y-89470794D01*
X133986543Y-89478308D01*
X133997263Y-89492402D01*
X133998576Y-89494411D01*
X134001021Y-89498153D01*
X134069027Y-89572028D01*
X134137436Y-89649755D01*
X134142564Y-89653895D01*
X134155882Y-89666377D01*
X134158216Y-89668913D01*
X134239933Y-89732515D01*
X134322920Y-89799523D01*
X134322922Y-89799524D01*
X134325678Y-89801064D01*
X134341360Y-89811460D01*
X134341367Y-89811465D01*
X134341371Y-89811467D01*
X134341374Y-89811470D01*
X134434885Y-89862075D01*
X134435162Y-89862225D01*
X134531046Y-89915790D01*
X134533849Y-89917058D01*
X134540695Y-89920097D01*
X134540794Y-89919873D01*
X134545490Y-89921932D01*
X134545497Y-89921936D01*
X134649276Y-89957563D01*
X134755829Y-89995211D01*
X134756398Y-89995308D01*
X134761129Y-89996312D01*
X134765007Y-89997294D01*
X134765019Y-89997298D01*
X134875227Y-90015688D01*
X134876324Y-90015871D01*
X134990791Y-90035499D01*
X134990800Y-90035500D01*
X135226044Y-90035500D01*
X135226049Y-90035500D01*
X135259073Y-90029988D01*
X135282469Y-90026085D01*
X135287407Y-90025463D01*
X135347541Y-90020346D01*
X135399615Y-90006786D01*
X135405017Y-90005634D01*
X135454981Y-89997298D01*
X135512186Y-89977658D01*
X135516663Y-89976309D01*
X135578249Y-89960275D01*
X135584249Y-89957563D01*
X135594082Y-89953118D01*
X135624297Y-89939459D01*
X135629681Y-89937322D01*
X135674503Y-89921936D01*
X135730554Y-89891601D01*
X135734527Y-89889632D01*
X135743156Y-89885730D01*
X135795486Y-89862077D01*
X135834647Y-89835608D01*
X135839820Y-89832469D01*
X135878626Y-89811470D01*
X135931532Y-89770290D01*
X135934850Y-89767881D01*
X135993003Y-89728579D01*
X136024770Y-89698131D01*
X136029548Y-89694002D01*
X136061784Y-89668913D01*
X136064109Y-89666388D01*
X136079420Y-89649755D01*
X136109389Y-89617198D01*
X136112101Y-89614432D01*
X136165118Y-89563621D01*
X136189329Y-89530883D01*
X136193540Y-89525785D01*
X136218979Y-89498153D01*
X136219348Y-89497589D01*
X136259205Y-89436581D01*
X136261241Y-89433652D01*
X136306879Y-89371947D01*
X136323733Y-89338517D01*
X136327170Y-89332552D01*
X136345924Y-89303849D01*
X136376805Y-89233445D01*
X136378174Y-89230538D01*
X136414207Y-89159074D01*
X136424208Y-89126413D01*
X136426701Y-89119694D01*
X136439157Y-89091300D01*
X136458827Y-89013621D01*
X136459635Y-89010732D01*
X136482828Y-88935003D01*
X136884723Y-88935003D01*
X136886688Y-88957470D01*
X136886862Y-88965660D01*
X136885709Y-88991324D01*
X136885710Y-88991328D01*
X136885710Y-88991330D01*
X136886878Y-88999953D01*
X136896641Y-89072031D01*
X136896966Y-89074949D01*
X136903792Y-89152972D01*
X136903795Y-89152987D01*
X136910482Y-89177941D01*
X136912034Y-89185670D01*
X136915924Y-89214381D01*
X136915926Y-89214392D01*
X136940075Y-89288713D01*
X136940997Y-89291825D01*
X136960423Y-89364324D01*
X136960427Y-89364336D01*
X136972736Y-89390732D01*
X136975512Y-89397779D01*
X136985483Y-89428464D01*
X137020970Y-89494411D01*
X137022558Y-89497576D01*
X137052898Y-89562639D01*
X137068679Y-89585176D01*
X137071490Y-89589191D01*
X137075303Y-89595378D01*
X137092146Y-89626678D01*
X137092152Y-89626687D01*
X137136792Y-89682663D01*
X137139106Y-89685758D01*
X137170296Y-89730301D01*
X137178402Y-89741877D01*
X137178405Y-89741880D01*
X137203646Y-89767121D01*
X137208283Y-89772309D01*
X137232492Y-89802666D01*
X137283959Y-89847632D01*
X137287008Y-89850483D01*
X137333116Y-89896592D01*
X137333122Y-89896597D01*
X137333123Y-89896598D01*
X137342698Y-89903302D01*
X137365055Y-89918957D01*
X137370290Y-89923057D01*
X137402004Y-89950765D01*
X137402013Y-89950771D01*
X137457849Y-89984131D01*
X137461613Y-89986568D01*
X137512359Y-90022101D01*
X137512364Y-90022104D01*
X137530531Y-90030575D01*
X137550677Y-90039969D01*
X137556271Y-90042935D01*
X137593349Y-90065088D01*
X137595236Y-90066215D01*
X137613828Y-90073192D01*
X137653083Y-90087925D01*
X137657503Y-90089782D01*
X137710670Y-90114575D01*
X137710674Y-90114577D01*
X137741069Y-90122720D01*
X137754677Y-90126366D01*
X137760413Y-90128207D01*
X137777264Y-90134531D01*
X137805976Y-90145307D01*
X137863545Y-90155754D01*
X137868511Y-90156868D01*
X137922023Y-90171207D01*
X137970689Y-90175464D01*
X137976306Y-90176218D01*
X138027453Y-90185500D01*
X138082691Y-90185500D01*
X138088092Y-90185735D01*
X138116548Y-90188225D01*
X138139998Y-90190277D01*
X138140000Y-90190277D01*
X138192992Y-90185640D01*
X138196121Y-90185500D01*
X138196155Y-90185500D01*
X138250172Y-90180638D01*
X138357977Y-90171207D01*
X138358000Y-90171200D01*
X138358475Y-90171117D01*
X138363713Y-90170419D01*
X138364188Y-90170377D01*
X138467997Y-90141726D01*
X138569330Y-90114575D01*
X138569337Y-90114571D01*
X138576254Y-90112053D01*
X138580948Y-90110554D01*
X138581170Y-90110493D01*
X138581181Y-90110487D01*
X138581183Y-90110487D01*
X138675454Y-90065088D01*
X138767639Y-90022102D01*
X138767644Y-90022097D01*
X138772327Y-90019395D01*
X138772400Y-90019522D01*
X138783164Y-90013218D01*
X138783973Y-90012829D01*
X138866156Y-89953118D01*
X138946877Y-89896598D01*
X138947747Y-89895727D01*
X138962550Y-89883084D01*
X138966078Y-89880522D01*
X138983572Y-89862225D01*
X139034131Y-89809343D01*
X139101592Y-89741883D01*
X139101592Y-89741882D01*
X139101598Y-89741877D01*
X139104285Y-89738039D01*
X139116239Y-89723465D01*
X139121577Y-89717883D01*
X139121632Y-89717825D01*
X139174164Y-89638241D01*
X139227102Y-89562639D01*
X139230543Y-89555259D01*
X139239432Y-89539364D01*
X139245635Y-89529968D01*
X139281889Y-89445146D01*
X139319575Y-89364330D01*
X139322570Y-89353148D01*
X139328325Y-89336505D01*
X139333709Y-89323909D01*
X139334103Y-89322988D01*
X139353936Y-89236092D01*
X139376207Y-89152977D01*
X139377887Y-89133766D01*
X139379206Y-89125377D01*
X139380508Y-89119672D01*
X139384191Y-89103537D01*
X139388050Y-89017602D01*
X139395277Y-88935000D01*
X139393310Y-88912528D01*
X139393137Y-88904334D01*
X139393185Y-88903261D01*
X139394290Y-88878670D01*
X139383353Y-88797939D01*
X139383034Y-88795067D01*
X139376207Y-88717023D01*
X139369515Y-88692053D01*
X139367963Y-88684322D01*
X139364076Y-88655618D01*
X139364075Y-88655616D01*
X139364075Y-88655613D01*
X139339921Y-88581276D01*
X139338998Y-88578161D01*
X139319576Y-88505673D01*
X139319574Y-88505669D01*
X139307266Y-88479274D01*
X139304488Y-88472222D01*
X139294519Y-88441541D01*
X139294517Y-88441537D01*
X139294517Y-88441536D01*
X139281988Y-88418253D01*
X139259027Y-88375583D01*
X139257432Y-88372405D01*
X139242338Y-88340036D01*
X139227102Y-88307362D01*
X139208512Y-88280813D01*
X139204698Y-88274625D01*
X139194862Y-88256347D01*
X139187852Y-88243319D01*
X139143192Y-88187318D01*
X139140896Y-88184247D01*
X139101598Y-88128123D01*
X139076353Y-88102878D01*
X139071715Y-88097689D01*
X139047506Y-88067332D01*
X138996039Y-88022366D01*
X138992990Y-88019515D01*
X138946878Y-87973402D01*
X138914940Y-87951039D01*
X138909705Y-87946939D01*
X138895542Y-87934565D01*
X138877996Y-87919235D01*
X138877994Y-87919233D01*
X138877992Y-87919232D01*
X138822149Y-87885868D01*
X138818386Y-87883431D01*
X138767641Y-87847899D01*
X138742911Y-87836367D01*
X138729332Y-87830034D01*
X138723735Y-87827067D01*
X138684769Y-87803787D01*
X138684767Y-87803786D01*
X138626928Y-87782079D01*
X138622515Y-87780226D01*
X138569330Y-87755425D01*
X138525321Y-87743632D01*
X138519581Y-87741790D01*
X138474025Y-87724692D01*
X138416456Y-87714245D01*
X138411480Y-87713128D01*
X138357977Y-87698793D01*
X138309327Y-87694536D01*
X138303659Y-87693775D01*
X138252551Y-87684500D01*
X138252547Y-87684500D01*
X138197309Y-87684500D01*
X138191907Y-87684264D01*
X138163451Y-87681774D01*
X138140002Y-87679723D01*
X138139997Y-87679723D01*
X138087050Y-87684355D01*
X138083862Y-87684499D01*
X138083851Y-87684500D01*
X138083845Y-87684500D01*
X138037671Y-87688655D01*
X138029826Y-87689361D01*
X137922020Y-87698793D01*
X137921468Y-87698891D01*
X137916275Y-87699581D01*
X137915812Y-87699622D01*
X137915809Y-87699623D01*
X137812002Y-87728273D01*
X137710659Y-87755428D01*
X137703739Y-87757946D01*
X137699050Y-87759444D01*
X137698849Y-87759499D01*
X137698832Y-87759505D01*
X137604528Y-87804919D01*
X137512358Y-87847899D01*
X137507670Y-87850606D01*
X137507598Y-87850481D01*
X137496871Y-87856764D01*
X137496030Y-87857168D01*
X137413831Y-87916889D01*
X137333123Y-87973401D01*
X137332241Y-87974284D01*
X137317461Y-87986906D01*
X137313928Y-87989472D01*
X137313916Y-87989483D01*
X137282477Y-88022366D01*
X137245868Y-88060656D01*
X137223379Y-88083144D01*
X137178403Y-88128120D01*
X137178402Y-88128121D01*
X137175711Y-88131965D01*
X137163773Y-88146521D01*
X137158368Y-88152174D01*
X137140864Y-88178692D01*
X137105828Y-88231768D01*
X137057512Y-88300773D01*
X137052898Y-88307362D01*
X137052891Y-88307374D01*
X137049457Y-88314738D01*
X137040572Y-88330628D01*
X137034362Y-88340035D01*
X137034362Y-88340036D01*
X137007157Y-88403688D01*
X136998108Y-88424858D01*
X136994445Y-88432714D01*
X136960425Y-88505669D01*
X136960424Y-88505671D01*
X136957425Y-88516860D01*
X136951681Y-88533475D01*
X136945899Y-88547005D01*
X136945896Y-88547016D01*
X136926063Y-88633907D01*
X136903793Y-88717022D01*
X136903793Y-88717023D01*
X136902112Y-88736226D01*
X136900793Y-88744625D01*
X136895809Y-88766459D01*
X136895809Y-88766464D01*
X136891949Y-88852397D01*
X136884723Y-88934996D01*
X136884723Y-88935003D01*
X136482828Y-88935003D01*
X136484016Y-88931123D01*
X136487936Y-88900508D01*
X136489330Y-88893170D01*
X136496134Y-88866305D01*
X136503132Y-88781845D01*
X136514298Y-88694654D01*
X136513126Y-88667079D01*
X136513281Y-88659355D01*
X136515300Y-88635000D01*
X136515209Y-88633907D01*
X136508044Y-88547432D01*
X136504180Y-88456474D01*
X136504180Y-88456468D01*
X136499059Y-88432709D01*
X136497879Y-88424762D01*
X136496134Y-88403695D01*
X136496133Y-88403692D01*
X136496133Y-88403688D01*
X136473794Y-88315480D01*
X136472045Y-88307363D01*
X136453954Y-88223419D01*
X136446115Y-88203912D01*
X136443541Y-88196015D01*
X136439157Y-88178700D01*
X136401344Y-88092495D01*
X136365064Y-88002210D01*
X136355768Y-87987112D01*
X136351779Y-87979500D01*
X136345924Y-87966151D01*
X136292724Y-87884721D01*
X136240071Y-87799208D01*
X136240070Y-87799207D01*
X136240069Y-87799205D01*
X136233451Y-87791686D01*
X136222727Y-87777584D01*
X136218978Y-87771845D01*
X136150972Y-87697971D01*
X136082565Y-87620246D01*
X136077439Y-87616107D01*
X136064117Y-87603621D01*
X136061785Y-87601088D01*
X136061783Y-87601086D01*
X135980066Y-87537484D01*
X135897080Y-87470477D01*
X135897073Y-87470472D01*
X135894311Y-87468929D01*
X135878643Y-87458542D01*
X135878634Y-87458535D01*
X135878628Y-87458532D01*
X135878626Y-87458530D01*
X135784837Y-87407774D01*
X135688954Y-87354210D01*
X135688953Y-87354209D01*
X135688952Y-87354209D01*
X135686381Y-87353047D01*
X135679284Y-87349898D01*
X135679188Y-87350119D01*
X135674506Y-87348065D01*
X135570723Y-87312436D01*
X135464168Y-87274788D01*
X135464160Y-87274786D01*
X135463612Y-87274692D01*
X135458889Y-87273691D01*
X135454989Y-87272703D01*
X135343675Y-87254128D01*
X135229209Y-87234500D01*
X135229200Y-87234500D01*
X135226049Y-87234500D01*
X134993951Y-87234500D01*
X134993950Y-87234500D01*
X134937533Y-87243913D01*
X134932587Y-87244535D01*
X134930099Y-87244747D01*
X134872469Y-87249652D01*
X134872461Y-87249653D01*
X134820397Y-87263208D01*
X134814981Y-87264363D01*
X134765013Y-87272703D01*
X134707840Y-87292331D01*
X134703330Y-87293690D01*
X134641749Y-87309725D01*
X134641744Y-87309727D01*
X134595711Y-87330535D01*
X134590304Y-87332680D01*
X134545503Y-87348060D01*
X134545498Y-87348063D01*
X134489448Y-87378395D01*
X134485478Y-87380363D01*
X134424514Y-87407922D01*
X134385359Y-87434385D01*
X134380149Y-87437544D01*
X134341379Y-87458526D01*
X134341367Y-87458533D01*
X134288487Y-87499692D01*
X134285124Y-87502133D01*
X134227001Y-87541417D01*
X134226994Y-87541422D01*
X134195248Y-87571847D01*
X134190430Y-87576011D01*
X134158218Y-87601085D01*
X134158209Y-87601093D01*
X134110613Y-87652795D01*
X134107900Y-87655564D01*
X134054882Y-87706378D01*
X134054880Y-87706380D01*
X134030681Y-87739098D01*
X134026448Y-87744223D01*
X134001022Y-87771845D01*
X133960797Y-87833412D01*
X133958741Y-87836367D01*
X133913124Y-87898047D01*
X133913120Y-87898054D01*
X133896268Y-87931475D01*
X133892811Y-87937472D01*
X133874076Y-87966149D01*
X133843219Y-88036496D01*
X133841803Y-88039503D01*
X133805790Y-88110931D01*
X133795792Y-88143573D01*
X133793288Y-88150323D01*
X133780845Y-88178691D01*
X133780845Y-88178692D01*
X133761178Y-88256347D01*
X133760358Y-88259279D01*
X133735984Y-88338876D01*
X133735983Y-88338879D01*
X133732063Y-88369485D01*
X133730668Y-88376830D01*
X133723867Y-88403688D01*
X133723864Y-88403705D01*
X133716867Y-88488154D01*
X133705702Y-88575344D01*
X133705701Y-88575344D01*
X133706872Y-88602900D01*
X133706716Y-88610655D01*
X133704700Y-88634995D01*
X133704700Y-88635000D01*
X123350500Y-88635000D01*
X123350500Y-65474500D01*
X123370185Y-65407461D01*
X123422989Y-65361706D01*
X123474500Y-65350500D01*
X232025500Y-65350500D01*
X232092539Y-65370185D01*
G37*
%TD.AperFunction*%
%TA.AperFunction,Conductor*%
G36*
X176257587Y-123895185D02*
G01*
X176303342Y-123947989D01*
X176313286Y-124017147D01*
X176284261Y-124080703D01*
X176278229Y-124087181D01*
X174756208Y-125609199D01*
X174743951Y-125619020D01*
X174744134Y-125619241D01*
X174738123Y-125624213D01*
X174690772Y-125674636D01*
X174669889Y-125695519D01*
X174669877Y-125695532D01*
X174665621Y-125701017D01*
X174661837Y-125705447D01*
X174629937Y-125739418D01*
X174629936Y-125739420D01*
X174620284Y-125756976D01*
X174609610Y-125773226D01*
X174597329Y-125789061D01*
X174597324Y-125789068D01*
X174578815Y-125831838D01*
X174576245Y-125837084D01*
X174553803Y-125877906D01*
X174548822Y-125897307D01*
X174542521Y-125915710D01*
X174534562Y-125934102D01*
X174534561Y-125934105D01*
X174527271Y-125980127D01*
X174526087Y-125985846D01*
X174514501Y-126030972D01*
X174514500Y-126030982D01*
X174514500Y-126051016D01*
X174512973Y-126070415D01*
X174509840Y-126090194D01*
X174509840Y-126090195D01*
X174514225Y-126136583D01*
X174514500Y-126142421D01*
X174514500Y-126375811D01*
X174494815Y-126442850D01*
X174461623Y-126477386D01*
X174300859Y-126589953D01*
X174139954Y-126750858D01*
X174009433Y-126937264D01*
X174009432Y-126937266D01*
X174000118Y-126957241D01*
X173982106Y-126995867D01*
X173935933Y-127048306D01*
X173868739Y-127067457D01*
X173801858Y-127047241D01*
X173757342Y-126995865D01*
X173730135Y-126937520D01*
X173730134Y-126937518D01*
X173599657Y-126751179D01*
X173438820Y-126590342D01*
X173252482Y-126459865D01*
X173046328Y-126363734D01*
X172850000Y-126311127D01*
X172850000Y-127274314D01*
X172838045Y-127262359D01*
X172725148Y-127204835D01*
X172631481Y-127190000D01*
X172568519Y-127190000D01*
X172474852Y-127204835D01*
X172361955Y-127262359D01*
X172350000Y-127274314D01*
X172350000Y-126311127D01*
X172153671Y-126363734D01*
X171947517Y-126459865D01*
X171761179Y-126590342D01*
X171600342Y-126751179D01*
X171469867Y-126937515D01*
X171442657Y-126995867D01*
X171396484Y-127048306D01*
X171329290Y-127067457D01*
X171262409Y-127047241D01*
X171217893Y-126995865D01*
X171199882Y-126957241D01*
X171190568Y-126937266D01*
X171060047Y-126750861D01*
X171060045Y-126750858D01*
X170899141Y-126589954D01*
X170712734Y-126459432D01*
X170712732Y-126459431D01*
X170506497Y-126363261D01*
X170506488Y-126363258D01*
X170286697Y-126304366D01*
X170286693Y-126304365D01*
X170286692Y-126304365D01*
X170286691Y-126304364D01*
X170286686Y-126304364D01*
X170060002Y-126284532D01*
X170059998Y-126284532D01*
X169833313Y-126304364D01*
X169833302Y-126304366D01*
X169613511Y-126363258D01*
X169613502Y-126363261D01*
X169407267Y-126459431D01*
X169407265Y-126459432D01*
X169220858Y-126589954D01*
X169059954Y-126750858D01*
X168929432Y-126937265D01*
X168929431Y-126937267D01*
X168902382Y-126995275D01*
X168856209Y-127047714D01*
X168789016Y-127066866D01*
X168722135Y-127046650D01*
X168677618Y-126995275D01*
X168660103Y-126957714D01*
X168650568Y-126937266D01*
X168520047Y-126750861D01*
X168520045Y-126750858D01*
X168359141Y-126589954D01*
X168172734Y-126459432D01*
X168172732Y-126459431D01*
X167966497Y-126363261D01*
X167966488Y-126363258D01*
X167746697Y-126304366D01*
X167746693Y-126304365D01*
X167746692Y-126304365D01*
X167746691Y-126304364D01*
X167746686Y-126304364D01*
X167520002Y-126284532D01*
X167519998Y-126284532D01*
X167293313Y-126304364D01*
X167293302Y-126304366D01*
X167073511Y-126363258D01*
X167073502Y-126363261D01*
X166867267Y-126459431D01*
X166867265Y-126459432D01*
X166680858Y-126589954D01*
X166519954Y-126750858D01*
X166389432Y-126937265D01*
X166389431Y-126937267D01*
X166362382Y-126995275D01*
X166316209Y-127047714D01*
X166249016Y-127066866D01*
X166182135Y-127046650D01*
X166137618Y-126995275D01*
X166120103Y-126957714D01*
X166110568Y-126937266D01*
X165980047Y-126750861D01*
X165980045Y-126750858D01*
X165819141Y-126589954D01*
X165632734Y-126459432D01*
X165632732Y-126459431D01*
X165426497Y-126363261D01*
X165426488Y-126363258D01*
X165206697Y-126304366D01*
X165206693Y-126304365D01*
X165206692Y-126304365D01*
X165206691Y-126304364D01*
X165206686Y-126304364D01*
X164980002Y-126284532D01*
X164979998Y-126284532D01*
X164753313Y-126304364D01*
X164753302Y-126304366D01*
X164533511Y-126363258D01*
X164533502Y-126363261D01*
X164327267Y-126459431D01*
X164327265Y-126459432D01*
X164140858Y-126589954D01*
X163979954Y-126750858D01*
X163849432Y-126937265D01*
X163849431Y-126937267D01*
X163822382Y-126995275D01*
X163776209Y-127047714D01*
X163709016Y-127066866D01*
X163642135Y-127046650D01*
X163597618Y-126995275D01*
X163580103Y-126957714D01*
X163570568Y-126937266D01*
X163440047Y-126750861D01*
X163440045Y-126750858D01*
X163279141Y-126589954D01*
X163092734Y-126459432D01*
X163092732Y-126459431D01*
X162886497Y-126363261D01*
X162886488Y-126363258D01*
X162666697Y-126304366D01*
X162666693Y-126304365D01*
X162666692Y-126304365D01*
X162666691Y-126304364D01*
X162666686Y-126304364D01*
X162440002Y-126284532D01*
X162439998Y-126284532D01*
X162213313Y-126304364D01*
X162213302Y-126304366D01*
X161993511Y-126363258D01*
X161993502Y-126363261D01*
X161787267Y-126459431D01*
X161787265Y-126459432D01*
X161600858Y-126589954D01*
X161439954Y-126750858D01*
X161309432Y-126937265D01*
X161309431Y-126937267D01*
X161282382Y-126995275D01*
X161236209Y-127047714D01*
X161169016Y-127066866D01*
X161102135Y-127046650D01*
X161057618Y-126995275D01*
X161040103Y-126957714D01*
X161030568Y-126937266D01*
X160900047Y-126750861D01*
X160900045Y-126750858D01*
X160739141Y-126589954D01*
X160552734Y-126459432D01*
X160552732Y-126459431D01*
X160346497Y-126363261D01*
X160346488Y-126363258D01*
X160126697Y-126304366D01*
X160126693Y-126304365D01*
X160126692Y-126304365D01*
X160126691Y-126304364D01*
X160126686Y-126304364D01*
X159900002Y-126284532D01*
X159899998Y-126284532D01*
X159673313Y-126304364D01*
X159673302Y-126304366D01*
X159453511Y-126363258D01*
X159453502Y-126363261D01*
X159247267Y-126459431D01*
X159247265Y-126459432D01*
X159060858Y-126589954D01*
X158899951Y-126750861D01*
X158882287Y-126776088D01*
X158827710Y-126819712D01*
X158758211Y-126826904D01*
X158695857Y-126795380D01*
X158660445Y-126735150D01*
X158657425Y-126718218D01*
X158653598Y-126682627D01*
X158653596Y-126682620D01*
X158603354Y-126547913D01*
X158603350Y-126547906D01*
X158517190Y-126432812D01*
X158517187Y-126432809D01*
X158402093Y-126346649D01*
X158402086Y-126346645D01*
X158267379Y-126296403D01*
X158267372Y-126296401D01*
X158207844Y-126290000D01*
X157610000Y-126290000D01*
X157610000Y-127274314D01*
X157598045Y-127262359D01*
X157485148Y-127204835D01*
X157391481Y-127190000D01*
X157328519Y-127190000D01*
X157234852Y-127204835D01*
X157121955Y-127262359D01*
X157110000Y-127274314D01*
X157110000Y-126290000D01*
X156512155Y-126290000D01*
X156452627Y-126296401D01*
X156452620Y-126296403D01*
X156317913Y-126346645D01*
X156317906Y-126346649D01*
X156202812Y-126432809D01*
X156202809Y-126432812D01*
X156116649Y-126547906D01*
X156116645Y-126547913D01*
X156066403Y-126682620D01*
X156066401Y-126682627D01*
X156060000Y-126742155D01*
X156060000Y-127340000D01*
X157044314Y-127340000D01*
X157032359Y-127351955D01*
X156974835Y-127464852D01*
X156955014Y-127590000D01*
X156974835Y-127715148D01*
X157032359Y-127828045D01*
X157044314Y-127840000D01*
X156060000Y-127840000D01*
X156060000Y-128437844D01*
X156066401Y-128497372D01*
X156066403Y-128497379D01*
X156116645Y-128632086D01*
X156116649Y-128632093D01*
X156202809Y-128747187D01*
X156202812Y-128747190D01*
X156317906Y-128833350D01*
X156317913Y-128833354D01*
X156452620Y-128883596D01*
X156452627Y-128883598D01*
X156512155Y-128889999D01*
X156512172Y-128890000D01*
X157110000Y-128890000D01*
X157110000Y-127905686D01*
X157121955Y-127917641D01*
X157234852Y-127975165D01*
X157328519Y-127990000D01*
X157391481Y-127990000D01*
X157485148Y-127975165D01*
X157598045Y-127917641D01*
X157610000Y-127905686D01*
X157610000Y-128890000D01*
X158207828Y-128890000D01*
X158207844Y-128889999D01*
X158267372Y-128883598D01*
X158267379Y-128883596D01*
X158402086Y-128833354D01*
X158402093Y-128833350D01*
X158517187Y-128747190D01*
X158517190Y-128747187D01*
X158603350Y-128632093D01*
X158603354Y-128632086D01*
X158653596Y-128497380D01*
X158657424Y-128461781D01*
X158684162Y-128397230D01*
X158741555Y-128357382D01*
X158811380Y-128354888D01*
X158871469Y-128390540D01*
X158882289Y-128403912D01*
X158899956Y-128429143D01*
X159060858Y-128590045D01*
X159221623Y-128702613D01*
X159265248Y-128757189D01*
X159274500Y-128804188D01*
X159274500Y-137039547D01*
X159254815Y-137106586D01*
X159238181Y-137127228D01*
X153777228Y-142588181D01*
X153715905Y-142621666D01*
X153689547Y-142624500D01*
X135310452Y-142624500D01*
X135243413Y-142604815D01*
X135222771Y-142588181D01*
X133811819Y-141177228D01*
X133778334Y-141115905D01*
X133775500Y-141089547D01*
X133775500Y-128804188D01*
X133795185Y-128737149D01*
X133828377Y-128702613D01*
X133917798Y-128640000D01*
X133989139Y-128590047D01*
X134150047Y-128429139D01*
X134280568Y-128242734D01*
X134307618Y-128184724D01*
X134353790Y-128132285D01*
X134420983Y-128113133D01*
X134487865Y-128133348D01*
X134532382Y-128184725D01*
X134559429Y-128242728D01*
X134559432Y-128242734D01*
X134689954Y-128429141D01*
X134850858Y-128590045D01*
X135011623Y-128702613D01*
X135055248Y-128757189D01*
X135064500Y-128804188D01*
X135064500Y-136607255D01*
X135062775Y-136622872D01*
X135063061Y-136622899D01*
X135062326Y-136630665D01*
X135064500Y-136699814D01*
X135064500Y-136729343D01*
X135064501Y-136729360D01*
X135065368Y-136736231D01*
X135065826Y-136742050D01*
X135067290Y-136788624D01*
X135067291Y-136788627D01*
X135072880Y-136807867D01*
X135076824Y-136826911D01*
X135079336Y-136846792D01*
X135088447Y-136869804D01*
X135096490Y-136890119D01*
X135098382Y-136895647D01*
X135111381Y-136940388D01*
X135121580Y-136957634D01*
X135130138Y-136975103D01*
X135140386Y-137000984D01*
X135137839Y-137001992D01*
X135149500Y-137047371D01*
X135149500Y-137925001D01*
X135149501Y-137925019D01*
X135160000Y-138027796D01*
X135160001Y-138027799D01*
X135190986Y-138121303D01*
X135215186Y-138194334D01*
X135307288Y-138343656D01*
X135431344Y-138467712D01*
X135580666Y-138559814D01*
X135747203Y-138614999D01*
X135849991Y-138625500D01*
X136650008Y-138625499D01*
X136650016Y-138625498D01*
X136650019Y-138625498D01*
X136711143Y-138619254D01*
X136752797Y-138614999D01*
X136919334Y-138559814D01*
X137068656Y-138467712D01*
X137192712Y-138343656D01*
X137231815Y-138280258D01*
X137283761Y-138233535D01*
X137352723Y-138222312D01*
X137416806Y-138250155D01*
X137434824Y-138268705D01*
X137449907Y-138287885D01*
X137449909Y-138287887D01*
X137608746Y-138425521D01*
X137790750Y-138530601D01*
X137790752Y-138530601D01*
X137790756Y-138530604D01*
X137989367Y-138599344D01*
X138197398Y-138629254D01*
X138407330Y-138619254D01*
X138611576Y-138569704D01*
X138723248Y-138518705D01*
X138802743Y-138482401D01*
X138802746Y-138482399D01*
X138802753Y-138482396D01*
X138973952Y-138360486D01*
X138975195Y-138359183D01*
X139118986Y-138208378D01*
X139128010Y-138194336D01*
X139145540Y-138167058D01*
X139198343Y-138121303D01*
X139267502Y-138111359D01*
X139331058Y-138140383D01*
X139347326Y-138157444D01*
X139410247Y-138237454D01*
X139441975Y-138277799D01*
X139449909Y-138287887D01*
X139608746Y-138425521D01*
X139790750Y-138530601D01*
X139790752Y-138530601D01*
X139790756Y-138530604D01*
X139989367Y-138599344D01*
X140197398Y-138629254D01*
X140407330Y-138619254D01*
X140611576Y-138569704D01*
X140723248Y-138518705D01*
X140802743Y-138482401D01*
X140802746Y-138482399D01*
X140802753Y-138482396D01*
X140973952Y-138360486D01*
X140975195Y-138359183D01*
X141118986Y-138208378D01*
X141128010Y-138194336D01*
X141145540Y-138167058D01*
X141198343Y-138121303D01*
X141267502Y-138111359D01*
X141331058Y-138140383D01*
X141347326Y-138157444D01*
X141410247Y-138237454D01*
X141441975Y-138277799D01*
X141449909Y-138287887D01*
X141608746Y-138425521D01*
X141790750Y-138530601D01*
X141790752Y-138530601D01*
X141790756Y-138530604D01*
X141989367Y-138599344D01*
X142197398Y-138629254D01*
X142407330Y-138619254D01*
X142611576Y-138569704D01*
X142723248Y-138518705D01*
X142802743Y-138482401D01*
X142802746Y-138482399D01*
X142802753Y-138482396D01*
X142973952Y-138360486D01*
X142975195Y-138359183D01*
X143118985Y-138208379D01*
X143128010Y-138194336D01*
X143232613Y-138031572D01*
X143310725Y-137836457D01*
X143350500Y-137630085D01*
X143350500Y-137085452D01*
X143370185Y-137018413D01*
X143386819Y-136997771D01*
X143540039Y-136844551D01*
X143693788Y-136690801D01*
X143706042Y-136680986D01*
X143705859Y-136680764D01*
X143711866Y-136675792D01*
X143711877Y-136675786D01*
X143745933Y-136639520D01*
X143759227Y-136625364D01*
X143769671Y-136614918D01*
X143780120Y-136604471D01*
X143784379Y-136598978D01*
X143788152Y-136594561D01*
X143820062Y-136560582D01*
X143829713Y-136543024D01*
X143840396Y-136526761D01*
X143852673Y-136510936D01*
X143871185Y-136468153D01*
X143873738Y-136462941D01*
X143896197Y-136422092D01*
X143901180Y-136402680D01*
X143907481Y-136384280D01*
X143915437Y-136365896D01*
X143922729Y-136319852D01*
X143923906Y-136314171D01*
X143935500Y-136269019D01*
X143935500Y-136248983D01*
X143937027Y-136229582D01*
X143938290Y-136221608D01*
X143940160Y-136209804D01*
X143935775Y-136163415D01*
X143935500Y-136157577D01*
X143935500Y-128804188D01*
X143955185Y-128737149D01*
X143988377Y-128702613D01*
X144077798Y-128640000D01*
X144149139Y-128590047D01*
X144310047Y-128429139D01*
X144440568Y-128242734D01*
X144467895Y-128184129D01*
X144514064Y-128131695D01*
X144581257Y-128112542D01*
X144648139Y-128132757D01*
X144692657Y-128184133D01*
X144719865Y-128242482D01*
X144850342Y-128428820D01*
X145011179Y-128589657D01*
X145197517Y-128720134D01*
X145403673Y-128816265D01*
X145403682Y-128816269D01*
X145599999Y-128868872D01*
X145600000Y-128868871D01*
X145600000Y-127905686D01*
X145611955Y-127917641D01*
X145724852Y-127975165D01*
X145818519Y-127990000D01*
X145881481Y-127990000D01*
X145975148Y-127975165D01*
X146088045Y-127917641D01*
X146100000Y-127905686D01*
X146100000Y-128868872D01*
X146296317Y-128816269D01*
X146296326Y-128816265D01*
X146502482Y-128720134D01*
X146688820Y-128589657D01*
X146849657Y-128428820D01*
X146980132Y-128242484D01*
X147007341Y-128184134D01*
X147053513Y-128131695D01*
X147120707Y-128112542D01*
X147187588Y-128132757D01*
X147232106Y-128184133D01*
X147259431Y-128242732D01*
X147259432Y-128242734D01*
X147389954Y-128429141D01*
X147550858Y-128590045D01*
X147550861Y-128590047D01*
X147737266Y-128720568D01*
X147943504Y-128816739D01*
X148163308Y-128875635D01*
X148325230Y-128889801D01*
X148389998Y-128895468D01*
X148390000Y-128895468D01*
X148390002Y-128895468D01*
X148452511Y-128889999D01*
X148616692Y-128875635D01*
X148836496Y-128816739D01*
X149042734Y-128720568D01*
X149229139Y-128590047D01*
X149390047Y-128429139D01*
X149520568Y-128242734D01*
X149616739Y-128036496D01*
X149675635Y-127816692D01*
X149695468Y-127590000D01*
X149675635Y-127363308D01*
X149657318Y-127294948D01*
X149658981Y-127225103D01*
X149689410Y-127175179D01*
X152952772Y-123911819D01*
X153014095Y-123878334D01*
X153040453Y-123875500D01*
X176190548Y-123875500D01*
X176257587Y-123895185D01*
G37*
%TD.AperFunction*%
%TA.AperFunction,Conductor*%
G36*
X201757587Y-123895185D02*
G01*
X201803342Y-123947989D01*
X201813286Y-124017147D01*
X201784261Y-124080703D01*
X201778229Y-124087181D01*
X200776208Y-125089199D01*
X200763951Y-125099020D01*
X200764134Y-125099241D01*
X200758123Y-125104213D01*
X200710772Y-125154636D01*
X200689889Y-125175519D01*
X200689877Y-125175532D01*
X200685621Y-125181017D01*
X200681837Y-125185447D01*
X200649937Y-125219418D01*
X200649936Y-125219420D01*
X200640284Y-125236976D01*
X200629610Y-125253226D01*
X200617329Y-125269061D01*
X200617324Y-125269068D01*
X200598815Y-125311838D01*
X200596245Y-125317084D01*
X200573803Y-125357906D01*
X200568822Y-125377307D01*
X200562521Y-125395710D01*
X200554562Y-125414102D01*
X200554561Y-125414105D01*
X200547271Y-125460127D01*
X200546087Y-125465846D01*
X200534501Y-125510972D01*
X200534500Y-125510982D01*
X200534500Y-125531016D01*
X200532973Y-125550415D01*
X200529840Y-125570194D01*
X200529840Y-125570195D01*
X200534225Y-125616583D01*
X200534500Y-125622421D01*
X200534500Y-126285811D01*
X200514815Y-126352850D01*
X200481623Y-126387386D01*
X200320859Y-126499953D01*
X200159954Y-126660858D01*
X200050718Y-126816866D01*
X200029432Y-126847266D01*
X200007868Y-126893511D01*
X200002106Y-126905867D01*
X199955933Y-126958306D01*
X199888739Y-126977457D01*
X199821858Y-126957241D01*
X199777342Y-126905865D01*
X199750135Y-126847520D01*
X199750134Y-126847518D01*
X199619657Y-126661179D01*
X199458820Y-126500342D01*
X199272482Y-126369865D01*
X199066328Y-126273734D01*
X198870000Y-126221127D01*
X198870000Y-127184314D01*
X198858045Y-127172359D01*
X198745148Y-127114835D01*
X198651481Y-127100000D01*
X198588519Y-127100000D01*
X198494852Y-127114835D01*
X198381955Y-127172359D01*
X198370000Y-127184314D01*
X198370000Y-126221127D01*
X198173671Y-126273734D01*
X197967517Y-126369865D01*
X197781179Y-126500342D01*
X197620342Y-126661179D01*
X197489867Y-126847515D01*
X197462657Y-126905867D01*
X197416484Y-126958306D01*
X197349290Y-126977457D01*
X197282409Y-126957241D01*
X197237893Y-126905865D01*
X197232132Y-126893511D01*
X197210568Y-126847266D01*
X197080047Y-126660861D01*
X197080045Y-126660858D01*
X196919141Y-126499954D01*
X196732734Y-126369432D01*
X196732732Y-126369431D01*
X196526497Y-126273261D01*
X196526488Y-126273258D01*
X196306697Y-126214366D01*
X196306693Y-126214365D01*
X196306692Y-126214365D01*
X196306691Y-126214364D01*
X196306686Y-126214364D01*
X196080002Y-126194532D01*
X196079998Y-126194532D01*
X195853313Y-126214364D01*
X195853302Y-126214366D01*
X195633511Y-126273258D01*
X195633502Y-126273261D01*
X195427267Y-126369431D01*
X195427265Y-126369432D01*
X195240858Y-126499954D01*
X195079954Y-126660858D01*
X194949432Y-126847265D01*
X194949431Y-126847267D01*
X194930310Y-126888272D01*
X194927868Y-126893511D01*
X194922382Y-126905275D01*
X194876209Y-126957714D01*
X194809016Y-126976866D01*
X194742135Y-126956650D01*
X194697618Y-126905275D01*
X194670568Y-126847266D01*
X194540047Y-126660861D01*
X194540045Y-126660858D01*
X194379141Y-126499954D01*
X194192734Y-126369432D01*
X194192732Y-126369431D01*
X193986497Y-126273261D01*
X193986488Y-126273258D01*
X193766697Y-126214366D01*
X193766693Y-126214365D01*
X193766692Y-126214365D01*
X193766691Y-126214364D01*
X193766686Y-126214364D01*
X193540002Y-126194532D01*
X193539998Y-126194532D01*
X193313313Y-126214364D01*
X193313302Y-126214366D01*
X193093511Y-126273258D01*
X193093502Y-126273261D01*
X192887267Y-126369431D01*
X192887265Y-126369432D01*
X192700858Y-126499954D01*
X192539954Y-126660858D01*
X192409432Y-126847265D01*
X192409431Y-126847267D01*
X192390310Y-126888272D01*
X192387868Y-126893511D01*
X192382382Y-126905275D01*
X192336209Y-126957714D01*
X192269016Y-126976866D01*
X192202135Y-126956650D01*
X192157618Y-126905275D01*
X192130568Y-126847266D01*
X192000047Y-126660861D01*
X192000045Y-126660858D01*
X191839141Y-126499954D01*
X191652734Y-126369432D01*
X191652732Y-126369431D01*
X191446497Y-126273261D01*
X191446488Y-126273258D01*
X191226697Y-126214366D01*
X191226693Y-126214365D01*
X191226692Y-126214365D01*
X191226691Y-126214364D01*
X191226686Y-126214364D01*
X191000002Y-126194532D01*
X190999998Y-126194532D01*
X190773313Y-126214364D01*
X190773302Y-126214366D01*
X190553511Y-126273258D01*
X190553502Y-126273261D01*
X190347267Y-126369431D01*
X190347265Y-126369432D01*
X190160858Y-126499954D01*
X189999954Y-126660858D01*
X189869432Y-126847265D01*
X189869431Y-126847267D01*
X189850310Y-126888272D01*
X189847868Y-126893511D01*
X189842382Y-126905275D01*
X189796209Y-126957714D01*
X189729016Y-126976866D01*
X189662135Y-126956650D01*
X189617618Y-126905275D01*
X189590568Y-126847266D01*
X189460047Y-126660861D01*
X189460045Y-126660858D01*
X189299141Y-126499954D01*
X189112734Y-126369432D01*
X189112732Y-126369431D01*
X188906497Y-126273261D01*
X188906488Y-126273258D01*
X188686697Y-126214366D01*
X188686693Y-126214365D01*
X188686692Y-126214365D01*
X188686691Y-126214364D01*
X188686686Y-126214364D01*
X188460002Y-126194532D01*
X188459998Y-126194532D01*
X188233313Y-126214364D01*
X188233302Y-126214366D01*
X188013511Y-126273258D01*
X188013502Y-126273261D01*
X187807267Y-126369431D01*
X187807265Y-126369432D01*
X187620858Y-126499954D01*
X187459954Y-126660858D01*
X187329432Y-126847265D01*
X187329431Y-126847267D01*
X187310310Y-126888272D01*
X187307868Y-126893511D01*
X187302382Y-126905275D01*
X187256209Y-126957714D01*
X187189016Y-126976866D01*
X187122135Y-126956650D01*
X187077618Y-126905275D01*
X187050568Y-126847266D01*
X186920047Y-126660861D01*
X186920045Y-126660858D01*
X186759141Y-126499954D01*
X186572734Y-126369432D01*
X186572732Y-126369431D01*
X186366497Y-126273261D01*
X186366488Y-126273258D01*
X186146697Y-126214366D01*
X186146693Y-126214365D01*
X186146692Y-126214365D01*
X186146691Y-126214364D01*
X186146686Y-126214364D01*
X185920002Y-126194532D01*
X185919998Y-126194532D01*
X185693313Y-126214364D01*
X185693302Y-126214366D01*
X185473511Y-126273258D01*
X185473502Y-126273261D01*
X185267267Y-126369431D01*
X185267265Y-126369432D01*
X185080858Y-126499954D01*
X184919951Y-126660861D01*
X184902287Y-126686088D01*
X184847710Y-126729712D01*
X184778211Y-126736904D01*
X184715857Y-126705380D01*
X184680445Y-126645150D01*
X184677425Y-126628218D01*
X184673598Y-126592627D01*
X184673596Y-126592620D01*
X184623354Y-126457913D01*
X184623350Y-126457906D01*
X184537190Y-126342812D01*
X184537187Y-126342809D01*
X184422093Y-126256649D01*
X184422086Y-126256645D01*
X184287379Y-126206403D01*
X184287372Y-126206401D01*
X184227844Y-126200000D01*
X183630000Y-126200000D01*
X183630000Y-127184314D01*
X183618045Y-127172359D01*
X183505148Y-127114835D01*
X183411481Y-127100000D01*
X183348519Y-127100000D01*
X183254852Y-127114835D01*
X183141955Y-127172359D01*
X183130000Y-127184314D01*
X183130000Y-126200000D01*
X182532155Y-126200000D01*
X182472627Y-126206401D01*
X182472620Y-126206403D01*
X182337913Y-126256645D01*
X182337906Y-126256649D01*
X182222812Y-126342809D01*
X182222809Y-126342812D01*
X182136649Y-126457906D01*
X182136645Y-126457913D01*
X182086403Y-126592620D01*
X182086401Y-126592627D01*
X182080000Y-126652155D01*
X182080000Y-127250000D01*
X183064314Y-127250000D01*
X183052359Y-127261955D01*
X182994835Y-127374852D01*
X182975014Y-127500000D01*
X182994835Y-127625148D01*
X183052359Y-127738045D01*
X183064314Y-127750000D01*
X182080000Y-127750000D01*
X182080000Y-128347844D01*
X182086401Y-128407372D01*
X182086403Y-128407379D01*
X182136645Y-128542086D01*
X182136649Y-128542093D01*
X182222809Y-128657187D01*
X182222812Y-128657190D01*
X182337906Y-128743350D01*
X182337913Y-128743354D01*
X182472620Y-128793596D01*
X182472627Y-128793598D01*
X182532155Y-128799999D01*
X182532172Y-128800000D01*
X183130000Y-128800000D01*
X183130000Y-127815686D01*
X183141955Y-127827641D01*
X183254852Y-127885165D01*
X183348519Y-127900000D01*
X183411481Y-127900000D01*
X183505148Y-127885165D01*
X183618045Y-127827641D01*
X183630000Y-127815686D01*
X183630000Y-128800000D01*
X184227828Y-128800000D01*
X184227844Y-128799999D01*
X184287372Y-128793598D01*
X184287379Y-128793596D01*
X184422086Y-128743354D01*
X184422093Y-128743350D01*
X184537187Y-128657190D01*
X184537190Y-128657187D01*
X184623350Y-128542093D01*
X184623354Y-128542086D01*
X184673596Y-128407380D01*
X184677424Y-128371781D01*
X184704162Y-128307230D01*
X184761555Y-128267382D01*
X184831380Y-128264888D01*
X184891469Y-128300540D01*
X184902289Y-128313912D01*
X184919956Y-128339143D01*
X185080858Y-128500045D01*
X185241623Y-128612613D01*
X185285248Y-128667189D01*
X185294500Y-128714188D01*
X185294500Y-136019547D01*
X185274815Y-136086586D01*
X185258181Y-136107228D01*
X178777228Y-142588181D01*
X178715905Y-142621666D01*
X178689547Y-142624500D01*
X155809452Y-142624500D01*
X155742413Y-142604815D01*
X155696658Y-142552011D01*
X155686714Y-142482853D01*
X155715739Y-142419297D01*
X155721771Y-142412819D01*
X157045043Y-141089547D01*
X160283788Y-137850801D01*
X160296042Y-137840986D01*
X160295859Y-137840764D01*
X160301866Y-137835792D01*
X160301877Y-137835786D01*
X160332775Y-137802882D01*
X160349227Y-137785364D01*
X160359671Y-137774918D01*
X160370120Y-137764471D01*
X160374379Y-137758978D01*
X160378152Y-137754561D01*
X160410062Y-137720582D01*
X160419715Y-137703020D01*
X160430389Y-137686770D01*
X160442673Y-137670936D01*
X160461180Y-137628167D01*
X160463749Y-137622924D01*
X160486196Y-137582093D01*
X160486197Y-137582092D01*
X160491177Y-137562691D01*
X160497478Y-137544288D01*
X160505438Y-137525896D01*
X160512730Y-137479849D01*
X160513911Y-137474152D01*
X160525500Y-137429019D01*
X160525500Y-137408983D01*
X160527027Y-137389582D01*
X160530160Y-137369804D01*
X160525775Y-137323415D01*
X160525500Y-137317577D01*
X160525500Y-128804188D01*
X160545185Y-128737149D01*
X160578377Y-128702613D01*
X160667798Y-128640000D01*
X160739139Y-128590047D01*
X160900047Y-128429139D01*
X161030568Y-128242734D01*
X161057618Y-128184724D01*
X161103790Y-128132285D01*
X161170983Y-128113133D01*
X161237865Y-128133348D01*
X161282382Y-128184725D01*
X161309429Y-128242728D01*
X161309432Y-128242734D01*
X161439954Y-128429141D01*
X161600858Y-128590045D01*
X161761623Y-128702613D01*
X161805248Y-128757189D01*
X161814500Y-128804188D01*
X161814500Y-136609485D01*
X161796039Y-136674581D01*
X161715189Y-136805659D01*
X161715185Y-136805668D01*
X161698723Y-136855348D01*
X161660001Y-136972203D01*
X161660001Y-136972204D01*
X161660000Y-136972204D01*
X161649500Y-137074983D01*
X161649500Y-138425001D01*
X161649501Y-138425018D01*
X161660000Y-138527796D01*
X161660001Y-138527799D01*
X161715185Y-138694331D01*
X161715187Y-138694336D01*
X161732443Y-138722312D01*
X161807288Y-138843656D01*
X161931344Y-138967712D01*
X162080666Y-139059814D01*
X162247203Y-139114999D01*
X162349991Y-139125500D01*
X163150008Y-139125499D01*
X163150016Y-139125498D01*
X163150019Y-139125498D01*
X163211143Y-139119254D01*
X163252797Y-139114999D01*
X163419334Y-139059814D01*
X163568656Y-138967712D01*
X163692712Y-138843656D01*
X163731815Y-138780258D01*
X163783761Y-138733535D01*
X163852723Y-138722312D01*
X163916806Y-138750155D01*
X163934824Y-138768705D01*
X163949907Y-138787885D01*
X163949909Y-138787887D01*
X164108746Y-138925521D01*
X164290750Y-139030601D01*
X164290752Y-139030601D01*
X164290756Y-139030604D01*
X164489367Y-139099344D01*
X164697398Y-139129254D01*
X164907330Y-139119254D01*
X165111576Y-139069704D01*
X165197199Y-139030601D01*
X165302743Y-138982401D01*
X165302746Y-138982399D01*
X165302753Y-138982396D01*
X165473952Y-138860486D01*
X165489999Y-138843657D01*
X165618986Y-138708378D01*
X165628010Y-138694336D01*
X165645540Y-138667058D01*
X165698343Y-138621303D01*
X165767502Y-138611359D01*
X165831058Y-138640383D01*
X165847326Y-138657444D01*
X165912904Y-138740832D01*
X165944181Y-138780604D01*
X165949909Y-138787887D01*
X166108746Y-138925521D01*
X166290750Y-139030601D01*
X166290752Y-139030601D01*
X166290756Y-139030604D01*
X166489367Y-139099344D01*
X166697398Y-139129254D01*
X166907330Y-139119254D01*
X167111576Y-139069704D01*
X167197199Y-139030601D01*
X167302743Y-138982401D01*
X167302746Y-138982399D01*
X167302753Y-138982396D01*
X167473952Y-138860486D01*
X167489999Y-138843657D01*
X167618986Y-138708378D01*
X167628010Y-138694336D01*
X167645540Y-138667058D01*
X167698343Y-138621303D01*
X167767502Y-138611359D01*
X167831058Y-138640383D01*
X167847326Y-138657444D01*
X167912904Y-138740832D01*
X167944181Y-138780604D01*
X167949909Y-138787887D01*
X168108746Y-138925521D01*
X168290750Y-139030601D01*
X168290752Y-139030601D01*
X168290756Y-139030604D01*
X168489367Y-139099344D01*
X168697398Y-139129254D01*
X168907330Y-139119254D01*
X169111576Y-139069704D01*
X169197199Y-139030601D01*
X169302743Y-138982401D01*
X169302746Y-138982399D01*
X169302753Y-138982396D01*
X169473952Y-138860486D01*
X169489999Y-138843657D01*
X169618985Y-138708379D01*
X169628010Y-138694336D01*
X169732613Y-138531572D01*
X169810725Y-138336457D01*
X169850500Y-138130085D01*
X169850500Y-137585451D01*
X169870185Y-137518412D01*
X169886815Y-137497774D01*
X170443786Y-136940802D01*
X170456048Y-136930980D01*
X170455865Y-136930759D01*
X170461867Y-136925792D01*
X170461877Y-136925786D01*
X170509241Y-136875348D01*
X170530120Y-136854470D01*
X170534373Y-136848986D01*
X170538150Y-136844563D01*
X170570062Y-136810582D01*
X170579714Y-136793023D01*
X170590389Y-136776772D01*
X170602674Y-136760936D01*
X170621186Y-136718152D01*
X170623742Y-136712935D01*
X170644829Y-136674581D01*
X170646194Y-136672098D01*
X170646194Y-136672097D01*
X170646197Y-136672092D01*
X170651180Y-136652680D01*
X170657477Y-136634291D01*
X170665438Y-136615895D01*
X170672729Y-136569853D01*
X170673908Y-136564162D01*
X170685500Y-136519019D01*
X170685500Y-136498983D01*
X170687027Y-136479582D01*
X170687122Y-136478983D01*
X170690160Y-136459804D01*
X170685775Y-136413415D01*
X170685500Y-136407577D01*
X170685500Y-128804188D01*
X170705185Y-128737149D01*
X170738377Y-128702613D01*
X170827798Y-128640000D01*
X170899139Y-128590047D01*
X171060047Y-128429139D01*
X171190568Y-128242734D01*
X171217895Y-128184129D01*
X171264064Y-128131695D01*
X171331257Y-128112542D01*
X171398139Y-128132757D01*
X171442657Y-128184133D01*
X171469865Y-128242482D01*
X171600342Y-128428820D01*
X171761179Y-128589657D01*
X171947517Y-128720134D01*
X172153673Y-128816265D01*
X172153682Y-128816269D01*
X172349999Y-128868872D01*
X172350000Y-128868871D01*
X172350000Y-127905686D01*
X172361955Y-127917641D01*
X172474852Y-127975165D01*
X172568519Y-127990000D01*
X172631481Y-127990000D01*
X172725148Y-127975165D01*
X172838045Y-127917641D01*
X172850000Y-127905686D01*
X172850000Y-128868872D01*
X173046317Y-128816269D01*
X173046326Y-128816265D01*
X173252482Y-128720134D01*
X173438820Y-128589657D01*
X173599657Y-128428820D01*
X173730132Y-128242484D01*
X173757341Y-128184134D01*
X173803513Y-128131695D01*
X173870707Y-128112542D01*
X173937588Y-128132757D01*
X173982106Y-128184133D01*
X174009431Y-128242732D01*
X174009432Y-128242734D01*
X174139954Y-128429141D01*
X174300858Y-128590045D01*
X174300861Y-128590047D01*
X174487266Y-128720568D01*
X174693504Y-128816739D01*
X174913308Y-128875635D01*
X175075230Y-128889801D01*
X175139998Y-128895468D01*
X175140000Y-128895468D01*
X175140002Y-128895468D01*
X175202511Y-128889999D01*
X175366692Y-128875635D01*
X175586496Y-128816739D01*
X175792734Y-128720568D01*
X175979139Y-128590047D01*
X176140047Y-128429139D01*
X176270568Y-128242734D01*
X176366739Y-128036496D01*
X176425635Y-127816692D01*
X176445468Y-127590000D01*
X176425635Y-127363308D01*
X176366739Y-127143504D01*
X176270568Y-126937266D01*
X176140047Y-126750861D01*
X176140045Y-126750858D01*
X175979141Y-126589954D01*
X175844632Y-126495771D01*
X175801007Y-126441195D01*
X175793813Y-126371696D01*
X175825335Y-126309341D01*
X175828042Y-126306547D01*
X178222771Y-123911819D01*
X178284094Y-123878334D01*
X178310452Y-123875500D01*
X201690548Y-123875500D01*
X201757587Y-123895185D01*
G37*
%TD.AperFunction*%
%TA.AperFunction,Conductor*%
G36*
X224506587Y-123895185D02*
G01*
X224527228Y-123911818D01*
X226790431Y-126175022D01*
X226823915Y-126236343D01*
X226818931Y-126306035D01*
X226790431Y-126350382D01*
X226639951Y-126500862D01*
X226509433Y-126687264D01*
X226509432Y-126687266D01*
X226486286Y-126736904D01*
X226482106Y-126745867D01*
X226435933Y-126798306D01*
X226368739Y-126817457D01*
X226301858Y-126797241D01*
X226257342Y-126745865D01*
X226230135Y-126687520D01*
X226230134Y-126687518D01*
X226099657Y-126501179D01*
X225938820Y-126340342D01*
X225752482Y-126209865D01*
X225546328Y-126113734D01*
X225350000Y-126061127D01*
X225350000Y-127024314D01*
X225338045Y-127012359D01*
X225225148Y-126954835D01*
X225131481Y-126940000D01*
X225068519Y-126940000D01*
X224974852Y-126954835D01*
X224861955Y-127012359D01*
X224850000Y-127024314D01*
X224850000Y-126061127D01*
X224653671Y-126113734D01*
X224447517Y-126209865D01*
X224261179Y-126340342D01*
X224100342Y-126501179D01*
X223969867Y-126687515D01*
X223942657Y-126745867D01*
X223896484Y-126798306D01*
X223829290Y-126817457D01*
X223762409Y-126797241D01*
X223717893Y-126745865D01*
X223713714Y-126736904D01*
X223690568Y-126687266D01*
X223560047Y-126500861D01*
X223560045Y-126500858D01*
X223399141Y-126339954D01*
X223212734Y-126209432D01*
X223212732Y-126209431D01*
X223006497Y-126113261D01*
X223006488Y-126113258D01*
X222786697Y-126054366D01*
X222786693Y-126054365D01*
X222786692Y-126054365D01*
X222786691Y-126054364D01*
X222786686Y-126054364D01*
X222560002Y-126034532D01*
X222559998Y-126034532D01*
X222333313Y-126054364D01*
X222333302Y-126054366D01*
X222113511Y-126113258D01*
X222113502Y-126113261D01*
X221907267Y-126209431D01*
X221907265Y-126209432D01*
X221720858Y-126339954D01*
X221559954Y-126500858D01*
X221429432Y-126687265D01*
X221429431Y-126687267D01*
X221402382Y-126745275D01*
X221356209Y-126797714D01*
X221289016Y-126816866D01*
X221222135Y-126796650D01*
X221177618Y-126745275D01*
X221176163Y-126742155D01*
X221150568Y-126687266D01*
X221020047Y-126500861D01*
X221020045Y-126500858D01*
X220859141Y-126339954D01*
X220672734Y-126209432D01*
X220672732Y-126209431D01*
X220466497Y-126113261D01*
X220466488Y-126113258D01*
X220246697Y-126054366D01*
X220246693Y-126054365D01*
X220246692Y-126054365D01*
X220246691Y-126054364D01*
X220246686Y-126054364D01*
X220020002Y-126034532D01*
X220019998Y-126034532D01*
X219793313Y-126054364D01*
X219793302Y-126054366D01*
X219573511Y-126113258D01*
X219573502Y-126113261D01*
X219367267Y-126209431D01*
X219367265Y-126209432D01*
X219180858Y-126339954D01*
X219019954Y-126500858D01*
X218889432Y-126687265D01*
X218889431Y-126687267D01*
X218862382Y-126745275D01*
X218816209Y-126797714D01*
X218749016Y-126816866D01*
X218682135Y-126796650D01*
X218637618Y-126745275D01*
X218636163Y-126742155D01*
X218610568Y-126687266D01*
X218480047Y-126500861D01*
X218480045Y-126500858D01*
X218319141Y-126339954D01*
X218132734Y-126209432D01*
X218132732Y-126209431D01*
X217926497Y-126113261D01*
X217926488Y-126113258D01*
X217706697Y-126054366D01*
X217706693Y-126054365D01*
X217706692Y-126054365D01*
X217706691Y-126054364D01*
X217706686Y-126054364D01*
X217480002Y-126034532D01*
X217479998Y-126034532D01*
X217253313Y-126054364D01*
X217253302Y-126054366D01*
X217033511Y-126113258D01*
X217033502Y-126113261D01*
X216827267Y-126209431D01*
X216827265Y-126209432D01*
X216640858Y-126339954D01*
X216479954Y-126500858D01*
X216349432Y-126687265D01*
X216349431Y-126687267D01*
X216322382Y-126745275D01*
X216276209Y-126797714D01*
X216209016Y-126816866D01*
X216142135Y-126796650D01*
X216097618Y-126745275D01*
X216096163Y-126742155D01*
X216070568Y-126687266D01*
X215940047Y-126500861D01*
X215940045Y-126500858D01*
X215779141Y-126339954D01*
X215592734Y-126209432D01*
X215592732Y-126209431D01*
X215386497Y-126113261D01*
X215386488Y-126113258D01*
X215166697Y-126054366D01*
X215166693Y-126054365D01*
X215166692Y-126054365D01*
X215166691Y-126054364D01*
X215166686Y-126054364D01*
X214940002Y-126034532D01*
X214939998Y-126034532D01*
X214713313Y-126054364D01*
X214713302Y-126054366D01*
X214493511Y-126113258D01*
X214493502Y-126113261D01*
X214287267Y-126209431D01*
X214287265Y-126209432D01*
X214100858Y-126339954D01*
X213939954Y-126500858D01*
X213809432Y-126687265D01*
X213809431Y-126687267D01*
X213782382Y-126745275D01*
X213736209Y-126797714D01*
X213669016Y-126816866D01*
X213602135Y-126796650D01*
X213557618Y-126745275D01*
X213556163Y-126742155D01*
X213530568Y-126687266D01*
X213400047Y-126500861D01*
X213400045Y-126500858D01*
X213239141Y-126339954D01*
X213052734Y-126209432D01*
X213052732Y-126209431D01*
X212846497Y-126113261D01*
X212846488Y-126113258D01*
X212626697Y-126054366D01*
X212626693Y-126054365D01*
X212626692Y-126054365D01*
X212626691Y-126054364D01*
X212626686Y-126054364D01*
X212400002Y-126034532D01*
X212399998Y-126034532D01*
X212173313Y-126054364D01*
X212173302Y-126054366D01*
X211953511Y-126113258D01*
X211953502Y-126113261D01*
X211747267Y-126209431D01*
X211747265Y-126209432D01*
X211560858Y-126339954D01*
X211399951Y-126500861D01*
X211382287Y-126526088D01*
X211327710Y-126569712D01*
X211258211Y-126576904D01*
X211195857Y-126545380D01*
X211160445Y-126485150D01*
X211157425Y-126468218D01*
X211153598Y-126432627D01*
X211153596Y-126432620D01*
X211103354Y-126297913D01*
X211103350Y-126297906D01*
X211017190Y-126182812D01*
X211017187Y-126182809D01*
X210902093Y-126096649D01*
X210902086Y-126096645D01*
X210767379Y-126046403D01*
X210767372Y-126046401D01*
X210707844Y-126040000D01*
X210110000Y-126040000D01*
X210110000Y-127024314D01*
X210098045Y-127012359D01*
X209985148Y-126954835D01*
X209891481Y-126940000D01*
X209828519Y-126940000D01*
X209734852Y-126954835D01*
X209621955Y-127012359D01*
X209610000Y-127024314D01*
X209610000Y-126040000D01*
X209012155Y-126040000D01*
X208952627Y-126046401D01*
X208952620Y-126046403D01*
X208817913Y-126096645D01*
X208817906Y-126096649D01*
X208702812Y-126182809D01*
X208702809Y-126182812D01*
X208616649Y-126297906D01*
X208616645Y-126297913D01*
X208566403Y-126432620D01*
X208566401Y-126432627D01*
X208560000Y-126492155D01*
X208560000Y-127090000D01*
X209544314Y-127090000D01*
X209532359Y-127101955D01*
X209474835Y-127214852D01*
X209455014Y-127340000D01*
X209474835Y-127465148D01*
X209532359Y-127578045D01*
X209544314Y-127590000D01*
X208560000Y-127590000D01*
X208560000Y-128187844D01*
X208566401Y-128247372D01*
X208566403Y-128247379D01*
X208616645Y-128382086D01*
X208616649Y-128382093D01*
X208702809Y-128497187D01*
X208702812Y-128497190D01*
X208817906Y-128583350D01*
X208817913Y-128583354D01*
X208952620Y-128633596D01*
X208952627Y-128633598D01*
X209012155Y-128639999D01*
X209012172Y-128640000D01*
X209610000Y-128640000D01*
X209610000Y-127655686D01*
X209621955Y-127667641D01*
X209734852Y-127725165D01*
X209828519Y-127740000D01*
X209891481Y-127740000D01*
X209985148Y-127725165D01*
X210098045Y-127667641D01*
X210110000Y-127655686D01*
X210110000Y-128640000D01*
X210707828Y-128640000D01*
X210707844Y-128639999D01*
X210767372Y-128633598D01*
X210767379Y-128633596D01*
X210902086Y-128583354D01*
X210902093Y-128583350D01*
X211017187Y-128497190D01*
X211017190Y-128497187D01*
X211103350Y-128382093D01*
X211103354Y-128382086D01*
X211153596Y-128247380D01*
X211157424Y-128211781D01*
X211184162Y-128147230D01*
X211241555Y-128107382D01*
X211311380Y-128104888D01*
X211371469Y-128140540D01*
X211382289Y-128153912D01*
X211399956Y-128179143D01*
X211560858Y-128340045D01*
X211721623Y-128452613D01*
X211765248Y-128507189D01*
X211774500Y-128554188D01*
X211774500Y-136539547D01*
X211754815Y-136606586D01*
X211738181Y-136627228D01*
X205777228Y-142588181D01*
X205715905Y-142621666D01*
X205689547Y-142624500D01*
X180809452Y-142624500D01*
X180742413Y-142604815D01*
X180696658Y-142552011D01*
X180686714Y-142482853D01*
X180715739Y-142419297D01*
X180721771Y-142412819D01*
X182045043Y-141089547D01*
X186303788Y-136830801D01*
X186316042Y-136820986D01*
X186315859Y-136820764D01*
X186321866Y-136815792D01*
X186321877Y-136815786D01*
X186353069Y-136782570D01*
X186369227Y-136765364D01*
X186379671Y-136754918D01*
X186390120Y-136744471D01*
X186394379Y-136738978D01*
X186398152Y-136734561D01*
X186430062Y-136700582D01*
X186439715Y-136683020D01*
X186450389Y-136666770D01*
X186462673Y-136650936D01*
X186481180Y-136608167D01*
X186483749Y-136602924D01*
X186494734Y-136582943D01*
X186506197Y-136562092D01*
X186511177Y-136542691D01*
X186517478Y-136524288D01*
X186525438Y-136505896D01*
X186532730Y-136459849D01*
X186533911Y-136454152D01*
X186545500Y-136409019D01*
X186545500Y-136388983D01*
X186547027Y-136369582D01*
X186547611Y-136365896D01*
X186550160Y-136349804D01*
X186545775Y-136303415D01*
X186545500Y-136297577D01*
X186545500Y-128714188D01*
X186565185Y-128647149D01*
X186598377Y-128612613D01*
X186663892Y-128566739D01*
X186759139Y-128500047D01*
X186920047Y-128339139D01*
X187050568Y-128152734D01*
X187077618Y-128094724D01*
X187123790Y-128042285D01*
X187190983Y-128023133D01*
X187257865Y-128043348D01*
X187302382Y-128094725D01*
X187329429Y-128152728D01*
X187329432Y-128152734D01*
X187459954Y-128339141D01*
X187620858Y-128500045D01*
X187781623Y-128612613D01*
X187825248Y-128667189D01*
X187834500Y-128714188D01*
X187834500Y-136877255D01*
X187832775Y-136892872D01*
X187833061Y-136892899D01*
X187832326Y-136900665D01*
X187834500Y-136969814D01*
X187834500Y-136999343D01*
X187834501Y-136999360D01*
X187835368Y-137006231D01*
X187835826Y-137012050D01*
X187837290Y-137058624D01*
X187837291Y-137058627D01*
X187842880Y-137077867D01*
X187846824Y-137096911D01*
X187848047Y-137106586D01*
X187849336Y-137116791D01*
X187866490Y-137160119D01*
X187868382Y-137165647D01*
X187881381Y-137210388D01*
X187882230Y-137211824D01*
X187882621Y-137213256D01*
X187884479Y-137217548D01*
X187883868Y-137217812D01*
X187899500Y-137274948D01*
X187899500Y-138175001D01*
X187899501Y-138175019D01*
X187910000Y-138277796D01*
X187910001Y-138277799D01*
X187965185Y-138444331D01*
X187965187Y-138444336D01*
X187982443Y-138472312D01*
X188057288Y-138593656D01*
X188181344Y-138717712D01*
X188330666Y-138809814D01*
X188497203Y-138864999D01*
X188599991Y-138875500D01*
X189400008Y-138875499D01*
X189400016Y-138875498D01*
X189400019Y-138875498D01*
X189461143Y-138869254D01*
X189502797Y-138864999D01*
X189669334Y-138809814D01*
X189818656Y-138717712D01*
X189942712Y-138593656D01*
X189981815Y-138530258D01*
X190033761Y-138483535D01*
X190102723Y-138472312D01*
X190166806Y-138500155D01*
X190184824Y-138518705D01*
X190199907Y-138537885D01*
X190199909Y-138537887D01*
X190358746Y-138675521D01*
X190540750Y-138780601D01*
X190540752Y-138780601D01*
X190540756Y-138780604D01*
X190739367Y-138849344D01*
X190947398Y-138879254D01*
X191157330Y-138869254D01*
X191361576Y-138819704D01*
X191473248Y-138768705D01*
X191552743Y-138732401D01*
X191552746Y-138732399D01*
X191552753Y-138732396D01*
X191723952Y-138610486D01*
X191725195Y-138609183D01*
X191868986Y-138458378D01*
X191878010Y-138444336D01*
X191895540Y-138417058D01*
X191948343Y-138371303D01*
X192017502Y-138361359D01*
X192081058Y-138390383D01*
X192097326Y-138407444D01*
X192160247Y-138487454D01*
X192194181Y-138530604D01*
X192199909Y-138537887D01*
X192358746Y-138675521D01*
X192540750Y-138780601D01*
X192540752Y-138780601D01*
X192540756Y-138780604D01*
X192739367Y-138849344D01*
X192947398Y-138879254D01*
X193157330Y-138869254D01*
X193361576Y-138819704D01*
X193473248Y-138768705D01*
X193552743Y-138732401D01*
X193552746Y-138732399D01*
X193552753Y-138732396D01*
X193723952Y-138610486D01*
X193725195Y-138609183D01*
X193868986Y-138458378D01*
X193878010Y-138444336D01*
X193895540Y-138417058D01*
X193948343Y-138371303D01*
X194017502Y-138361359D01*
X194081058Y-138390383D01*
X194097326Y-138407444D01*
X194160247Y-138487454D01*
X194194181Y-138530604D01*
X194199909Y-138537887D01*
X194358746Y-138675521D01*
X194540750Y-138780601D01*
X194540752Y-138780601D01*
X194540756Y-138780604D01*
X194739367Y-138849344D01*
X194947398Y-138879254D01*
X195157330Y-138869254D01*
X195361576Y-138819704D01*
X195473248Y-138768705D01*
X195552743Y-138732401D01*
X195552746Y-138732399D01*
X195552753Y-138732396D01*
X195723952Y-138610486D01*
X195725195Y-138609183D01*
X195868985Y-138458379D01*
X195878010Y-138444336D01*
X195982613Y-138281572D01*
X196060725Y-138086457D01*
X196100500Y-137880085D01*
X196100500Y-137335451D01*
X196120185Y-137268412D01*
X196136815Y-137247774D01*
X196463786Y-136920802D01*
X196476048Y-136910980D01*
X196475865Y-136910759D01*
X196481867Y-136905792D01*
X196481877Y-136905786D01*
X196529241Y-136855348D01*
X196550120Y-136834470D01*
X196554373Y-136828986D01*
X196558150Y-136824563D01*
X196590062Y-136790582D01*
X196599714Y-136773023D01*
X196610389Y-136756772D01*
X196622674Y-136740936D01*
X196641186Y-136698152D01*
X196643742Y-136692935D01*
X196666197Y-136652092D01*
X196671180Y-136632680D01*
X196677477Y-136614291D01*
X196685438Y-136595895D01*
X196692729Y-136549853D01*
X196693908Y-136544162D01*
X196705500Y-136499019D01*
X196705500Y-136478983D01*
X196707027Y-136459582D01*
X196707887Y-136454152D01*
X196710160Y-136439804D01*
X196705775Y-136393415D01*
X196705500Y-136387577D01*
X196705500Y-128714188D01*
X196725185Y-128647149D01*
X196758377Y-128612613D01*
X196823892Y-128566739D01*
X196919139Y-128500047D01*
X197080047Y-128339139D01*
X197210568Y-128152734D01*
X197237895Y-128094129D01*
X197284064Y-128041695D01*
X197351257Y-128022542D01*
X197418139Y-128042757D01*
X197462657Y-128094133D01*
X197489865Y-128152482D01*
X197620342Y-128338820D01*
X197781179Y-128499657D01*
X197967517Y-128630134D01*
X198173673Y-128726265D01*
X198173682Y-128726269D01*
X198369999Y-128778872D01*
X198370000Y-128778871D01*
X198370000Y-127815686D01*
X198381955Y-127827641D01*
X198494852Y-127885165D01*
X198588519Y-127900000D01*
X198651481Y-127900000D01*
X198745148Y-127885165D01*
X198858045Y-127827641D01*
X198870000Y-127815686D01*
X198870000Y-128778872D01*
X199066317Y-128726269D01*
X199066326Y-128726265D01*
X199272482Y-128630134D01*
X199458820Y-128499657D01*
X199619657Y-128338820D01*
X199750132Y-128152484D01*
X199777341Y-128094134D01*
X199823513Y-128041695D01*
X199890707Y-128022542D01*
X199957588Y-128042757D01*
X200002106Y-128094133D01*
X200029431Y-128152732D01*
X200029432Y-128152734D01*
X200159954Y-128339141D01*
X200320858Y-128500045D01*
X200320861Y-128500047D01*
X200507266Y-128630568D01*
X200713504Y-128726739D01*
X200933308Y-128785635D01*
X201095230Y-128799801D01*
X201159998Y-128805468D01*
X201160000Y-128805468D01*
X201160002Y-128805468D01*
X201222511Y-128799999D01*
X201386692Y-128785635D01*
X201606496Y-128726739D01*
X201812734Y-128630568D01*
X201999139Y-128500047D01*
X202160047Y-128339139D01*
X202290568Y-128152734D01*
X202386739Y-127946496D01*
X202445635Y-127726692D01*
X202465468Y-127500000D01*
X202445635Y-127273308D01*
X202386739Y-127053504D01*
X202290568Y-126847266D01*
X202160047Y-126660861D01*
X202160045Y-126660858D01*
X201999140Y-126499953D01*
X201838377Y-126387386D01*
X201794752Y-126332809D01*
X201785500Y-126285811D01*
X201785500Y-125900452D01*
X201805185Y-125833413D01*
X201821819Y-125812771D01*
X203722771Y-123911819D01*
X203784094Y-123878334D01*
X203810452Y-123875500D01*
X224439548Y-123875500D01*
X224506587Y-123895185D01*
G37*
%TD.AperFunction*%
%TA.AperFunction,Conductor*%
G36*
X188541812Y-86685185D02*
G01*
X188576348Y-86718377D01*
X188711505Y-86911401D01*
X188878599Y-87078495D01*
X188975384Y-87146265D01*
X189072165Y-87214032D01*
X189072167Y-87214033D01*
X189072170Y-87214035D01*
X189286337Y-87313903D01*
X189514592Y-87375063D01*
X189702918Y-87391539D01*
X189749999Y-87395659D01*
X189750000Y-87395659D01*
X189750001Y-87395659D01*
X189789234Y-87392226D01*
X189985408Y-87375063D01*
X190085873Y-87348143D01*
X190155722Y-87349806D01*
X190205647Y-87380237D01*
X191959194Y-89133784D01*
X191969019Y-89146048D01*
X191969240Y-89145866D01*
X191974210Y-89151873D01*
X191974213Y-89151876D01*
X191974214Y-89151877D01*
X192024651Y-89199241D01*
X192045530Y-89220120D01*
X192051004Y-89224366D01*
X192055442Y-89228156D01*
X192089418Y-89260062D01*
X192103475Y-89267790D01*
X192106973Y-89269713D01*
X192123231Y-89280392D01*
X192126448Y-89282888D01*
X192139062Y-89292673D01*
X192139063Y-89292673D01*
X192139064Y-89292674D01*
X192150884Y-89297789D01*
X192189318Y-89323909D01*
X193249197Y-90383788D01*
X193259022Y-90396051D01*
X193259243Y-90395869D01*
X193264214Y-90401878D01*
X193290217Y-90426295D01*
X193314635Y-90449226D01*
X193335529Y-90470120D01*
X193341011Y-90474373D01*
X193345443Y-90478157D01*
X193379418Y-90510062D01*
X193396976Y-90519714D01*
X193413233Y-90530393D01*
X193429064Y-90542673D01*
X193448737Y-90551186D01*
X193471833Y-90561182D01*
X193477077Y-90563750D01*
X193517908Y-90586197D01*
X193525636Y-90588181D01*
X193537305Y-90591177D01*
X193555719Y-90597481D01*
X193574104Y-90605438D01*
X193620157Y-90612732D01*
X193625826Y-90613906D01*
X193670981Y-90625500D01*
X193691016Y-90625500D01*
X193710413Y-90627026D01*
X193730196Y-90630160D01*
X193776584Y-90625775D01*
X193782422Y-90625500D01*
X201745812Y-90625500D01*
X201812851Y-90645185D01*
X201847387Y-90678377D01*
X201959954Y-90839141D01*
X202120858Y-91000045D01*
X202281623Y-91112613D01*
X202325248Y-91167189D01*
X202334500Y-91214188D01*
X202334500Y-92417255D01*
X202332775Y-92432872D01*
X202333061Y-92432899D01*
X202332326Y-92440665D01*
X202334500Y-92509814D01*
X202334500Y-92539343D01*
X202334501Y-92539360D01*
X202335368Y-92546231D01*
X202335826Y-92552050D01*
X202337290Y-92598624D01*
X202337291Y-92598627D01*
X202342880Y-92617867D01*
X202346824Y-92636911D01*
X202349336Y-92656792D01*
X202366306Y-92699654D01*
X202366490Y-92700119D01*
X202368382Y-92705647D01*
X202379663Y-92744476D01*
X202381382Y-92750390D01*
X202390237Y-92765364D01*
X202391580Y-92767634D01*
X202400136Y-92785100D01*
X202407514Y-92803732D01*
X202433488Y-92839483D01*
X202434898Y-92841423D01*
X202438106Y-92846307D01*
X202461827Y-92886416D01*
X202461833Y-92886424D01*
X202475990Y-92900580D01*
X202488627Y-92915375D01*
X202500406Y-92931587D01*
X202522291Y-92949692D01*
X202536309Y-92961288D01*
X202540620Y-92965210D01*
X206098667Y-96523258D01*
X207220681Y-97645272D01*
X207254166Y-97706595D01*
X207257000Y-97732953D01*
X207257000Y-99297870D01*
X207257001Y-99297876D01*
X207263408Y-99357483D01*
X207313702Y-99492328D01*
X207313706Y-99492335D01*
X207399952Y-99607544D01*
X207399955Y-99607547D01*
X207515164Y-99693793D01*
X207515171Y-99693797D01*
X207650017Y-99744091D01*
X207650016Y-99744091D01*
X207656944Y-99744835D01*
X207709627Y-99750500D01*
X209710372Y-99750499D01*
X209769983Y-99744091D01*
X209904831Y-99693796D01*
X210020046Y-99607546D01*
X210106296Y-99492331D01*
X210106297Y-99492328D01*
X210106298Y-99492327D01*
X210117907Y-99461199D01*
X210159776Y-99405264D01*
X210225240Y-99380844D01*
X210293513Y-99395694D01*
X210310252Y-99406675D01*
X210452831Y-99517649D01*
X210452840Y-99517655D01*
X210664531Y-99632215D01*
X210664545Y-99632221D01*
X210892207Y-99710379D01*
X211000000Y-99728366D01*
X211000000Y-98741683D01*
X211028819Y-98759209D01*
X211174404Y-98800000D01*
X211287622Y-98800000D01*
X211399783Y-98784584D01*
X211500000Y-98741053D01*
X211500000Y-99728365D01*
X211607792Y-99710379D01*
X211835454Y-99632221D01*
X211835468Y-99632215D01*
X212047159Y-99517655D01*
X212047168Y-99517649D01*
X212237116Y-99369806D01*
X212237126Y-99369797D01*
X212400154Y-99192702D01*
X212400155Y-99192701D01*
X212415891Y-99168616D01*
X212469036Y-99123258D01*
X212538267Y-99113833D01*
X212601604Y-99143333D01*
X212623510Y-99168614D01*
X212639446Y-99193007D01*
X212658867Y-99214104D01*
X212802537Y-99370171D01*
X212958908Y-99491879D01*
X212992558Y-99518070D01*
X212992562Y-99518073D01*
X213099517Y-99575953D01*
X213149108Y-99625172D01*
X213164500Y-99685008D01*
X213164500Y-104243411D01*
X213158325Y-104278786D01*
X213158503Y-104278826D01*
X213157661Y-104282590D01*
X213157168Y-104285417D01*
X213156802Y-104286432D01*
X213155018Y-104294414D01*
X213147809Y-104316599D01*
X213144562Y-104324102D01*
X213144561Y-104324104D01*
X213135582Y-104380803D01*
X213134852Y-104384629D01*
X213122326Y-104440666D01*
X213122326Y-104440669D01*
X213122583Y-104448840D01*
X213121119Y-104472118D01*
X213119840Y-104480196D01*
X213119840Y-104480198D01*
X213125242Y-104537352D01*
X213125487Y-104541239D01*
X213127290Y-104598627D01*
X213129570Y-104606472D01*
X213133943Y-104629392D01*
X213134712Y-104637531D01*
X213154161Y-104691553D01*
X213155364Y-104695257D01*
X213171381Y-104750389D01*
X213171382Y-104750392D01*
X213175543Y-104757428D01*
X213185477Y-104778537D01*
X213188246Y-104786227D01*
X213188247Y-104786230D01*
X213220513Y-104833708D01*
X213222600Y-104836996D01*
X213251830Y-104886420D01*
X213251833Y-104886423D01*
X213257602Y-104892192D01*
X213272476Y-104910170D01*
X213277076Y-104916938D01*
X213277082Y-104916943D01*
X213320146Y-104954909D01*
X213322970Y-104957560D01*
X215713532Y-107348123D01*
X216499197Y-108133788D01*
X216509022Y-108146051D01*
X216509243Y-108145869D01*
X216514214Y-108151878D01*
X216540217Y-108176295D01*
X216564635Y-108199226D01*
X216585529Y-108220120D01*
X216591011Y-108224373D01*
X216595443Y-108228157D01*
X216629418Y-108260062D01*
X216646976Y-108269714D01*
X216663235Y-108280395D01*
X216679064Y-108292673D01*
X216721838Y-108311182D01*
X216727056Y-108313738D01*
X216767908Y-108336197D01*
X216787316Y-108341180D01*
X216805717Y-108347480D01*
X216824104Y-108355437D01*
X216867488Y-108362308D01*
X216870119Y-108362725D01*
X216875839Y-108363909D01*
X216920981Y-108375500D01*
X216941016Y-108375500D01*
X216960414Y-108377026D01*
X216980194Y-108380159D01*
X216980195Y-108380160D01*
X216980195Y-108380159D01*
X216980196Y-108380160D01*
X217026584Y-108375775D01*
X217032422Y-108375500D01*
X224189548Y-108375500D01*
X224256587Y-108395185D01*
X224277229Y-108411819D01*
X229588181Y-113722771D01*
X229621666Y-113784094D01*
X229624500Y-113810452D01*
X229624500Y-114689547D01*
X229604815Y-114756586D01*
X229588181Y-114777228D01*
X229003869Y-115361539D01*
X228942546Y-115395024D01*
X228872854Y-115390040D01*
X228816921Y-115348168D01*
X228792504Y-115282704D01*
X228803804Y-115221457D01*
X228866739Y-115086496D01*
X228925635Y-114866692D01*
X228945468Y-114640000D01*
X228925635Y-114413308D01*
X228878465Y-114237265D01*
X228866741Y-114193511D01*
X228866738Y-114193502D01*
X228800223Y-114050861D01*
X228770568Y-113987266D01*
X228640047Y-113800861D01*
X228640045Y-113800858D01*
X228479141Y-113639954D01*
X228292734Y-113509432D01*
X228292732Y-113509431D01*
X228086497Y-113413261D01*
X228086488Y-113413258D01*
X227866697Y-113354366D01*
X227866693Y-113354365D01*
X227866692Y-113354365D01*
X227866691Y-113354364D01*
X227866686Y-113354364D01*
X227640002Y-113334532D01*
X227639999Y-113334532D01*
X227413313Y-113354364D01*
X227413296Y-113354367D01*
X227344949Y-113372680D01*
X227275099Y-113371016D01*
X227225177Y-113340586D01*
X223250803Y-109366212D01*
X223240980Y-109353950D01*
X223240759Y-109354134D01*
X223235786Y-109348123D01*
X223185364Y-109300773D01*
X223174919Y-109290328D01*
X223164475Y-109279883D01*
X223158986Y-109275625D01*
X223154561Y-109271847D01*
X223120582Y-109239938D01*
X223120580Y-109239936D01*
X223120577Y-109239935D01*
X223103029Y-109230288D01*
X223086763Y-109219604D01*
X223070933Y-109207325D01*
X223028168Y-109188818D01*
X223022922Y-109186248D01*
X222982093Y-109163803D01*
X222982092Y-109163802D01*
X222962693Y-109158822D01*
X222944281Y-109152518D01*
X222925898Y-109144562D01*
X222925892Y-109144560D01*
X222879874Y-109137272D01*
X222874152Y-109136087D01*
X222829021Y-109124500D01*
X222829019Y-109124500D01*
X222808984Y-109124500D01*
X222789586Y-109122973D01*
X222782162Y-109121797D01*
X222769805Y-109119840D01*
X222769804Y-109119840D01*
X222723416Y-109124225D01*
X222717578Y-109124500D01*
X205310452Y-109124500D01*
X205243413Y-109104815D01*
X205222771Y-109088181D01*
X192250803Y-96116212D01*
X192240980Y-96103950D01*
X192240759Y-96104134D01*
X192235786Y-96098123D01*
X192217159Y-96080631D01*
X192185364Y-96050773D01*
X192174919Y-96040328D01*
X192164475Y-96029883D01*
X192158986Y-96025625D01*
X192154561Y-96021847D01*
X192120582Y-95989938D01*
X192120580Y-95989936D01*
X192120577Y-95989935D01*
X192103029Y-95980288D01*
X192086763Y-95969604D01*
X192070933Y-95957325D01*
X192028168Y-95938818D01*
X192022922Y-95936248D01*
X191982093Y-95913803D01*
X191982092Y-95913802D01*
X191962693Y-95908822D01*
X191944281Y-95902518D01*
X191925898Y-95894562D01*
X191925892Y-95894560D01*
X191879874Y-95887272D01*
X191874152Y-95886087D01*
X191829021Y-95874500D01*
X191829019Y-95874500D01*
X191808984Y-95874500D01*
X191789586Y-95872973D01*
X191782162Y-95871797D01*
X191769805Y-95869840D01*
X191769804Y-95869840D01*
X191723416Y-95874225D01*
X191717578Y-95874500D01*
X159132743Y-95874500D01*
X159117122Y-95872775D01*
X159117096Y-95873061D01*
X159109334Y-95872327D01*
X159109333Y-95872327D01*
X159040186Y-95874500D01*
X159010649Y-95874500D01*
X159003766Y-95875369D01*
X158997949Y-95875826D01*
X158951373Y-95877290D01*
X158932129Y-95882881D01*
X158913079Y-95886825D01*
X158893211Y-95889334D01*
X158849884Y-95906488D01*
X158844358Y-95908379D01*
X158799614Y-95921379D01*
X158799610Y-95921381D01*
X158782366Y-95931579D01*
X158764905Y-95940133D01*
X158746274Y-95947510D01*
X158746262Y-95947517D01*
X158708570Y-95974902D01*
X158703687Y-95978109D01*
X158663580Y-96001829D01*
X158649414Y-96015995D01*
X158634624Y-96028627D01*
X158618414Y-96040404D01*
X158618411Y-96040407D01*
X158588710Y-96076309D01*
X158584777Y-96080631D01*
X155802228Y-98863181D01*
X155740905Y-98896666D01*
X155714547Y-98899500D01*
X155361677Y-98899500D01*
X155356275Y-98899264D01*
X155325849Y-98896602D01*
X155300002Y-98894341D01*
X155299999Y-98894341D01*
X155290352Y-98895185D01*
X155243722Y-98899264D01*
X155238322Y-98899500D01*
X154402129Y-98899500D01*
X154402123Y-98899501D01*
X154342516Y-98905908D01*
X154207671Y-98956202D01*
X154207669Y-98956203D01*
X154104311Y-99033578D01*
X154038847Y-99057995D01*
X153970574Y-99043144D01*
X153955689Y-99033578D01*
X153936776Y-99019420D01*
X153878146Y-98975529D01*
X153852330Y-98956203D01*
X153852328Y-98956202D01*
X153717482Y-98905908D01*
X153717483Y-98905908D01*
X153657883Y-98899501D01*
X153657881Y-98899500D01*
X153657873Y-98899500D01*
X153657864Y-98899500D01*
X151862129Y-98899500D01*
X151862123Y-98899501D01*
X151802516Y-98905908D01*
X151667671Y-98956202D01*
X151667669Y-98956203D01*
X151564311Y-99033578D01*
X151498847Y-99057995D01*
X151430574Y-99043144D01*
X151415689Y-99033578D01*
X151396776Y-99019420D01*
X151338146Y-98975529D01*
X151312330Y-98956203D01*
X151312328Y-98956202D01*
X151177482Y-98905908D01*
X151177483Y-98905908D01*
X151117883Y-98899501D01*
X151117881Y-98899500D01*
X151117873Y-98899500D01*
X151117865Y-98899500D01*
X150281677Y-98899500D01*
X150276275Y-98899264D01*
X150245849Y-98896602D01*
X150220002Y-98894341D01*
X150219999Y-98894341D01*
X150210352Y-98895185D01*
X150163722Y-98899264D01*
X150158322Y-98899500D01*
X149322129Y-98899500D01*
X149322123Y-98899501D01*
X149262516Y-98905908D01*
X149127671Y-98956202D01*
X149127669Y-98956203D01*
X149024311Y-99033578D01*
X148958847Y-99057995D01*
X148890574Y-99043144D01*
X148875689Y-99033578D01*
X148856776Y-99019420D01*
X148798146Y-98975529D01*
X148772330Y-98956203D01*
X148772328Y-98956202D01*
X148637482Y-98905908D01*
X148637483Y-98905908D01*
X148577883Y-98899501D01*
X148577881Y-98899500D01*
X148577873Y-98899500D01*
X148577865Y-98899500D01*
X147741677Y-98899500D01*
X147736275Y-98899264D01*
X147705849Y-98896602D01*
X147680002Y-98894341D01*
X147679999Y-98894341D01*
X147670352Y-98895185D01*
X147623722Y-98899264D01*
X147618322Y-98899500D01*
X146782129Y-98899500D01*
X146782123Y-98899501D01*
X146722516Y-98905908D01*
X146587671Y-98956202D01*
X146587669Y-98956203D01*
X146484311Y-99033578D01*
X146418847Y-99057995D01*
X146350574Y-99043144D01*
X146335689Y-99033578D01*
X146316776Y-99019420D01*
X146258146Y-98975529D01*
X146232330Y-98956203D01*
X146232328Y-98956202D01*
X146097482Y-98905908D01*
X146097483Y-98905908D01*
X146037883Y-98899501D01*
X146037881Y-98899500D01*
X146037873Y-98899500D01*
X146037865Y-98899500D01*
X145201677Y-98899500D01*
X145196275Y-98899264D01*
X145165849Y-98896602D01*
X145140002Y-98894341D01*
X145139999Y-98894341D01*
X145130352Y-98895185D01*
X145083722Y-98899264D01*
X145078322Y-98899500D01*
X144242129Y-98899500D01*
X144242123Y-98899501D01*
X144182516Y-98905908D01*
X144047671Y-98956202D01*
X144047669Y-98956203D01*
X143944311Y-99033578D01*
X143878847Y-99057995D01*
X143810574Y-99043144D01*
X143795689Y-99033578D01*
X143776776Y-99019420D01*
X143718146Y-98975529D01*
X143692330Y-98956203D01*
X143692328Y-98956202D01*
X143557482Y-98905908D01*
X143557483Y-98905908D01*
X143497883Y-98899501D01*
X143497881Y-98899500D01*
X143497873Y-98899500D01*
X143497865Y-98899500D01*
X142661677Y-98899500D01*
X142656275Y-98899264D01*
X142625849Y-98896602D01*
X142600002Y-98894341D01*
X142599999Y-98894341D01*
X142590352Y-98895185D01*
X142543722Y-98899264D01*
X142538322Y-98899500D01*
X141702129Y-98899500D01*
X141702123Y-98899501D01*
X141642516Y-98905908D01*
X141507671Y-98956202D01*
X141507669Y-98956203D01*
X141404311Y-99033578D01*
X141338847Y-99057995D01*
X141270574Y-99043144D01*
X141255689Y-99033578D01*
X141236776Y-99019420D01*
X141178146Y-98975529D01*
X141152330Y-98956203D01*
X141152328Y-98956202D01*
X141017482Y-98905908D01*
X141017483Y-98905908D01*
X140957883Y-98899501D01*
X140957881Y-98899500D01*
X140957873Y-98899500D01*
X140957864Y-98899500D01*
X139162129Y-98899500D01*
X139162123Y-98899501D01*
X139102516Y-98905908D01*
X138967671Y-98956202D01*
X138967669Y-98956203D01*
X138864311Y-99033578D01*
X138798847Y-99057995D01*
X138730574Y-99043144D01*
X138715689Y-99033578D01*
X138696776Y-99019420D01*
X138638146Y-98975529D01*
X138612330Y-98956203D01*
X138612328Y-98956202D01*
X138477482Y-98905908D01*
X138477483Y-98905908D01*
X138417883Y-98899501D01*
X138417881Y-98899500D01*
X138417873Y-98899500D01*
X138417865Y-98899500D01*
X138269500Y-98899500D01*
X138202461Y-98879815D01*
X138156706Y-98827011D01*
X138145500Y-98775500D01*
X138145500Y-98602742D01*
X138147224Y-98587122D01*
X138146939Y-98587096D01*
X138147671Y-98579340D01*
X138147673Y-98579333D01*
X138145500Y-98510185D01*
X138145500Y-98480650D01*
X138144631Y-98473772D01*
X138144172Y-98467943D01*
X138142709Y-98421372D01*
X138137122Y-98402144D01*
X138133174Y-98383084D01*
X138130663Y-98363204D01*
X138113512Y-98319887D01*
X138111619Y-98314358D01*
X138098618Y-98269609D01*
X138098616Y-98269606D01*
X138088423Y-98252371D01*
X138079861Y-98234894D01*
X138072487Y-98216270D01*
X138072486Y-98216268D01*
X138045079Y-98178545D01*
X138041888Y-98173686D01*
X138018172Y-98133583D01*
X138018165Y-98133574D01*
X138004006Y-98119415D01*
X137991368Y-98104619D01*
X137979594Y-98088413D01*
X137950186Y-98064085D01*
X137943688Y-98058709D01*
X137939376Y-98054786D01*
X136250803Y-96366212D01*
X136240980Y-96353950D01*
X136240759Y-96354134D01*
X136235786Y-96348123D01*
X136217159Y-96330631D01*
X136185364Y-96300773D01*
X136174919Y-96290328D01*
X136164475Y-96279883D01*
X136158986Y-96275625D01*
X136154561Y-96271847D01*
X136120582Y-96239938D01*
X136120580Y-96239936D01*
X136120577Y-96239935D01*
X136103029Y-96230288D01*
X136086763Y-96219604D01*
X136070933Y-96207325D01*
X136028168Y-96188818D01*
X136022922Y-96186248D01*
X135982093Y-96163803D01*
X135982092Y-96163802D01*
X135962693Y-96158822D01*
X135944281Y-96152518D01*
X135925898Y-96144562D01*
X135925892Y-96144560D01*
X135879874Y-96137272D01*
X135874152Y-96136087D01*
X135829021Y-96124500D01*
X135829019Y-96124500D01*
X135808984Y-96124500D01*
X135789586Y-96122973D01*
X135782162Y-96121797D01*
X135769805Y-96119840D01*
X135769804Y-96119840D01*
X135723416Y-96124225D01*
X135717578Y-96124500D01*
X133332743Y-96124500D01*
X133317122Y-96122775D01*
X133317096Y-96123061D01*
X133309334Y-96122327D01*
X133309333Y-96122327D01*
X133240186Y-96124500D01*
X133210649Y-96124500D01*
X133203766Y-96125369D01*
X133197949Y-96125826D01*
X133151373Y-96127290D01*
X133132129Y-96132881D01*
X133113079Y-96136825D01*
X133093211Y-96139334D01*
X133049884Y-96156488D01*
X133044358Y-96158379D01*
X132999614Y-96171379D01*
X132999610Y-96171381D01*
X132982366Y-96181579D01*
X132964905Y-96190133D01*
X132946274Y-96197510D01*
X132946262Y-96197517D01*
X132908570Y-96224902D01*
X132903687Y-96228109D01*
X132863580Y-96251829D01*
X132849414Y-96265995D01*
X132834624Y-96278627D01*
X132818414Y-96290404D01*
X132818411Y-96290407D01*
X132788710Y-96326309D01*
X132784777Y-96330631D01*
X130226208Y-98889199D01*
X130213951Y-98899020D01*
X130214134Y-98899241D01*
X130208123Y-98904213D01*
X130160772Y-98954636D01*
X130139889Y-98975519D01*
X130139877Y-98975532D01*
X130135621Y-98981017D01*
X130131837Y-98985447D01*
X130099937Y-99019418D01*
X130099936Y-99019420D01*
X130090284Y-99036976D01*
X130079610Y-99053226D01*
X130067329Y-99069061D01*
X130067324Y-99069068D01*
X130048815Y-99111838D01*
X130046245Y-99117084D01*
X130023803Y-99157906D01*
X130018822Y-99177307D01*
X130012521Y-99195710D01*
X130004562Y-99214102D01*
X130004561Y-99214105D01*
X129997271Y-99260127D01*
X129996087Y-99265846D01*
X129984501Y-99310972D01*
X129984500Y-99310982D01*
X129984500Y-99331016D01*
X129982973Y-99350413D01*
X129982249Y-99354983D01*
X129979840Y-99370194D01*
X129979840Y-99370195D01*
X129984225Y-99416583D01*
X129984500Y-99422421D01*
X129984500Y-113675811D01*
X129964815Y-113742850D01*
X129931623Y-113777386D01*
X129770859Y-113889953D01*
X129609954Y-114050858D01*
X129479432Y-114237265D01*
X129479431Y-114237267D01*
X129383261Y-114443502D01*
X129383258Y-114443511D01*
X129324366Y-114663302D01*
X129324364Y-114663313D01*
X129304532Y-114889998D01*
X129304532Y-114890001D01*
X129324364Y-115116686D01*
X129324366Y-115116697D01*
X129383258Y-115336488D01*
X129383261Y-115336497D01*
X129479431Y-115542732D01*
X129479432Y-115542734D01*
X129609954Y-115729141D01*
X129770858Y-115890045D01*
X129931623Y-116002613D01*
X129975248Y-116057189D01*
X129984500Y-116104188D01*
X129984500Y-118027255D01*
X129982775Y-118042872D01*
X129983061Y-118042899D01*
X129982326Y-118050665D01*
X129984500Y-118119814D01*
X129984500Y-118149343D01*
X129984501Y-118149360D01*
X129985368Y-118156231D01*
X129985826Y-118162050D01*
X129987290Y-118208624D01*
X129987291Y-118208627D01*
X129992880Y-118227867D01*
X129996824Y-118246911D01*
X129999336Y-118266792D01*
X130009583Y-118292673D01*
X130016490Y-118310119D01*
X130018382Y-118315647D01*
X130027631Y-118347482D01*
X130031382Y-118360390D01*
X130041486Y-118377476D01*
X130041580Y-118377634D01*
X130050138Y-118395103D01*
X130057514Y-118413732D01*
X130084898Y-118451423D01*
X130088106Y-118456307D01*
X130111827Y-118496416D01*
X130111833Y-118496424D01*
X130125990Y-118510580D01*
X130138628Y-118525376D01*
X130150405Y-118541586D01*
X130150406Y-118541587D01*
X130186309Y-118571288D01*
X130190620Y-118575210D01*
X132739604Y-121124195D01*
X132749197Y-121133788D01*
X132759022Y-121146051D01*
X132759243Y-121145869D01*
X132764214Y-121151878D01*
X132785043Y-121171437D01*
X132814635Y-121199226D01*
X132835529Y-121220120D01*
X132841011Y-121224373D01*
X132845443Y-121228157D01*
X132879418Y-121260062D01*
X132896976Y-121269714D01*
X132913233Y-121280393D01*
X132929064Y-121292673D01*
X132948737Y-121301186D01*
X132971833Y-121311182D01*
X132977077Y-121313750D01*
X133017908Y-121336197D01*
X133030523Y-121339435D01*
X133037305Y-121341177D01*
X133055719Y-121347481D01*
X133074104Y-121355438D01*
X133120157Y-121362732D01*
X133125826Y-121363906D01*
X133170981Y-121375500D01*
X133191016Y-121375500D01*
X133210412Y-121377026D01*
X133216729Y-121378027D01*
X133233153Y-121385813D01*
X133239830Y-121381523D01*
X133263096Y-121377050D01*
X133276584Y-121375775D01*
X133282422Y-121375500D01*
X144475235Y-121375500D01*
X144513525Y-121386743D01*
X144536781Y-121376522D01*
X144552671Y-121375500D01*
X157420981Y-121375500D01*
X157429153Y-121375500D01*
X157452385Y-121377696D01*
X157453989Y-121378001D01*
X157460412Y-121379227D01*
X157517724Y-121375621D01*
X157521597Y-121375500D01*
X183420981Y-121375500D01*
X183429153Y-121375500D01*
X183452385Y-121377696D01*
X183453989Y-121378001D01*
X183460412Y-121379227D01*
X183517724Y-121375621D01*
X183521597Y-121375500D01*
X206667257Y-121375500D01*
X206682877Y-121377224D01*
X206682904Y-121376939D01*
X206690660Y-121377671D01*
X206690667Y-121377673D01*
X206759814Y-121375500D01*
X206789350Y-121375500D01*
X206796228Y-121374630D01*
X206802041Y-121374172D01*
X206848627Y-121372709D01*
X206867869Y-121367117D01*
X206886912Y-121363174D01*
X206906792Y-121360664D01*
X206950122Y-121343507D01*
X206955646Y-121341617D01*
X206959396Y-121340527D01*
X207000390Y-121328618D01*
X207017629Y-121318422D01*
X207035103Y-121309862D01*
X207053727Y-121302488D01*
X207053727Y-121302487D01*
X207053732Y-121302486D01*
X207091449Y-121275082D01*
X207096305Y-121271892D01*
X207136420Y-121248170D01*
X207150589Y-121233999D01*
X207165379Y-121221368D01*
X207181587Y-121209594D01*
X207211299Y-121173676D01*
X207215212Y-121169376D01*
X210243788Y-118140801D01*
X210256042Y-118130986D01*
X210255859Y-118130764D01*
X210261866Y-118125792D01*
X210261877Y-118125786D01*
X210294378Y-118091176D01*
X210309227Y-118075364D01*
X210319671Y-118064918D01*
X210330120Y-118054471D01*
X210334379Y-118048978D01*
X210338152Y-118044561D01*
X210370062Y-118010582D01*
X210379713Y-117993024D01*
X210390396Y-117976761D01*
X210402673Y-117960936D01*
X210421185Y-117918153D01*
X210423738Y-117912941D01*
X210446197Y-117872092D01*
X210451180Y-117852680D01*
X210457481Y-117834280D01*
X210465437Y-117815896D01*
X210472729Y-117769852D01*
X210473906Y-117764171D01*
X210485500Y-117719019D01*
X210485500Y-117698983D01*
X210487027Y-117679582D01*
X210490160Y-117659804D01*
X210485775Y-117613415D01*
X210485500Y-117607577D01*
X210485500Y-115854188D01*
X210505185Y-115787149D01*
X210538377Y-115752613D01*
X210586836Y-115718681D01*
X210699139Y-115640047D01*
X210860047Y-115479139D01*
X210990568Y-115292734D01*
X211017618Y-115234724D01*
X211063790Y-115182285D01*
X211130983Y-115163133D01*
X211197865Y-115183348D01*
X211242382Y-115234725D01*
X211269429Y-115292728D01*
X211269432Y-115292734D01*
X211399954Y-115479141D01*
X211560858Y-115640045D01*
X211560861Y-115640047D01*
X211747266Y-115770568D01*
X211953504Y-115866739D01*
X212173308Y-115925635D01*
X212327442Y-115939120D01*
X212399998Y-115945468D01*
X212400000Y-115945468D01*
X212400002Y-115945468D01*
X212456673Y-115940509D01*
X212626692Y-115925635D01*
X212846496Y-115866739D01*
X213052734Y-115770568D01*
X213239139Y-115640047D01*
X213400047Y-115479139D01*
X213530568Y-115292734D01*
X213557618Y-115234724D01*
X213603790Y-115182285D01*
X213670983Y-115163133D01*
X213737865Y-115183348D01*
X213782382Y-115234725D01*
X213809429Y-115292728D01*
X213809432Y-115292734D01*
X213939954Y-115479141D01*
X214100858Y-115640045D01*
X214100861Y-115640047D01*
X214287266Y-115770568D01*
X214493504Y-115866739D01*
X214713308Y-115925635D01*
X214867442Y-115939120D01*
X214939998Y-115945468D01*
X214940000Y-115945468D01*
X214940002Y-115945468D01*
X214996673Y-115940509D01*
X215166692Y-115925635D01*
X215386496Y-115866739D01*
X215592734Y-115770568D01*
X215779139Y-115640047D01*
X215940047Y-115479139D01*
X216022391Y-115361539D01*
X216052613Y-115318377D01*
X216107189Y-115274752D01*
X216154188Y-115265500D01*
X216265812Y-115265500D01*
X216332851Y-115285185D01*
X216367387Y-115318377D01*
X216479954Y-115479141D01*
X216640858Y-115640045D01*
X216640861Y-115640047D01*
X216827266Y-115770568D01*
X217033504Y-115866739D01*
X217253308Y-115925635D01*
X217407442Y-115939120D01*
X217479998Y-115945468D01*
X217480000Y-115945468D01*
X217480002Y-115945468D01*
X217536673Y-115940509D01*
X217706692Y-115925635D01*
X217775048Y-115907319D01*
X217844897Y-115908982D01*
X217894822Y-115939413D01*
X219339197Y-117383788D01*
X219349022Y-117396051D01*
X219349243Y-117395869D01*
X219354214Y-117401878D01*
X219375043Y-117421437D01*
X219404635Y-117449226D01*
X219425529Y-117470120D01*
X219431011Y-117474373D01*
X219435443Y-117478157D01*
X219469418Y-117510062D01*
X219486976Y-117519714D01*
X219503233Y-117530393D01*
X219519064Y-117542673D01*
X219537336Y-117550580D01*
X219561833Y-117561182D01*
X219567077Y-117563750D01*
X219607908Y-117586197D01*
X219620523Y-117589435D01*
X219627305Y-117591177D01*
X219645719Y-117597481D01*
X219664104Y-117605438D01*
X219710157Y-117612732D01*
X219715826Y-117613906D01*
X219760981Y-117625500D01*
X219781016Y-117625500D01*
X219800413Y-117627026D01*
X219820196Y-117630160D01*
X219866584Y-117625775D01*
X219872422Y-117625500D01*
X228167257Y-117625500D01*
X228182877Y-117627224D01*
X228182904Y-117626939D01*
X228190660Y-117627671D01*
X228190667Y-117627673D01*
X228259814Y-117625500D01*
X228289350Y-117625500D01*
X228296228Y-117624630D01*
X228302041Y-117624172D01*
X228348627Y-117622709D01*
X228367869Y-117617117D01*
X228386912Y-117613174D01*
X228406792Y-117610664D01*
X228450122Y-117593507D01*
X228455646Y-117591617D01*
X228459396Y-117590527D01*
X228500390Y-117578618D01*
X228517629Y-117568422D01*
X228535103Y-117559862D01*
X228553727Y-117552488D01*
X228553727Y-117552487D01*
X228553732Y-117552486D01*
X228591449Y-117525082D01*
X228596305Y-117521892D01*
X228636420Y-117498170D01*
X228650589Y-117483999D01*
X228665379Y-117471368D01*
X228681587Y-117459594D01*
X228711299Y-117423676D01*
X228715212Y-117419376D01*
X230633788Y-115500801D01*
X230646042Y-115490986D01*
X230645859Y-115490764D01*
X230651867Y-115485792D01*
X230651877Y-115485786D01*
X230660108Y-115477019D01*
X230720348Y-115441626D01*
X230790162Y-115444418D01*
X230847383Y-115484511D01*
X230873845Y-115549176D01*
X230874500Y-115561904D01*
X230874500Y-134189547D01*
X230854815Y-134256586D01*
X230838181Y-134277228D01*
X222527228Y-142588181D01*
X222465905Y-142621666D01*
X222439547Y-142624500D01*
X207809452Y-142624500D01*
X207742413Y-142604815D01*
X207696658Y-142552011D01*
X207686714Y-142482853D01*
X207715739Y-142419297D01*
X207721771Y-142412819D01*
X208957362Y-141177228D01*
X212783786Y-137350802D01*
X212796048Y-137340980D01*
X212795865Y-137340759D01*
X212801867Y-137335792D01*
X212801877Y-137335786D01*
X212849241Y-137285348D01*
X212870120Y-137264470D01*
X212874370Y-137258989D01*
X212878151Y-137254561D01*
X212910062Y-137220582D01*
X212919713Y-137203024D01*
X212930396Y-137186761D01*
X212942673Y-137170936D01*
X212961183Y-137128158D01*
X212963743Y-137122932D01*
X212986197Y-137082092D01*
X212991178Y-137062687D01*
X212997482Y-137044279D01*
X212999530Y-137039547D01*
X213005438Y-137025895D01*
X213012729Y-136979853D01*
X213013908Y-136974162D01*
X213025500Y-136929019D01*
X213025500Y-136908983D01*
X213027027Y-136889582D01*
X213030160Y-136869804D01*
X213025775Y-136823415D01*
X213025500Y-136817577D01*
X213025500Y-128554188D01*
X213045185Y-128487149D01*
X213078377Y-128452613D01*
X213167027Y-128390540D01*
X213239139Y-128340047D01*
X213400047Y-128179139D01*
X213530568Y-127992734D01*
X213557618Y-127934724D01*
X213603790Y-127882285D01*
X213670983Y-127863133D01*
X213737865Y-127883348D01*
X213782382Y-127934725D01*
X213809429Y-127992728D01*
X213809432Y-127992734D01*
X213939954Y-128179141D01*
X214100858Y-128340045D01*
X214261623Y-128452613D01*
X214305248Y-128507189D01*
X214314500Y-128554188D01*
X214314500Y-136607255D01*
X214312775Y-136622872D01*
X214313061Y-136622899D01*
X214312326Y-136630665D01*
X214314500Y-136699814D01*
X214314500Y-136729343D01*
X214314501Y-136729360D01*
X214315368Y-136736231D01*
X214315826Y-136742050D01*
X214317290Y-136788624D01*
X214317291Y-136788627D01*
X214322880Y-136807867D01*
X214326824Y-136826911D01*
X214329336Y-136846792D01*
X214338447Y-136869804D01*
X214346490Y-136890119D01*
X214348382Y-136895647D01*
X214361381Y-136940388D01*
X214371580Y-136957634D01*
X214380138Y-136975103D01*
X214390386Y-137000984D01*
X214387839Y-137001992D01*
X214399500Y-137047371D01*
X214399500Y-137925001D01*
X214399501Y-137925019D01*
X214410000Y-138027796D01*
X214410001Y-138027799D01*
X214440986Y-138121303D01*
X214465186Y-138194334D01*
X214557288Y-138343656D01*
X214681344Y-138467712D01*
X214830666Y-138559814D01*
X214997203Y-138614999D01*
X215099991Y-138625500D01*
X215900008Y-138625499D01*
X215900016Y-138625498D01*
X215900019Y-138625498D01*
X215961143Y-138619254D01*
X216002797Y-138614999D01*
X216169334Y-138559814D01*
X216318656Y-138467712D01*
X216442712Y-138343656D01*
X216481815Y-138280258D01*
X216533761Y-138233535D01*
X216602723Y-138222312D01*
X216666806Y-138250155D01*
X216684824Y-138268705D01*
X216699907Y-138287885D01*
X216699909Y-138287887D01*
X216858746Y-138425521D01*
X217040750Y-138530601D01*
X217040752Y-138530601D01*
X217040756Y-138530604D01*
X217239367Y-138599344D01*
X217447398Y-138629254D01*
X217657330Y-138619254D01*
X217861576Y-138569704D01*
X217973248Y-138518705D01*
X218052743Y-138482401D01*
X218052746Y-138482399D01*
X218052753Y-138482396D01*
X218223952Y-138360486D01*
X218225195Y-138359183D01*
X218368986Y-138208378D01*
X218378010Y-138194336D01*
X218395540Y-138167058D01*
X218448343Y-138121303D01*
X218517502Y-138111359D01*
X218581058Y-138140383D01*
X218597326Y-138157444D01*
X218660247Y-138237454D01*
X218691975Y-138277799D01*
X218699909Y-138287887D01*
X218858746Y-138425521D01*
X219040750Y-138530601D01*
X219040752Y-138530601D01*
X219040756Y-138530604D01*
X219239367Y-138599344D01*
X219447398Y-138629254D01*
X219657330Y-138619254D01*
X219861576Y-138569704D01*
X219973248Y-138518705D01*
X220052743Y-138482401D01*
X220052746Y-138482399D01*
X220052753Y-138482396D01*
X220223952Y-138360486D01*
X220225195Y-138359183D01*
X220368986Y-138208378D01*
X220378010Y-138194336D01*
X220395540Y-138167058D01*
X220448343Y-138121303D01*
X220517502Y-138111359D01*
X220581058Y-138140383D01*
X220597326Y-138157444D01*
X220660247Y-138237454D01*
X220691975Y-138277799D01*
X220699909Y-138287887D01*
X220858746Y-138425521D01*
X221040750Y-138530601D01*
X221040752Y-138530601D01*
X221040756Y-138530604D01*
X221239367Y-138599344D01*
X221447398Y-138629254D01*
X221657330Y-138619254D01*
X221861576Y-138569704D01*
X221973248Y-138518705D01*
X222052743Y-138482401D01*
X222052746Y-138482399D01*
X222052753Y-138482396D01*
X222223952Y-138360486D01*
X222225195Y-138359183D01*
X222368985Y-138208379D01*
X222378010Y-138194336D01*
X222482613Y-138031572D01*
X222560725Y-137836457D01*
X222600500Y-137630085D01*
X222600500Y-137085452D01*
X222620185Y-137018413D01*
X222636819Y-136997771D01*
X222790039Y-136844551D01*
X222943788Y-136690801D01*
X222956042Y-136680986D01*
X222955859Y-136680764D01*
X222961866Y-136675792D01*
X222961877Y-136675786D01*
X222995933Y-136639520D01*
X223009227Y-136625364D01*
X223019671Y-136614918D01*
X223030120Y-136604471D01*
X223034379Y-136598978D01*
X223038152Y-136594561D01*
X223070062Y-136560582D01*
X223079713Y-136543024D01*
X223090396Y-136526761D01*
X223102673Y-136510936D01*
X223121185Y-136468153D01*
X223123738Y-136462941D01*
X223146197Y-136422092D01*
X223151180Y-136402680D01*
X223157481Y-136384280D01*
X223165437Y-136365896D01*
X223172729Y-136319852D01*
X223173906Y-136314171D01*
X223185500Y-136269019D01*
X223185500Y-136248983D01*
X223187027Y-136229582D01*
X223188290Y-136221608D01*
X223190160Y-136209804D01*
X223185775Y-136163415D01*
X223185500Y-136157577D01*
X223185500Y-128554188D01*
X223205185Y-128487149D01*
X223238377Y-128452613D01*
X223327027Y-128390540D01*
X223399139Y-128340047D01*
X223560047Y-128179139D01*
X223690568Y-127992734D01*
X223717895Y-127934129D01*
X223764064Y-127881695D01*
X223831257Y-127862542D01*
X223898139Y-127882757D01*
X223942657Y-127934133D01*
X223969865Y-127992482D01*
X224100342Y-128178820D01*
X224261179Y-128339657D01*
X224447517Y-128470134D01*
X224653673Y-128566265D01*
X224653682Y-128566269D01*
X224849999Y-128618872D01*
X224850000Y-128618871D01*
X224850000Y-127655686D01*
X224861955Y-127667641D01*
X224974852Y-127725165D01*
X225068519Y-127740000D01*
X225131481Y-127740000D01*
X225225148Y-127725165D01*
X225338045Y-127667641D01*
X225350000Y-127655686D01*
X225350000Y-128618872D01*
X225546317Y-128566269D01*
X225546326Y-128566265D01*
X225752482Y-128470134D01*
X225938820Y-128339657D01*
X226099657Y-128178820D01*
X226230132Y-127992484D01*
X226257341Y-127934134D01*
X226303513Y-127881695D01*
X226370707Y-127862542D01*
X226437588Y-127882757D01*
X226482106Y-127934133D01*
X226509431Y-127992732D01*
X226509432Y-127992734D01*
X226639954Y-128179141D01*
X226800858Y-128340045D01*
X226800861Y-128340047D01*
X226987266Y-128470568D01*
X227193504Y-128566739D01*
X227413308Y-128625635D01*
X227575230Y-128639801D01*
X227639998Y-128645468D01*
X227640000Y-128645468D01*
X227640002Y-128645468D01*
X227702511Y-128639999D01*
X227866692Y-128625635D01*
X228086496Y-128566739D01*
X228292734Y-128470568D01*
X228479139Y-128340047D01*
X228640047Y-128179139D01*
X228770568Y-127992734D01*
X228866739Y-127786496D01*
X228925635Y-127566692D01*
X228945468Y-127340000D01*
X228925635Y-127113308D01*
X228866739Y-126893504D01*
X228770568Y-126687266D01*
X228640047Y-126500861D01*
X228640045Y-126500858D01*
X228479140Y-126339953D01*
X228318377Y-126227386D01*
X228274752Y-126172809D01*
X228265500Y-126125811D01*
X228265500Y-126100651D01*
X228265500Y-126100650D01*
X228264629Y-126093759D01*
X228264172Y-126087945D01*
X228263318Y-126060773D01*
X228262709Y-126041373D01*
X228260721Y-126034532D01*
X228257122Y-126022144D01*
X228253174Y-126003084D01*
X228250664Y-125983208D01*
X228233507Y-125939875D01*
X228231619Y-125934359D01*
X228218619Y-125889612D01*
X228208418Y-125872363D01*
X228199860Y-125854894D01*
X228192486Y-125836268D01*
X228192483Y-125836264D01*
X228192483Y-125836263D01*
X228165098Y-125798571D01*
X228161890Y-125793687D01*
X228138172Y-125753582D01*
X228138171Y-125753581D01*
X228138170Y-125753579D01*
X228138165Y-125753574D01*
X228138163Y-125753571D01*
X228124005Y-125739413D01*
X228111370Y-125724620D01*
X228099593Y-125708412D01*
X228063693Y-125678713D01*
X228059381Y-125674790D01*
X225250803Y-122866212D01*
X225240980Y-122853950D01*
X225240759Y-122854134D01*
X225235786Y-122848123D01*
X225217159Y-122830631D01*
X225185364Y-122800773D01*
X225174919Y-122790328D01*
X225164475Y-122779883D01*
X225158986Y-122775625D01*
X225154561Y-122771847D01*
X225120582Y-122739938D01*
X225120580Y-122739936D01*
X225120577Y-122739935D01*
X225103029Y-122730288D01*
X225086763Y-122719604D01*
X225070933Y-122707325D01*
X225028168Y-122688818D01*
X225022922Y-122686248D01*
X224982093Y-122663803D01*
X224982092Y-122663802D01*
X224962693Y-122658822D01*
X224944281Y-122652518D01*
X224925898Y-122644562D01*
X224925892Y-122644560D01*
X224879874Y-122637272D01*
X224874152Y-122636087D01*
X224829021Y-122624500D01*
X224829019Y-122624500D01*
X224808984Y-122624500D01*
X224789586Y-122622973D01*
X224782162Y-122621797D01*
X224769805Y-122619840D01*
X224769804Y-122619840D01*
X224723416Y-122624225D01*
X224717578Y-122624500D01*
X203582743Y-122624500D01*
X203567122Y-122622775D01*
X203567095Y-122623061D01*
X203559333Y-122622326D01*
X203490172Y-122624500D01*
X178082743Y-122624500D01*
X178067122Y-122622775D01*
X178067096Y-122623061D01*
X178059334Y-122622327D01*
X178059333Y-122622327D01*
X177990186Y-122624500D01*
X152812743Y-122624500D01*
X152797122Y-122622775D01*
X152797096Y-122623061D01*
X152789334Y-122622327D01*
X152789333Y-122622327D01*
X152720186Y-122624500D01*
X152690649Y-122624500D01*
X152683766Y-122625369D01*
X152677949Y-122625826D01*
X152631373Y-122627290D01*
X152612129Y-122632881D01*
X152593079Y-122636825D01*
X152573211Y-122639334D01*
X152529884Y-122656488D01*
X152524358Y-122658379D01*
X152479614Y-122671379D01*
X152479610Y-122671381D01*
X152462366Y-122681579D01*
X152444905Y-122690133D01*
X152426274Y-122697510D01*
X152426262Y-122697517D01*
X152388570Y-122724902D01*
X152383687Y-122728109D01*
X152343580Y-122751829D01*
X152329414Y-122765995D01*
X152314624Y-122778627D01*
X152298414Y-122790404D01*
X152298411Y-122790407D01*
X152268710Y-122826309D01*
X152264777Y-122830631D01*
X149169274Y-125926133D01*
X149107951Y-125959618D01*
X149038259Y-125954634D01*
X148982326Y-125912762D01*
X148972743Y-125896238D01*
X148972592Y-125896328D01*
X148958423Y-125872371D01*
X148949861Y-125854894D01*
X148942487Y-125836270D01*
X148942482Y-125836263D01*
X148915079Y-125798545D01*
X148911888Y-125793686D01*
X148899788Y-125773226D01*
X148895234Y-125765525D01*
X148888172Y-125753583D01*
X148888165Y-125753574D01*
X148874006Y-125739415D01*
X148861368Y-125724619D01*
X148849594Y-125708413D01*
X148843436Y-125703319D01*
X148813688Y-125678709D01*
X148809376Y-125674786D01*
X145000803Y-121866212D01*
X144990980Y-121853950D01*
X144990759Y-121854134D01*
X144985786Y-121848123D01*
X144935364Y-121800773D01*
X144924919Y-121790328D01*
X144914475Y-121779883D01*
X144908986Y-121775625D01*
X144904561Y-121771847D01*
X144870582Y-121739938D01*
X144870580Y-121739936D01*
X144870577Y-121739935D01*
X144853029Y-121730288D01*
X144836763Y-121719604D01*
X144820933Y-121707325D01*
X144778168Y-121688818D01*
X144772922Y-121686248D01*
X144732093Y-121663803D01*
X144732092Y-121663802D01*
X144712693Y-121658822D01*
X144694281Y-121652518D01*
X144675898Y-121644562D01*
X144675892Y-121644560D01*
X144629874Y-121637272D01*
X144624152Y-121636087D01*
X144579021Y-121624500D01*
X144579019Y-121624500D01*
X144558984Y-121624500D01*
X144539587Y-121622973D01*
X144533270Y-121621972D01*
X144516846Y-121614186D01*
X144510170Y-121618477D01*
X144486904Y-121622950D01*
X144473416Y-121624225D01*
X144467578Y-121624500D01*
X133274765Y-121624500D01*
X133236474Y-121613256D01*
X133213219Y-121623478D01*
X133197329Y-121624500D01*
X130810452Y-121624500D01*
X130743413Y-121604815D01*
X130722771Y-121588181D01*
X128661819Y-119527228D01*
X128628334Y-119465905D01*
X128625500Y-119439547D01*
X128625500Y-97858574D01*
X128645185Y-97791535D01*
X128661819Y-97770893D01*
X132347712Y-94085000D01*
X133704700Y-94085000D01*
X133707359Y-94117097D01*
X133711955Y-94172567D01*
X133715819Y-94263523D01*
X133715820Y-94263534D01*
X133720939Y-94287284D01*
X133722120Y-94295233D01*
X133723865Y-94316301D01*
X133723865Y-94316304D01*
X133723866Y-94316305D01*
X133746205Y-94404520D01*
X133753677Y-94439191D01*
X133766046Y-94496582D01*
X133773883Y-94516084D01*
X133776458Y-94523987D01*
X133780844Y-94541303D01*
X133818655Y-94627504D01*
X133854934Y-94717787D01*
X133854935Y-94717788D01*
X133864232Y-94732888D01*
X133868218Y-94740495D01*
X133874076Y-94753850D01*
X133927275Y-94835277D01*
X133979930Y-94920794D01*
X133986543Y-94928308D01*
X133997263Y-94942402D01*
X133999738Y-94946189D01*
X134001021Y-94948153D01*
X134069027Y-95022028D01*
X134137436Y-95099755D01*
X134142564Y-95103895D01*
X134155882Y-95116377D01*
X134158216Y-95118913D01*
X134239933Y-95182515D01*
X134322920Y-95249523D01*
X134322922Y-95249524D01*
X134325678Y-95251064D01*
X134341360Y-95261460D01*
X134341367Y-95261465D01*
X134341371Y-95261467D01*
X134341374Y-95261470D01*
X134434885Y-95312075D01*
X134435162Y-95312225D01*
X134531046Y-95365790D01*
X134533849Y-95367058D01*
X134540695Y-95370097D01*
X134540794Y-95369873D01*
X134545490Y-95371932D01*
X134545497Y-95371936D01*
X134649276Y-95407563D01*
X134755829Y-95445211D01*
X134756398Y-95445308D01*
X134761129Y-95446312D01*
X134765007Y-95447294D01*
X134765019Y-95447298D01*
X134876324Y-95465871D01*
X134990791Y-95485499D01*
X134990800Y-95485500D01*
X135226044Y-95485500D01*
X135226049Y-95485500D01*
X135259073Y-95479988D01*
X135282469Y-95476085D01*
X135287407Y-95475463D01*
X135347541Y-95470346D01*
X135399615Y-95456786D01*
X135405017Y-95455634D01*
X135454981Y-95447298D01*
X135512186Y-95427658D01*
X135516663Y-95426309D01*
X135578249Y-95410275D01*
X135584249Y-95407563D01*
X135589262Y-95405296D01*
X135624297Y-95389459D01*
X135629681Y-95387322D01*
X135674503Y-95371936D01*
X135730554Y-95341601D01*
X135734527Y-95339632D01*
X135743156Y-95335730D01*
X135795486Y-95312077D01*
X135834647Y-95285608D01*
X135839820Y-95282469D01*
X135878626Y-95261470D01*
X135931532Y-95220290D01*
X135934850Y-95217881D01*
X135993003Y-95178579D01*
X136024770Y-95148131D01*
X136029548Y-95144002D01*
X136061784Y-95118913D01*
X136064109Y-95116388D01*
X136079420Y-95099755D01*
X136109389Y-95067198D01*
X136112101Y-95064432D01*
X136165118Y-95013621D01*
X136189329Y-94980883D01*
X136193540Y-94975785D01*
X136218979Y-94948153D01*
X136259206Y-94886578D01*
X136261241Y-94883652D01*
X136306879Y-94821947D01*
X136323733Y-94788517D01*
X136327170Y-94782552D01*
X136345924Y-94753849D01*
X136376805Y-94683445D01*
X136378174Y-94680538D01*
X136414207Y-94609074D01*
X136424208Y-94576413D01*
X136426701Y-94569694D01*
X136439157Y-94541300D01*
X136458827Y-94463621D01*
X136459635Y-94460732D01*
X136484016Y-94381123D01*
X136487936Y-94350508D01*
X136489330Y-94343170D01*
X136496134Y-94316305D01*
X136503132Y-94231845D01*
X136514298Y-94144654D01*
X136513126Y-94117079D01*
X136513281Y-94109355D01*
X136515300Y-94085000D01*
X136513592Y-94064392D01*
X136508044Y-93997432D01*
X136506410Y-93958972D01*
X136504180Y-93906468D01*
X136499059Y-93882709D01*
X136497879Y-93874762D01*
X136497286Y-93867602D01*
X136496134Y-93853695D01*
X136496133Y-93853692D01*
X136496133Y-93853688D01*
X136478739Y-93785003D01*
X136884723Y-93785003D01*
X136886688Y-93807470D01*
X136886862Y-93815660D01*
X136885709Y-93841324D01*
X136885710Y-93841328D01*
X136896641Y-93922031D01*
X136896966Y-93924949D01*
X136903792Y-94002972D01*
X136903795Y-94002987D01*
X136910482Y-94027941D01*
X136912034Y-94035670D01*
X136915924Y-94064381D01*
X136915926Y-94064392D01*
X136940075Y-94138713D01*
X136940997Y-94141825D01*
X136960423Y-94214324D01*
X136960427Y-94214336D01*
X136972736Y-94240732D01*
X136975512Y-94247779D01*
X136985483Y-94278464D01*
X137020970Y-94344411D01*
X137022558Y-94347576D01*
X137052898Y-94412639D01*
X137071490Y-94439191D01*
X137075303Y-94445378D01*
X137092146Y-94476678D01*
X137092152Y-94476687D01*
X137136792Y-94532663D01*
X137139106Y-94535758D01*
X137162854Y-94569672D01*
X137178402Y-94591877D01*
X137178405Y-94591880D01*
X137203646Y-94617121D01*
X137208283Y-94622309D01*
X137232492Y-94652666D01*
X137283959Y-94697632D01*
X137287008Y-94700483D01*
X137333116Y-94746592D01*
X137333122Y-94746597D01*
X137333123Y-94746598D01*
X137343479Y-94753849D01*
X137365055Y-94768957D01*
X137370290Y-94773057D01*
X137402004Y-94800765D01*
X137402013Y-94800771D01*
X137457849Y-94834131D01*
X137461613Y-94836568D01*
X137512359Y-94872101D01*
X137512364Y-94872104D01*
X137534917Y-94882620D01*
X137550677Y-94889969D01*
X137556271Y-94892935D01*
X137593349Y-94915088D01*
X137595236Y-94916215D01*
X137607437Y-94920794D01*
X137653083Y-94937925D01*
X137657503Y-94939782D01*
X137710670Y-94964575D01*
X137710674Y-94964577D01*
X137741069Y-94972720D01*
X137754677Y-94976366D01*
X137760413Y-94978207D01*
X137767581Y-94980897D01*
X137805976Y-94995307D01*
X137863545Y-95005754D01*
X137868511Y-95006868D01*
X137922023Y-95021207D01*
X137970689Y-95025464D01*
X137976306Y-95026218D01*
X138027453Y-95035500D01*
X138082691Y-95035500D01*
X138088092Y-95035735D01*
X138116548Y-95038225D01*
X138139998Y-95040277D01*
X138140000Y-95040277D01*
X138192992Y-95035640D01*
X138196121Y-95035500D01*
X138196155Y-95035500D01*
X138250172Y-95030638D01*
X138357977Y-95021207D01*
X138358000Y-95021200D01*
X138358475Y-95021117D01*
X138363713Y-95020419D01*
X138364188Y-95020377D01*
X138467997Y-94991726D01*
X138569330Y-94964575D01*
X138569337Y-94964571D01*
X138576254Y-94962053D01*
X138580948Y-94960554D01*
X138581170Y-94960493D01*
X138581181Y-94960487D01*
X138581183Y-94960487D01*
X138675454Y-94915088D01*
X138767639Y-94872102D01*
X138767644Y-94872097D01*
X138772327Y-94869395D01*
X138772400Y-94869522D01*
X138783164Y-94863218D01*
X138783973Y-94862829D01*
X138866156Y-94803118D01*
X138946877Y-94746598D01*
X138947747Y-94745727D01*
X138962550Y-94733084D01*
X138966078Y-94730522D01*
X139034131Y-94659343D01*
X139101598Y-94591877D01*
X139104285Y-94588039D01*
X139116239Y-94573465D01*
X139121629Y-94567828D01*
X139121628Y-94567828D01*
X139121632Y-94567825D01*
X139174164Y-94488241D01*
X139227102Y-94412639D01*
X139230543Y-94405259D01*
X139239432Y-94389364D01*
X139245635Y-94379968D01*
X139281889Y-94295146D01*
X139319575Y-94214330D01*
X139322570Y-94203148D01*
X139328325Y-94186505D01*
X139334103Y-94172988D01*
X139353936Y-94086092D01*
X139376207Y-94002977D01*
X139377887Y-93983766D01*
X139379206Y-93975377D01*
X139379445Y-93974325D01*
X139384191Y-93953537D01*
X139386595Y-93900000D01*
X181654341Y-93900000D01*
X181659024Y-93953536D01*
X181659264Y-93956271D01*
X181659500Y-93961677D01*
X181659500Y-94797870D01*
X181659501Y-94797876D01*
X181665908Y-94857483D01*
X181716202Y-94992328D01*
X181716206Y-94992335D01*
X181802452Y-95107544D01*
X181802455Y-95107547D01*
X181917664Y-95193793D01*
X181917671Y-95193797D01*
X182052517Y-95244091D01*
X182052516Y-95244091D01*
X182059444Y-95244835D01*
X182112127Y-95250500D01*
X182948322Y-95250499D01*
X182953727Y-95250734D01*
X183010000Y-95255659D01*
X183066272Y-95250734D01*
X183071678Y-95250499D01*
X185707871Y-95250499D01*
X185707872Y-95250499D01*
X185767483Y-95244091D01*
X185902331Y-95193796D01*
X186017546Y-95107546D01*
X186103796Y-94992331D01*
X186154091Y-94857483D01*
X186160500Y-94797873D01*
X186160499Y-93002128D01*
X186154091Y-92942517D01*
X186150014Y-92931587D01*
X186103797Y-92807671D01*
X186103795Y-92807668D01*
X186026421Y-92704309D01*
X186002004Y-92638848D01*
X186016855Y-92570575D01*
X186026416Y-92555696D01*
X186103796Y-92452331D01*
X186154091Y-92317483D01*
X186160500Y-92257873D01*
X186160499Y-90462128D01*
X186154091Y-90402517D01*
X186153852Y-90401877D01*
X186103797Y-90267671D01*
X186103795Y-90267668D01*
X186073124Y-90226697D01*
X186026421Y-90164309D01*
X186002004Y-90098848D01*
X186016855Y-90030575D01*
X186026416Y-90015696D01*
X186103796Y-89912331D01*
X186154091Y-89777483D01*
X186160500Y-89717873D01*
X186160499Y-87922128D01*
X186154091Y-87862517D01*
X186151945Y-87856764D01*
X186103797Y-87727671D01*
X186103793Y-87727664D01*
X186017547Y-87612455D01*
X186017544Y-87612452D01*
X185902335Y-87526206D01*
X185902328Y-87526202D01*
X185767482Y-87475908D01*
X185767483Y-87475908D01*
X185707883Y-87469501D01*
X185707881Y-87469500D01*
X185707873Y-87469500D01*
X185707865Y-87469500D01*
X183071680Y-87469500D01*
X183066278Y-87469264D01*
X183027494Y-87465871D01*
X183010001Y-87464341D01*
X183009998Y-87464341D01*
X182982715Y-87466727D01*
X182953719Y-87469264D01*
X182948319Y-87469500D01*
X182112129Y-87469500D01*
X182112123Y-87469501D01*
X182052516Y-87475908D01*
X181917671Y-87526202D01*
X181917664Y-87526206D01*
X181802455Y-87612452D01*
X181802452Y-87612455D01*
X181716206Y-87727664D01*
X181716202Y-87727671D01*
X181665908Y-87862517D01*
X181662088Y-87898053D01*
X181659501Y-87922123D01*
X181659500Y-87922135D01*
X181659500Y-88758322D01*
X181659264Y-88763723D01*
X181657679Y-88781845D01*
X181654908Y-88813523D01*
X181654341Y-88820000D01*
X181658703Y-88869866D01*
X181659264Y-88876271D01*
X181659500Y-88881677D01*
X181659500Y-89717870D01*
X181659501Y-89717876D01*
X181665908Y-89777483D01*
X181716202Y-89912328D01*
X181716203Y-89912330D01*
X181793578Y-90015689D01*
X181817995Y-90081153D01*
X181803144Y-90149426D01*
X181793578Y-90164309D01*
X181788415Y-90171208D01*
X181716203Y-90267669D01*
X181716202Y-90267671D01*
X181665908Y-90402517D01*
X181661180Y-90446497D01*
X181659501Y-90462123D01*
X181659500Y-90462135D01*
X181659500Y-92257870D01*
X181659501Y-92257876D01*
X181665908Y-92317483D01*
X181716202Y-92452328D01*
X181716203Y-92452330D01*
X181759236Y-92509814D01*
X181789005Y-92549581D01*
X181793578Y-92555689D01*
X181817995Y-92621153D01*
X181803144Y-92689426D01*
X181793578Y-92704311D01*
X181716203Y-92807669D01*
X181716202Y-92807671D01*
X181665908Y-92942517D01*
X181659501Y-93002116D01*
X181659501Y-93002123D01*
X181659500Y-93002135D01*
X181659500Y-93838322D01*
X181659264Y-93843723D01*
X181654341Y-93900000D01*
X139386595Y-93900000D01*
X139388050Y-93867602D01*
X139395277Y-93785000D01*
X139393310Y-93762528D01*
X139393137Y-93754334D01*
X139394290Y-93728670D01*
X139383353Y-93647939D01*
X139383034Y-93645067D01*
X139376207Y-93567023D01*
X139369515Y-93542053D01*
X139367963Y-93534322D01*
X139364076Y-93505618D01*
X139364075Y-93505616D01*
X139364075Y-93505613D01*
X139339921Y-93431276D01*
X139338998Y-93428161D01*
X139319576Y-93355673D01*
X139319574Y-93355669D01*
X139307266Y-93329274D01*
X139304488Y-93322222D01*
X139294519Y-93291541D01*
X139294517Y-93291537D01*
X139294517Y-93291536D01*
X139281988Y-93268253D01*
X139259027Y-93225583D01*
X139257432Y-93222405D01*
X139256315Y-93220010D01*
X139227102Y-93157362D01*
X139208512Y-93130813D01*
X139204698Y-93124625D01*
X139193718Y-93104221D01*
X139187852Y-93093319D01*
X139143192Y-93037318D01*
X139140896Y-93034247D01*
X139101598Y-92978123D01*
X139076353Y-92952878D01*
X139071715Y-92947689D01*
X139047508Y-92917334D01*
X139039866Y-92910657D01*
X138996039Y-92872366D01*
X138992990Y-92869515D01*
X138946878Y-92823402D01*
X138914940Y-92801039D01*
X138909705Y-92796939D01*
X138896158Y-92785103D01*
X138877996Y-92769235D01*
X138877994Y-92769233D01*
X138877992Y-92769232D01*
X138822149Y-92735868D01*
X138818386Y-92733431D01*
X138767641Y-92697899D01*
X138729333Y-92680035D01*
X138723735Y-92677067D01*
X138684769Y-92653787D01*
X138684767Y-92653786D01*
X138626928Y-92632079D01*
X138622515Y-92630226D01*
X138569330Y-92605425D01*
X138525321Y-92593632D01*
X138519581Y-92591790D01*
X138474025Y-92574692D01*
X138416456Y-92564245D01*
X138411480Y-92563128D01*
X138357977Y-92548793D01*
X138309327Y-92544536D01*
X138303659Y-92543775D01*
X138252551Y-92534500D01*
X138252547Y-92534500D01*
X138197309Y-92534500D01*
X138191907Y-92534264D01*
X138163451Y-92531774D01*
X138140002Y-92529723D01*
X138139997Y-92529723D01*
X138087050Y-92534355D01*
X138083862Y-92534499D01*
X138083851Y-92534500D01*
X138083845Y-92534500D01*
X138037671Y-92538655D01*
X138029826Y-92539361D01*
X137922020Y-92548793D01*
X137921468Y-92548891D01*
X137916275Y-92549581D01*
X137915812Y-92549622D01*
X137915809Y-92549623D01*
X137812002Y-92578273D01*
X137710659Y-92605428D01*
X137703739Y-92607946D01*
X137699050Y-92609444D01*
X137698849Y-92609499D01*
X137698832Y-92609505D01*
X137604528Y-92654919D01*
X137512358Y-92697899D01*
X137507670Y-92700606D01*
X137507598Y-92700481D01*
X137496871Y-92706764D01*
X137496030Y-92707168D01*
X137413831Y-92766889D01*
X137333123Y-92823401D01*
X137332241Y-92824284D01*
X137317461Y-92836906D01*
X137313928Y-92839472D01*
X137313916Y-92839483D01*
X137282477Y-92872366D01*
X137245868Y-92910656D01*
X137224938Y-92931586D01*
X137178403Y-92978120D01*
X137178402Y-92978121D01*
X137175711Y-92981965D01*
X137163773Y-92996521D01*
X137158368Y-93002174D01*
X137137476Y-93033822D01*
X137105828Y-93081768D01*
X137053587Y-93156378D01*
X137052898Y-93157362D01*
X137052891Y-93157374D01*
X137049457Y-93164738D01*
X137040572Y-93180628D01*
X137034362Y-93190035D01*
X137034362Y-93190036D01*
X137007129Y-93253752D01*
X136998108Y-93274858D01*
X136990331Y-93291536D01*
X136960425Y-93355669D01*
X136960424Y-93355671D01*
X136957425Y-93366860D01*
X136951681Y-93383475D01*
X136945899Y-93397005D01*
X136945896Y-93397016D01*
X136926063Y-93483907D01*
X136903793Y-93567022D01*
X136903793Y-93567023D01*
X136902112Y-93586226D01*
X136900793Y-93594619D01*
X136899492Y-93600323D01*
X136895809Y-93616459D01*
X136895809Y-93616464D01*
X136891949Y-93702397D01*
X136884723Y-93784996D01*
X136884723Y-93785003D01*
X136478739Y-93785003D01*
X136478738Y-93785000D01*
X136473794Y-93765479D01*
X136453954Y-93673419D01*
X136446115Y-93653912D01*
X136443541Y-93646015D01*
X136439157Y-93628700D01*
X136401344Y-93542495D01*
X136365064Y-93452210D01*
X136355768Y-93437112D01*
X136351779Y-93429500D01*
X136345924Y-93416151D01*
X136292724Y-93334721D01*
X136240071Y-93249208D01*
X136240070Y-93249207D01*
X136240069Y-93249205D01*
X136233451Y-93241686D01*
X136222727Y-93227584D01*
X136218978Y-93221845D01*
X136150972Y-93147971D01*
X136082565Y-93070246D01*
X136077439Y-93066107D01*
X136064117Y-93053621D01*
X136061785Y-93051088D01*
X136061783Y-93051086D01*
X135980066Y-92987484D01*
X135897080Y-92920477D01*
X135897073Y-92920472D01*
X135894311Y-92918929D01*
X135878643Y-92908542D01*
X135878634Y-92908535D01*
X135878628Y-92908532D01*
X135878626Y-92908530D01*
X135784837Y-92857774D01*
X135688954Y-92804210D01*
X135688953Y-92804209D01*
X135688952Y-92804209D01*
X135686381Y-92803047D01*
X135679284Y-92799898D01*
X135679188Y-92800119D01*
X135674506Y-92798065D01*
X135570723Y-92762436D01*
X135464168Y-92724788D01*
X135464160Y-92724786D01*
X135463612Y-92724692D01*
X135458889Y-92723691D01*
X135454989Y-92722703D01*
X135343675Y-92704128D01*
X135229209Y-92684500D01*
X135229200Y-92684500D01*
X135226049Y-92684500D01*
X134993951Y-92684500D01*
X134993950Y-92684500D01*
X134937533Y-92693913D01*
X134932587Y-92694535D01*
X134930099Y-92694747D01*
X134872469Y-92699652D01*
X134872461Y-92699653D01*
X134820397Y-92713208D01*
X134814981Y-92714363D01*
X134765013Y-92722703D01*
X134707840Y-92742331D01*
X134703330Y-92743690D01*
X134641749Y-92759725D01*
X134641744Y-92759727D01*
X134595711Y-92780535D01*
X134590304Y-92782680D01*
X134545503Y-92798060D01*
X134545498Y-92798063D01*
X134489448Y-92828395D01*
X134485478Y-92830363D01*
X134424514Y-92857922D01*
X134385359Y-92884385D01*
X134380149Y-92887544D01*
X134341379Y-92908526D01*
X134341367Y-92908533D01*
X134288487Y-92949692D01*
X134285124Y-92952133D01*
X134227001Y-92991417D01*
X134226994Y-92991422D01*
X134195248Y-93021847D01*
X134190430Y-93026011D01*
X134158218Y-93051085D01*
X134158209Y-93051093D01*
X134110613Y-93102795D01*
X134107900Y-93105564D01*
X134054882Y-93156378D01*
X134054880Y-93156380D01*
X134030681Y-93189098D01*
X134026448Y-93194223D01*
X134001022Y-93221845D01*
X133960797Y-93283412D01*
X133958741Y-93286367D01*
X133913124Y-93348047D01*
X133913120Y-93348054D01*
X133896268Y-93381475D01*
X133892811Y-93387472D01*
X133874076Y-93416149D01*
X133843219Y-93486496D01*
X133841803Y-93489503D01*
X133805790Y-93560931D01*
X133795792Y-93593573D01*
X133793288Y-93600323D01*
X133780845Y-93628691D01*
X133780845Y-93628692D01*
X133761178Y-93706347D01*
X133760358Y-93709279D01*
X133735984Y-93788876D01*
X133735983Y-93788879D01*
X133732063Y-93819485D01*
X133730668Y-93826830D01*
X133723867Y-93853688D01*
X133723864Y-93853705D01*
X133716867Y-93938154D01*
X133705702Y-94025344D01*
X133705701Y-94025344D01*
X133706872Y-94052900D01*
X133706716Y-94060655D01*
X133704700Y-94084995D01*
X133704700Y-94085000D01*
X132347712Y-94085000D01*
X134520893Y-91911819D01*
X134582216Y-91878334D01*
X134608574Y-91875500D01*
X160417257Y-91875500D01*
X160432877Y-91877224D01*
X160432904Y-91876939D01*
X160440660Y-91877671D01*
X160440667Y-91877673D01*
X160509814Y-91875500D01*
X160539350Y-91875500D01*
X160546228Y-91874630D01*
X160552041Y-91874172D01*
X160598627Y-91872709D01*
X160617869Y-91867117D01*
X160636912Y-91863174D01*
X160656792Y-91860664D01*
X160700122Y-91843507D01*
X160705646Y-91841617D01*
X160709396Y-91840527D01*
X160750390Y-91828618D01*
X160767629Y-91818422D01*
X160785103Y-91809862D01*
X160803727Y-91802488D01*
X160803727Y-91802487D01*
X160803732Y-91802486D01*
X160841449Y-91775082D01*
X160846305Y-91771892D01*
X160886420Y-91748170D01*
X160900589Y-91733999D01*
X160915379Y-91721368D01*
X160931587Y-91709594D01*
X160961299Y-91673676D01*
X160965212Y-91669376D01*
X165932771Y-86701819D01*
X165994094Y-86668334D01*
X166020452Y-86665500D01*
X188474773Y-86665500D01*
X188541812Y-86685185D01*
G37*
%TD.AperFunction*%
%TD*%
M02*
