%TF.GenerationSoftware,KiCad,Pcbnew,7.0.9*%
%TF.CreationDate,2023-12-03T20:45:46+01:00*%
%TF.ProjectId,Automatic_sampler_logic,4175746f-6d61-4746-9963-5f73616d706c,rev?*%
%TF.SameCoordinates,Original*%
%TF.FileFunction,Soldermask,Bot*%
%TF.FilePolarity,Negative*%
%FSLAX46Y46*%
G04 Gerber Fmt 4.6, Leading zero omitted, Abs format (unit mm)*
G04 Created by KiCad (PCBNEW 7.0.9) date 2023-12-03 20:45:46*
%MOMM*%
%LPD*%
G01*
G04 APERTURE LIST*
%ADD10R,1.905000X2.000000*%
%ADD11O,1.905000X2.000000*%
%ADD12R,1.600000X1.600000*%
%ADD13O,1.600000X1.600000*%
%ADD14R,1.700000X1.700000*%
%ADD15O,1.700000X1.700000*%
%ADD16R,1.524000X1.524000*%
%ADD17C,1.524000*%
%ADD18O,1.800000X1.800000*%
%ADD19O,1.500000X1.500000*%
G04 APERTURE END LIST*
D10*
%TO.C,U5*%
X133950000Y-54660000D03*
D11*
X136490000Y-54660000D03*
X139030000Y-54660000D03*
%TD*%
D12*
%TO.C,A2*%
X118250000Y-113020000D03*
D13*
X118250000Y-115560000D03*
X118250000Y-118100000D03*
X118250000Y-120640000D03*
X118250000Y-123180000D03*
X118250000Y-125720000D03*
X118250000Y-128260000D03*
X118250000Y-130800000D03*
X130950000Y-130800000D03*
X130950000Y-128260000D03*
X130950000Y-125720000D03*
X130950000Y-123180000D03*
X130950000Y-120640000D03*
X130950000Y-118100000D03*
X130950000Y-115560000D03*
X130950000Y-113020000D03*
%TD*%
D14*
%TO.C,J6*%
X139225000Y-69835000D03*
D15*
X139225000Y-72375000D03*
X139225000Y-74915000D03*
X139225000Y-77455000D03*
X139225000Y-79995000D03*
X139225000Y-82535000D03*
%TD*%
D14*
%TO.C,J1*%
X105450000Y-125780000D03*
D15*
X105450000Y-123240000D03*
X105450000Y-120700000D03*
X105450000Y-118160000D03*
X105450000Y-115620000D03*
%TD*%
D14*
%TO.C,J4*%
X122700000Y-54910000D03*
D15*
X120160000Y-54910000D03*
%TD*%
D14*
%TO.C,J8*%
X175450000Y-82660000D03*
%TD*%
%TO.C,J7*%
X150610000Y-54910000D03*
D15*
X153150000Y-54910000D03*
X155690000Y-54910000D03*
%TD*%
D16*
%TO.C,A1*%
X152300000Y-118710000D03*
D17*
X149760000Y-118710000D03*
X147220000Y-118710000D03*
X144680000Y-118710000D03*
X142140000Y-118710000D03*
X139600000Y-118710000D03*
%TD*%
D14*
%TO.C,J2*%
X110700000Y-100490000D03*
D15*
X110700000Y-97950000D03*
X110700000Y-95410000D03*
X110700000Y-92870000D03*
X110700000Y-90330000D03*
%TD*%
D14*
%TO.C,J9*%
X112200000Y-125780000D03*
D15*
X112200000Y-123240000D03*
X112200000Y-120700000D03*
X112200000Y-118160000D03*
X112200000Y-115620000D03*
%TD*%
D14*
%TO.C,J5*%
X175450000Y-110490000D03*
D15*
X175450000Y-107950000D03*
X175450000Y-105410000D03*
%TD*%
D18*
%TO.C,U4*%
X154750000Y-62380000D03*
D19*
X155050000Y-65410000D03*
X159900000Y-65410000D03*
D18*
X160200000Y-62380000D03*
D15*
X148585000Y-62250000D03*
X148585000Y-64790000D03*
D14*
X148585000Y-67330000D03*
D15*
X148585000Y-69870000D03*
X148585000Y-72410000D03*
X148585000Y-74950000D03*
X148585000Y-77490000D03*
D14*
X148585000Y-80030000D03*
D15*
X148585000Y-82570000D03*
X148585000Y-85110000D03*
X148585000Y-87650000D03*
X148585000Y-90190000D03*
D14*
X148585000Y-92730000D03*
D15*
X148585000Y-95270000D03*
X148585000Y-97810000D03*
X148585000Y-100350000D03*
X148585000Y-102890000D03*
D14*
X148585000Y-105430000D03*
D15*
X148585000Y-107970000D03*
X148585000Y-110510000D03*
X166365000Y-110510000D03*
X166365000Y-107970000D03*
D14*
X166365000Y-105430000D03*
D15*
X166365000Y-102890000D03*
X166365000Y-100350000D03*
X166365000Y-97810000D03*
X166365000Y-95270000D03*
D14*
X166365000Y-92730000D03*
D15*
X166365000Y-90190000D03*
X166365000Y-87650000D03*
X166365000Y-85110000D03*
X166365000Y-82570000D03*
D14*
X166365000Y-80030000D03*
D15*
X166365000Y-77490000D03*
X166365000Y-74950000D03*
X166365000Y-72410000D03*
X166365000Y-69870000D03*
D14*
X166365000Y-67330000D03*
D15*
X166365000Y-64790000D03*
X166365000Y-62250000D03*
X154935000Y-110280000D03*
D14*
X157475000Y-110280000D03*
D15*
X160015000Y-110280000D03*
%TD*%
D12*
%TO.C,A4*%
X118360000Y-62770000D03*
D13*
X118360000Y-65310000D03*
X118360000Y-67850000D03*
X118360000Y-70390000D03*
X118360000Y-72930000D03*
X118360000Y-75470000D03*
X118360000Y-78010000D03*
X118360000Y-80550000D03*
X131060000Y-80550000D03*
X131060000Y-78010000D03*
X131060000Y-75470000D03*
X131060000Y-72930000D03*
X131060000Y-70390000D03*
X131060000Y-67850000D03*
X131060000Y-65310000D03*
X131060000Y-62770000D03*
%TD*%
D12*
%TO.C,A3*%
X118360000Y-87770000D03*
D13*
X118360000Y-90310000D03*
X118360000Y-92850000D03*
X118360000Y-95390000D03*
X118360000Y-97930000D03*
X118360000Y-100470000D03*
X118360000Y-103010000D03*
X118360000Y-105550000D03*
X131060000Y-105550000D03*
X131060000Y-103010000D03*
X131060000Y-100470000D03*
X131060000Y-97930000D03*
X131060000Y-95390000D03*
X131060000Y-92850000D03*
X131060000Y-90310000D03*
X131060000Y-87770000D03*
%TD*%
D14*
%TO.C,J3*%
X110450000Y-75490000D03*
D15*
X110450000Y-72950000D03*
X110450000Y-70410000D03*
X110450000Y-67870000D03*
X110450000Y-65330000D03*
%TD*%
M02*
